<?xml version="1.0" encoding="UTF-8"?>
<svg id="Capa_2" data-name="Capa 2" xmlns="http://www.w3.org/2000/svg" viewBox="0 0 296.91 451.37">
  <g id="Capa_1-2" data-name="Capa 1">
    <g>
      <ellipse cx="141.66" cy="435.95" rx="141.66" ry="15.43" style="fill: #d6e4ac; isolation: isolate; opacity: .3;"/>
      <path d="M160.38,175.82c5.2.85,7.04,9.22,2.79,16.93-3.1,7.92-24.34,31.5-46.92,36.64-21.48,5.96-39.3.78-47.74-4.88-.06-.04-.66-5.44,4.11-7.6-.6-1.1,12.26,9.58,41.87-.54,27.73-12.44,31.33-27.68,33.82-32.27,3.51-6.48,8.8-8.85,12.08-8.27Z" style="fill: #edbaa3;"/>
      <g>
        <path d="M95.58,428.19s-.21,6.1.87,7.39c1.07,1.29,25.72,3.01,27.25.71,1.53-2.3-8.54-4.62-10.45-6.96s-.95-4.66-6.21-4.62c-5.26.04-11.46,3.47-11.46,3.47Z" style="fill: #62344a;"/>
        <path d="M33.97,407.7s-5.77,4.46-6.25,6.12c-.47,1.66,12.19,21.55,14.91,21.33,2.72-.22-.85-9.69.02-12.67.87-2.98,2.28-5.41-.62-9.57-2.9-4.16-8.06-5.21-8.06-5.21Z" style="fill: #62344a;"/>
        <path d="M64.01,264.99c-.86,10.87.51,66.81-5.54,79.15s-29.99,66.36-29.99,66.36c0,0,9.48,12.62,15.71,12.84,4.31.15,34.19-65.27,37.43-72.05,6.12-12.78,16.31-71.95,19.17-73.82,3.89-2.55,11.62,48.41,11.76,59.8.07,5.39-22.43,90.32-19.35,93.02s15.88-.65,20.31-1.39,24.36-79.46,25.16-88.89c1.34-15.72-1.02-47.9-9.17-73.13-2.53-7.82-4.73-29.07-5.53-30.06-2.55-3.15-32.5-2.9-50.81.58-5.51,1.05-8.2,15.28-9.16,27.59Z" style="fill: #2d2433;"/>
        <g>
          <path d="M115.6,104.07c-.36-5.03-2.17-9.65-4.37-13.83-.4-.76-.82-1.53-1.44-2.05s-1.46-.74-2.18-.34c-.75.42-1.18,1.4-1.39,2.34-.43,2-.1,4.06.24,6.03.89,5.18,1.78,10.35,2.67,15.53.3,1.74.62,3.56,1.42,5.06,1.13,2.12,2.07.13,2.92-1.5,1.75-3.38,2.4-7.45,2.13-11.25Z" style="fill: #2d2433;"/>
          <g>
            <polygon points="93.49 157.01 81.71 157.58 81.08 145.11 92.86 144.53 93.49 157.01" style="fill: #e4a791;"/>
            <path d="M85.17,150.82c-1.24-.22-2.47-.47-3.7-.71-.04,0-.09-.02-.13-.02l-.25-4.98,11.78-.57.33,6.51c-2.65.4-5.4.23-8.02-.22Z" style="fill: #a34b5f; isolation: isolate; opacity: .3;"/>
          </g>
          <path d="M66.17,133.73c.85,1.84,1.81,3.61,2.84,5.26,3.11,5.01,7.62,7.57,12.81,8.82,3.07.74,6.37,1.03,9.77,1.11,4.27,0,7.85-.51,10.8-1.79,5.61-2.42,8.99-7.57,10.61-17.08.05-.29.1-.59.13-.89h0c1.59-10.44,2.34-27.68-5.72-36.69-11.28-13.99-33.6-12.94-42.69,2.27-6.03,10.58-4.34,26.6,1.44,38.99Z" style="fill: #e4a791;"/>
          <path d="M115.65,78.5c-4.23-5.09-4.92.81-9.26,2.37-7.37-.24-24.06-5.36-35.56-3.52-7.07,1.13-12.2,6.77-11.91,12.22-10.81-2.82-7.05,24.15-2.98,27.63,4.12,5.67,4.34,3.56,8.72,4.98,2.91,6.06,5.28-.26,4.23-6.25-.2-2,.31-2.3,1.37-5.5,5.11-9.02-1.38-10.86,2.19-14.63,3.48-3.3,35.46,13.51,26.93,1.71,5.4,3.16,26.21,2.26,12.68-5.21,6.9-.65,7.82-8.87,3.59-13.81Z" style="fill: #2d2433;"/>
          <g>
            <g>
              <path d="M96.78,131.06c-3.02-.36-4.3-2.7-6.73-.92-1.94,1.42-.42,5.34,5.75,5.93,5.99.58,6.95-3.37,5.79-4.63-1.16-1.26-1.78,0-4.82-.37Z" style="fill: #a34b5f;"/>
              <path d="M90.48,131.8c1.65.03,3.32.77,4.56,1.8.78.65,1.46,1.54,1.45,2.5-.23,0-.44-.01-.68-.04-4.27-.41-6.31-2.42-6.52-4.08.38-.13.78-.19,1.19-.18Z" style="fill: #dd6b7d;"/>
            </g>
            <path d="M85.76,107.5c-5.2-1.31-8.62,4.25-7.17,4.78.84.3,2.52-3.33,7.53-2.07,1.73.43,2.64.56,3.2.05.56-.51-.16-1.89-3.56-2.76Z" style="fill: #2d2433;"/>
            <path d="M105.5,106.51c4.36-1.28,6.77,3.11,6,4.3-.44.69-1.82-3.15-5.85-1.57-1.39.54-2.14.73-2.65.26-.51-.47-.32-2.16,2.5-2.99Z" style="fill: #2d2433;"/>
            <path d="M88.67,122.37c.09-.43-.2-1.23-.56-1.6-.85-.86-2.08-1.04-3.21-.64-.68.24-1.29.66-1.79,1.2-.53.57-.86,1.25-1.17,1.97-.16.37.18.58.37.29.69-1.04,1.67-2.26,2.87-2.63,1.04-.32,2.13-.06,2.59.98.1.23.18.6.4.76.21.15.44-.04.49-.32Z" style="fill: #2d2433;"/>
            <path d="M108.56,121.58c.08-.38-.16-1.11-.48-1.44-.74-.77-1.83-.92-2.83-.55-.61.22-1.14.61-1.59,1.1-.47.52-.77,1.14-1.05,1.79-.14.33.15.52.32.26.61-.95,1.49-2.05,2.56-2.4.92-.3,1.88-.08,2.28.86.09.21.15.54.35.68.19.13.38-.04.44-.3Z" style="fill: #2d2433;"/>
            <path d="M100.24,123.64c-.74-.04-1.52.37-2.25.16-.95-.27-.65-1.76-.63-2.49.03-.88.05-1.76.08-2.63.03-.87.12-1.84-.21-2.66-.04-.11-.22-.15-.27-.02-.29.66-.31,1.41-.34,2.12-.03.84-.04,1.68-.06,2.51-.02,1.08-.42,2.97.71,3.65.46.28,1.01.27,1.53.19.75-.13,1.66-.54,2.26.13,1.17,1.3-.38,2.74-1.46,3.37-.2.12-.04.46.18.37,1.08-.42,2.14-1.29,2.22-2.52.07-1.09-.63-2.11-1.76-2.16Z" style="fill: #a34b5f; isolation: isolate; opacity: .45;"/>
          </g>
          <g>
            <path d="M66.61,130.03c-.77,2.64-4.88,3.75-8.34,1.56-3.46-2.19-6.21-9.15-3.88-13.1,2.32-3.95,8.33-2.5,10.79,1.98,1.85,3.38,2.03,7.51,1.43,9.56Z" style="fill: #e4a791;"/>
            <path d="M56.81,120.97c-.14-.13-.09-.38.09-.43.79-.24,1.69.24,2.37.61.75.42,1.45.95,2.03,1.59,1.18,1.28,2.01,3.01,2.05,4.78,0,.33-.49.45-.58.11-.4-1.57-1.03-3.04-2.14-4.22-.15-.16-.32-.29-.48-.44-.06.08-.13.16-.19.24-.11.14-.22.28-.33.42-.22.29-.4.6-.57.91-.35.64-.54,1.36-.94,1.98-.07.11-.3.14-.33-.03-.16-.82.17-1.63.55-2.33.19-.36.43-.7.68-1.01.12-.15.25-.3.39-.44.07-.06.13-.12.2-.18-.25-.19-.51-.37-.78-.52-.65-.36-1.47-.53-2.03-1.03Z" style="fill: #a34b5f; isolation: isolate; opacity: .45;"/>
          </g>
        </g>
        <path d="M105.76,161.7c-3.72.85-5.43,11.17-1.32,19.8,4.12,8.63,16.36,34.89,26.4,38.93,10.04,4.03,49.37,8.14,49.37,8.14,0,0,6.34-9.2-1.25-14.29,0,0-32.49-6.87-38.98-9.33-4.77-1.81-14.49-20.18-16-24.71-1.51-4.53-4.75-21.6-18.22-18.53Z" style="fill: #8d99af;"/>
        <path d="M114.81,165.07c-6.76-5.68-43.04-9.8-51.37-.93-8.33,8.87-1.71,40.78,3.43,58.43,4.99,17.16-1.73,20.33,1.64,23.55,3.29,3.13,15.09,6.07,34.71,2.83,17.58-2.9,21.83-4.65,21.83-8.59,0-1.52-3.73-13.76-4.44-27.15-.35-6.55-3.3-46.05-5.79-48.15Z" style="fill: #fff;"/>
        <path d="M93.36,166.59c1.4,4.28,2.15,8.86,2.94,13.32.79,4.49,1.45,9.01,1.97,13.55,1.04,9.05,1.57,18.19,1.52,27.35-.03,5.22-.21,10.44-.76,15.66-.03.29-.45.3-.44,0,.3-9.18.53-18.34.09-27.48-.44-9.13-1.43-18.2-2.94-27.15-.43-2.51-.89-5.01-1.4-7.5-.52-2.53-1.12-5.04-1.52-7.6-.06-.36.43-.51.54-.16Z" style="fill: #475765; isolation: isolate; opacity: .2;"/>
        <g>
          <path d="M53.9,161.48c-5.06,9.83,7.48,35.74,9.33,59.16,1.85,23.42-6.41,42.56-6.62,45.03-.21,2.47,29.71,4.2,38.31-8.26,8.6-12.45,5.66-25.35,5.12-44.42-.54-19.07-20.37-51.6-21.17-54.25.2-1.01-19.91-7.09-24.97,2.73Z" style="fill: #b1b4c4;"/>
          <path d="M101.94,218.36c-.52.55-22.07-28.55-23.1-31.18s3.51-11.58,2.74-12.54c-.77-.96-6.85,2.23-8.1,1.51-1.26-.72-1.89-9.02-.38-13.05,1.5-4.03,4.14-9.57,9.18-2.25,2.05,2.99,6.54,14.51,10.71,26.25,5.26,14.81,9.87,30.3,8.94,31.26Z" style="fill: #8d99af;"/>
        </g>
        <g>
          <path d="M96.66,159.35c3.34,1.6,12.09,19.51,1.97,51.24-6.29,19.75,6.83,36.75,11.04,43.44,4.2,6.68,13.56,9.6,18.89,7.44,5.33-2.16,2.51-19.57-.21-43.89-2.72-24.32-8.43-54.34-16.14-56.88-7.93-2.61-15.7-1.98-15.55-1.35Z" style="fill: #b1b4c4;"/>
          <path d="M97.68,216.45c2.09.29,15.51-28.28,15.6-30.9.09-2.62-7.11-11.59-6.75-12.8s4.86,1.23,5.7-.09-3.37-9.29-6.73-11.74c-2.75-2.01-8.34-5.77-7.04,1.16.84,4.5,4.32,13.92,3.68,26.21-.7,13.4-5.45,28.02-4.46,28.16Z" style="fill: #8d99af;"/>
        </g>
        <g>
          <g>
            <path d="M88.51,155.66c-1.41-1.01-6.31-3.36-8.18-1.99-1.87,1.37-2.12,3.56-1.33,4.97s6.8,5.2,10.29,4.46c2.1-.44.22-6.73-.78-7.44Z" style="fill: #f8eddc;"/>
            <path d="M88.51,155.66c-1.41-1.01-8.19-4.88-10.06-3.51-1.87,1.37-3.7,5.08-2.91,6.49.79,1.41,6.93,5.58,10.42,4.85,2.1-.44,3.55-7.12,2.55-7.83Z" style="fill: #fff;"/>
            <path d="M90.62,156.12c.81-1.1,3.73-3.8,5-2.57,1.27,1.23,1.58,3.4,1.19,4.86s-4.37,5.18-6.62,4.7c-1.35-.29-.15-6.21.43-6.99Z" style="fill: #f8eddc;"/>
            <path d="M90.62,156.12c.81-1.1,1.94-4.34,4.21-4.16,1.71.14,3.97,4.15,3.53,5.63-.57,1.94-2.18,5.84-4.38,5.51-2.2-.33-3.94-6.21-3.37-6.99Z" style="fill: #fff;"/>
          </g>
          <g>
            <path d="M85.34,167.1c-.88.31-1.81.49-2.71.26-.9-.24-1.76-.95-2.08-1.99s.03-2.37.87-2.79c-1.11-.05-1.9-1.63-1.63-2.92s1.32-2.17,2.41-2.42,2.22.04,3.29.41c1.71.59,3.48,1.49,4.44,3.3.28.54.49,1.15.47,1.78-.04,2.16-3.61,3.85-5.06,4.37Z" style="fill: #3a314b;"/>
            <path d="M94.88,166.24c.81.21,1.67.3,2.46.02.79-.28,1.5-.99,1.71-1.95s-.21-2.12-1-2.44c.99-.13,1.57-1.61,1.23-2.75s-1.35-1.85-2.35-1.98c-1-.13-1.99.21-2.93.63-1.49.66-3.01,1.61-3.73,3.31-.21.5-.35,1.07-.29,1.64.21,1.94,3.54,3.18,4.89,3.52Z" style="fill: #3a314b;"/>
            <path d="M92.74,162.73c-.14,1.19-.92,2.31-1.92,2.43-1.12.14-2.15-.97-2.54-2.25-.27-.9-.3-1.93.01-2.8.32-.87.99-1.56,1.78-1.69,1.88-.31,2.88,2.45,2.66,4.31Z" style="fill: #2d2433;"/>
          </g>
        </g>
        <g>
          <path d="M44.42,42.66c2.08-3.5,6.08-8.07,8.4-10.21,2.46-2.27,3.38-1.97,2.07.03-1.26,1.91-2.99,3.83-2.63,4.11.18.15,1.16-1.48,3.12-3.22,2.28-2.02,4.19-3.4,4.72-2.49.53.91-3.78,5.48-4.97,7.15-1.42,1.43,4.09-3.46,6.67-4.7,2.74-1.53,4.1-.56,1.18,1.86-2.87,2.5-4.95,4.47-5.31,5.4.93-.26,1.75-.96,5.51-3.22,2.88-1.57,3.84-.24,1.47,1.81-2.88,2.45-7.65,5.56-7.15,6.73.71.62,1.75-.41,5.26-.61,3.54-.17-.46,1.82-3.46,3.38-3.17,1.55-5.79,4.39-7.87,5.9-2.82,2.02-3.7,3.51-6.53,1.61-1.65-1.11-4.56-2.46-4.63-5.1-.06-2.12,2.32-5.25,4.15-8.43Z" style="fill: #e4a791;"/>
          <path d="M52.66,42.21c-.01-.31-.48-.31-.48,0-.03,1.5-.21,2.99-.54,4.46-.16.71-.35,1.4-.57,2.1-.22.71-.48,1.43-.58,2.17-.02.18.21.41.37.21.91-1.18,1.27-2.83,1.51-4.28.26-1.54.36-3.1.29-4.66Z" style="fill: #a34b5f; isolation: isolate; opacity: .5;"/>
          <path d="M62.93,168.55c-.44,4.56-4.05,10.76-7.62,11.23-3.46.45-10.53-7.29-13.53-11.26-7.03-9.29-22.5-23.95-26.81-54.21s15.82-57.93,23.51-66.81c.05-.07,11.31,2.05,13.13,7.8,1.36-.54-20.87,27.14-16.78,53.89,4.09,26.75,17.07,38.33,22.01,41.8,6.96,4.89,6.54,12.99,6.09,17.55Z" style="fill: #8d99af;"/>
          <path d="M34.84,49.55c-.33-1.02,2.52-4.2,3.74-4.77,1.22-.57,4.04-.76,9.36,3.12,5.32,3.88,6.48,6.34,6.66,8.41.18,2.06-2.25,4.52-3.75,4.68-1.5.16-4.15-4.71-7.76-7.47-3.38-2.59-7.93-2.95-8.26-3.97Z" style="fill: #fff;"/>
        </g>
        <path d="M70.73,220.87c-.47-.34-3.48-1.21-5-1.37.95.08,1.68.09,2.59.24,1.01.16,2.7.71,2.87-.15.17-.86-.77-1.94-2.24-2.81-1.74-1.02-3.3-1.25-4-1.4-.74-.16-2.1.08-2.65,1.55-.98,2.63-1.69,5.45-1.8,8.19-.13,3.04,1.05,3.27,2.35,4.1,1.63,1.04,5.31-.02,5.59-1.44.28-1.42-2.53-.26-4.4-1.53,1.38.94,5.63.27,6.32-1.31.36-.83-.53-1.02-1.01-1.06-1.42-.12-2.95.2-4.25-.61,1.15.21,4.39.44,5.49-.26,1.03-.66.68-1.76.15-2.15Z" style="fill: #edbaa3;"/>
      </g>
      <g>
        <g>
          <path d="M119.48,38.89c-2.13-2.07-3.42-4.85-4.44-7.63,4.25.56,8.36,2.9,10.87,6.36.96,1.32,1.48,3.58-.74,3.97-1.91.33-4.42-1.47-5.69-2.7Z" style="fill: #a0d9c8;"/>
          <path d="M119.13,41.3c-1.89.38-3.49,1.45-4.63,2.77-1.14,1.32-1.86,2.89-2.39,4.49,2.65.05,5.38.08,7.81-.74,2.04-.69,4.18-2.3,4.44-4.3.29-2.25-3.24-2.61-5.22-2.22Z" style="fill: #a0d9c8;"/>
          <path d="M164.23,19.99c2.95.38,5.64,1.82,8.13,3.43-3.73,2.11-8.42,2.71-12.51,1.44-1.55-.48-3.34-1.98-1.8-3.62,1.33-1.42,4.42-1.48,6.17-1.26Z" style="fill: #a0d9c8;"/>
          <path d="M163.42,19.96c1.28-1.43,1.92-3.25,2.04-5s-.25-3.43-.78-5.02c-2.15,1.55-4.35,3.16-5.8,5.28-1.22,1.78-1.96,4.35-.96,6.1,1.12,1.97,4.15.14,5.5-1.37Z" style="fill: #a0d9c8;"/>
          <path d="M156.15,16.78c-.36-1.89-1.42-3.5-2.74-4.65-1.32-1.15-2.88-1.88-4.47-2.42-.07,2.65-.12,5.38.69,7.81.68,2.05,2.27,4.2,4.27,4.46,2.24.3,2.63-3.22,2.25-5.2Z" style="fill: #a0d9c8;"/>
          <path d="M145.37,16.14c.4-1.88.04-3.78-.73-5.35-.77-1.57-1.93-2.84-3.19-3.96-1.08,2.42-2.19,4.91-2.38,7.47-.16,2.15.48,4.75,2.22,5.77,1.95,1.14,3.67-1.96,4.08-3.93Z" style="fill: #a0d9c8;"/>
          <path d="M137.59,17.98c-.74-2.01-2.19-3.74-4.03-4.84-1.84-1.1-4.05-1.55-6.17-1.25.4,2.86,1.54,5.62,3.29,7.92.83,1.1,1.84,2.12,3.1,2.67,3.59,1.58,4.95-1.44,3.81-4.5Z" style="fill: #a0d9c8;"/>
          <path d="M131.95,18.33c-1.95-.88-4.2-1.07-6.28-.54-2.07.53-3.95,1.79-5.23,3.51,2.32,1.73,5.08,2.85,7.95,3.22,1.37.18,2.79.18,4.08-.33,3.65-1.44,2.45-4.53-.52-5.87Z" style="fill: #a0d9c8;"/>
          <path d="M125.02,53.9c-2.06.59-3.9,1.89-5.14,3.64s-1.86,3.92-1.73,6.06c2.89-.17,5.72-1.1,8.16-2.66,1.16-.75,2.25-1.66,2.91-2.88,1.86-3.46-1.05-5.04-4.19-4.15Z" style="fill: #a0d9c8;"/>
          <path d="M122.15,47.36c-1.72,1.03-2.91,2.8-3.58,4.69-.12.33-.2.73.04.98.21.22.55.21.85.17,2.63-.35,5.15-1.5,7.13-3.27,3.78-3.38-2.08-3.98-4.44-2.57Z" style="fill: #a0d9c8;"/>
          <path d="M134.02,65.97c1.36,1.48,3.32,2.29,5.31,2.57.34.05.76.05.96-.23.17-.25.09-.58,0-.86-.87-2.51-2.51-4.75-4.64-6.33-4.07-3.03-3.48,2.84-1.62,4.86Z" style="fill: #a0d9c8;"/>
          <path d="M123.81,46.88c-1.28.69-1.86,2.43-1.25,3.75.61,1.32,2.32,2,3.67,1.47s2.14-2.19,1.7-3.57c.58,1.02,1.21,2.09,2.24,2.67,1.03.57,2.57.41,3.08-.65.29-.6.19-1.32,0-1.96-.41-1.39-1.19-2.66-2.25-3.64,1.11.4,2.28.8,3.43.56s2.21-1.37,1.91-2.5c-.25-.95-1.28-1.47-2.24-1.7-1.94-.47-3.11-.54-4.93.26.86-1.23,1.04-2.88.75-4.35-.16-.79-.56-1.61-1.31-1.9-.89-.33-1.9.26-2.38,1.08-.47.82-.53,1.81-.57,2.75-.52-.8-1.07-1.63-1.87-2.16-.8-.53-1.92-.7-2.7-.15-.85.6-1,1.86-.62,2.83s1.16,1.72,1.93,2.42c-1.42-.19-2.93.4-3.58,1.68-.59,1.18.39,2.66,1.64,3.08,1.25.42,2.07.32,3.35,0Z" style="fill: #dd6b7d;"/>
          <path d="M132.84,58.64c.43-.13.75-.5.91-.92s.2-.87.21-1.31c.02-.57-.03-1.22-.46-1.6-.49-.43-1.27-.3-1.83.04-.94.56-1.33,1.57-1.32,2.66-.18-1.35-.92-2.62-2.01-3.44-.68-.52-1.66-.85-2.37-.38-.56.37-.75,1.11-.73,1.78.03,1.32.71,2.43,1.79,3.2-1.13-.85-2.63-1.17-4-.88-.79.17-1.63.67-1.71,1.48-.08.78.61,1.42,1.29,1.8,1.02.56,2.3.9,3.46.85-1.17.13-2.3.54-3.28,1.19-.49.32-.96.73-1.16,1.28-.21.55-.07,1.26.44,1.56.36.21.8.17,1.21.1,1.55-.26,2.98-.51,4.29-1.4-.08,1.61.45,3.24,1.46,4.49.44.54,1.2,1.05,1.79.67.34-.22.46-.67.53-1.07.21-1.33.16-2.69-.15-4,.89,1.07,2.05,2.18,3.44,2.09.57-.04,1.18-.35,1.34-.91.11-.4-.03-.82-.21-1.2-.52-1.11-1.34-2.09-2.35-2.79,1.22.13,2.56-.63,3.45-1.48.41-.39.75-.99.52-1.5-.18-.38-.61-.57-1.01-.68-1.25-.34-2.31-.06-3.53.37Z" style="fill: #dd6b7d;"/>
          <path d="M160.34,16.38c.43-.13.75-.5.91-.92.17-.41.2-.87.21-1.31.02-.57-.03-1.22-.46-1.6-.49-.43-1.27-.3-1.83.04-.94.56-1.33,1.57-1.32,2.66-.18-1.35-.92-2.62-2.01-3.44-.68-.52-1.66-.85-2.37-.38-.56.37-.75,1.11-.73,1.78.03,1.32.71,2.43,1.79,3.2-1.13-.85-2.63-1.17-4-.88-.79.17-1.63.67-1.71,1.48-.08.78.61,1.42,1.29,1.8,1.02.56,2.3.9,3.46.85-1.17.13-2.3.54-3.28,1.19-.49.33-.96.73-1.16,1.28s-.07,1.26.44,1.56c.36.21.8.17,1.21.1,1.55-.26,2.98-.51,4.29-1.4-.08,1.61.45,3.24,1.46,4.49.44.54,1.2,1.05,1.79.67.34-.22.46-.67.53-1.07.21-1.33.16-2.69-.14-4,.89,1.07,2.05,2.18,3.44,2.09.57-.04,1.18-.35,1.34-.91.11-.4-.03-.82-.21-1.2-.52-1.11-1.34-2.09-2.35-2.79,1.22.13,2.56-.63,3.45-1.48.41-.39.75-.99.52-1.5-.18-.38-.61-.57-1.01-.68-1.25-.34-2.31-.06-3.53.37Z" style="fill: #dd6b7d;"/>
          <path d="M135.22,16c-.59-.9-.81-2.04-.61-3.09.09-.48.35-1,.82-1.09.34-.06.68.14.94.36,1.01.87,1.52,2.12,1.22,3.41.23-.51.46-1.03.68-1.54.27-.6.55-1.23,1.05-1.66s1.29-.61,1.82-.22c.61.43.63,1.33.49,2.07-.19,1-.47,1.72-1,2.6,1.11-1.01,2.62-1.55,4.12-1.47.39.02.82.11,1.02.44.27.43-.02.99-.34,1.39-.95,1.22-2.25,2.08-3.64,2.77,1,.41,1.93,1.02,2.7,1.78.36.36.71.78.74,1.29.04.7-.54,1.3-1.18,1.6-1.54.71-3.85-.15-4.68-1.62-.25,1.01-.58,2.01-.99,2.97-.24.58-.53,1.16-.99,1.58-.47.42-1.15.64-1.73.4-.78-.32-1.04-1.29-1.06-2.13-.03-1.63.65-3.12,1.66-4.4-1.48,1.15-3.48,1.61-5.32,1.21-.45-.1-.95-.3-1.11-.73-.21-.59.31-1.17.82-1.53,1.43-1.03,3.11-1.7,4.85-1.94-1.54.23-3.21-.15-4.15-1.4-.31-.41-.54-1.02-.19-1.41.15-.17.38-.25.6-.3,1.14-.28,2.39.19,3.45.67Z" style="fill: #dd6b7d;"/>
        </g>
        <path d="M164.07,52.01c-.03.05-.07.09-.1.14-7.46,9.94-19.05,12.42-24.64,12.42s-13.88-.62-16.57-7.45c-1.81-4.61,1.83-7.61,4.21-10.22,1.15-1.26,2-2.44,1.8-3.65-.07-.43-.22-.8-.44-1.13-1.64-2.55-7.05-2.74-8.88-8.6-2.07-6.63,4.56-15.95,13.46-15.74,3.36.08,5.28,1.02,6.45,2.15,1.93,1.84,1.84,4.19,2.87,4.06,1.35-.16-1.45-3.66.21-6.29.37-.58.96-1.13,1.86-1.58,4.97-2.48,11.18-5.17,15.73,2.28,2.9,4.74,6.71,13.06,7.19,21.04.28,4.54-.51,8.97-3.15,12.57Z" style="fill: #fff;"/>
        <path d="M189.23,50.7c-1.23,3.95-4.43,3.06-6.18,3.29-.91.12-1.43.54-1.07,2.1.11.49.2.99.26,1.49.53,4.1-.81,7.95-7.09,3.89-3.76-2.44-8.21-5.96-11.08-9.46-2.5-3.05-3.79-6.08-2.38-8.35,1.27-2.04,3.25-3.32,5.53-4.22,4.41-1.74,9.89-2.08,13.31-3.85,5.08-2.64,6.97,2.09,6.84,4.62,0,.05-.01.1-.01.14-.09,1.11.65,2.09,1.31,3.38.85,1.59,1.59,3.65.56,6.97Z" style="fill: #fff;"/>
        <path d="M159.31,38.76c2.26-1.97,5.74-2.53,8.38-1.11.45.24.92.61.97,1.12.04.4-.19.76-.4,1.1-2.12,3.47-3,7.68-2.43,11.7.35,2.45-.88,4.53-3.69,4.2-1.94-.23-2.63-1.73-3.5-3.28-2.45-4.39-3.65-9.96.67-13.73Z" style="fill: #dd6b7d;"/>
        <path d="M149.29,47.3c-.43.31-1.03.47-1.62.61-6.07,1.44-14.35.98-20.7-1.01,1.15-1.26,2-2.44,1.8-3.65-.07-.43-.22-.8-.44-1.13.44,0,.88.04,1.31.08,6.18.62,12.31,1.65,18.29,3.06.68.16,1.44.38,1.74.84.27.41.05.9-.38,1.2Z" style="fill: #e4a791; isolation: isolate; opacity: .15;"/>
        <path d="M157.89,36.79c-1.52,1.25-9.18-3.82-12.6-7.85-2.29-2.7-4.2-5.78-5.93-9.01,1.93,1.84,1.84,4.19,2.87,4.06,1.35-.16-1.45-3.66.21-6.29,2.56,3.52,5.32,6.85,8.07,10.17,2.46,2.97,8.9,7.67,7.38,8.92Z" style="fill: #e4a791; isolation: isolate; opacity: .15;"/>
        <path d="M181.98,56.09c.11.49.2.99.26,1.49-4.33-1.64-8.64-3.32-12.95-5.02-.51-.21-1.04-.42-1.44-.79-.41-.37-.67-.95-.53-1.48.28-1.03,1.69-1.13,2.75-.98,4.34.66,8.76,2.83,12.98,4.68-.91.12-1.43.54-1.07,2.1Z" style="fill: #e4a791; isolation: isolate; opacity: .15;"/>
        <path d="M188.67,43.73c-4.65.64-9.4.58-14.04-.16-1.69-.28-4.66-.74-4.62-1.98s11.57-.92,17.36-1.38c0,.05-.01.1-.01.14-.09,1.11.65,2.09,1.31,3.38Z" style="fill: #e4a791; isolation: isolate; opacity: .15;"/>
        <g>
          <path d="M84.5,32.37c-.44-.61-.79-1.34-.73-2.09.06-.75.64-1.5,1.39-1.53.76-.04,1.38.61,1.73,1.28.35.67.56,1.43,1.05,2,.58.67,4.45,2.72,1.49,3-1.85.18-3.9-1.23-4.94-2.65Z" style="fill: #dd6b7d;"/>
          <path d="M86.22,19.1c1.97-.2,4.02.6,5.32,2.09.42.48.77,1.19.41,1.72-.32.46-.98.49-1.54.41-1.53-.21-2.98-.81-4.49-1.14-.94-.21-1.81-.19-2.76-.17-.82.02-1.45.25-.99-.83.52-1.23,2.87-1.97,4.04-2.09Z" style="fill: #dd6b7d;"/>
          <path d="M131.34,4.38c-1.69,1.03-3.88,1.19-5.7.42-.59-.25-1.21-.75-1.12-1.38.08-.55.68-.86,1.21-1.03,1.47-.47,3.04-.56,4.54-.92.93-.22,1.71-.61,2.56-1.04.73-.38,1.2-.85,1.25.32.06,1.33-1.74,3.02-2.74,3.64Z" style="fill: #dd6b7d;"/>
        </g>
      </g>
      <g>
        <g>
          <path d="M238.87,354.22c20.84,13.99,43.08-18.67,52.55-32.18,8.64-12.24,7.23-17.33-5.31-23.34-1.57-.77-3.3-1.58-5.22-2.43-17.84-7.93-30.43-30.44-13.2-19.43,3.62,2.17,7.63,2.61,11.28,1.78,0,0,0,0,.01,0,14.01-3.65,22.06-23.37,2.38-35.69-12.74-7.59-39.12-32.46-54.46-61.67-16.74-28.37-22.44-61.06-26.1-64.96-13.05-15.37-19.74,2.02-29.33,18.46-4.59,5.99-15.41,59.52,1.84,111.63,13.38,52.28,54.83,103.15,65.56,107.83Z" style="fill: #fff; isolation: isolate; opacity: .39;"/>
          <path d="M186.28,140.26c.07,53.85,28.11,105.61,69.83,140.94,9.04,7.81,19.59,15.23,30,17.49-1.57-.77-3.3-1.58-5.22-2.43-17.84-7.93-30.43-30.44-13.2-19.43,3.62,2.17,7.63,2.61,11.28,1.78-46.46-33.57-77.59-84.01-86.86-140.18-.39-2.37-1.11-5.27-2.79-5.46-2.15-.26-3.06,4.06-3.04,7.29Z" style="fill: #fff; isolation: isolate; opacity: .39;"/>
        </g>
        <path d="M163.69,174.08c6.71-1.3,20.01-3.06,28.3-2.13,7.32.82,10.61,10.91,1.53,29.65-8.83,18.23-44.51,12.24-47.42-.68-2.91-12.92,10.88-25.55,17.59-26.84Z" style="fill: #edbaa3;"/>
        <g>
          <path d="M213.12,123.03c6.42-10.01-17.17-32.84-22.86-21.51-4.16,9.83,16.38,29.75,22.86,21.51Z" style="fill: #ae6c53;"/>
          <g>
            <rect x="169.24" y="160.76" width="9.42" height="13.04" transform="translate(-31.78 41.12) rotate(-12.36)" style="fill: #edbaa3;"/>
            <path d="M175.38,165.98c.9-.46,1.79-.96,2.68-1.44.03-.02.07-.03.1-.05l-1-4.58-9.2,2.02,1.31,5.99c2.14-.21,4.21-.95,6.12-1.93Z" style="fill: #a34b5f; isolation: isolate; opacity: .4;"/>
          </g>
          <path d="M146.53,136.9c-.14,2.35-.21,4.44-.2,6.31.03,6.77.96,10.71,2.37,13.5.71,1.43,1.76,2.66,3.05,3.71,3.37,2.74,8.39,4.23,13.51,4.63,6.06.48,12.23-.56,15.93-2.82,2.45-1.5,4.76-3.46,6.86-5.74,7.42-8.08,12.13-20.32,10.74-31.47-2.02-16.25-21.34-25.56-35.21-18.33-13.32,6.52-16.39,19.38-17.04,30.2Z" style="fill: #edbaa3;"/>
          <g>
            <path d="M165.26,165.06c6.06.48,12.23-.56,15.93-2.82,2.45-1.5,4.76-3.46,6.86-5.74.33-2.53-.82-5.32-3.19-6.18-1.69-.6-3.57-.14-5.24.5-5.34,2.02-9.97,5.83-13,10.67-.67,1.07-1.25,2.34-1.35,3.57Z" style="fill: #dd6b7d; isolation: isolate; opacity: .2;"/>
            <path d="M146.34,143.21c.03,6.77.96,10.71,2.37,13.5.71,1.43,1.76,2.66,3.05,3.71.14-.93.14-1.93.15-2.5.04-4.88-1.54-9.79-4.52-13.67-.29-.39-.63-.78-1.04-1.04Z" style="fill: #dd6b7d; isolation: isolate; opacity: .2;"/>
          </g>
          <g>
            <g>
              <path d="M160.6,149.03c2.44-.17,4.76-1.16,5.37-.08.62,1.09-1.33,4.5-5.13,4.6-3.8.09-4.73-2.99-4.2-4,.53-1.01,1.5-.35,3.96-.52Z" style="fill: #a34b5f;"/>
              <path d="M161.78,151.15c-1.81.77-2.33,1.61-2.72,2.17.51.16,1.1.25,1.78.23,2.46-.06,4.14-1.52,4.85-2.84-.95-.19-2.11-.33-3.92.44Z" style="fill: #dd6b7d;"/>
            </g>
            <path d="M170.4,142.66c.02-.43.49-1.14.93-1.41,1.04-.63,2.27-.5,3.27.16.61.4,1.09.95,1.44,1.6.38.69.53,1.42.65,2.19.06.39-.32.51-.43.19-.41-1.18-1.07-2.59-2.15-3.25-.93-.57-2.05-.58-2.75.32-.16.2-.32.54-.58.64-.24.09-.41-.15-.4-.44Z" style="fill: #2d2433;"/>
            <path d="M151.3,137.07c.02-.39.43-1.04.82-1.28.91-.57,2-.45,2.88.15.53.36.96.87,1.27,1.45.33.62.47,1.29.58,1.99.06.36-.28.47-.38.17-.37-1.07-.95-2.35-1.9-2.95-.82-.51-1.8-.53-2.42.28-.14.18-.28.49-.5.58-.22.08-.37-.13-.35-.39Z" style="fill: #2d2433;"/>
            <path d="M158.93,146.55c-.49-.3-.96-.61-1.42-.96-.44-.34-1.17-.79-1.26-1.38-.09-.61.46-1.22.78-1.7.3-.45.58-.91.84-1.38.55-1.01,1.01-2.08,1.34-3.18.3-.97.58-2.11.45-3.13-.02-.17-.26-.19-.33-.04-.5,1.17-.71,2.48-1.15,3.68-.47,1.29-1.09,2.52-1.83,3.67-.53.82-1.13,1.82-.51,2.75.62.93,1.88,1.59,2.82,2.13.26.15.52-.3.26-.46Z" style="fill: #a34b5f; isolation: isolate; opacity: .5;"/>
            <path d="M178.47,132.77c-.13-.85-.7-1.72-1.31-2.28-.68-.64-1.64-1.28-2.55-1.55-1.44-.43-3.51-.32-4.32.82-.59.84.56,1.06.82.94,2.2-.99,4.67.54,5.23,1.03.53.47,1.1,1.09,1.8,1.3.17.05.36-.06.33-.26Z" style="fill: #c17c5f;"/>
            <path d="M150.5,127.62c.36-.77,1.05-1.42,1.68-1.78.71-.41,1.61-.74,2.37-.73,1.2.01,2.7.72,2.94,2.03.18.96-.74.84-.9.66-1.32-1.58-3.62-.85-4.18-.55-.54.29-1.15.71-1.73.71-.14,0-.25-.16-.16-.34Z" style="fill: #c17c5f;"/>
          </g>
          <path d="M188.04,102.05c-8.41-2.74-13.95-1.83-20.82-.74-37.83,11.72-19.97,31.07,5.45,13.04,3.18,19.17,12.73,22.44,14.19,23.52,1.47,1.08-3.39,3.05-3.76,6.03-.11.91.6,2.09,1.12,2.73.52.64,1.75,1.15-1.41,3.23-2.06,1.36-2.43,2.89-1.48,4.65.88,1.64,3.18,2.38,5.9,1.34-3.11.09-3.98-1.2-3.59-2.54.39-1.34,2.02-.97,3.84-2.3,1.72-1.25,2.42-3.12,2.02-4.21-1.25-3.46,2.18-3.77,5.42-3.34,21.36.11,15.71-34.66-6.89-41.42Z" style="fill: #c17c5f;"/>
          <g>
            <path d="M189.59,149.97c-.12,2.49,2.91,4.41,6.36,3.29,3.44-1.12,7.66-6.59,6.89-10.59-.77-4-6.08-4.11-9.35-.76-2.47,2.53-3.79,6.11-3.89,8.05Z" style="fill: #edbaa3;"/>
            <path d="M189.47,152.14c-.39,1.11.2,2.32,1.3,2.71s2.32-.2,2.71-1.3c.39-1.11-.2-2.32-1.3-2.71s-2.32.2-2.71,1.3Z" style="fill: #fff;"/>
            <path d="M200.15,144.28c.15-.08.18-.31.05-.4-.57-.39-1.45-.18-2.11,0-.73.19-1.45.5-2.11.92-1.33.85-2.49,2.17-3.03,3.72-.1.29.28.51.44.23.77-1.28,1.7-2.43,2.94-3.21.17-.1.34-.18.52-.27.02.09.06.17.09.25.05.15.1.29.15.44.1.3.16.61.21.93.1.64.06,1.32.2,1.95.03.12.2.19.28.05.36-.68.33-1.46.21-2.17-.06-.36-.15-.71-.27-1.05-.06-.16-.12-.32-.2-.47-.04-.07-.07-.14-.11-.2.26-.1.52-.21.78-.28.63-.17,1.35-.12,1.94-.43Z" style="fill: #a34b5f; isolation: isolate; opacity: .5;"/>
          </g>
        </g>
        <g>
          <path d="M285.53,423.13c-6.42,2.61-38.53,19.74-80.87,21.88-42.33,2.14-71.35-9.51-75.16-12.37-2.16-1.62-4.94-8.7-6.1-24.86-.05-.72-.1-1.45-.15-2.21-.55-9.28-.6-21.31.24-36.7.02-.49.05-.99.08-1.49.24-4.3.55-8.87.94-13.7.58-7.18,1.42-14.62,2.45-22.14.06-.48.13-.97.2-1.46,2.12-15.18,5-30.66,8-45.01.09-.42.17-.83.26-1.24,2.4-11.4,4.87-22.06,7.09-31.26.08-.33.16-.65.23-.97,3.99-16.48,7.14-28.14,7.55-30.74.03-.12.04-.22.05-.3.01-.07.01-.14.01-.21.28-4.78-6.11-12.68-8.1-20.08-2.02-7.51,6.52-14.98,9.85-14.51,3.33.48,4.99,6.42,4.99,6.42,0,0,11.66-7.61,16.65-6.66,5,.96,18.08,17.37,18.32,19.03.22,1.62-4.49,10.66-5.62,17.5-.03.2-.06.39-.09.58-.02.13-.03.25-.04.38-.36,4.93,5.3,11.49,13.17,23.92h.01c.3.48.61.98.92,1.48,2.88,4.61,6.02,9.98,9.25,16.32,2.68,5.27,5.55,11.55,8.57,18.56.18.41.36.83.54,1.25,5.31,12.37,11.08,26.9,17.15,42.03.15.38.3.76.46,1.14,3.93,9.81,7.99,19.87,12.12,29.73.32.76.63,1.52.95,2.27,2.65,6.28,5.32,12.48,8.01,18.47,5.64,12.56,11.17,21.42,15.88,27.73.25.33.5.66.74.98,9.75,12.75,15.73,14.49,11.45,16.24Z" style="fill: #fff;"/>
          <path d="M172.4,187.95c.63-1.81,3.99-10.66,10.83-16.6.06-.05.14-.08.22-.08h1.99c.24,0,.38.21.24.37-1.6,1.81-8.49,9.93-9.32,16.1-.02.11-.12.19-.25.2l-3.39.29c-.2.02-.37-.13-.31-.29Z" style="fill: #fff;"/>
          <path d="M149.38,187.59c.87-1.51,5.42-8.55,12.61-13.49.06-.04.2-.14.38-.16.19-.02,2.15-.32,2.15-.32.21,0,.34.16.19.29-1.75,1.51-9.94,8.38-11.7,13.53-.03.09-.14.16-.26.17l-3.13.24c-.19.01-.31-.11-.24-.25Z" style="fill: #fff;"/>
        </g>
        <g style="opacity: .47;">
          <path d="M186.44,222.05c-.03.2-.06.39-.09.58-.02.13-.03.25-.04.38-.99.13-1.99.24-3,.33-10.97.98-22.33.34-33.02-2.48.03-.12.04-.22.05-.3.01-.07.01-.14.01-.21,2.56.53,5.13.99,7.71,1.38,5.81.86,11.7,1.23,17.58,1.12,3.62-.07,7.22-.4,10.8-.8Z" style="fill: #f3deea;"/>
          <path d="M200.41,248.41c-.56-.12-1.11-.3-1.63-.53-1.5-.66-2.7-1.84-3.81-3.02-1.86-1.97-4.23-5.2-7.36-4.13-1.63.57-2.7,2.15-3.46,3.61-.81,1.56-1.34,3.24-2.2,4.77-.84,1.46-1.98,2.74-3.57,3.36-1.71.66-3.54.35-5.16-.39-3.75-1.7-6.22-5.23-9.81-7.18-1.75-.96-3.75-1.51-5.75-1.24-1.8.24-3.25,1.19-4.35,2.61-1.78,2.27-2.84,5.51-5.63,6.78-1.79.82-3.64.48-5.17-.48.08-.33.16-.65.23-.97,1.24.85,2.76,1.24,4.21.7,1.34-.49,2.29-1.63,3.06-2.78,1.66-2.48,2.94-5.39,5.95-6.48,3.6-1.32,7.4.29,10.27,2.47,1.51,1.14,2.86,2.47,4.36,3.64,1.46,1.14,3.16,2.29,5.04,2.55,3.96.55,5.59-3.44,6.84-6.42,1.16-2.74,3.12-5.97,6.5-5.89,2.95.06,4.96,2.7,6.81,4.65,1.07,1.14,2.22,2.29,3.7,2.89h.01c.3.48.61.98.92,1.48Z" style="fill: #f3deea;"/>
          <path d="M218.77,284.54c-1.81.47-3.73.17-5.47-.6-2.5-1.11-4.43-3.08-6.31-5.01-1.82-1.88-3.75-3.87-6.3-4.72-2.28-.77-4.91-.6-6.53,1.37-1.4,1.71-1.75,4.09-2.35,6.16-.59,2.06-1.48,3.94-3.07,5.42-2.96,2.74-7.52,3.86-11.36,2.51-4.95-1.75-6.92-7.01-10.84-10.05-1.92-1.49-4.53-2.63-6.94-1.69-2.18.86-3.45,3.06-4.73,4.88-1.29,1.83-2.74,3.42-4.74,4.48-1.92,1-4.09,1.52-6.25,1.51-3.36-.02-6.51-1.36-8.72-3.73.09-.42.17-.83.26-1.24.37.45.77.87,1.21,1.25,3.22,2.82,8.02,3.29,11.91,1.71,2.03-.82,3.65-2.21,4.93-3.97,1.26-1.74,2.34-3.69,4.07-5.03,4.23-3.26,9.31-.05,12.25,3.35,1.59,1.86,3,3.9,4.86,5.51,1.6,1.39,3.53,2.25,5.66,2.35,3.91.18,7.99-1.94,9.6-5.6,1.65-3.75,1.51-9.17,6.22-10.62,2.2-.68,4.65-.12,6.63.93,2.27,1.21,4.04,3.18,5.82,4.99,1.83,1.86,3.82,3.72,6.39,4.48,1.11.33,2.22.36,3.26.11.18.41.36.83.54,1.25Z" style="fill: #f3deea;"/>
          <path d="M274.08,406.89c-5.28,3.67-12.77,4.21-18.3.81-3.94-2.43-6.54-6.55-10.64-8.75-2.02-1.08-4.44-1.7-6.68-.95-1.79.6-3.1,2.01-4.08,3.58-1.99,3.19-2.96,6.96-5.57,9.76-2.55,2.73-6.15,4.36-9.84,4.73-4.17.41-7.92-1.04-11.19-3.56-3.76-2.88-7.01-6.82-11.74-8.13-7.27-2.02-11.37,5.19-15.15,9.99-1.77,2.25-3.8,4.49-6.52,5.57-3.66,1.45-7.46.09-10.36-2.32-3.5-2.91-5.52-7.09-8.65-10.34-2.74-2.84-7.52-5.27-11.3-2.85-2.95,1.88-3.35,5.93-5.04,8.73-.79,1.31-1.91,2.41-3.41,2.86-2.02.6-4.13-.17-5.81-1.29-2.58-1.72-4.73-4.23-6.4-6.95-.05-.72-.1-1.45-.15-2.21.86,1.55,1.86,3.02,3,4.39,2.29,2.75,7.04,7.46,10.71,4.11,2.38-2.17,2.68-5.85,4.44-8.45,2.12-3.13,5.91-3.81,9.36-2.66,4.08,1.36,6.67,4.87,9.1,8.21,2.52,3.44,5.53,7.43,10.03,8.18,6.45,1.07,10.24-6.02,13.6-10.24,1.74-2.2,3.75-4.37,6.39-5.49,3.89-1.64,8.02-.25,11.35,2.02,3.74,2.56,6.68,6.27,10.86,8.19,3.45,1.59,7.54,1.45,11.02.02,1.73-.71,3.33-1.77,4.64-3.11,1.3-1.33,2.2-2.94,3.01-4.61,1.5-3.08,2.79-6.73,5.88-8.59,3.72-2.24,8.23-.58,11.39,1.88,3.46,2.68,6.11,6.48,10.25,8.2,4.86,2.01,10.76,1.26,15.06-1.71.25.33.5.66.74.98Z" style="fill: #f3deea;"/>
          <path d="M249.45,359.71c-1.74-1.45-3.55-2.78-5.74-3.42-1.88-.55-3.8-.36-5.47.68-1.57.99-2.74,2.52-3.78,4.03-2.03,2.95-3.93,5.97-6.63,8.38-2.53,2.27-5.7,3.9-9.18,3.72-3.78-.19-7.03-2.32-9.87-4.64-3.18-2.59-6.02-5.6-9.79-7.36-1.77-.83-3.75-1.35-5.72-1.13-1.89.21-3.59,1.11-4.97,2.38-2.65,2.42-4.16,5.73-6.28,8.58-2.01,2.71-4.76,5.42-8.29,5.79-3.64.38-6.57-2.09-8.55-4.89-2.24-3.18-3.39-7.15-6.29-9.86-2.58-2.42-6.44-3.14-9.79-2.12-3.48,1.05-5.43,3.98-7.41,6.8-1.83,2.62-3.95,5.25-7.21,6.03-3.14.75-6.46-.28-9.03-2.12-.73-.52-1.38-1.08-1.96-1.69.02-.49.05-.99.08-1.49,1.93,2.31,4.76,4.05,7.75,4.39,3.47.4,6.18-1.43,8.24-4.07,1.99-2.55,3.52-5.54,6.21-7.47,2.65-1.89,6.19-2.39,9.31-1.58,3.5.91,5.86,3.46,7.62,6.5,1.83,3.16,3.22,6.85,6.28,9.06,1.46,1.05,3.23,1.61,5.02,1.31,1.75-.3,3.31-1.29,4.59-2.47,4.87-4.46,6.81-13.16,14.27-14.22,3.8-.54,7.47,1.31,10.45,3.48,3.08,2.24,5.67,5.09,8.86,7.18,3.07,2.02,6.65,3.11,10.24,1.86,3.33-1.16,5.94-3.88,8.02-6.62,2.08-2.73,3.63-6.04,6.36-8.21,1.34-1.05,2.93-1.71,4.64-1.76,1.88-.05,3.71.62,5.32,1.54.61.34,1.19.73,1.75,1.14.32.76.63,1.52.95,2.27Z" style="fill: #f3deea;"/>
          <path d="M236.38,327.71c-.33.21-.66.41-1.01.6-2.5,1.34-5.4,1.91-8.22,1.52-3.08-.44-5.8-2.08-8.16-4.04-4.96-4.12-9.06-10.43-15.89-11.54-3.11-.5-6,.68-8.13,2.93-2.01,2.11-3.34,4.78-4.67,7.35-2.46,4.75-6.82,11.24-13.11,9.89-5.42-1.17-7.18-7.43-10.24-11.27-3.4-4.27-9.4-5.61-14.48-3.85-2.54.88-4.54,2.56-6.07,4.75-1.57,2.23-2.73,4.71-4.33,6.91-1.51,2.07-3.51,3.89-6.12,4.35-2.85.5-5.67-.66-7.79-2.54-.44-.39-.84-.8-1.2-1.23.06-.48.13-.97.2-1.46,1.45,2.02,3.59,3.64,6.04,4.14,5.92,1.19,8.73-5.1,11.24-9.19,1.35-2.19,2.9-4.22,5.12-5.58,2.17-1.33,4.71-1.99,7.23-2.03,2.58-.04,5.2.59,7.44,1.88,2.25,1.31,3.84,3.28,5.21,5.45,1.38,2.18,2.56,4.59,4.39,6.44,1.86,1.89,4.42,2.74,6.99,1.91,2.82-.92,5-3.38,6.58-5.78,1.6-2.44,2.7-5.16,4.24-7.64,1.4-2.26,3.14-4.44,5.55-5.66,2.75-1.4,5.89-1.3,8.72-.21,3.09,1.2,5.73,3.27,8.08,5.56,2.21,2.15,4.31,4.47,6.79,6.33,2.37,1.77,5.12,3.05,8.13,3.06,2.47,0,4.96-.78,7.01-2.19.15.38.3.76.46,1.14Z" style="fill: #f3deea;"/>
        </g>
        <g>
          <path d="M206.92,74.61c-1.64-3.3-4.94-7.69-6.89-9.77-2.07-2.21-2.92-2.01-1.86-.11,1,1.8,2.43,3.66,2.1,3.89-.17.12-.94-1.41-2.6-3.12-1.92-1.98-3.55-3.35-4.09-2.57-.54.79,3.04,5.19,4,6.78,1.19,1.39-3.45-3.4-5.7-4.69-2.36-1.57-3.66-.79-1.19,1.59,2.42,2.45,4.16,4.36,4.43,5.23-.82-.3-1.51-.99-4.75-3.27-2.49-1.61-3.45-.47-1.45,1.53,2.43,2.4,6.52,5.53,5.99,6.55-.68.51-1.55-.49-4.7-.9-3.18-.39.3,1.67,2.9,3.28,2.75,1.61,4.92,4.35,6.7,5.85,2.41,2.01,3.1,3.41,5.78,1.89,1.56-.89,4.28-1.91,4.52-4.28.19-1.91-1.74-4.89-3.18-7.88Z" style="fill: #edbaa3;"/>
          <path d="M202.42,82.56c-.64-1.41-1.09-2.94-1.23-4.48-.07-.75-.07-1.51,0-2.27.06-.71.31-1.43.17-2.14-.03-.15-.24-.2-.34-.09-.51.58-.56,1.41-.63,2.15-.08.83-.06,1.67.04,2.49.2,1.63.71,3.18,1.61,4.56.16.25.51.03.39-.23Z" style="fill: #a34b5f; isolation: isolate; opacity: .5;"/>
          <polygon points="197.76 70.15 196.93 69.28 199.81 67.63 200.48 68.77 197.76 70.15" style="fill: #e19d25;"/>
          <path d="M186.21,186.25c1.5,3.63,4.02,6.77,6.74,7.08,2.64.3,8.25-6.58,10.65-10.08,5.63-8.21,17.85-21.27,21.97-47.49,4.12-26.22-11.23-49.3-16.87-56.75-.04-.05-6.42.04-7.96,5.05-1.02-.43,13.64,24.64,9.79,47.82-3.85,23.19-16.52,36.07-20.39,39.19-5.45,4.41-5.43,11.54-3.93,15.17Z" style="fill: #edbaa3;"/>
          <g>
            <path d="M203.13,87.16c.04.95-.71,1.76-1.66,1.79-.95.04-1.76-.71-1.79-1.66-.04-.95.71-1.76,1.66-1.79.95-.04,1.76.71,1.79,1.66Z" style="fill: #fff;"/>
            <path d="M205.78,86.93c.04.95-.71,1.76-1.66,1.79s-1.76-.71-1.79-1.66c-.04-.95.71-1.76,1.66-1.79s1.76.71,1.79,1.66Z" style="fill: #fff;"/>
            <path d="M208.6,86.02c.04.95-.71,1.76-1.66,1.79-.95.04-1.76-.71-1.79-1.66-.04-.95.71-1.76,1.66-1.79.95-.04,1.76.71,1.79,1.66Z" style="fill: #fff;"/>
            <path d="M211.27,84.52c.04.95-.71,1.76-1.66,1.79s-1.76-.71-1.79-1.66c-.04-.95.71-1.76,1.66-1.79.95-.04,1.76.71,1.79,1.66Z" style="fill: #fff;"/>
            <path d="M213.05,82.32c.04.95-.71,1.76-1.66,1.79-.95.04-1.76-.71-1.79-1.66-.04-.95.71-1.76,1.66-1.79.95-.04,1.76.71,1.79,1.66Z" style="fill: #fff;"/>
          </g>
        </g>
      </g>
      <path d="M182.92,216.51c.67-.17,4.46.05,6.26.44-1.13-.26-1.97-.52-3.06-.7-1.22-.2-3.37-.26-3.24-1.18s1.62-1.67,3.64-1.99c2.39-.39,4.27-.06,5.13.04.91.11,2.38.84,2.45,2.5.13,2.98-.12,6.06-1.03,8.85-1,3.09-2.45,2.89-4.25,3.26-2.26.46-6.1-1.94-5.88-3.46.22-1.52,3.01.65,5.63.06-1.94.44-6.57-1.76-6.77-3.6-.1-.97.99-.83,1.55-.69,1.68.4,3.32,1.26,5.12.93-1.4-.2-5.21-1.15-6.2-2.24-.93-1.03-.11-2.01.65-2.21Z" style="fill: #e4a791;"/>
    </g>
  </g>
</svg>