<svg width="691" height="299" viewBox="0 0 691 299" fill="none" xmlns="http://www.w3.org/2000/svg">
<path d="M78.7307 297.97C66.6987 300.441 54.7877 293.291 52.1387 281.79C47.3997 260.917 42.6587 240.044 37.9127 219.173C36.7527 214.073 37.7197 208.777 40.5057 204.232C36.4047 201.312 33.4597 197.144 32.3577 192.254C18.9137 132.555 16.9107 127.215 18.5427 119.92C13.3287 113.715 14.9777 116.783 2.16467 59.4559C-0.413329 47.9179 -3.46832 38.5868 11.0987 35.4338C229.756 -11.3372 455.745 -11.7322 674.476 34.2208C689.064 37.2948 692.845 47.8419 690.249 59.3779C676.663 120.226 678.026 118.921 672.545 124.316C673.828 127.764 674.121 131.414 673.354 134.937C658.276 204.328 659.421 200.73 657.269 204.404C657.618 208.402 658.386 203.503 640.891 281.776C638.272 293.324 626.352 300.502 614.28 298.02C437.619 261.655 255.398 261.638 78.7307 297.97Z" fill="#893200"/>
<path d="M657.344 204.274C657.339 204.223 657.337 204.172 657.332 204.122C658.331 202.415 659.057 200.576 659.499 198.631C674.317 130.596 675.205 131.463 672.546 124.318C672.62 124.245 672.692 124.172 672.765 124.098C672.731 124 672.695 123.902 672.659 123.805C678.144 118.395 676.776 119.723 690.25 59.3789C692.846 47.8429 689.065 37.2959 674.477 34.2219C658.934 30.9569 643.355 27.9249 627.744 25.1279C627.645 26.0059 628.258 22.4648 617.542 82.4138C616.897 86.0178 615.174 89.3159 612.608 92.0479C614.058 95.4499 614.517 99.0958 613.9 102.659C601.833 172.489 602.766 169.185 600.758 172.952C601.298 176.999 601.843 172.021 587.676 251.181C585.548 262.864 573.818 270.551 561.496 268.563C392.708 241.281 220.017 246.317 52.6709 283.673C57.7249 298.752 73.7889 298.392 73.9979 298.458C94.0309 298.39 314.38 236.286 614.281 298.021C626.396 300.503 638.288 293.265 640.906 281.716C658.189 204.389 657.636 208.581 657.27 204.404C657.294 204.361 657.318 204.318 657.344 204.274Z" fill="#662200"/>
<path d="M40.2904 214.322C45.3004 236.613 50.3064 258.906 55.3094 281.199C56.0664 284.558 59.4594 286.66 62.9014 285.918C247.323 246.117 438.034 245.603 622.618 284.376C626.071 285.1 629.458 282.969 630.187 279.596C635.669 254.103 641.15 228.61 646.632 203.117C647.361 199.744 644.961 196.363 641.269 195.588C505.066 166.978 374.14 164.034 364.262 165.117C331.27 168.771 329.646 169.734 327.3 169.485C322.585 168.982 292.387 165.968 289.986 166.059C213.693 169.06 137.58 178.156 62.3824 193.343C60.0854 193.808 59.9954 193.984 42.5404 208.196C40.6474 209.736 39.7884 212.087 40.2904 214.322Z" fill="#DF8833"/>
<path d="M174.829 183.572C198.599 174.65 242.597 167.949 295.359 166.447C293.867 166.322 292.374 166.199 290.881 166.079C290.669 166.09 261.485 166.793 217.793 170.725C199.702 173.604 184.718 177.222 173.869 181.284C118.016 202.223 71.2123 209.519 40.2553 211.94C40.0883 212.81 40.1253 213.594 40.3083 214.408C71.5253 211.968 118.645 204.63 174.829 183.572Z" fill="#CE5F0A"/>
<path d="M351.074 166.64C457.183 169.195 577.261 195.722 643.612 217.161C643.785 216.353 643.959 215.547 644.133 214.739C582.138 194.935 473.918 170.123 373.331 165.203C363.318 165.015 366.688 164.762 351.074 166.64Z" fill="#CE5F0A"/>
<path d="M315.325 168.26C266.246 169.234 225.489 174.92 202.773 182.95C124.095 210.831 62.5584 212.047 40.4274 211.263V211.264C39.9944 212.637 40.2064 213.525 40.1904 213.733C62.6164 214.522 124.58 213.283 203.683 185.256C238.664 172.787 318.274 166.265 403.803 173.557C489.468 179.918 581.051 200.094 643.099 219.542C643.273 218.736 643.446 217.93 643.62 217.123C565.281 192.16 440.218 167.903 339.08 168.132C324.772 169.977 331.965 169.891 315.325 168.26Z" fill="#CE5F0A"/>
<path d="M360.529 164.941C339.584 157.459 291.488 164.821 288.482 165.13C224.702 167.183 125.191 179.685 62.6582 194.712C80.3942 191.279 138.926 181.352 193.209 176.471C247.456 170.917 297.454 170.409 297.291 170.245C330.057 172.452 329.051 171.849 331.51 171.605C331.265 171.51 365.394 168.792 365.2 168.929C444.418 168.789 560.562 179.411 639.562 195.26C611.683 188.259 543.188 177.184 479.969 171.423C416.801 164.815 360.328 165.214 360.529 164.941Z" fill="#662200"/>
<path d="M674.828 34.0867C455.124 -12.0133 228.136 -11.3523 8.64029 36.0657C4.52829 36.9537 1.8033 40.4236 2.5513 43.7936C7.0133 63.9826 11.4753 84.1717 15.9373 104.36C16.6413 107.536 20.0553 109.551 23.7883 109.018C75.4123 101.635 92.0933 101.172 97.3173 100.309C410.819 48.2227 631.197 111.092 644.087 108.57C659.504 105.549 666.846 107.481 668.202 101.176C672.455 81.3757 676.708 61.5767 680.961 41.7777C681.688 38.4047 678.944 34.9497 674.828 34.0867Z" fill="#DF8833"/>
<path d="M642.128 108.822C442.467 76.0646 291.263 64.4876 25.8868 113.947C25.8578 113.81 25.8278 113.676 25.7988 113.539C209.119 70.4476 333.424 78.4866 411.271 80.2226C489.21 82.8646 561.02 90.0236 642.209 108.414C642.181 108.549 642.154 108.685 642.128 108.822Z" fill="#662200"/>
<path d="M20.1232 121.399C24.8922 142.8 29.6582 164.202 34.4222 185.604C34.9672 188.05 37.0672 189.902 39.7512 190.318C46.3312 191.338 52.8882 192.404 59.4202 193.515C65.0092 194.47 153.26 171.312 291.973 166.036C292.237 166.025 292.485 166.005 292.746 165.966C295.902 165.451 318.302 162.417 326.076 162.37C336.034 162.141 363.171 165.096 363.44 165.099C456.58 166.2 549.641 176.372 641.288 195.617C644.986 196.393 648.571 194.286 649.285 190.896C654.051 168.15 658.811 145.402 663.565 122.652C664.164 119.797 662.402 116.838 659.313 115.541C654.462 113.502 643.517 108.887 642.168 108.618C438.622 68.2316 228.864 69.9406 25.8432 113.743C21.9292 114.587 19.3682 118.026 20.1232 121.399Z" fill="#DF8833"/>
<path d="M160.35 38.3247C239.33 22.0867 300.413 6.3347 371.382 17.1777C412.786 23.6707 444.228 33.8238 479.022 34.8838C506.586 34.9818 519.432 32.4577 565.525 15.0837C559.439 14.2417 553.349 13.4368 547.256 12.6648C477.309 38.9908 448.894 19.3567 373.613 7.22066C289.476 -5.97634 217.988 17.1777 131.383 32.6297C90.8154 37.9087 46.9294 41.7977 2.98438 45.7537C3.65938 48.8057 4.33337 51.8577 5.00737 54.9087C62.1024 51.0437 120.708 47.2657 160.35 38.3247Z" fill="#CE5F0A"/>
<path d="M419.15 40.9125C419.11 40.9015 419.109 40.9015 419.15 40.9125Z" fill="#CE5F0A"/>
<path d="M419.188 40.9239C420.556 41.2769 441.329 47.595 441.533 47.706C511.497 66.825 597.373 57.3289 678.879 51.4759C679.206 49.9549 679.532 48.4329 679.86 46.9109C597.973 53.0189 512.359 62.9079 442.843 44.0719C343.512 14.4899 319.234 24.6879 185.76 48.1829C185.265 48.5019 109.89 62.1839 8.55859 70.9759C8.76859 71.9269 8.97861 72.8769 9.18961 73.8279C205.833 61.2939 314.045 6.79787 419.188 40.9239Z" fill="#CE5F0A"/>
<path d="M419.188 40.9247C419.147 40.9127 419.155 40.9146 419.15 40.9126C419.161 40.9156 419.172 40.9207 419.188 40.9247Z" fill="#CE5F0A"/>
<path d="M248.218 87.0336C221.145 70.2196 88.8896 82.3537 15.1426 100.766C15.9946 104.622 15.9846 104.829 16.3986 105.644C94.7456 86.0897 234.018 74.8827 246.77 92.4327C238.277 101.648 100.789 110.075 21.1626 126.06C21.5316 127.719 21.9016 129.378 22.2706 131.038C117.199 111.706 282.578 105.657 248.218 87.0336Z" fill="#CE5F0A"/>
<path d="M272.598 68.6148C290.007 65.6388 358.296 64.4688 437.055 71.4888C515.951 77.7048 605.316 92.1079 668.054 101.722C668.188 101.315 668.14 101.465 669.114 96.9338C606.967 87.2978 516.896 72.7268 437.233 66.5358C357.707 59.5108 288.589 60.8628 271.496 63.7858C239.211 69.3198 167.421 64.7929 11.0137 82.0819C11.3707 83.6999 11.7287 85.3169 12.0867 86.9359C147.066 71.1619 241.633 73.9718 272.598 68.6148Z" fill="#CE5F0A"/>
<path d="M461.021 88.4906C450.023 103.615 572.498 119.761 659.412 142.512C659.755 140.871 660.098 139.231 660.442 137.589C570.137 114.835 474.881 101.158 466.162 90.9796C478.927 82.8826 599.524 104.614 663.007 125.321C663.516 122.884 663.899 121.8 663.527 120.235C596.948 98.3306 469.033 76.2406 461.021 88.4906Z" fill="#CE5F0A"/>
<path d="M187.504 147.288C211.347 144.841 198.912 151.536 245.986 146.324C292.68 145.087 398.883 131.944 651.225 181.632C651.594 179.871 651.962 178.111 652.331 176.351C512.822 138.785 360.714 126.361 219.017 137.919C158.987 134.679 88.224 144.394 30.752 169.118C31.161 170.957 31.571 172.795 31.98 174.634C32.025 174.616 32.071 174.597 32.117 174.58C109.069 145.308 183.305 147.687 187.504 147.288Z" fill="#CE5F0A"/>
<path d="M459.338 130.701C600.928 158.671 555.685 138.998 639.848 155.558C645.2 156.808 650.532 158.151 655.842 159.581C656.214 157.801 656.587 156.02 656.959 154.24C641.459 149.469 628.029 146.17 618.544 144.385C551.116 134.424 596.624 147.973 461.224 120.954C405.27 110.406 330.887 100.015 293.862 101.837C209.611 108.252 113.515 123.709 26.9707 152.143C27.2617 153.45 27.5527 154.756 27.8437 156.062C204.205 115.01 265.264 114.249 304.918 113C344.787 114.104 363.248 114.718 459.338 130.701Z" fill="#CE5F0A"/>
<path d="M441.013 222.031C441.86 221.903 455.847 220.25 456.063 220.249C504.67 215.942 584.244 244.188 632.37 269.445C632.563 268.547 632.756 267.648 632.949 266.75C592.911 245.646 539.043 224.779 496.875 218.247C463.307 212.9 449.591 216.865 445.396 216.942C390.798 223.427 350.747 204.756 295.573 201.134C257.307 196.537 117.105 215.909 46.0215 239.826C46.3245 241.174 46.6265 242.522 46.9295 243.87C110.457 226.159 200.435 210.626 254.522 207.05C333.131 200.82 385.323 229.886 441.013 222.031ZM440.977 222.035C440.971 222.036 440.971 222.036 440.977 222.035Z" fill="#CE5F0A"/>
<path d="M467.473 201.882C479.826 202.028 481.464 200.819 482.026 199.609C486.164 190.756 421.09 180.765 411.336 181.045C401.31 178.547 312.663 168.539 305.457 179.624C293.681 195.285 438.101 198.997 467.473 201.882ZM410.964 183.486C423.655 184.286 470.102 190.31 479.238 198.722C467.134 201.033 315.19 191.353 307.772 182.201C301.766 171.292 398.081 180.347 410.964 183.486Z" fill="#CE5F0A"/>
<path d="M150.849 250.148C166.711 250.733 190.333 260.103 212.237 262.388C221.203 261.489 230.177 260.679 239.155 259.96C248.809 256.45 274.254 236.425 378.484 239.378C402.351 239.691 465.884 251.024 521.744 267.167C527.363 267.907 532.978 268.683 538.59 269.493C479.107 251.138 404.945 237.131 378.542 236.91C327.399 235.461 271.009 239.88 243.752 255.167C216.945 270.023 175.748 248.466 150.976 247.681C135.063 246.839 85.8144 261.443 53.6494 273.812C53.8334 274.63 54.0164 275.449 54.2004 276.267C86.1924 263.961 135.45 249.322 150.849 250.148Z" fill="#CE5F0A"/>
<path d="M164.708 232.505C194.224 233.218 176.504 262.454 264.703 230.044C297.261 219.172 291.667 219.604 349.077 225.329C394.786 229.96 456.151 240.907 480.85 241.753C504.976 241.883 567.36 263.249 606.725 281.137C624.041 284.556 623.482 284.886 625.68 284.288C589.329 266.298 510.185 236.727 480.928 236.817C443.878 234.009 317.798 213.924 297.731 216.429C277.903 217.058 244.291 235.037 213.776 239.557C183.659 244.121 188.961 227.686 164.762 227.566C151.026 227.347 93.2497 240.733 49.4307 255.004C49.7937 256.62 50.1567 258.235 50.5197 259.852C94.0267 245.663 151.563 232.286 164.708 232.505Z" fill="#CE5F0A"/>
<path d="M642.209 108.413C561.02 90.0227 489.211 82.8618 411.271 80.2218C333.424 78.4878 209.119 70.4477 25.7988 113.538C25.8138 113.606 25.8278 113.675 25.8428 113.742C228.864 69.9397 438.621 68.2307 642.168 108.617C642.181 108.549 642.195 108.481 642.209 108.413Z" fill="#662200"/>
<path opacity="0.13" d="M638.257 71.2736C641.128 56.2756 636.18 40.3295 623.969 24.2725C420.222 -11.6335 211.239 -7.70239 8.63933 36.0666C4.52733 36.9546 1.80232 40.4246 2.55032 43.7946C7.01232 63.9836 11.4743 84.1726 15.9363 104.361C16.6403 107.536 20.0543 109.553 23.7873 109.019C47.2503 105.664 70.7243 102.868 94.1893 100.626C71.3353 104.472 48.5463 108.844 25.8423 113.742C21.9293 114.586 19.3693 118.026 20.1233 121.398C24.8923 142.799 29.6583 164.201 34.4223 185.603C34.8843 187.676 36.4643 189.323 38.5693 190.03C99.0573 190.309 167.926 186.96 241.325 181.563C444.023 165.171 621.197 144.086 638.257 71.2736ZM364.327 165.111C309.777 170.787 347.468 170.638 290.881 166.079C295.042 165.836 313.658 159.277 364.327 165.111Z" fill="#DF8833"/>
</svg>
