<svg width="639" height="1381" viewBox="0 0 639 1381" fill="none" xmlns="http://www.w3.org/2000/svg">
<path d="M354.751 66.314C363.842 105.265 371.267 145.107 375.033 184.353C370.405 171.81 367.16 158.701 362.062 146.298C354.628 128.21 343.929 111.149 335.764 93.411C322.138 63.809 310.284 32.031 298.947 0H287.767C290.928 8.463 294.1 16.92 297.265 25.372C300.502 34.015 302.612 44.54 305.799 52.747C325.852 104.381 357.919 150.359 376.758 202.758C377.065 203.611 379.496 210.894 376.103 208.983C373.337 207.426 360.944 192.511 358.029 188.951C313.186 134.185 276.34 69.677 262.958 0H257.295C270.968 65.034 289.841 111.774 330.525 169.989C337.662 180.201 368.906 223.027 377.884 226.847C384.013 229.454 387.966 229.771 388.995 222.754C389.957 216.193 385.473 186.957 384.428 178.071C376.746 112.773 366.433 58.042 337.663 0H329.837C340.746 21.467 348.923 41.348 354.75 66.314H354.751Z" fill="white"/>
<path d="M604.74 466.605C545.152 351.654 457.66 319.199 360.791 245.879C352.797 239.828 335.903 222.445 329.017 218.972C299.754 204.214 266.916 187.897 244.172 163.267C235.096 153.438 227.451 141.968 219.295 131.388C213.661 87.938 206.996 44.021 202.726 0H164.086C156.64 1.04 149.971 1.913 147.829 2.35C81.892 15.825 43.609 44.281 0.004 88.851V104.283C33.897 69.389 77.842 29.695 110.72 17.389C126.582 11.452 148.422 7.691 165.34 6.009C129.02 23.93 94.047 40.356 63.032 66.879C40.964 85.751 21.418 107.722 0.004 127.434V138.946C22.628 120.125 43.062 98.445 65.453 79.506C103.208 47.571 147.636 26.779 192.11 5.863C189.888 11.921 187.449 17.855 184.232 23.475C157.347 70.426 57.911 131.845 0.004 154.873V167.194C30.227 155.312 58.237 139.447 86.327 121.613C120.541 99.891 156.024 76.608 179.484 42.762L181.392 44.724C176.08 58.408 178.811 80.33 173.074 92.939C171.145 97.179 151.708 114.142 146.861 115.076C143.661 115.692 139.604 114.432 135.704 115.572C119.525 120.304 118.28 154.912 141.306 145.86C156.194 140.007 151.621 123.358 153.57 121.042C154.194 120.301 170.791 112.95 171.331 113.755C169.835 119.685 161.172 160.455 159.102 161.827C156.873 163.305 142.544 155.285 138.245 173.456C131.523 201.866 168.611 197.75 165.208 170.371C164.895 167.852 162.053 165.264 162.473 163.133C163.078 160.062 172.494 144.676 174.597 138.808C185.988 107.023 186.362 71.753 193.467 38.867L195.889 37.609L211.857 199.663C200.706 204.452 192.264 210.555 184.083 219.554C178.15 226.08 166.606 246.761 162.698 249.686C158.064 253.154 119.812 266.545 112.167 268.722C85.01 276.458 53.769 276.011 30.254 293.472C18.391 302.28 9.075 315.044 0.005 327.395V344.212C2.859 340.944 5.32 338.158 6.15 337.083C20.689 318.245 27.763 302.18 51.594 292.45C69.99 284.939 93.822 282.908 113.416 279.085C89.62 294.774 61.56 303.5 37.735 319.719C22.513 330.081 13.65 344.014 0.582 353.263C0.391 353.398 0.196 353.501 0.004 353.626V371.119C35.64 368.352 79.314 343.062 103.032 322.413C109.491 316.79 144.354 279.361 147.443 278.998C149.016 278.813 149.382 279.376 148.769 280.812C131.137 319.763 112.337 358.599 88.907 394.406C85.452 399.687 71.013 422.023 67.617 424.67C63.627 427.78 48.064 429.179 41.739 431.352C25.966 436.77 13.055 449.003 0.004 460.088V468.239L42.629 441.219C35.2 452.202 25.206 461.057 17.067 471.532C13.397 476.256 3.441 493.984 0.39 496.233C0.275 496.318 0.135 496.394 0.004 496.473V527.201C7.289 496.779 31.025 466.956 53.652 446.473C55.359 444.927 56.602 441.847 59.099 442.757C56.79 454.823 52.684 466.437 48.6 477.969C39.343 504.107 28.796 533.841 5.586 549.879C5.074 550.233 2.158 552.176 0.003 553.331V560.616C7.811 555.602 20.659 542.631 22.381 542.519C23.445 542.45 31.613 554.847 36.947 557.869C63.898 573.136 58.778 554.101 60.926 536.998C64.926 505.15 76.361 474.504 75.486 442.919C75.407 440.059 72.857 427.605 73.035 426.81C73.655 424.046 102.952 389.127 107.77 382.015C110.803 377.537 126.354 349.616 128.264 349.326C130.655 348.962 126.932 366.833 126.854 368.533C126.009 386.883 129.401 406.437 138.179 422.633C141.487 428.735 160.616 454.059 166.997 453.338C171.069 452.878 175.127 429.791 175.648 425.311C179.726 390.197 165.141 378.344 154.308 348.744C152.404 343.542 144.698 319.897 145.345 315.915C146.311 309.964 166.497 268.994 170.699 260.748C180.819 240.887 192.127 224.021 209.848 210.062C212.256 210.629 211.901 217.073 211.999 219.031C212.804 235.22 212.799 251.893 213.004 268.118C213.859 336.059 211.568 404.115 211.363 472.059C191.838 484.523 173.856 499.261 154.136 511.392C128.111 527.4 99.105 539.335 74.081 556.948C69.268 560.336 48.737 578.906 47.032 579.331C45.046 579.826 30.246 574.318 26.24 573.511C16.934 571.636 8.236 570.615 0.003 570.324V576.213C12.945 577.638 35.169 580.832 36.512 582.622C36.825 583.039 35.957 585.831 34.863 586.312C22.908 592.628 11.394 600.058 0.003 607.838V619.86C10.693 612.387 21.371 605.076 32.268 598.633C36.854 598.29 25.755 609.472 24.639 610.646C16.473 619.241 8.306 626.916 0.002 633.751V645.593C17.177 632.223 32.389 615.66 45.41 595.581C48.068 591.482 48.346 586.414 51.46 582.72C55.353 578.102 83.095 561.876 90.105 557.871C113.684 544.397 139.303 534.237 162.546 520.039C176.636 511.432 189.491 501.135 202.805 491.467C199.214 497.419 183.406 542.094 180.926 543.443C180.032 543.929 171.611 541.766 168.754 541.88C107.136 544.344 43.035 625.667 21.454 677.863C15.303 692.74 12.931 707.008 8.246 721.947C6.6 727.197 2.739 734.8 0.002 741.685V757.849C2.253 758.525 5.918 757.992 11.573 755.721C47.193 741.419 92.777 694.061 117.309 664.427C131.401 647.404 184.418 577.331 187.429 559.62C188.347 554.218 185.239 549.55 186.294 546.377C186.833 544.758 193.7 536.64 195.426 533.643C200.567 524.714 204.554 515.429 209.315 506.357C210.103 504.855 208.623 502.923 211.921 504.064L198.343 705.444C127.04 694.596 60.23 746.823 28.458 806.904C16.809 828.933 12.698 850.016 3.879 872.409C2.969 874.721 1.587 877.54 0.002 880.596V905.02C0.956 901.961 5.957 893.034 6.664 890.846C11.585 875.63 13.131 858.476 18.125 843.022C31.309 802.218 63.345 761.39 99.71 738.916C121.9 725.203 161.061 711.136 187.336 714.754C193.856 715.652 193.924 715.04 193.501 721.85C190.67 767.453 89.123 853.188 51.191 878.102C47.753 880.36 2.719 907.667 0.002 906.058V918.875C8.898 914.935 21.16 908.314 26.061 905.711C91.025 871.204 148.55 818.521 190.824 758.743C182.733 820.815 167.681 881.769 152.484 942.47C142.516 953.523 135.021 966.509 125.172 977.675C120.999 982.406 101.824 1002.35 97.651 1004.63C93.233 1007.05 82.01 1004.26 75.677 1004.77C52.808 1006.61 24.719 1025.2 0.003 1046.82V1061C3.162 1057.97 6.101 1055.17 8.659 1052.75C31.947 1030.71 58.874 1011.03 92.863 1013.28C65.183 1041.72 34.443 1067.29 0.003 1087.07V1095.41C25.881 1082.55 49.818 1065.71 71.255 1046.41L98.854 1017.59C83.008 1060.21 44.97 1091.35 2.285 1104.95C1.538 1105.19 0.774 1105.43 0.002 1105.67V1116.36C43.964 1101.49 89.064 1064.52 100.756 1024.84C102.157 1020.09 101.359 1009.82 101.807 1009.16C102.696 1007.87 120.882 998.279 123.172 994.807L144.935 973.835C128.796 1029.35 112.073 1085.4 84.614 1136.49C81.734 1141.85 62.26 1175.14 59.446 1176.64C56.759 1178.08 39.809 1180.85 33.882 1183.1C22.396 1187.46 11.032 1193.74 0 1201.5V1214.88C9.043 1207.86 18.461 1201.64 28.197 1196.46C31.88 1194.5 49.149 1185.61 51.789 1185.19C53.301 1184.94 58.288 1186.33 58.966 1187.15C62.732 1191.7 49.388 1242.23 46.384 1250.77C37.245 1276.74 20.721 1303.5 0.002 1327.22V1342.46C34.396 1305.66 58.04 1259.1 63.659 1208.19C64.612 1199.56 63.025 1183.61 65.635 1176.56C68.681 1168.34 84.711 1147.72 90.311 1137.73C108.29 1105.63 122.805 1070.53 133.876 1035.45C136.928 1035.47 135.476 1036.11 135.807 1037.4C137.616 1044.45 137.774 1055.97 139.011 1063.83C139.709 1068.27 144.48 1084.58 144.275 1086.81C144.063 1089.11 140.916 1090.48 140.018 1093.68C138.215 1100.11 139.152 1115.9 138.473 1117.77C138.296 1118.25 133.799 1119.81 132.243 1121.4C103.325 1150.97 103.207 1220.02 104.524 1259.2C104.646 1262.83 106.487 1285.81 107.867 1286.95C113.409 1291.55 127.817 1274.54 130.65 1270.39C155.09 1234.6 170.779 1181.26 157.127 1138.9C153.588 1127.93 144.866 1120.94 148.647 1109.55C149.11 1108.16 149.68 1106.4 151.059 1108.3C151.66 1109.13 155.242 1122.36 156.368 1125.08C160.673 1135.49 170.6 1151.49 173.595 1160.52C176.388 1168.93 173.96 1186.86 174.98 1196.92C181.155 1257.79 217.356 1291.19 255.916 1332.08C262.78 1339.36 295.46 1378.8 300.788 1380.26C314.651 1384.07 309.42 1362.06 308.432 1355.53C298.832 1291.95 254.457 1192.53 194.832 1161.54C190.833 1159.46 177.69 1155.91 176.96 1155.31C175.078 1153.75 162.61 1114.65 161.125 1109.2C152.068 1075.95 147.883 1041.7 144.036 1007.54L170.82 906.787C173.612 914.835 176.517 923.065 179.925 930.888C181.572 934.668 187.304 941.418 188.125 944.135C191.526 955.385 190.409 979.642 193.018 993.293C201.455 1037.43 240.969 1116.18 274.299 1146.4C290.071 1160.7 304.006 1168.8 318.117 1186.38C325.472 1195.54 337.716 1220.45 343.46 1225.86C354.117 1235.91 361.473 1225.55 362.334 1214.17C365.4 1173.63 343.138 1111.13 321.045 1077.26C296.381 1039.45 257.714 1014.83 229.14 980.664C217.261 966.46 209.697 946.232 192.321 939.193C191.596 924.314 175.758 893.542 176.64 880.484C177.313 870.529 184.143 852.902 186.338 842.039C190.763 820.134 193.548 797.875 199.253 776.224L208.477 704.845C214.531 721.523 220.005 738.656 224.96 755.695C228.416 767.579 242.983 816.311 241.267 825.277C240.702 828.226 223.302 849.955 237.95 847.033C241.5 846.325 240.742 843.095 243.925 844.042C243.684 848.89 242.805 883.423 244.707 884.2C246.055 884.751 247.349 883.354 248.273 882.533C251.67 877.925 251.188 846.643 252.629 845.442C253.536 844.685 264.461 853.903 264.492 854.653C264.538 855.791 262.04 857.075 261.695 858.625C253.786 894.14 303.475 883.482 283.92 858.797C278.33 851.741 274.525 854.481 271.579 852.446C270.676 851.822 262.393 836.33 260.558 833.49C258.627 830.504 253.561 826.991 252.176 824.205C251.208 822.257 243.816 785.465 243.388 781.687C243.182 779.868 242.391 776.714 245.173 777.52C246.839 778.002 272.642 795.826 273.734 797.171C277.533 801.849 283.321 816.118 287.879 822.897C302.688 844.925 331.681 873.303 351.889 891.226C385.451 920.994 424.798 939.882 467.899 952.246C472.98 953.704 492.961 959.414 496.696 959.204C503.766 958.807 506.286 949.839 504.391 944.136C502.035 937.049 469.083 903.906 461.633 896.414C413.168 847.675 363.57 808.023 295.719 788.986C290.358 787.482 283.886 788.167 279.118 786.667C276.132 785.728 244.415 766.237 241.631 763.795C236.507 759.301 222.672 708.257 219.155 697.616C217.736 693.322 211.804 683.28 211.591 680.079C210.779 667.862 215.529 647.562 216.484 634.404C221.197 569.442 222.936 504.307 224.064 439.274L262.445 484.409C254.978 545.826 283.541 596.005 311.171 647.528C313.976 652.758 316.502 660.85 319.472 666.232C360.942 741.383 426.272 770.888 486.737 826.591C491.107 830.617 502.913 845.23 507.462 846.156C525.419 849.813 514.889 823.282 512.691 814.587C483.646 699.656 439.282 626.691 349.961 548.725C335.026 535.689 317.918 524.458 303.334 511.45C295.334 504.314 286.551 491.663 279.82 486.252C276.06 483.229 272.403 483.38 270.181 481.706C268.934 480.767 257.133 459.503 253.843 455.138C244.741 443.062 232.427 433.824 223.904 421.214C224.703 332.141 226.072 243.052 221.674 154.114C223.599 157.717 232.315 165.392 233.253 168.267C242.453 196.48 234.4 248.815 232.921 278.689C230.065 336.353 247.514 377.295 278.956 424.65C283.622 431.677 295.031 448.254 305.063 445.072C307.447 444.316 310.485 432.429 311.037 429.339C317.08 395.469 310.905 347.893 302.957 314.394C293.171 273.149 276.416 231.706 257.612 193.809L259.495 192.446C266.045 199.335 308.581 215.671 311.319 220.239C313.044 223.117 310.674 227.606 310.91 231.071C311.401 238.283 334.952 277.068 340.478 285.432C383.637 350.757 439.177 417.385 501.403 465.424C528.617 486.433 561.293 503.553 585.943 527.097C592.825 533.671 633.366 590.107 638.231 556.545C640.125 543.478 612.267 481.131 604.74 466.61V466.605ZM166.438 6.159C165.713 5.486 167.731 4.484 168.769 5.448C169.494 6.121 167.476 7.123 166.438 6.159ZM6.016 357.439C41.591 320.076 88.786 302.554 135.137 282.574C100.385 318.239 57.236 352.196 6.016 357.439ZM64.8 469.835C60.8 493.016 53.158 514.039 50.329 538.642C49.275 547.808 53.724 560.107 37.982 546.584C24.681 535.159 38.166 526.086 43.936 513.962C47.316 506.86 61.178 467.273 63.224 465.665C65.975 463.503 64.938 469.033 64.8 469.835ZM149.433 363.75C157.647 380.81 173.566 403.489 170.35 423.389L166.759 445.615L149.243 419.446C137.678 399.652 137.036 375.263 140.431 352.994C142.372 340.262 147.161 359.032 149.433 363.75ZM34.599 597.877L34.143 597.248L34.774 596.793L34.599 597.877ZM168.96 575.314C152.565 605.625 119.989 647.258 96.968 673.447C74.377 699.146 35.795 735.631 5.841 751.772C5.11 752.166 2.992 753.992 2.32 752.859C1.332 751.195 11.748 729.878 13.058 725.936C19.388 706.894 21.711 692.66 31.007 673.815C56.942 621.236 110.574 560.362 171.666 553.207C151.373 566.606 133.832 582.99 117.177 600.578C91.196 628.014 52.511 670.695 33.527 702.497C32.362 704.449 24.317 715.509 28.899 716.004C32.345 716.376 44.388 698.855 47.499 695.279C77.841 660.406 131.912 590.623 167.318 566.415C179.072 558.379 172.187 569.349 168.96 575.314ZM296.802 1362C294.506 1361.11 268.96 1330.18 264.155 1325.18C252.434 1312.96 239.289 1302.17 228.208 1289.31C205.692 1263.18 188.816 1230.88 185.356 1196.16C202.691 1235.78 217.041 1275.82 248.399 1306.84C256.422 1314.77 299.853 1351.48 298.69 1360.64C298.491 1362.21 298.577 1362.69 296.802 1362V1362ZM293.976 1344.87L293.52 1344.24L294.151 1343.79L293.976 1344.87ZM183.574 1162.47C184.445 1161.82 200.686 1171.77 202.652 1173.14C251.932 1207.43 281.1 1286.26 293.778 1342.61C287.998 1337.19 283.742 1329.38 278.454 1323.49C266.525 1310.21 252.535 1299.17 241.204 1284.73C221.472 1259.58 211.636 1229.4 199.574 1200.26C197.92 1196.26 181.929 1163.72 183.574 1162.47ZM152.633 1164.17C156.198 1193.46 150.999 1224.83 136.638 1250.81C132.199 1258.83 124.579 1268.81 115.772 1271.69C116.606 1247.59 114.758 1222.86 116.542 1198.81C117.753 1182.48 120.275 1169.67 126.355 1154.37C127.126 1152.43 133.525 1137.63 134.597 1137.89C139.123 1139 127.965 1218.3 126.677 1225.1C125.755 1229.98 116.668 1261.78 118.262 1263.19C122.036 1266.53 128.718 1247.18 129.559 1245C141.956 1212.87 147.116 1176.15 145.663 1141.91C150.831 1146.88 151.779 1157.15 152.634 1164.17H152.633ZM194.009 946.128C195.67 944.878 202.467 952.395 203.757 953.938C212.428 964.309 219.509 978.363 228.829 989.508C248.957 1013.58 274.938 1033.84 294.587 1058.02C324.678 1095.04 345.255 1143.83 349.979 1191.47C350.274 1194.45 351.641 1213.38 351.284 1214.47C350.98 1215.41 349.217 1214.89 349.03 1214.67C348.832 1214.44 348.049 1210.55 347.058 1208.9C335.528 1189.62 322.375 1170.55 305.417 1155.58C295.048 1146.42 282.755 1139.57 273.15 1129.03C247.958 1101.36 221.91 1050.02 209.987 1014.59C207.614 1007.53 191.195 948.247 194.01 946.129L194.009 946.128ZM307.566 803.433C362.322 820.399 412.196 861.765 452.401 901.149C462.5 911.041 487.435 934.287 494.071 944.871C494.785 946.011 496.844 949.057 495.402 950.127C492.692 952.138 450.372 909.497 442.364 908.385C411.775 886.566 374.071 871.482 344.607 848.576C327.124 834.984 314.213 816.862 297.46 802.565C295.265 798.667 305.811 802.889 307.566 803.433ZM297.138 814.782C313.449 832.57 328.784 849.071 349.017 862.64C390.96 890.768 440.162 910.15 478.553 944.072C435.786 934.595 395.246 920.149 361.147 892.212C349.262 882.474 340.69 872.353 330.809 860.906C321.877 850.559 303.752 830.343 297.448 819.347C296.739 818.111 295.323 815.75 297.137 814.782H297.138ZM272.567 508.257C274.493 512.133 274.401 517.608 275.637 521.794C290.704 572.814 315.858 624.976 355.556 661.554C401.313 703.714 451.296 734.051 482.698 790.224C484.969 794.286 495.553 819.259 496.91 820.217C498.788 821.542 498.768 819.237 498.711 817.961C495.693 751.016 391.922 684.216 349.641 640.018C332.866 622.483 321.364 600.682 310.344 579.195C302.609 564.115 279.041 518.195 278.156 503.727C278.056 502.102 277.355 500.792 279.73 501.635C281.033 502.098 296.225 517.966 299.595 520.848C378.609 588.445 440.182 638.611 479.146 739.142C482.786 748.534 510.373 829.844 506.542 832.895C456.331 779.909 381.48 751.218 340.144 689.906C314.279 651.541 275.226 563.992 272.346 518.458C272.128 515.011 271.483 511.692 272.567 508.257ZM276.964 253.62C288.763 283.896 306.542 335.377 306.343 367.508C306.241 383.87 301.813 402.79 300.295 419.273L263.483 226.469C269.003 234.464 273.446 244.592 276.964 253.62ZM297.121 425.616C297.407 426.41 302.33 430.877 298.907 431.3C296.712 431.572 294.733 429.019 293.362 427.634C288.234 422.451 276.103 399.697 271.778 391.958C234.816 325.823 242.914 308.157 246.253 235.525C246.646 226.975 245.015 217.11 245.531 209.141C245.64 207.455 245.19 205.586 247.454 204.991C249.188 204.535 251.472 214.415 251.965 216.08C272.389 285.148 272.415 357.04 297.12 425.616H297.121ZM627.179 555.31C625.721 556.728 612.672 541.718 611.144 540.049C578.019 503.849 551.899 490.974 513.083 463.706C445.619 416.313 393.303 356.495 352.002 285.741C349.544 281.531 319.41 230.97 322.102 229.236C323.122 228.579 326.256 230.966 327.315 231.694C340.808 240.972 355.582 255.731 369.756 266.238C428.918 310.093 496.069 344.381 545.826 399.871C576.88 434.503 603.8 484.072 619.601 527.736C620.898 531.32 628.422 554.101 627.178 555.311L627.179 555.31Z" fill="white"/>
<path d="M258.926 893.575C270.691 909.74 252.364 923.046 240.672 910.086C226.16 893.999 246.061 875.899 258.926 893.575Z" fill="white"/>
<path d="M221.78 872.553C207.81 872.723 211.822 843.314 229.197 848.355C243.198 852.417 231.175 872.439 221.78 872.553Z" fill="white"/>
</svg>
