<svg width="662" height="1467" viewBox="0 0 662 1467" fill="none" xmlns="http://www.w3.org/2000/svg">
<path d="M277.537 1134.81C285.531 1140.86 302.425 1158.25 309.312 1161.72C338.575 1176.48 371.413 1192.8 394.157 1217.43C403.233 1227.25 410.879 1238.72 419.034 1249.3C428.332 1321.01 440.459 1393.99 439.943 1466.6H451.269C451.351 1459.49 451.33 1452.43 451.209 1445.47C451.069 1437.43 446.441 1388.46 447.872 1385.84C449.14 1383.51 484.96 1379.47 490.501 1378.34C562.366 1363.66 601.377 1331.19 650.238 1279.44C653.457 1276.03 657.228 1272.03 661.294 1267.66V1251.91C626.838 1290.01 568.61 1347.96 527.608 1363.3C511.746 1369.24 489.907 1373 472.988 1374.68C509.307 1356.76 544.281 1340.34 575.296 1313.81C601.45 1291.45 624.032 1264.69 650.419 1242.55C653.433 1240.02 657.238 1237.29 661.294 1234.47V1224.47C628.806 1246.14 602.561 1276.08 572.876 1301.19C535.121 1333.12 490.693 1353.91 446.219 1374.83C448.442 1368.77 450.88 1362.84 454.098 1357.22C482.967 1306.8 595.512 1239.69 650.438 1221.36C653.98 1220.18 657.615 1219 661.294 1217.93V1205.44C622.02 1217.64 587.066 1236.82 552.001 1259.08C517.787 1280.8 482.304 1304.08 458.844 1337.93L456.936 1335.97C462.248 1322.28 459.517 1300.36 465.254 1287.75C467.183 1283.51 486.62 1266.55 491.467 1265.62C494.667 1265 498.724 1266.26 502.624 1265.12C518.803 1260.39 520.048 1225.78 497.022 1234.83C482.134 1240.68 486.707 1257.33 484.758 1259.65C484.134 1260.39 467.538 1267.74 466.997 1266.94C468.493 1261.01 477.156 1220.24 479.226 1218.86C481.455 1217.39 495.784 1225.41 500.083 1207.24C506.805 1178.83 469.716 1182.94 473.12 1210.32C473.433 1212.84 476.275 1215.43 475.855 1217.56C475.25 1220.63 465.834 1236.02 463.731 1241.88C452.34 1273.67 451.966 1308.94 444.861 1341.82L442.439 1343.08L426.472 1181.03C437.623 1176.24 446.066 1170.14 454.246 1161.14C460.179 1154.61 471.723 1133.93 475.631 1131.01C480.265 1127.54 518.517 1114.15 526.161 1111.97C553.318 1104.23 584.559 1104.68 608.074 1087.22C624.402 1075.1 635.91 1055.47 648.584 1039.76C651.223 1036.48 657.419 1030.87 661.292 1025.35V1012.18C659.607 1011.21 657.23 1010.44 653.945 1009.96C616.453 1004.51 562.623 1034.49 535.294 1058.28C528.835 1063.9 493.972 1101.33 490.883 1101.7C489.31 1101.88 488.944 1101.32 489.557 1099.88C507.189 1060.93 525.989 1022.09 549.419 986.288C552.874 981.007 567.313 958.671 570.709 956.024C574.699 952.914 590.261 951.515 596.587 949.342C617.428 942.183 633.271 923.121 651.045 910.54C652.589 909.447 656.493 907.147 661.291 904.36V897.895L595.696 939.476C603.125 928.493 613.119 919.638 621.258 909.163C624.928 904.439 634.884 886.711 637.935 884.462C641.209 882.048 651.221 881.908 661.291 882.332V872.655C653.843 872.239 643.96 872.266 643.456 871.529C642.792 870.559 647.752 852.503 648.14 848.507C648.601 843.768 647.822 820.073 643.489 818.243C639.023 816.357 618.171 838.032 615.943 838.176C614.879 838.245 606.711 825.848 601.377 822.826C574.426 807.56 579.546 826.594 577.398 843.698C573.398 875.546 561.963 906.192 562.838 937.777C562.917 940.638 565.467 953.091 565.289 953.886C564.668 956.65 535.371 991.569 530.553 998.682C527.52 1003.16 511.969 1031.08 510.059 1031.37C507.668 1031.73 511.391 1013.86 511.47 1012.16C512.315 993.814 508.923 974.26 500.144 958.064C496.837 951.962 477.708 926.639 471.326 927.359C467.254 927.819 463.195 950.906 462.675 955.387C458.597 990.501 473.182 1002.35 484.015 1031.95C485.919 1037.16 493.625 1060.8 492.978 1064.78C492.012 1070.73 471.826 1111.7 467.624 1119.95C457.503 1139.81 446.196 1156.68 428.475 1170.64C426.067 1170.07 426.422 1163.62 426.324 1161.67C425.519 1145.48 425.523 1128.8 425.319 1112.58C424.464 1044.64 426.755 976.583 426.959 908.639C446.484 896.175 464.466 881.436 484.186 869.306C510.211 853.297 539.218 841.363 564.241 823.75C569.054 820.363 589.586 801.792 591.29 801.367C593.276 800.872 608.076 806.381 612.082 807.188C630.524 810.904 646.636 811.349 661.288 809.134V803.442C656.421 804.585 651.58 805.224 646.802 805.208C641.248 805.19 603.57 800.424 601.809 798.077C601.496 797.66 602.364 794.867 603.458 794.387C623.473 783.813 642.256 770.126 661.288 756.881V744.861C642.749 757.468 624.72 771.03 606.053 782.065C601.467 782.408 612.566 771.226 613.682 770.052C629.232 753.684 644.79 740.639 661.288 730.441V719.765C634.47 735.005 611.469 756.498 592.91 785.117C590.252 789.216 589.974 794.284 586.86 797.978C582.967 802.596 555.225 818.822 548.215 822.827C524.636 836.301 499.017 846.461 475.774 860.659C461.685 869.266 448.829 879.563 435.515 889.231C439.106 883.279 454.914 838.604 457.394 837.256C458.287 836.77 466.709 838.933 469.566 838.819C531.183 836.355 595.285 755.032 616.866 702.836C623.017 687.959 625.389 673.691 630.074 658.752C634.485 644.685 654.811 613.709 626.747 624.977C591.127 639.279 545.543 686.637 521.011 716.271C506.919 733.294 453.902 803.367 450.891 821.078C449.973 826.479 453.081 831.148 452.026 834.321C451.487 835.94 444.62 844.057 442.894 847.055C437.753 855.984 433.766 865.269 429.005 874.341C428.217 875.843 429.697 877.775 426.399 876.634L439.977 675.254C511.279 686.101 578.089 633.875 609.861 573.793C621.511 551.764 625.621 530.681 634.441 508.288C638.361 498.336 650.827 479.193 652.072 470.594C652.609 466.885 651.95 457.953 646.671 458.808C640.383 459.827 619.11 471.346 612.259 474.985C547.296 509.492 489.77 562.175 447.496 621.953C455.587 559.881 470.639 498.927 485.837 438.226C495.805 427.173 503.3 414.187 513.149 403.021C517.322 398.29 536.497 378.345 540.671 376.063C545.089 373.648 556.312 376.434 562.645 375.924C593.033 373.476 632.637 341.478 661.289 312.053V296.917C650.369 308.196 638.005 320.05 629.663 327.945C606.375 349.988 579.448 369.67 545.459 367.412C575.885 336.153 609.991 308.341 648.664 287.888C649.698 287.341 655.142 284.419 661.288 281.254V275.158C626.51 288.583 594.715 309.395 567.066 334.287L539.467 363.11C555.313 320.489 593.35 289.342 636.036 275.743C643.602 273.332 652.503 270.776 661.289 269.421V258.663C611.308 266.257 551.321 309.175 537.565 355.853C536.164 360.607 536.962 370.877 536.514 371.532C535.625 372.829 517.44 382.417 515.149 385.889L493.386 406.862C509.525 351.346 526.248 295.295 553.707 244.209C556.587 238.85 576.061 205.562 578.875 204.057C581.561 202.62 598.512 199.85 604.439 197.599C624.103 190.131 643.4 177.036 661.29 160.461V145.432C645.664 161.153 628.441 174.487 610.124 184.236C606.442 186.196 589.173 195.084 586.532 195.511C585.02 195.756 580.033 194.367 579.355 193.548C575.589 188.996 588.933 138.468 591.937 129.929C604.248 94.9427 629.955 58.5158 661.289 30.0488V16.4338C614.613 55.7068 581.459 110.929 574.663 172.503C573.71 181.137 575.297 197.088 572.687 204.135C569.641 212.357 553.611 232.974 548.011 242.972C530.033 275.07 515.517 310.163 504.446 345.249C501.394 345.231 502.846 344.586 502.515 343.295C500.706 336.25 500.548 324.727 499.311 316.864C498.613 312.426 493.842 296.116 494.047 293.885C494.259 291.583 497.406 290.222 498.304 287.018C500.107 280.584 499.17 264.794 499.849 262.93C500.026 262.445 504.523 260.885 506.079 259.294C534.997 229.729 535.116 160.681 533.798 121.497C533.676 117.868 531.836 94.8888 530.455 93.7438C524.913 89.1498 510.505 106.161 507.672 110.309C483.232 146.101 467.543 199.443 481.196 241.794C484.735 252.772 493.457 259.755 489.675 271.145C489.212 272.539 488.642 274.295 487.263 272.396C486.662 271.568 483.08 258.34 481.954 255.617C477.649 245.209 467.722 229.209 464.727 220.181C461.934 211.764 464.363 193.836 463.342 183.779C457.167 122.914 420.966 89.5078 382.406 48.6228C375.541 41.3448 342.861 1.90378 337.534 0.439775C323.671 -3.36922 328.902 18.6358 329.889 25.1728C339.489 88.7458 383.864 188.174 443.489 219.163C447.488 221.242 460.631 224.792 461.361 225.394C463.243 226.946 475.711 266.051 477.196 271.499C486.254 304.746 490.438 339.004 494.285 373.164L467.501 473.913C464.709 465.865 461.804 457.635 458.396 449.812C456.749 446.032 451.017 439.282 450.196 436.565C446.795 425.316 447.912 401.058 445.303 387.407C436.866 343.267 397.352 264.52 364.022 234.3C348.25 220 334.315 211.903 320.204 194.322C312.849 185.159 300.605 160.252 294.861 154.836C284.204 144.789 276.848 155.152 275.987 166.533C272.921 207.065 295.183 269.572 317.276 303.44C341.94 341.25 380.607 365.868 409.181 400.036C421.06 414.24 428.624 434.468 446 441.507C446.725 456.386 462.564 487.158 461.681 500.216C461.008 510.171 454.178 527.797 451.983 538.661C447.558 560.566 444.773 582.824 439.068 604.476L429.844 675.855C423.789 659.177 418.315 642.044 413.361 625.005C409.905 613.121 395.338 564.389 397.054 555.423C397.619 552.474 415.019 530.745 400.371 533.666C396.821 534.374 397.58 537.604 394.396 536.657C394.637 531.809 395.516 497.276 393.615 496.499C392.266 495.948 390.973 497.345 390.049 498.166C386.652 502.774 387.133 534.056 385.693 535.257C384.786 536.014 373.861 526.796 373.83 526.046C373.784 524.908 376.282 523.624 376.627 522.074C384.536 486.559 334.847 497.217 354.402 521.902C359.992 528.958 363.798 526.218 366.743 528.253C367.646 528.876 375.929 544.369 377.764 547.209C379.694 550.195 384.761 553.708 386.146 556.494C387.114 558.442 394.506 595.234 394.935 599.012C395.141 600.831 395.931 603.984 393.15 603.179C391.484 602.697 365.681 584.873 364.589 583.528C360.79 578.85 355.002 564.581 350.444 557.802C335.635 535.774 306.642 507.396 286.434 489.473C252.872 459.705 213.525 440.817 170.424 428.453C165.343 426.996 145.361 421.285 141.627 421.495C134.557 421.892 132.037 430.86 133.932 436.563C136.288 443.65 169.24 476.793 176.69 484.285C225.155 533.024 274.753 572.676 342.604 591.713C347.965 593.217 354.437 592.532 359.206 594.032C362.191 594.971 393.909 614.462 396.693 616.903C401.817 621.397 415.652 672.441 419.169 683.082C420.588 687.376 426.52 697.418 426.733 700.619C427.545 712.836 422.795 733.136 421.84 746.294C417.127 811.256 415.388 876.391 414.26 941.425L375.879 896.29C383.346 834.873 354.783 784.694 327.152 733.171C324.348 727.941 321.821 719.849 318.851 714.467C277.381 639.316 212.051 609.811 151.586 554.108C147.216 550.082 135.41 535.469 130.861 534.543C112.904 530.886 123.434 557.417 125.632 566.112C154.677 681.043 199.042 754.008 288.362 831.974C303.297 845.01 320.406 856.24 334.989 869.249C342.989 876.384 351.772 889.035 358.503 894.447C362.263 897.47 365.92 897.319 368.142 898.993C369.389 899.932 381.19 921.196 384.48 925.561C393.582 937.637 405.896 946.875 414.419 959.485C413.62 1048.56 412.251 1137.65 416.649 1226.58C414.724 1222.98 406.008 1215.31 405.071 1212.43C395.871 1184.22 403.923 1131.88 405.403 1102.01C408.258 1044.35 390.81 1003.4 359.368 956.049C354.702 949.022 343.293 932.445 333.261 935.627C330.877 936.383 327.839 948.27 327.287 951.361C321.244 985.231 327.419 1032.81 335.367 1066.31C345.153 1107.55 361.908 1148.99 380.711 1186.89L378.828 1188.25C372.278 1181.37 329.742 1165.03 327.004 1160.46C325.279 1157.58 327.649 1153.1 327.413 1149.63C326.922 1142.42 303.371 1103.63 297.845 1095.27C254.686 1029.94 199.146 963.316 136.92 915.277C109.706 894.268 77.0302 877.148 52.3802 853.604C45.4982 847.031 4.95711 790.594 0.0921119 824.156C-1.80189 837.222 26.0562 899.569 33.5842 914.091C93.1722 1029.04 180.663 1061.5 277.533 1134.82L277.537 1134.81ZM471.89 1374.53C472.615 1375.21 470.597 1376.21 469.559 1375.24C468.834 1374.57 470.852 1373.57 471.89 1374.53ZM650.558 1020.62C651.428 1022.22 634.645 1040.41 632.178 1043.61C617.639 1062.45 610.565 1078.51 586.734 1088.24C568.338 1095.75 544.506 1097.79 524.912 1101.61C548.708 1085.92 576.769 1077.19 600.593 1060.97C615.815 1050.61 624.678 1036.68 637.745 1027.43C642.014 1024.41 646.691 1024.13 650.558 1020.62ZM632.311 1023.25C596.735 1060.62 549.541 1078.14 503.19 1098.12C537.942 1062.45 581.091 1028.5 632.311 1023.25ZM632.741 830.816C633.542 830.262 640.233 825.812 640.676 826.59C641.262 827.619 639.653 847.423 639.097 850.21C632.803 881.76 608.117 913.001 584.676 934.221C582.969 935.767 581.726 938.848 579.229 937.937C581.538 925.871 585.643 914.257 589.728 902.725C598.985 876.587 609.532 846.854 632.742 830.815L632.741 830.816ZM573.528 910.857C577.528 887.676 585.17 866.653 587.999 842.05C589.053 832.884 584.604 820.585 600.346 834.108C613.647 845.533 600.162 854.606 594.392 866.73C591.012 873.833 577.15 913.419 575.104 915.027C572.354 917.189 573.39 911.659 573.528 910.857ZM488.895 1016.94C480.681 999.883 464.762 977.204 467.978 957.304L471.569 935.078L489.085 961.247C500.65 981.041 501.292 1005.43 497.897 1027.7C495.956 1040.43 491.167 1021.66 488.895 1016.94ZM603.728 782.816L604.184 783.446L603.553 783.901L603.728 782.816ZM469.367 805.379C485.762 775.068 518.338 733.435 541.359 707.246C563.95 681.547 602.532 645.062 632.486 628.921C633.217 628.527 635.335 626.701 636.007 627.834C636.996 629.498 626.579 650.815 625.269 654.758C618.939 673.8 616.616 688.034 607.32 706.879C581.385 759.458 527.753 820.332 466.661 827.487C486.954 814.088 504.495 797.703 521.15 780.116C547.131 752.68 585.816 709.999 604.799 678.197C605.964 676.245 614.009 665.185 609.427 664.69C605.981 664.318 593.938 681.839 590.827 685.415C560.485 720.288 506.414 790.071 471.008 814.279C459.254 822.315 466.14 811.344 469.367 805.379ZM341.525 18.6958C343.821 19.5858 369.367 50.5088 374.172 55.5158C385.892 67.7288 399.038 78.5188 410.119 91.3788C432.635 117.511 449.511 149.81 452.97 184.538C435.635 144.916 421.285 104.871 389.927 73.8528C381.904 65.9178 338.473 29.2168 339.636 20.0508C339.835 18.4798 339.749 18.0068 341.524 18.6948L341.525 18.6958ZM344.352 35.8218L344.808 36.4508L344.177 36.9058L344.352 35.8218ZM454.754 218.218C453.883 218.877 437.642 208.923 435.676 207.554C386.396 173.257 357.228 94.4278 344.55 38.0858C350.33 43.5008 354.586 51.3158 359.874 57.2028C371.803 70.4818 385.793 81.5177 397.124 95.9597C416.856 121.111 426.692 151.295 438.754 180.431C440.408 184.427 456.4 216.972 454.754 218.218ZM485.694 216.52C482.129 187.23 487.327 155.862 501.689 129.888C506.128 121.859 513.748 111.886 522.555 109.003C521.721 133.103 523.569 157.834 521.785 181.884C520.574 198.21 518.052 211.018 511.973 226.326C511.202 228.267 504.803 243.067 503.731 242.804C499.205 241.694 510.363 162.397 511.651 155.59C512.573 150.716 521.66 118.916 520.066 117.505C516.291 114.165 509.61 133.513 508.769 135.692C496.372 167.822 491.212 204.548 492.665 238.785C487.497 233.811 486.549 223.541 485.694 216.52ZM444.318 434.564C442.657 435.814 435.86 428.297 434.57 426.754C425.899 416.383 418.818 402.329 409.498 391.184C389.37 367.115 363.389 346.852 343.74 322.676C313.649 285.652 293.072 236.866 288.349 189.225C288.053 186.245 286.687 167.312 287.044 166.217C287.348 165.284 289.111 165.802 289.298 166.02C289.496 166.252 290.28 170.139 291.27 171.795C302.8 191.07 315.953 210.138 332.912 225.115C343.28 234.271 355.573 241.12 365.178 251.667C390.37 279.33 416.418 330.675 428.341 366.107C430.713 373.158 447.133 432.446 444.318 434.564ZM444.825 658.846C447.656 613.242 549.203 527.508 587.135 502.594C590.626 500.301 637.054 472.149 638.452 474.712C639.036 475.784 632.479 487.322 631.662 489.85C626.74 505.067 625.194 522.22 620.201 537.674C607.017 578.478 574.981 619.306 538.616 641.78C516.426 655.493 477.265 669.56 450.99 665.942C444.47 665.044 444.402 665.656 444.825 658.846ZM330.761 577.259C276.005 560.293 226.131 518.927 185.926 479.543C175.827 469.651 150.892 446.405 144.256 435.821C143.542 434.681 141.483 431.635 142.925 430.565C145.635 428.554 187.955 471.195 195.963 472.307C226.552 494.126 264.256 509.21 293.72 532.116C311.203 545.707 324.115 563.83 340.867 578.127C343.063 582.025 332.516 577.803 330.761 577.259ZM341.189 565.911C324.878 548.123 309.543 531.622 289.31 518.053C247.366 489.925 198.165 470.543 159.774 436.621C202.541 446.098 243.082 460.544 277.18 488.481C289.065 498.219 297.637 508.34 307.518 519.786C316.45 530.133 334.575 550.349 340.879 561.345C341.588 562.582 343.003 564.942 341.189 565.911ZM365.76 872.436C363.834 868.56 363.926 863.085 362.69 858.899C347.623 807.879 322.469 755.716 282.771 719.139C237.014 676.979 187.031 646.642 155.629 590.469C153.358 586.407 142.774 561.434 141.417 560.476C139.539 559.151 139.559 561.457 139.616 562.732C142.634 629.677 246.405 696.478 288.686 740.675C305.461 758.21 316.963 780.011 327.984 801.497C335.719 816.577 359.287 862.497 360.172 876.965C360.271 878.59 360.973 879.9 358.598 879.057C357.295 878.594 342.103 862.726 338.733 859.844C259.719 792.247 198.146 742.081 159.182 641.55C155.542 632.158 127.955 550.848 131.786 547.797C181.997 600.783 256.848 629.474 298.184 690.786C324.049 729.151 363.102 816.7 365.982 862.234C366.2 865.681 366.845 868.999 365.761 872.435L365.76 872.436ZM361.363 1127.07C349.564 1096.8 331.785 1045.32 331.984 1013.18C332.086 996.823 336.514 977.903 338.033 961.42L374.844 1154.22C369.324 1146.23 364.881 1136.1 361.363 1127.07ZM341.206 955.077C340.92 954.283 335.997 949.816 339.42 949.392C341.615 949.12 343.594 951.673 344.965 953.059C350.093 958.242 362.224 980.996 366.549 988.735C403.511 1054.87 395.413 1072.54 392.074 1145.17C391.681 1153.72 393.312 1163.58 392.796 1171.55C392.687 1173.24 393.137 1175.11 390.873 1175.7C389.139 1176.16 386.854 1166.28 386.362 1164.61C365.938 1095.54 365.912 1023.65 341.207 955.078L341.206 955.077ZM11.1481 825.382C12.6071 823.964 25.6552 838.974 27.1832 840.643C60.3082 876.843 86.4282 889.718 125.244 916.986C192.708 964.379 245.024 1024.2 286.325 1094.95C288.782 1099.16 318.917 1149.72 316.225 1151.46C315.205 1152.11 312.07 1149.73 311.012 1149C297.519 1139.72 282.745 1124.96 268.571 1114.45C209.409 1070.6 142.258 1036.31 92.5012 980.822C61.4472 946.19 34.5271 896.621 18.7261 852.957C17.4291 849.373 9.90414 826.592 11.1481 825.382Z" fill="white"/>
<path d="M307.802 1210.7C300.665 1200.49 269.421 1157.67 260.443 1153.85C254.314 1151.24 250.361 1150.92 249.332 1157.94C248.37 1164.5 252.854 1193.74 253.899 1202.62C262.039 1271.82 273.124 1329.15 306.008 1391.13C311.687 1401.83 332.388 1437.42 351.332 1466.6H358.838C342.534 1440.91 321.196 1404.58 317.28 1397.37C301.85 1368.94 290.875 1345.65 283.576 1314.38C274.485 1275.43 267.06 1235.59 263.294 1196.34C267.922 1208.88 271.167 1221.99 276.265 1234.39C283.699 1252.48 294.398 1269.54 302.563 1287.28C328.485 1343.6 348.015 1407.76 369.722 1466.6H380.808C368.865 1429.09 354.868 1392.18 341.062 1355.32C337.825 1346.68 335.715 1336.15 332.528 1327.95C312.475 1276.31 280.408 1230.33 261.57 1177.94C261.263 1177.08 258.832 1169.8 262.225 1171.71C264.991 1173.27 277.383 1188.18 280.299 1191.74C325.628 1247.1 362.803 1312.41 375.813 1382.96C380.843 1410.23 384.938 1438.58 386.717 1466.61H395.598C393.772 1447.04 388.952 1422.49 385.698 1404.57C371.525 1326.54 353.299 1275.8 307.803 1210.71L307.802 1210.7Z" fill="white"/>
<path d="M117.177 1436.24C114.663 1434.07 96.6661 1418.56 97.2051 1417.13C99.0721 1412.18 140.922 1412.72 147.35 1413.46C187.916 1418.13 250.71 1445.32 286.996 1466.6H303.685C242.474 1431.33 165.783 1403.81 111.162 1403.24C98.5082 1403.11 74.9202 1409.74 88.1042 1425.59C96.1232 1435.23 120.904 1454.47 131.79 1463.07C133.31 1464.27 134.843 1465.43 136.371 1466.6H155.345C143.136 1457.86 130.546 1447.82 117.177 1436.24Z" fill="white"/>
<path d="M379.401 487.118C367.636 470.953 385.963 457.647 397.655 470.607C412.167 486.694 392.266 504.794 379.401 487.118Z" fill="white"/>
<path d="M416.548 508.14C430.518 507.97 426.506 537.379 409.131 532.338C395.131 528.276 407.153 508.254 416.548 508.14Z" fill="white"/>
</svg>
