<?xml version="1.0" encoding="UTF-8"?>
<svg id="Capa_2" data-name="Capa 2" xmlns="http://www.w3.org/2000/svg" viewBox="0 0 50.52 71.29">
  <g id="Capa_2-2" data-name="Capa 2">
    <g>
      <path d="M22.2,17.72s21.21,22,4.71,27.43C10.42,50.59,4.76,23.85,4.76,23.85c0,0-10.52,23.13-.28,36.58s33.82,17.13,44.2-4.84c10.38-21.98-26.48-37.86-26.48-37.86h0Z" style="fill: #fff;"/>
      <path d="M24.52,19.27c-2.65-2.26-6.1-3.57-9.58-3.64-1.51-.03-3.03.17-4.54.06-2.01-.15-3.98-.85-5.63-2.01-1.39-.97-2.57-2.32-3.06-3.94s-.17-3.54,1.05-4.72" style="fill: none; stroke: #280400; stroke-linecap: round; stroke-linejoin: round; stroke-width: 1.23px;"/>
      <path d="M4.74,25.88c-.49-2.88,1.39-5.71,3.73-7.45,2.35-1.74,5.16-2.73,7.71-4.17s4.96-3.6,5.52-6.47c.5-2.52-.54-5.13-2.11-7.17" style="fill: none; stroke: #280400; stroke-linecap: round; stroke-linejoin: round; stroke-width: 1.23px;"/>
      <path d="M32.33,63.35c1.54-3.16,3.1-6.4,3.42-9.9.19-2.04-.18-4.32-1.75-5.62-.41-.34-.92-.6-1.45-.63-.78-.04-1.51.41-2.1.93-1.09.95-1.95,2.17-2.46,3.52-1.33-.59-2.84-1.27-4.3-1.22s-3,.95-3.28,2.38c-.24,1.21.46,2.41,1.22,3.38,2.62,3.33,6.97,5.16,10.7,7.17h0Z" style="fill: #7fc7f7;"/>
    </g>
  </g>
</svg>