<?xml version="1.0" encoding="UTF-8"?>
<svg id="Capa_2" data-name="Capa 2" xmlns="http://www.w3.org/2000/svg" viewBox="0 0 51.39 60.32">
  <g id="Capa_2-2" data-name="Capa 2">
    <g>
      <path d="M33.01,34.8c2.08-4.69,7.95-6.06,12.09-9.1,4.08-3,6.6-8.09,6.25-13.13-.35-5.05-3.66-9.84-8.36-11.72s-10.55-.59-13.84,3.25c-5.55,6.46-2.77,16.84-6.99,24.24,2.32,3.31,7.11,4.91,10.85,6.46Z" style="fill: #f1cb7e;"/>
      <path d="M2.1,23.88c4.37,4.42,9.41,8.08,14.66,11.4.24.15.48.3.72.44,1.57.98,3.15,1.93,4.73,2.87,1.16.68,2.32,1.36,3.51,2.02.24.15.49.28.73.42,5.65,3.2,11.46,6.12,17.65,8.13,1.56.51,3.94,1.58,5.59,1.49.22,0,.4-.04.57-.09.09-.02.17-.05.24-.08,1.47-.64.3-2.87-.65-3.83-2.02-2.06-4.18-3.98-6.41-5.81-3.13-2.56-6.43-4.94-9.77-7.23-3.15-2.17-6.34-4.25-9.49-6.38-.37-.25-.74-.5-1.12-.75-4.04-2.72-8.14-5.37-12.67-7.14-2.27-.89-5.97-2.42-8.42-1.73-.77.22-1.27.54-1.58.96-.06.07-.1.14-.14.22-.84,1.49.57,3.8,1.86,5.11v-.02Z" style="fill: #7fc7f7;"/>
      <path d="M34.61,9.52c-.66.57-1.4,1.1-2.25,1.3s-1.85,0-2.39-.69c-.42-.53-.51-1.24-.47-1.92.15-2.57,2.74-5.93,5.64-5.48,3.83.6,1.12,5.37-.53,6.79Z" style="fill: #fff;"/>
      <path d="M29.29,12.1c.75.02,1.47.53,1.76,1.23.28.7.11,1.56-.42,2.1-.47.48-1.2.69-1.86.55-.84-.18-1.53-.94-1.63-1.8-.09-.86.41-1.75,1.2-2.11l.95.02h0Z" style="fill: #fff;"/>
      <path d="M.24,18.78c3.91.31,7.68,2.08,10.98,3.78,3.86,1.98,7.66,4.1,11.38,6.35h0c2.44,1.45,4.84,2.99,7.2,4.57,0,0,.02,0,.03.02,5.03,3.37,9.89,7,14.55,10.86,2.21,1.82,4.43,3.79,5.86,6.2.09-.02.17-.05.24-.08-1.45-2.46-3.71-4.46-5.95-6.31-4.39-3.63-8.93-7.04-13.64-10.23h0c-2.85-1.93-5.75-3.79-8.71-5.57-3.54-2.14-7.17-4.14-10.85-6.04-3.3-1.68-7.05-3.44-10.96-3.78-.06.06-.1.14-.14.21v.02Z" style="fill: #ffefe0;"/>
      <path d="M5.9,45.3c.82-1.76,2.13-3.24,3.18-4.32,2.37-2.44,4.71-4.22,7.17-5.45.15-.08.32-.16.51-.24,1.86-.87,5.38-2.29,7.38-1.43.66.28,1.1.77,1.32,1.47.57,1.82.87,3.8.99,5.72.17,2.42.08,4.76-.05,6.62-.17,2.77-.59,4.82-1.34,6.6-.98,2.31-2.57,4.11-4.47,5.07-.84.42-1.8.71-2.85.87-.53.08-1.08.11-1.61.11-3.36,0-6.67-1.51-8.76-4.07-2.48-3.05-3.07-7.45-1.46-10.95h-.01ZM7.91,55.8c2.27,2.78,6.08,4.24,9.73,3.69.97-.14,1.86-.4,2.63-.8,1.75-.88,3.22-2.55,4.14-4.71.72-1.71,1.12-3.67,1.29-6.37.12-1.95.22-4.44,0-6.99-.14-1.72-.42-3.47-.94-5.09-.15-.5-.46-.83-.93-1.03-.35-.15-.76-.22-1.21-.22-1.65,0-3.82.84-5.16,1.44-.38.17-.69.32-.92.43-2.38,1.19-4.67,2.92-6.97,5.3-1.01,1.04-2.28,2.46-3.05,4.13-1.5,3.25-.95,7.36,1.37,10.21h.02Z" style="fill: #7fc7f7;"/>
    </g>
  </g>
</svg>