<?xml version="1.0" encoding="UTF-8"?>
<svg id="Capa_2" xmlns="http://www.w3.org/2000/svg" version="1.1" viewBox="0 0 58.5 104.7">
  <!-- Generator: Adobe Illustrator 30.1.0, SVG Export Plug-In . SVG Version: 2.1.1 Build 136)  -->
  <defs>
    <style>
      .st0 {
        fill: #fff;
      }

      .st1 {
        fill: #280400;
      }

      .st2 {
        fill: #806151;
      }

      .st3 {
        fill: #f1cb7e;
      }
    </style>
  </defs>
  <g id="Capa_2-2">
    <g>
      <g>
        <path class="st3" d="M56.5,18.6c1,2.5,1.6,5,1.8,7.6,0,.2,0,.4,0,.6.2,1.8.1,3.6,0,5.3,0,.5-.1,1-.2,1.4-1.2,7.9-5.5,15.1-12.2,19.7-.5.4-1,.7-1.6,1-.2.1-.4.2-.6.3-1.2.7-2.6,1.3-3.9,1.9-2.8,1.1-5.7,1.7-8.6,1.9-.2,0-.4,0-.6,0-.2,0-.3,0-.5,0-5.1.2-10.2-1-14.6-3.4-.2-.1-.4-.2-.6-.3-.2-.1-.4-.2-.6-.4-5.4-3.2-9.9-8.2-12.4-14.5-.7-1.9-1.3-3.9-1.6-5.8-.2-.9-.3-1.8-.3-2.7,0,0,0,0,0-.1,0-.2,0-.4,0-.6C-.5,18.4,6.6,6.7,18.6,2c.4-.2.8-.3,1.2-.4.3,0,.6-.2.8-.3.9-.3,1.8-.5,2.7-.7,1.4-.3,2.8-.5,4.2-.5.3,0,.5,0,.8,0,.2,0,.3,0,.5,0,4.3,0,8.6.9,12.5,2.6.2.1.5.2.7.3,1.4.7,2.8,1.5,4.1,2.4,4.5,3.2,8.2,7.7,10.3,13.2h0s0,0,0,0Z"/>
        <path class="st1" d="M20.6,1.3c-6.2,8.5-9.5,20.1-9,32.7.2,7.1,1.6,14.2,3.4,20.8,1.9,6.9,4.3,13.3,6.6,18.8,2.1,5,4.4,10.4,7.5,15.3l-.4.3c-3.1-5-5.4-10.4-7.5-15.4-2.3-5.6-4.8-12.2-6.7-19.3-1.8-6.5-3.1-13.4-3.3-20.4-.4-12.5,2.7-24,8.7-32.5.3,0,.6-.2.8-.3h0Z"/>
        <path class="st1" d="M28.8,0c.5,2,.6,4.1.7,6,.8,17.4,1.2,34.9,1.2,52.5,0,10.2-.1,20.5-.4,30.7h-.5c.3-10.2.4-20.4.4-30.6,0-17.5-.4-35.1-1.2-52.5,0-1.9-.2-4-.7-6,.2,0,.3,0,.5,0h0Z"/>
        <path class="st1" d="M45.4,18.1c1.2,12,.8,24.2-1,36.1-1.7,11.1-4.7,22-9,32.5l-.5-.2c4.2-10.3,7.2-21,8.9-32,1.9-12,2.3-24.3,1.1-36.4-.5-5-1.3-10.5-3.5-15.5.2.1.5.2.7.3,2.1,4.9,2.8,10.3,3.3,15.2h0Z"/>
      </g>
      <path class="st0" d="M58.3,26.1c0,.2,0,.4,0,.6-.1,0-.3.2-.4.3-.2.1-.3.2-.5.4-2.6,1.9-5.7,3.5-8.9,4.8-.7.3-1.3.5-2,.7-.1,0-.3,0-.4.1h0c-.2,0-.3.1-.5.2-.1,0-.2,0-.3.1-2,.6-4,1.1-6.2,1.5-.1,0-.2,0-.3,0-2.4.4-4.9.8-7.7,1-.1,0-.3,0-.4,0h0c-.2,0-.3,0-.5,0-1.3,0-2.6.2-4,.2-1.2,0-2.5,0-3.8,0-.1,0-.2,0-.3,0h0c-2.4,0-5-.1-7.7-.5-.2,0-.3,0-.5,0-.7,0-1.4-.2-2.1-.3-.2,0-.4,0-.5,0-1.5-.3-3-.7-4.5-1.1-.3,0-.6-.2-.9-.3-1.9-.7-3.9-1.5-5.7-2.6,0-.2,0-.4,0-.6,3.4,2.1,7.3,3.4,11.1,4.2.2,0,.4,0,.5,0,5.1.9,10.3,1,14.4.8,1.4,0,2.7-.1,4-.2.2,0,.3,0,.5,0,5.6-.4,10.3-1.3,14.6-2.6.2,0,.3,0,.5-.2.2,0,.3,0,.5-.2,4.6-1.5,8.8-3.7,12.3-6.4h0s0,0,0,0Z"/>
      <path class="st0" d="M57.9,27h0c0,0,.4,5.1.4,5.1v1.2c0,0,0,.2,0,.2,0,0-.1,0-.2,0,0,0,0,0,0,0l-5.4-2.3-1.5,6.1c0,0,0,.1-.2.2h0c0,0-.2,0-.2,0l-4.3-3.9-.4,1-.5,1.4-1.5,3.7c0,0,0,.1-.2.2,0,0-.2,0-.2,0l-4.7-4.2-3.3,5.6c0,0-.1.1-.2.1,0,0-.2,0-.2,0l-4.4-4.6-.3.4-.5.7-3.2,4.3c0,0-.1.1-.2.1,0,0-.2,0-.2,0l-4.3-4.9-3.5,4.4c0,0-.1,0-.2.1,0,0-.1,0-.2,0l-4.2-5-2.1,2.2-.5.5-1.1,1.2c0,0-.1,0-.2,0s-.1,0-.2-.1l-3.8-5.9-3.9,4.1c0,0-.2,0-.2,0,0,0-.2,0-.2-.2l-1.4-4.2c-.2-.9-.3-1.8-.3-2.7l2,6.3,3.6-3.8.2-.2c0,0,.1,0,.2,0,0,0,.1,0,.2.1l.3.5,3.5,5.5,1.2-1.3.5-.5,2-2.1h0c0,0,.1-.1.2-.1s.1,0,.2,0h0c0,0,4.1,5,4.1,5l3.5-4.4s0,0,0,0h0s0,0,.1,0c0,0,.1,0,.2,0,0,0,0,0,0,0l4.3,4.9,3.4-4.5.5-.7h0c0,0,0-.1,0-.1,0,0,.1,0,.2-.1,0,0,.2,0,.2,0h0l4.4,4.6,3.3-5.6h0c0,0,.1-.1.2-.1,0,0,.1,0,.2,0h0s4.6,4.2,4.6,4.2l1.8-4.6.5-1.3h0c0,0,0-.1,0-.1,0,0,0-.1.2-.2s.2,0,.2,0h0l4.3,3.8,1.5-6c0,0,0-.1.1-.2,0,0,.1,0,.2,0l5.2,2.3-.4-5.4v-.4c0-.1,0-.3.2-.3.1,0,.3,0,.3.2h0s0,0,0,0Z"/>
      <path class="st2" d="M44.8,81.7l-.8,2.4v.3c0,0-.5,1.4-.5,1.4v.3c0,0-.8,2.2-.8,2.2v.3c0,0-.4.9-.4.9v.3c0,0-.8,2.2-.8,2.2v.3c-.1,0-1.5,4.4-1.5,4.4v.3c-.1,0-.3.6-.3.6v.3c-.1,0-1.1,3.1-1.1,3.1v.3c0,0-.5,1.4-.5,1.4,0,0-.6.2-1.5.6,0,0-.2,0-.2,0-1.1.4-2.5.8-4.2,1.1,0,0-.2,0-.3,0-1.5.3-3.1.4-4.6.3h-.3c-1.2-.1-2.4-.4-3.4-1-.1,0-.3-.2-.4-.2h0s-.9-2.5-.9-2.5v-.3c0,0-1.1-2.9-1.1-2.9h0v-.3c0,0,0,0,0,0l-1.9-5.7v-.3c0,0-1.4-3.9-1.4-3.9v-.3c0,0-1-2.6-1-2.6v-.3c0,0-.8-2.1-.8-2.1l28.8-.7h0s0,0,0,0Z"/>
      <g>
        <path class="st1" d="M44.1,84.1v.3c-1.6.2-3.1.4-4.5.4,0,0-.2,0-.3,0-1.6.1-3.2.2-4.8.2,0,0-.2,0-.3,0-1.3,0-2.6,0-3.9,0-.3,0-.5,0-.8,0,0,0-.2,0-.3,0-1.4,0-2.9,0-4.3,0,0,0-.2,0-.3,0-1.4,0-2.8,0-4.2,0,0,0-.2,0-.3,0-1.2,0-2.3,0-3.4-.2v-.3c2.6.2,5.3.3,8,.3h0s0,0,0,0c1.8,0,3.6,0,5.4,0,4.5,0,9.2,0,13.7-.7h0s0,0,0,0Z"/>
        <path class="st1" d="M20.5,84.8v.2c.3.9.5,1.9.8,2.8v.3c.4,1.2.7,2.4,1.1,3.5v.3c.6,1.8,1.2,3.6,1.9,5.3,0,0,0,.2,0,.2.4,1,.8,2.1,1.2,3.1,0,0,0,.2.1.3.4.9.7,1.8,1.1,2.6,0,0,0,.2.1.3.2.4.3.7.5,1.1h-.3c-.2-.4-.3-.7-.5-1.1,0,0,0-.2-.1-.3-.4-.9-.7-1.7-1.1-2.6,0,0,0-.2-.1-.2-.4-1-.8-2-1.2-3.1,0,0,0-.2,0-.2-.7-1.8-1.3-3.6-1.8-5.4,0,0,0-.2,0-.3-.4-1.2-.7-2.4-1.1-3.6v-.3c-.3-.9-.6-1.9-.8-2.8h0c0-.1.2-.2.2-.2h0s0,0,0,0Z"/>
        <path class="st1" d="M24.9,84.8h0c0,.1,0,.2,0,.3.3,1,.6,2,1,3,0,0,0,.2,0,.3.3,1,.7,2,1,3.1,0,0,0,.2,0,.2.5,1.6,1.1,3.2,1.7,4.8v.2c.5,1.1,1,2.3,1.4,3.4,0,0,0,.2,0,.2.4.9.7,1.7,1.1,2.6,0,0,0,.2.1.2.2.4.4.8.6,1.3,0,0-.2,0-.3,0-.2-.4-.4-.8-.6-1.3v-.2c-.5-.9-.9-1.7-1.2-2.6,0,0,0-.2-.1-.2-.5-1.1-.9-2.2-1.3-3.4v-.2c-.7-1.6-1.3-3.2-1.8-4.8,0,0,0-.2,0-.3-.4-1-.7-2.1-1-3.1,0,0,0-.2,0-.3-.3-1-.6-2-1-3,0,0,0-.1,0-.2h.2c0,0,0-.1,0-.1h0Z"/>
        <path class="st1" d="M36.6,103.1c0,0-.2,0-.2,0-.2-.4-.4-.7-.6-1.1,0,0,0-.2-.1-.2-.4-.8-.8-1.6-1.2-2.4,0,0,0-.2-.1-.2-.5-1.2-1.1-2.4-1.6-3.6,0,0,0-.2,0-.2-.6-1.4-1.1-2.8-1.6-4.2,0,0,0-.2,0-.2-.3-.9-.6-1.8-.9-2.7,0,0,0-.2,0-.3-.3-1-.6-1.9-.8-2.9h0c0-.1.3-.2.3-.2v.2c.3,1,.6,1.9.9,2.9,0,0,0,.2,0,.3.3.9.6,1.8.9,2.7,0,0,0,.2,0,.2.5,1.4,1,2.8,1.6,4.2,0,0,0,.2,0,.2.5,1.2,1,2.4,1.6,3.6,0,0,0,.2.1.2.4.8.8,1.6,1.2,2.4,0,0,0,.2.1.2.2.4.4.7.6,1.1,0,0,0,0,0,0Z"/>
        <path class="st1" d="M40,96.6v.3c-.8-1-1.4-2.1-2-3.2,0,0,0-.2-.1-.2-.6-1.1-1.1-2.2-1.6-3.3,0,0,0-.2-.1-.2-.3-.7-.7-1.5-1-2.2,0,0,0-.2-.1-.2-.3-.8-.7-1.6-1-2.4h0c0-.1.2-.2.2-.2,0,0,0,.1,0,.2.3.8.7,1.6,1,2.4,0,0,0,.2,0,.2.3.7.6,1.5,1,2.2,0,0,0,.2.1.2.5,1.1,1,2.2,1.6,3.3,0,0,0,.2.1.2.5,1,1.1,2,1.7,3h0Z"/>
        <path class="st1" d="M41.9,88.7c.2.2.3.5.5.7v.3c-.3-.3-.5-.6-.7-.9,0,0,0-.1-.1-.2-.4-.6-.8-1.2-1.1-1.8,0,0,0-.2-.1-.2-.3-.6-.7-1.2-1-1.7h0s.2-.1.2-.1c0,0,0,0,0,.1.3.6.6,1.2.9,1.7h0c0,0,0,.2.1.2.4.6.7,1.2,1.1,1.8,0,0,0,.2.1.2h0Z"/>
        <path class="st1" d="M42.7,88.2v.3c-.4,0-.6.2-.9.2,0,0-.2,0-.3,0-1.6.5-3.3.9-5,1.3,0,0-.2,0-.2,0-1.6.4-3.3.7-5,.9,0,0-.2,0-.3,0-1.3.2-2.7.3-4,.5,0,0-.2,0-.3,0-1.5.1-3,.2-4.4.2h-.3c-1,0-2,0-3,0v-.3c.9,0,1.9,0,2.9,0h.3c1.5,0,3-.1,4.4-.2,0,0,.2,0,.3,0,1.3-.1,2.7-.3,4-.5,0,0,.2,0,.3,0,1.7-.2,3.3-.5,4.9-.9,0,0,.2,0,.3,0,1.7-.4,3.3-.8,5-1.3,0,0,.2,0,.3,0,.3,0,.7-.2,1-.3h0Z"/>
        <path class="st1" d="M38.2,93.4c1.1-.5,2.3-1,3.4-1.5v.3c-1.1.5-2.2,1-3.2,1.4h-.2c-.3.2-.6.3-.9.5-1.3.5-2.7,1-4.1,1.4h-.3c-1.3.4-2.6.8-3.9,1.1,0,0-.2,0-.3,0-1.4.3-2.9.6-4.3.8,0,0-.2,0-.3,0-.9.1-1.9.2-2.8.3h0v-.3c.9,0,1.8-.2,2.8-.3,0,0,.2,0,.3,0,1.5-.2,2.9-.4,4.3-.8h.3c1.3-.3,2.6-.7,3.9-1.1h.3c1.7-.6,3.3-1.2,5-1.8h.2c0,0,0,0,0,0Z"/>
        <path class="st1" d="M34.7,99.1c1.8-.4,3.5-1,5.1-1.6v.3c-.1,0-.2,0-.2,0-1.5.6-3.1,1.1-4.8,1.5h-.3c-.4.2-.9.3-1.3.4-.9.2-1.9.4-2.8.5,0,0-.2,0-.3,0-1.4.2-2.9.4-4.5.5,0,0-.2,0-.3,0-1,0-2,.1-3,.1v-.3c.9,0,2,0,2.9-.1,0,0,.2,0,.3,0,1.6-.1,3.1-.3,4.5-.5,0,0,.2,0,.3,0,1-.1,1.9-.3,2.9-.5.4,0,.8-.2,1.2-.3h.3c0,0,0,0,0,0Z"/>
        <path class="st1" d="M35.9,101.8c.9-.3,1.8-.6,2.7-.9v.3c-.9.3-1.8.6-2.6.8h-.3c-1.4.5-2.8.8-4.2,1,0,0-.2,0-.3,0-1.5.3-3,.4-4.5.5,0,0-.2,0-.3,0-1,0-2,0-3,0-.1,0-.3-.2-.4-.2h0c1.1,0,2.2,0,3.3,0,0,0,.2,0,.3,0,1.5,0,3-.3,4.5-.5,0,0,.2,0,.3,0,1.4-.2,2.8-.6,4.2-1,0,0,.3,0,.3,0Z"/>
        <path class="st1" d="M43.5,85.8v.3c-1,.3-2,.5-2.9.7,0,0-.2,0-.3,0-1.6.3-3.2.6-4.8.9,0,0-.2,0-.3,0-1.6.2-3.2.4-4.8.5,0,0-.2,0-.3,0-1.4,0-2.8.1-4.1,0,0,0-.2,0-.3,0-1.5,0-3,0-4.4-.2,0,0-.2,0-.3,0-1.1-.1-2.2-.2-3.3-.4v-.3c1,.2,2.1.3,3.2.4,0,0,.2,0,.3,0,1.5.1,2.9.2,4.4.2,0,0,.2,0,.3,0,1.4,0,2.8,0,4.1,0,0,0,.2,0,.3,0,1.6,0,3.2-.3,4.8-.5,0,0,.2,0,.3,0,1.6-.2,3.2-.5,4.8-.9,0,0,.2,0,.3,0h0c1-.2,2-.5,3.1-.8h0s0,0,0,0Z"/>
      </g>
    </g>
  </g>
</svg>