<?xml version="1.0" encoding="UTF-8"?>
<svg id="Capa_2" data-name="Capa 2" xmlns="http://www.w3.org/2000/svg" viewBox="0 0 292.41 308.42">
  <g id="Capa_1-2" data-name="Capa 1">
    <g>
      <g>
        <path d="M253.43,163.71c-5.1,3.51-8.65,9.19-9.57,15.32-1.38,9.18,2.91,18.53,1.41,27.7-1.68,10.27-10.76,18.34-20.87,20.77-10.12,2.42-20.92-.1-30.15-4.91" style="fill: none; stroke: #280400; stroke-miterlimit: 10; stroke-width: .95px;"/>
        <path d="M247.78,166.7l-4.96,3.84s5.87,3.38,6.25,3.5c.38.12,1.71-5.42,1.71-5.42l-3-1.92Z" style="fill: #f1cb7e;"/>
        <g>
          <path d="M291.09,154.7c-4.18,13.24-17.19,21.25-30.49,19.57-1.67-.2-3.35-.57-5.02-1.09-14.91-4.7-23.18-20.6-18.48-35.51.75-2.38,1.79-4.58,3.06-6.6,6.69-10.61,19.91-15.82,32.44-11.87,14.91,4.7,23.18,20.6,18.48,35.5Z" style="fill: #f1cb7e;"/>
          <g>
            <path d="M276.3,160.74c-.32,1.33.17,2.85,1.29,3.66s2.78.76,3.79-.16c.98-.89,1.2-2.46.64-3.66-1.31-2.8-4.9-3.22-5.72.16Z" style="fill: #fff;"/>
            <path d="M282.09,139.81c-.43,1.74-.3,3.61-.9,5.31-.39,1.1-1.06,2.08-1.55,3.14-.76,1.61-1.1,3.5-.52,5.19s2.21,3.08,3.99,2.99c2.09-.1,3.61-2,4.53-3.88,1.25-2.58,1.92-5.49,1.65-8.35-.24-2.47-1.2-4.83-2.81-6.71-1.86-2.18-3.83.12-4.38,2.32Z" style="fill: #fff;"/>
          </g>
        </g>
        <path d="M260.6,174.27c-1.67-.2-3.35-.57-5.02-1.09-14.91-4.7-23.18-20.6-18.48-35.51.75-2.38,1.79-4.58,3.06-6.6-.24,16.48,7.56,32.93,20.44,43.2Z" style="fill: #f1cb7e; isolation: isolate; opacity: .4;"/>
      </g>
      <g>
        <path d="M206.12,299.99c0,4.66-30.51,8.43-68.14,8.43s-68.14-3.77-68.14-8.43,30.51-8.43,68.14-8.43,68.14,3.77,68.14,8.43Z" style="fill: #a2c5e0; isolation: isolate; opacity: .41;"/>
        <g>
          <g>
            <g>
              <g>
                <path d="M124.31,193.58s-3.08,4.11-8.1,9.97c-8.56,9.97-22.75,24.98-36.97,33.28h-.01c-13.25,7.74-26.52,9.63-35.22-3.87-6.42-9.95-4.19-18.1,2.41-24.66,13.61-13.55,45.89-20.45,59.85-22.87,4.11-.72,6.63-1.05,6.63-1.05l11.4,9.21Z" style="fill: #d6a58b;"/>
                <path d="M116.21,203.54c-8.56,9.97-22.75,24.98-36.97,33.28,1.63-4.28,2.78-8.74,2.71-13.3-.08-5.61-2.23-11.4-6.67-14.84-2.95-2.29-6.69-3.38-10.42-3.63s-7.45.31-11.1,1.06c-2.51.5-5.02,1.11-7.34,2.17,13.61-13.55,45.89-20.45,59.85-22.87,2.18.59,4.23,1.51,5.91,2.99,2.52,2.21,3.95,5.48,4.36,8.81.26,2.12.12,4.25-.33,6.33Z" style="fill: #d6a58b; isolation: isolate; opacity: .15;"/>
                <circle cx="61.42" cy="220.99" r="9.81" style="fill: #fff; isolation: isolate; opacity: .49;"/>
              </g>
              <g style="opacity: .49;">
                <path d="M49.47,220.49c0,2.12-1.72,3.83-3.83,3.83s-3.83-1.71-3.83-3.83,1.71-3.83,3.83-3.83,3.83,1.72,3.83,3.83Z" style="fill: #fff; isolation: isolate; opacity: .49;"/>
                <path d="M53.3,230.15c0,2.12-1.71,3.83-3.83,3.83s-3.83-1.71-3.83-3.83,1.71-3.83,3.83-3.83c2.12,0,3.83,1.72,3.83,3.83Z" style="fill: #fff; isolation: isolate; opacity: .49;"/>
                <path d="M62.75,236.11c0,2.12-1.71,3.83-3.83,3.83s-3.83-1.71-3.83-3.83,1.71-3.83,3.83-3.83c2.11,0,3.83,1.71,3.83,3.83Z" style="fill: #fff; isolation: isolate; opacity: .49;"/>
              </g>
            </g>
            <g>
              <g>
                <path d="M230.95,232.95c-4.7,7.28-10.72,10.09-17.36,9.91-4.19-.11-8.65-1.42-13.15-3.54-5.92-2.79-11.95-6.98-17.67-11.73-17.48-14.47-32.12-34.02-32.12-34.02l8.73-7.07,2.66-2.15s.75.1,2.1.3c8.14,1.24,38.06,6.39,56.24,17.42,12.24,7.42,19.16,17.51,10.56,30.86Z" style="fill: #d6a58b;"/>
                <path d="M230.95,232.95c-4.7,7.28-10.72,10.09-17.36,9.91-4.19-.11-8.65-1.42-13.15-3.54-.74-.59-1.45-1.22-2.11-1.89-3.4-3.4-5.92-7.81-6.46-12.58-.88-7.68,3.69-15.39,10.33-19.34,3.64-2.16,7.82-3.27,12.02-3.52,2.01-.12,4.1-.11,6.17.1,12.24,7.42,19.16,17.51,10.56,30.86Z" style="fill: #d6a58b; isolation: isolate; opacity: .15;"/>
                <circle cx="213.55" cy="220.99" r="9.81" style="fill: #fff; isolation: isolate; opacity: .49;"/>
              </g>
              <g style="opacity: .49;">
                <circle cx="229.19" cy="221.39" r="3.83" style="fill: #fff; isolation: isolate; opacity: .49;"/>
                <path d="M221.53,231.05c0,2.12,1.71,3.83,3.83,3.83s3.83-1.71,3.83-3.83-1.71-3.83-3.83-3.83c-2.12,0-3.83,1.71-3.83,3.83Z" style="fill: #fff; isolation: isolate; opacity: .49;"/>
                <path d="M212.09,237.01c0,2.12,1.71,3.83,3.83,3.83s3.83-1.71,3.83-3.83-1.71-3.83-3.83-3.83c-2.11,0-3.83,1.71-3.83,3.83Z" style="fill: #fff; isolation: isolate; opacity: .49;"/>
              </g>
              <path d="M194.96,191.51c8.92,2.66,18.13,6.14,25.44,10.58,12.24,7.42,19.16,17.51,10.56,30.86-1.01,1.57-2.08,2.93-3.21,4.09" style="fill: none; stroke: #280400; stroke-miterlimit: 10;"/>
            </g>
            <g>
              <g>
                <g>
                  <path d="M192.25,254.13c-3.33,44.39-51.26,44.07-54.58,43.98h-.18s-16.17.63-30.96-6.95c-2.51-1.29-4.98-2.81-7.33-4.61-1.57-1.19-3.08-2.52-4.51-3.98-6.3-6.45-11.02-15.57-11.97-28.44-3.43-45.98,37.44-78.77,37.44-78.77l17.32-1.29,11.34.85,5.99.44s2.36,1.89,5.89,5.4l.13.13c.45.45.93.93,1.43,1.45,11.62,11.97,32.48,38.4,29.99,71.8Z" style="fill: #d6a58b;"/>
                  <ellipse cx="137.48" cy="249.16" rx="40.84" ry="36.87" style="fill: #fff; isolation: isolate; opacity: .49;"/>
                  <ellipse cx="137.48" cy="249.16" rx="35.82" ry="32.34" style="fill: none; stroke: #280400; stroke-dasharray: 5; stroke-miterlimit: 10;"/>
                </g>
                <g>
                  <path d="M192.25,254.13c-3.33,44.39-51.26,44.07-54.58,43.98,5.34-4.91,9.54-11.25,12.25-18,4.99-12.41,5.66-26.12,5.2-39.49-.39-11.38-1.67-23.13-7.36-33-3.45-5.98-8.53-10.96-14.45-14.48-2.45-1.46-17.74-5.61-17.74-7.18.05-3,20-8.35,22.86-9.11,3.41-.9,6.89-1.59,10.39-1.94l5.99.44s2.36,1.89,5.89,5.4l.13.13c.45.45.93.93,1.43,1.45,11.62,11.97,32.48,38.4,29.99,71.8Z" style="fill: #d6a58b; isolation: isolate; opacity: .15;"/>
                  <path d="M172.91,196.68c16.35,19.98,21.57,35.79,18.57,64.35" style="fill: none; stroke: #280400; stroke-miterlimit: 10;"/>
                </g>
              </g>
              <ellipse cx="136.62" cy="178.91" rx="35.35" ry="22.5" style="fill: #d6a58b; isolation: isolate; opacity: .15;"/>
            </g>
          </g>
          <g>
            <g>
              <g>
                <path d="M65.86,199.14c-1.85-2.66-2.21-6.2-.92-9.12,1.24-2.82,3.93-5.23,3.76-8.31-.12-2.2-1.64-4.74-.08-6.33,1.14-1.16,3.2-.81,4.61.07,1.41.88,2.52,2.17,4.03,2.88,1.98.93,4.33.72,6.43,1.34,3.72,1.09,6.09,4.51,8.14,7.68-.13,1-.66,1.72-1.14,2.6-2.36,4.3-5.84,8.15-10.39,10.3-4.54,2.15-11.6,2.98-14.44-1.11Z" style="fill: #f1cb7e;"/>
                <path d="M68.53,209.99l30.45-16.63s8.6-1.81,16.17,13.73c7.57,15.55,26.75,39.46,16.9,48.09-9.85,8.63-28.89,19.83-36.14,14.31-7.26-5.53-34.33-49.37-27.38-59.5Z" style="fill: #fff; isolation: isolate; opacity: .42;"/>
                <g>
                  <path d="M106.91,204.87c.43.41.82.88,1.14,1.41,5.72,9.46,22.72,38.18,21.7,43.76-1.22,6.68-24.86,16.57-30.62,16.43-4.82-.11-20.73-33.66-25.77-44.56-.61-1.33-.77-2.79-.5-4.16.19-.95.58-1.88,1.19-2.7,8.63-11.79,21.52-12.71,28.05-12.31,1.83.12,3.55.88,4.81,2.14Z" style="fill: #b3dbf2;"/>
                  <path d="M106.91,204.87c-.17.08-.36.16-.54.22-2.35.82-4.77,1.46-6.94,2.62-3.75,1.99-6.5,5.36-10.06,7.64-3.63,2.35-8.08,3.52-12.47,3.27-1.09-.06-2.82-.25-4.04-.87.19-.95.58-1.88,1.19-2.7,8.63-11.79,21.52-12.71,28.05-12.31,1.83.12,3.55.88,4.81,2.14Z" style="fill: #7fc7f7; isolation: isolate; opacity: .41;"/>
                </g>
                <g>
                  <path d="M105.72,211.14c1.38,1.07,3.37,1.91,4.86,1.01.88-.53,1.32-1.56,1.35-2.57.03-1-.31-1.98-.7-2.91-.56-1.33-1.25-2.61-2.05-3.83-.92-1.39-2.02-2.71-3.48-3.57-3.9-2.3-5.95.12-5.1,3.85.71,3.11,2.53,6.01,5.12,8.02Z" style="fill: #fff;"/>
                  <path d="M114.52,221.87c1.23.08,2.52-.58,2.93-1.68.19-.5.2-1.05.12-1.58-.35-2.61-3.85-5.86-6.49-3.46-2.37,2.15.61,6.54,3.43,6.73Z" style="fill: #fff;"/>
                </g>
                <g>
                  <path d="M94.02,186.27c.11.03.23.07.33.12,1.26.49,2.35,1.39,3.07,2.61l2.4,4.08-1.73.94-.21.11-2.86,1.55-.21.11-3.53,1.91-.22.11-3.62,1.96-.21.11-4.15,2.24-.23.12-4.8,2.6-.21.11-3.23,1.75-.21.11-2.82,1.52-.21.11-2.82,1.52-2.41-4.83c-1.15-2.32-.61-5,1.18-6.7.06-.07.12-.13.2-.18.34-.3.73-.58,1.15-.8l1.77-.94.23-.12,2.98-1.58.21-.11,4.61-2.44.21-.11,3.68-1.95.21-.11,3.52-1.87.21-.11,2.73-1.45c.28-.14.55-.26.83-.36.08-.04.16-.06.23-.09,1.31-.42,2.69-.38,3.94.04Z" style="fill: #fff;"/>
                  <path d="M67.5,198.29c1.14,3.43,2.51,6.79,4.07,10.07l-.21.11c-1.54-3.27-2.9-6.61-4.05-10.01.06-.07.12-.13.2-.18Z" style="fill: #280400;"/>
                  <path d="M70.65,196.43c1.21,3.46,2.54,6.9,3.95,10.29l-.21.11c-1.42-3.39-2.74-6.83-3.96-10.29l.23-.12Z" style="fill: #280400;"/>
                  <polygon points="73.84 194.73 78.05 204.86 77.83 204.97 73.63 194.85 73.84 194.73" style="fill: #280400;"/>
                  <polygon points="78.66 192.17 83.08 202.14 82.85 202.26 78.45 192.29 78.66 192.17" style="fill: #280400;"/>
                  <polygon points="82.56 190.11 87.44 199.78 87.23 199.89 82.34 190.22 82.56 190.11" style="fill: #280400;"/>
                  <polygon points="86.29 188.12 91.28 197.71 91.06 197.82 86.08 188.24 86.29 188.12" style="fill: #280400;"/>
                  <path d="M90.09,186.24c1.63,3.15,3.28,6.31,4.94,9.45l-.21.11c-1.66-3.15-3.32-6.33-4.96-9.48.08-.04.16-.06.23-.09Z" style="fill: #280400;"/>
                  <path d="M94.02,186.27c.11.03.23.07.33.12,1.28,2.53,2.54,5.08,3.74,7.63l-.21.11c-1.25-2.63-2.54-5.26-3.86-7.86Z" style="fill: #280400;"/>
                </g>
              </g>
              <g>
                <line x1="92.85" y1="257.01" x2="97.65" y2="254.62" style="fill: none; stroke: #fff; stroke-linecap: round; stroke-linejoin: round; stroke-width: 1.04px;"/>
                <line x1="90.06" y1="251.94" x2="94.85" y2="249.55" style="fill: none; stroke: #fff; stroke-linecap: round; stroke-linejoin: round; stroke-width: 1.04px;"/>
                <line x1="87.26" y1="246.87" x2="92.05" y2="244.48" style="fill: none; stroke: #fff; stroke-linecap: round; stroke-linejoin: round; stroke-width: 1.04px;"/>
                <line x1="84.46" y1="241.8" x2="89.25" y2="239.41" style="fill: none; stroke: #fff; stroke-linecap: round; stroke-linejoin: round; stroke-width: 1.04px;"/>
                <line x1="81.66" y1="236.73" x2="86.45" y2="234.34" style="fill: none; stroke: #fff; stroke-linecap: round; stroke-linejoin: round; stroke-width: 1.04px;"/>
                <line x1="78.86" y1="231.66" x2="83.65" y2="229.27" style="fill: none; stroke: #fff; stroke-linecap: round; stroke-linejoin: round; stroke-width: 1.04px;"/>
                <line x1="76.06" y1="226.59" x2="80.85" y2="224.2" style="fill: none; stroke: #fff; stroke-linecap: round; stroke-linejoin: round; stroke-width: 1.04px;"/>
              </g>
            </g>
            <g>
              <g>
                <path d="M128.2,274.99c0,17.95-14.5,28.05-32.4,28.05-4.12,0-8.05-.54-11.67-1.58-12.12-3.49-20.73-12.66-20.73-26.48,0-12.99,7.6-24.2,18.58-29.39,4.19-1.99,8.87-3.1,13.82-3.1,17.89,0,32.4,14.55,32.4,32.49Z" style="fill: #d6a58b;"/>
                <path d="M112.52,279c0,9.24-7.49,13.38-16.72,13.38s-16.72-4.14-16.72-13.38,7.49-16.72,16.72-16.72,16.72,7.49,16.72,16.72Z" style="fill: #fff; isolation: isolate; opacity: .49;"/>
                <path d="M117.76,257.8c0,2.47-2.01,4.48-4.48,4.48s-4.48-2.01-4.48-4.48,2.01-4.48,4.48-4.48,4.48,2.01,4.48,4.48Z" style="fill: #fff; isolation: isolate; opacity: .49;"/>
                <path d="M79.08,262.28c0,2.47-2.01,4.48-4.48,4.48s-4.48-2.01-4.48-4.48,2.01-4.48,4.48-4.48c2.47,0,4.48,2.01,4.48,4.48Z" style="fill: #fff; isolation: isolate; opacity: .49;"/>
                <path d="M98.69,251.54c0,2.47-2.01,4.48-4.48,4.48s-4.48-2.01-4.48-4.48,2.01-4.48,4.48-4.48,4.48,2.01,4.48,4.48Z" style="fill: #fff; isolation: isolate; opacity: .49;"/>
              </g>
              <path d="M128.2,274.99c0,17.95-14.5,28.05-32.4,28.05-4.12,0-8.05-.54-11.67-1.58,5.78-1.51,11.09-4.89,14.71-9.67,4.01-5.31,5.92-12.04,6.01-18.7.1-8.37-2.84-17.07-9.2-22.52-3.72-3.19-8.72-5.03-13.66-4.99,4.19-1.99,8.87-3.1,13.82-3.1,17.89,0,32.4,14.55,32.4,32.49Z" style="fill: #d6a58b; isolation: isolate; opacity: .15;"/>
              <g>
                <path d="M106.37,295.31c1.68-.09,3.34-.67,4.71-1.65" style="fill: none; stroke: #280400; stroke-miterlimit: 10;"/>
                <path d="M69.69,255.63c3.86-5.32,9.37-9.42,15.58-11.59,6.21-2.16,13.08-2.38,19.41-.6" style="fill: none; stroke: #280400; stroke-miterlimit: 10;"/>
              </g>
              <path d="M124.72,279.9l-.23,1.09c-1.66,7.91-7.26,14.42-14.82,17.26h0" style="fill: none; stroke: #280400; stroke-miterlimit: 10;"/>
            </g>
            <g>
              <g>
                <path d="M212,274.99c0,17.95-14.5,28.05-32.4,28.05-4.12,0-8.05-.54-11.67-1.58-12.12-3.49-20.73-12.66-20.73-26.48,0-12.99,7.6-24.2,18.58-29.39,4.19-1.99,8.87-3.1,13.82-3.1,17.89,0,32.4,14.55,32.4,32.49Z" style="fill: #d6a58b;"/>
                <path d="M196.33,279c0,9.24-7.49,13.38-16.72,13.38s-16.72-4.14-16.72-13.38,7.49-16.72,16.72-16.72,16.72,7.49,16.72,16.72Z" style="fill: #fff; isolation: isolate; opacity: .49;"/>
                <path d="M201.56,257.8c0,2.47-2.01,4.48-4.48,4.48s-4.48-2.01-4.48-4.48,2.01-4.48,4.48-4.48,4.48,2.01,4.48,4.48Z" style="fill: #fff; isolation: isolate; opacity: .49;"/>
                <path d="M162.89,262.28c0,2.47-2.01,4.48-4.48,4.48s-4.48-2.01-4.48-4.48,2.01-4.48,4.48-4.48c2.47,0,4.48,2.01,4.48,4.48Z" style="fill: #fff; isolation: isolate; opacity: .49;"/>
                <path d="M182.5,251.54c0,2.47-2.01,4.48-4.48,4.48s-4.48-2.01-4.48-4.48,2.01-4.48,4.48-4.48,4.48,2.01,4.48,4.48Z" style="fill: #fff; isolation: isolate; opacity: .49;"/>
              </g>
              <path d="M212,274.99c0,17.95-14.5,28.05-32.4,28.05-4.12,0-8.05-.54-11.67-1.58,5.78-1.51,11.09-4.89,14.71-9.67,4.01-5.31,5.92-12.04,6.01-18.7.1-8.37-2.84-17.07-9.2-22.52-3.72-3.19-8.72-5.03-13.66-4.99,4.19-1.99,8.87-3.1,13.82-3.1,17.89,0,32.4,14.55,32.4,32.49Z" style="fill: #d6a58b; isolation: isolate; opacity: .15;"/>
              <g>
                <path d="M211,279.39c.59,3.75-2.02,9.59-4.43,12.53-2.41,2.94-5.68,5.04-9.08,6.75" style="fill: none; stroke: #280400; stroke-miterlimit: 10;"/>
                <path d="M153.5,255.63c3.86-5.32,9.37-9.42,15.58-11.59,6.21-2.16,13.08-2.38,19.41-.6" style="fill: none; stroke: #280400; stroke-miterlimit: 10;"/>
              </g>
            </g>
          </g>
        </g>
        <g>
          <g>
            <g>
              <g>
                <path d="M191.49,97.2c-.32-.57.18-2.35.26-2.94.34-2.35.94-4.67,1.83-6.87,2.62-6.42,8.8-10.97,15.61-11.97,7.43-1.09,14.35,2.44,18.24,8.83.83,1.36,1.49,2.82,1.96,4.35,2.39,7.82-.49,16.93-7.42,21.46-6.97,4.55-19.15,4.15-24.77-2.65,0,0-5.7-10.19-5.71-10.2Z" style="fill: #d6a58b;"/>
                <circle cx="208.1" cy="94.84" r="12.48" style="fill: #280400; isolation: isolate; opacity: .49;"/>
              </g>
              <path d="M197.88,81.04c3.05-2.99,7.06-5,11.32-5.62,7.43-1.09,14.35,2.44,18.23,8.83.83,1.36,1.49,2.82,1.96,4.35,2.39,7.82-.49,16.93-7.42,21.46" style="fill: none; stroke: #280400; stroke-miterlimit: 10;"/>
            </g>
            <g>
              <path d="M83.48,97.2c.32-.57-.18-2.35-.26-2.94-.34-2.35-.94-4.67-1.83-6.87-2.62-6.42-8.8-10.97-15.61-11.97-7.43-1.09-14.35,2.44-18.24,8.83-.83,1.36-1.49,2.82-1.96,4.35-2.39,7.82.49,16.93,7.42,21.46,6.97,4.55,19.15,4.15,24.77-2.65,0,0,5.7-10.19,5.71-10.2Z" style="fill: #d6a58b;"/>
              <path d="M54.39,94.85c0,6.89,5.59,12.48,12.48,12.48s12.48-5.59,12.48-12.48-5.59-12.48-12.48-12.48c-6.89,0-12.48,5.59-12.48,12.48Z" style="fill: #280400; isolation: isolate; opacity: .49;"/>
            </g>
          </g>
          <g>
            <path d="M208.6,131.49c0,42.3-23.56,57.78-55.12,61.25-1.93.21-3.89.38-5.88.52-3.22.19-6.51.29-9.87.29-.09,0-.16-.01-.25-.01s-.17.01-.26.01c-.4,0-.78,0-1.17-.01-6.38-.03-12.54-.43-18.4-1.28-29.62-4.3-51.29-20.2-51.29-60.77,0-47.26,31.72-66.52,70.85-66.52h.5c18.54,0,35.41,4.32,48.04,13.89.86.64,1.7,1.32,2.51,2.02.69.59,1.36,1.19,2.02,1.82.05.04.1.1.15.14,11.29,10.75,18.15,26.66,18.15,48.65Z" style="fill: #d6a58b;"/>
            <path d="M208.6,131.49c0,42.3-23.56,57.78-55.12,61.25-1.93.21-3.89.38-5.88.52-3.22.19-6.51.29-9.87.29-.09,0-.16-.01-.25-.01s-.17.01-.26.01c-.4,0-.78,0-1.17-.01,40.23-17.49,42.26-78.86,1.17-128.57h.5c18.54,0,35.41,4.32,48.04,13.89.86.64,1.7,1.32,2.51,2.02.69.59,1.36,1.19,2.02,1.82.05.04.1.1.15.14,11.3,10.75,18.15,26.66,18.15,48.65Z" style="fill: #d6a58b; isolation: isolate; opacity: .15;"/>
            <g>
              <g style="opacity: .49;">
                <ellipse cx="90.21" cy="152.7" rx="12.8" ry="7.31" style="fill: #fff; isolation: isolate; opacity: .49;"/>
                <ellipse cx="184.76" cy="152.7" rx="12.8" ry="7.31" style="fill: #fff; isolation: isolate; opacity: .49;"/>
              </g>
              <g>
                <g>
                  <path d="M164.85,151.9c0,11.02-11.65,19.96-26.04,19.96-5.78,0-11.14-1.45-15.46-3.89-6.43-3.64-10.59-9.48-10.59-16.07,0-11.03,11.66-19.97,26.05-19.97,10.44,0,19.43,4.71,23.58,11.5,1.58,2.57,2.46,5.45,2.46,8.47Z" style="fill: #fff; isolation: isolate; opacity: .49;"/>
                  <path d="M143.96,154.65c.21.41-3.74,3.17-5.36,4-.11.05-.22.11-.38.17-.26.11-.56.21-.87.16-.31-.05-.68-.27-.79-.34-.17-.1-.34-.21-.52-.32-.7-.45-1.47-.98-2.19-1.49-1.43-1.02-2.67-1.97-2.55-2.18.12-.21,1.57.36,3.17,1.12.79.39,1.63.8,2.36,1.16.32.16.83.41.7.33,0,0,0-.01,0-.01.11-.05.21-.1.3-.14,1.46-.75,5.91-2.89,6.14-2.44Z" style="fill: #300d09;"/>
                  <g>
                    <path d="M148.26,140.32c0,3.43-4.82,7.35-10.77,7.35s-10.78-3.92-10.78-7.35,4.82-4.28,10.78-4.28,10.77.85,10.77,4.28Z" style="fill: #280400;"/>
                    <path d="M144,138.52c-.13.61-1.26.95-2.49,1.21-1.24.25-2.59.44-3.3.43-.71-.02-2.32-.25-3.83-.48-1.5-.25-2.91-.52-3.04-1.14-.13-.6,1.12-1.45,2.69-2.03,1.57-.6,3.43-.88,4.25-.86.82,0,2.36.34,3.62.91,1.27.57,2.23,1.35,2.1,1.95Z" style="fill: #fef0ed;"/>
                  </g>
                  <path d="M163.52,152.96c0,11.02-11.65,19.96-26.04,19.96-5.78,0-11.14-1.45-15.46-3.89,5.08.19,10.19-.19,15.19-1.14,5.17-.98,10.3-2.6,14.65-5.56,4.37-2.95,7.89-7.36,9-12.51.38-1.74.44-3.56.19-5.34,1.58,2.57,2.46,5.45,2.46,8.47Z" style="fill: #d6a58b; isolation: isolate; opacity: .15;"/>
                </g>
                <g>
                  <circle cx="173.66" cy="125.92" r="12.17" style="fill: #280400;"/>
                  <path d="M173.95,120.77c-.39,1.79.74,3.49,2.52,3.8,1.79.31,3.54-.9,3.91-2.69.37-1.78-.76-3.47-2.53-3.77-1.77-.3-3.51.89-3.9,2.66Z" style="fill: #fff;"/>
                  <path d="M178.64,125.77c-.11.5.21.98.71,1.07.5.09.99-.25,1.09-.76.1-.5-.21-.98-.71-1.07-.5-.09-.99.25-1.09.75Z" style="fill: #fff; opacity: .5;"/>
                </g>
                <g>
                  <circle cx="101.26" cy="125.94" r="12.17" style="fill: #280400;"/>
                  <path d="M101.54,120.77c-.39,1.79.74,3.49,2.52,3.8,1.79.31,3.54-.9,3.91-2.69.37-1.78-.76-3.47-2.53-3.77-1.77-.3-3.51.89-3.9,2.66Z" style="fill: #fff;"/>
                  <path d="M106.22,125.78c-.11.5.21.98.71,1.07.5.09.99-.25,1.09-.76.1-.5-.21-.98-.71-1.07-.5-.09-.98.25-1.09.75Z" style="fill: #fff; opacity: .5;"/>
                </g>
              </g>
            </g>
            <path d="M205.95,111.54c4.07,16.11,4.58,34.85-2.21,50.02-6.79,15.17-21.54,26.31-38.07,28.51" style="fill: none; stroke: #280400; stroke-miterlimit: 10;"/>
          </g>
        </g>
      </g>
      <g>
        <path d="M33.02,164.95c2.08-4.69,7.95-6.06,12.09-9.1,4.08-3,6.6-8.09,6.25-13.13-.35-5.05-3.66-9.84-8.36-11.72s-10.55-.59-13.84,3.25c-5.55,6.46-2.77,16.84-6.99,24.24,2.32,3.31,7.11,4.91,10.85,6.46Z" style="fill: #f1cb7e;"/>
        <path d="M2.11,154.03c4.37,4.42,9.41,8.08,14.66,11.4.24.15.48.3.72.44,1.57.98,3.15,1.93,4.73,2.87,1.16.68,2.32,1.36,3.51,2.02.24.15.49.28.73.42,5.65,3.2,11.46,6.12,17.65,8.13,1.56.51,3.94,1.58,5.59,1.49.22,0,.4-.04.57-.09.09-.02.17-.05.24-.08,1.47-.64.3-2.87-.65-3.83-2.02-2.06-4.18-3.98-6.41-5.81-3.13-2.56-6.43-4.94-9.77-7.23-3.15-2.17-6.34-4.25-9.49-6.38-.37-.25-.74-.5-1.12-.75-4.04-2.72-8.14-5.37-12.67-7.14-2.27-.89-5.97-2.42-8.42-1.73-.77.22-1.27.54-1.58.96-.06.07-.1.14-.14.22-.84,1.49.57,3.8,1.86,5.11Z" style="fill: #7fc7f7;"/>
        <path d="M34.62,139.67c-.66.57-1.4,1.1-2.25,1.3s-1.85,0-2.39-.69c-.42-.53-.51-1.24-.47-1.92.15-2.57,2.74-5.93,5.64-5.48,3.83.6,1.12,5.37-.53,6.79Z" style="fill: #fff;"/>
        <path d="M29.3,142.25c.75.02,1.47.53,1.76,1.23.28.7.11,1.56-.42,2.1-.47.48-1.2.69-1.86.55-.84-.18-1.53-.94-1.63-1.8-.09-.86.41-1.75,1.2-2.11l.95.02Z" style="fill: #fff;"/>
        <path d="M.25,148.93c3.91.31,7.68,2.08,10.98,3.78,3.86,1.98,7.66,4.1,11.38,6.35,0,0,0,0,0,0,2.44,1.45,4.84,2.99,7.2,4.57,0,0,.02,0,.03.02,5.03,3.37,9.89,7,14.55,10.86,2.21,1.82,4.43,3.79,5.86,6.2.09-.02.17-.05.24-.08-1.45-2.46-3.71-4.46-5.95-6.31-4.39-3.63-8.93-7.04-13.64-10.23,0,0,0,0,0,0-2.85-1.93-5.75-3.79-8.71-5.57-3.54-2.14-7.17-4.14-10.85-6.04-3.3-1.68-7.05-3.44-10.96-3.78-.06.06-.1.14-.14.21Z" style="fill: #ffefe0;"/>
        <path d="M5.91,175.45c.82-1.76,2.13-3.24,3.18-4.32,2.37-2.44,4.71-4.22,7.17-5.45.15-.08.32-.16.51-.24,1.86-.87,5.38-2.29,7.38-1.43.66.28,1.1.77,1.32,1.47.57,1.82.87,3.8.99,5.72.17,2.42.08,4.76-.05,6.62-.17,2.77-.59,4.82-1.34,6.6-.98,2.31-2.57,4.11-4.47,5.07-.84.42-1.8.71-2.85.87-.53.08-1.08.11-1.61.11-3.36,0-6.67-1.51-8.76-4.07-2.48-3.05-3.07-7.45-1.46-10.95ZM7.92,185.95c2.27,2.78,6.08,4.24,9.73,3.69.97-.14,1.86-.4,2.63-.8,1.75-.88,3.22-2.55,4.14-4.71.72-1.71,1.12-3.67,1.29-6.37.12-1.95.22-4.44,0-6.99-.14-1.72-.42-3.47-.94-5.09-.15-.5-.46-.83-.93-1.03-.35-.15-.76-.22-1.21-.22-1.65,0-3.82.84-5.16,1.44-.38.17-.69.32-.92.43-2.38,1.19-4.67,2.92-6.97,5.3-1.01,1.04-2.28,2.46-3.05,4.13-1.5,3.25-.95,7.36,1.37,10.21Z" style="fill: #7fc7f7;"/>
      </g>
      <g>
        <g>
          <g>
            <g>
              <path d="M192.7,56.3c.17-.03.32-.14.39-.31l8.09-18.49c.12-.27,0-.59-.28-.71-.27-.12-.59,0-.71.28l-8.09,18.49c-.12.27,0,.59.28.71.1.05.21.06.32.04Z" style="fill: #280400;"/>
              <path d="M188.92,54.81c1.17-.22,2.35-.14,3.43.2.34.11.67.24.99.42,1.9.92,3.35,2.7,3.77,4.95.73,3.79-1.78,7.47-5.56,8.19-3.79.73-7.47-1.78-8.19-5.56-.73-3.81,1.78-7.47,5.56-8.2ZM184.42,62.81c.61,3.2,3.72,5.32,6.93,4.71,3.2-.61,5.31-3.73,4.71-6.93-.38-1.97-1.69-3.52-3.38-4.27,0,0,0,0-.01,0h0c-.16-.09-.31-.14-.47-.2,0,0-.01,0,0-.01t-.01,0h0s-.01,0-.01,0c-.96-.32-1.97-.41-3.03-.21-3.21.62-5.32,3.72-4.71,6.93Z" style="fill: #280400;"/>
            </g>
            <path d="M198.06,2.98c-.24.13-.46.28-.67.43-.63.41-1.23.87-1.81,1.34-1.23,1.03-2.32,2.2-3.27,3.48-.22.3-.44.61-.64.93-.92,1.38-1.65,2.87-2.2,4.44-.17.45-.31.9-.44,1.35-.03.11-.06.23-.09.34-.2.74-.34,1.52-.45,2.29-.07.5-.11,1-.15,1.5-.06.98-.06,1.97.04,2.97h0c.05.56.11,1.11.21,1.68h0c.02.15.05.3.08.45,1.24,6.47,5.4,11.64,10.87,14.38.32.17.64.32.97.45,0,0,0,0,.01,0,3.64,1.6,7.76,2.15,11.95,1.34,3.12-.59,5.92-1.87,8.3-3.65h0c.08-.06.14-.11.22-.17.41-.31.8-.64,1.18-.98.07-.06.14-.13.21-.2.84-.76,1.6-1.58,2.29-2.47.34-.43.65-.87.95-1.33h.01c.23-.34.45-.7.65-1.07.72-1.23,1.3-2.55,1.73-3.91.12-.35.22-.71.32-1.08.12-.44.21-.88.3-1.34.2-1.06.32-2.16.35-3.26.01-.27.01-.54,0-.8,0-1.18-.13-2.38-.36-3.57-2.11-11.05-12.78-18.29-23.81-16.18-2.48.47-4.75,1.37-6.78,2.62Z" style="fill: #f1cb7e;"/>
          </g>
          <path d="M195.57,4.76c-1.23,1.03-2.32,2.2-3.27,3.48-.22.3-.44.61-.64.93-.92,1.38-1.65,2.87-2.2,4.44-.17.45-.31.9-.44,1.35-.03.11-.06.23-.09.34,1.03,1.98,2.39,3.79,3.84,5.49,4.21,4.95,9.44,9.17,15.52,11.44,5.21,1.94,11.11,2.35,16.39.69.34-.43.65-.87.95-1.33h.01c.23-.34.45-.7.65-1.07.72-1.23,1.3-2.55,1.73-3.91.12-.35.22-.71.32-1.08.12-.44.21-.88.3-1.34-6.62,1.8-14.04.37-19.99-3.15-6.11-3.62-10.67-9.58-13.09-16.27Z" style="fill: #fff;"/>
        </g>
        <path d="M188.38,22.06c.05.55.11,1.11.21,1.67h0c1.81,2.39,4.18,4.65,7.09,6.78,4.57,3.33,9.26,5.5,13.93,6.44,3.84.77,7.69.68,11.17-.24h0c.08-.06.14-.11.22-.17.41-.31.8-.64,1.18-.98.07-.06.14-.13.21-.2-3.83,1.4-8.23,1.69-12.63.8-4.56-.91-9.14-3.03-13.62-6.3-3.34-2.43-5.93-5.04-7.77-7.8Z" style="fill: #fff;"/>
        <path d="M198.06,2.98c-.24.13-.46.28-.67.43.43.91.91,1.82,1.46,2.69,1.31,2.11,2.96,4.09,4.9,5.85,3.56,3.22,8.09,5.76,13.46,7.56,4.55,1.52,8.43,1.98,11.8,1.4.01-.27.01-.54,0-.8-3.27.6-7.08.15-11.55-1.34-5.27-1.77-9.71-4.26-13.19-7.4-2.69-2.44-4.81-5.32-6.21-8.38Z" style="fill: #fff;"/>
        <g>
          <path d="M219.3,31.71c.45-.18.9-.37,1.35-.55.76-.31,1.54-.63,2.18-1.13.4-.31.74-.7.91-1.18.05-.16.09-.33.04-.49-.11-.42-.65-.55-1.08-.52-.48.03-.95.17-1.37.39-.02-.45-.18-.89-.35-1.3-.12-.28-.28-.55-.51-.74s-.55-.3-.84-.23c-.28.07-.5.3-.63.56s-.17.55-.2.84c-.14,1.39.04,3.01.5,4.34Z" style="fill: #7fc7f7;"/>
          <path d="M209.81,29.48c.45-.18.9-.37,1.35-.55.76-.31,1.54-.63,2.18-1.13.4-.31.74-.7.91-1.18.05-.16.09-.33.04-.49-.11-.42-.65-.55-1.08-.52-.48.03-.95.17-1.37.39-.02-.45-.18-.89-.35-1.3-.12-.28-.28-.55-.51-.74s-.55-.3-.84-.23c-.28.07-.5.3-.63.56-.13.26-.17.55-.2.84-.14,1.39.04,3.01.5,4.34Z" style="fill: #7fc7f7;"/>
          <path d="M201.11,25.47c.45-.18.9-.37,1.35-.55.76-.31,1.54-.63,2.18-1.13.4-.31.74-.7.91-1.18.05-.16.09-.33.04-.49-.11-.42-.65-.55-1.08-.52-.48.03-.95.17-1.37.39-.02-.45-.18-.89-.35-1.3-.12-.28-.28-.55-.51-.74s-.55-.3-.84-.23c-.28.07-.5.3-.63.56s-.17.55-.2.84c-.14,1.39.04,3.01.5,4.34Z" style="fill: #7fc7f7;"/>
          <path d="M193.89,17.62c.47-.12.94-.25,1.41-.37.8-.21,1.61-.42,2.31-.84.43-.26.83-.6,1.05-1.05.07-.15.13-.32.11-.48-.06-.43-.57-.63-1.01-.65-.48-.03-.96.05-1.41.21.04-.45-.06-.9-.18-1.34-.08-.29-.2-.58-.41-.8-.21-.22-.51-.37-.81-.33-.29.03-.54.23-.7.47-.16.24-.24.53-.31.81-.32,1.36-.35,2.99-.07,4.37Z" style="fill: #7fc7f7;"/>
        </g>
      </g>
      <g>
        <g>
          <path d="M58.53,33.33c.3,2.65.24,5.25-.15,7.77-.03.2-.06.4-.1.6-.31,1.76-.78,3.48-1.4,5.13-.17.45-.35.9-.54,1.34-3.14,7.29-9.19,13.14-16.84,15.93-.58.21-1.18.41-1.78.58-.21.06-.42.12-.63.17-1.39.37-2.82.65-4.29.82-3,.34-5.94.22-8.76-.32-.19-.04-.37-.07-.56-.12-.17-.03-.34-.06-.51-.11-5-1.14-9.57-3.58-13.27-6.99-.16-.15-.32-.3-.48-.45-.18-.17-.35-.34-.52-.52C4.26,52.67,1.23,46.71.46,39.94c-.23-2.04-.25-4.05-.07-6.02.08-.89.21-1.78.37-2.65,0-.04.02-.08.02-.13.04-.2.08-.41.13-.62C3.47,18.58,13.39,9.06,26.2,7.6c.43-.05.85-.09,1.27-.12.29-.02.58-.04.87-.04.95-.04,1.89-.03,2.82.02,1.41.08,2.8.26,4.15.54.26.05.51.11.76.17.17.04.34.07.51.12,4.22,1.05,8.11,3.03,11.41,5.74.2.16.4.33.59.5,1.2,1.04,2.32,2.17,3.34,3.39,3.55,4.23,5.93,9.52,6.6,15.42Z" style="fill: #f1cb7e;"/>
          <path d="M28.34,7.44c-8.18,6.58-14.3,16.97-17.11,29.3-1.58,6.94-2.08,14.09-2,20.94.08,7.12.79,13.92,1.55,19.81.7,5.4,1.58,11.16,3.29,16.73l-.5.15c-1.72-5.6-2.61-11.4-3.31-16.82-.78-6.04-1.5-13.04-1.56-20.39-.05-6.73.46-13.74,2.01-20.54,2.78-12.17,8.75-22.47,16.75-29.14.29-.02.58-.04.87-.04Z" style="fill: #280400;"/>
          <path d="M36.59,8.29c-.02,2.05-.47,4.08-.86,5.93-3.68,17.02-7.78,34.08-12.24,51.02-2.61,9.91-5.35,19.77-8.21,29.54l-.49-.14c2.85-9.76,5.59-19.61,8.19-29.5,4.47-16.93,8.57-34,12.25-51.02.4-1.86.84-3.9.86-5.94.17.04.34.07.51.12Z" style="fill: #280400;"/>
          <path d="M47.93,30.04c-1.93,11.92-5.38,23.58-10.2,34.64-4.5,10.32-10.2,20.11-16.99,29.12l-.41-.31c6.68-8.86,12.31-18.49,16.77-28.64,4.89-11.13,8.39-22.87,10.33-34.89.79-4.92,1.42-10.51.57-15.93.2.16.4.33.59.5.73,5.31.11,10.72-.66,15.52Z" style="fill: #280400;"/>
        </g>
        <path d="M58.38,41.1c-.03.2-.06.4-.1.6-.16.06-.32.13-.49.19-.19.07-.37.15-.56.22-3.04,1.14-6.36,1.93-9.87,2.33-.7.08-1.4.14-2.11.19-.15.02-.31.02-.46.03h-.04c-.17.01-.35.02-.53.03-.11,0-.23.02-.34.02-2.05.08-4.16.05-6.37-.11-.11,0-.23-.02-.34-.03-2.43-.19-4.98-.52-7.7-1.01-.14-.02-.28-.05-.41-.07-.02,0-.04-.01-.06-.01-.17-.03-.34-.06-.51-.09-1.25-.24-2.54-.51-3.88-.8-1.17-.26-2.41-.55-3.7-.9-.1-.03-.19-.05-.28-.08h0c-2.33-.62-4.81-1.41-7.29-2.42-.15-.06-.29-.12-.44-.18-.66-.27-1.32-.57-1.98-.88-.16-.07-.33-.15-.48-.23-1.39-.67-2.75-1.42-4.07-2.26-.26-.17-.52-.34-.78-.51-1.71-1.15-3.34-2.47-4.8-3.99.04-.2.08-.41.13-.62,2.77,2.94,6.14,5.16,9.64,6.86.16.08.32.16.48.23,4.73,2.23,9.67,3.55,13.69,4.45,1.34.3,2.63.57,3.89.8.17.03.34.06.51.09,5.5,1.01,10.27,1.4,14.74,1.22.17,0,.34-.01.51-.03.18,0,.35-.01.53-.02,4.88-.3,9.45-1.33,13.48-3.04Z" style="fill: #fff;"/>
        <path d="M57.81,41.81l-.02.08-.91,4.94-.21,1.14c-.02.09-.08.16-.16.19-.05.02-.11.02-.16,0-.03,0-.06-.02-.08-.04l-4.58-3.64-3.04,5.52c-.04.07-.11.12-.2.13h-.02c-.09,0-.17-.04-.22-.11l-3.18-4.83-.66.89-.87,1.17-2.35,3.18c-.05.07-.13.11-.21.1-.08,0-.16-.04-.21-.12l-3.43-5.28-4.66,4.54c-.06.05-.14.08-.22.07-.08-.01-.15-.06-.18-.13l-3.06-5.59-.38.3-.66.52-4.19,3.29c-.06.05-.14.07-.21.05-.08-.02-.14-.07-.17-.13l-2.92-5.86-4.52,3.34c-.06.05-.14.06-.22.05-.07-.02-.13-.07-.17-.14l-2.77-5.89-2.59,1.61-.59.36-1.4.87c-.07.04-.15.05-.22.03s-.13-.09-.16-.16l-2.18-6.7-4.8,2.95c-.08.05-.17.05-.25,0-.08-.04-.13-.12-.14-.21l-.24-4.41c.08-.89.21-1.78.37-2.65l.36,6.61,4.47-2.75.24-.15c.07-.04.15-.05.22-.02.07.02.13.08.16.16l.17.52,2.01,6.17,1.5-.94.59-.37,2.43-1.5.03-.02c.06-.04.14-.05.21-.03.07.02.13.07.16.14l.04.09,2.71,5.78,4.51-3.33s.04-.02.06-.03c0,0,0,0,0,0,.04-.02.1-.02.14-.01.06.01.1.04.14.09.01.01.02.03.03.05l2.92,5.85,4.45-3.5.66-.52.09-.07.02-.02c.06-.04.14-.06.21-.05.07.02.14.06.17.13h0s3.03,5.56,3.03,5.56l4.65-4.52s0-.01.02-.02c.05-.04.12-.06.18-.05.06,0,.12.03.16.08.01,0,.02.02.03.03l3.41,5.23,2.95-3.99.84-1.13.05-.08.04-.05c.05-.07.13-.11.21-.11.08,0,.16.04.21.12h0s3.14,4.78,3.14,4.78l2.99-5.42c.04-.07.1-.11.18-.13.08-.01.15,0,.21.05l4.48,3.56.99-5.35.07-.39c.03-.14.16-.23.3-.21.14.03.23.16.2.3Z" style="fill: #fff;"/>
        <path d="M31.17,91.37l-1.36,2.11-.15.24-.79,1.23-.16.25-1.24,1.92-.17.27-.52.81-.17.27-1.23,1.91-.19.3-2.49,3.87-.18.27-.31.49-.18.28-1.74,2.71-.17.27-.77,1.2s-.61.09-1.59.16c-.08,0-.17.01-.26.02-1.13.08-2.67.13-4.33.02-.09,0-.18-.01-.26-.02-1.51-.12-3.1-.37-4.55-.87-.09-.03-.18-.06-.27-.09-1.16-.43-2.22-1.02-3.06-1.83-.11-.11-.22-.22-.33-.33v-.03s-.19-2.65-.19-2.65l-.02-.27-.22-3.04h0s-.01-.26-.01-.26h0s-.43-5.99-.43-5.99l-.02-.27-.3-4.14-.02-.28-.2-2.72-.02-.28-.16-2.22,28.07,6.66Z" style="fill: #806151;"/>
        <g>
          <path d="M29.81,93.48l-.15.24c-1.48-.18-2.96-.42-4.42-.71-.09-.02-.18-.04-.27-.05-1.57-.31-3.13-.67-4.68-1.05-.09-.02-.18-.04-.27-.07-1.25-.31-2.5-.63-3.74-.95-.25-.06-.51-.13-.76-.2-.08-.02-.17-.04-.26-.07-1.37-.35-2.76-.72-4.14-1.09-.09-.02-.17-.04-.26-.07-1.35-.36-2.69-.74-4.03-1.14-.09-.03-.17-.05-.25-.08-1.11-.33-2.21-.67-3.29-1.04l-.02-.28c2.56.87,5.18,1.63,7.79,2.33h0s.03.01.05.01c1.76.48,3.51.93,5.24,1.37,4.39,1.13,8.89,2.29,13.47,2.83Z" style="fill: #280400;"/>
          <path d="M6.83,88.12c0,.07,0,.14,0,.22-.01.96-.02,1.93,0,2.9,0,.09,0,.18,0,.27.02,1.23.05,2.45.11,3.68,0,.09,0,.18,0,.27.08,1.88.22,3.75.39,5.62,0,.09.01.17.02.26.1,1.09.22,2.18.36,3.27,0,.09.02.18.04.27.12.94.24,1.88.39,2.82.02.09.03.18.04.27.06.39.12.77.18,1.16-.09-.03-.18-.06-.27-.09-.06-.37-.12-.75-.18-1.12-.02-.09-.03-.18-.04-.27-.14-.94-.27-1.87-.39-2.81-.02-.09-.03-.18-.04-.26-.13-1.09-.25-2.17-.35-3.26,0-.09-.01-.17-.02-.25-.18-1.88-.31-3.76-.39-5.65,0-.09-.01-.17,0-.27-.06-1.23-.1-2.47-.11-3.71,0-.09,0-.18,0-.27-.01-.97-.01-1.93,0-2.89,0-.05,0-.1,0-.14h.25Z" style="fill: #280400;"/>
          <path d="M11.1,89.26v.02c0,.09.01.18.02.27.06,1.04.12,2.07.18,3.12.01.09.02.18.02.27.07,1.07.14,2.15.21,3.23,0,.09.01.17.02.26.12,1.68.26,3.36.44,5.05l.03.26c.12,1.2.26,2.4.42,3.6,0,.09.02.17.03.26.13.93.26,1.86.42,2.79,0,.09.02.17.04.26.08.46.16.91.24,1.37-.09,0-.18-.01-.26-.02-.08-.46-.17-.92-.24-1.38l-.04-.26c-.15-.93-.29-1.86-.42-2.79-.01-.09-.03-.18-.04-.26-.16-1.19-.3-2.39-.42-3.58l-.03-.25c-.17-1.69-.31-3.39-.43-5.08,0-.09-.01-.17-.02-.27-.08-1.08-.15-2.17-.21-3.25-.01-.09-.02-.18-.02-.27-.06-1.04-.12-2.08-.18-3.11,0-.07,0-.13-.01-.2h.2s.01,0,.01,0h.04s0,0,0,0Z" style="fill: #280400;"/>
          <path d="M17.76,109.95c-.08,0-.17.01-.26.02-.09-.4-.18-.81-.27-1.21-.01-.09-.03-.17-.05-.26-.19-.88-.36-1.76-.52-2.65-.02-.09-.03-.17-.05-.26-.23-1.28-.43-2.57-.59-3.86-.01-.09-.02-.17-.03-.25-.2-1.49-.35-2.99-.46-4.49,0-.09-.01-.17-.02-.26-.07-.94-.13-1.89-.17-2.83,0-.09-.01-.18,0-.27-.04-1-.06-2-.07-3,0-.05,0-.1,0-.15h.26c0,.07,0,.15,0,.22,0,.99.03,1.99.07,2.98,0,.09.01.18,0,.27.04.94.1,1.87.17,2.81,0,.09,0,.17.02.26.12,1.49.27,2.97.47,4.45,0,.08.01.17.03.25.17,1.29.37,2.58.6,3.87,0,.09.03.18.05.26.16.88.32,1.76.51,2.64.02.09.03.17.05.26.09.4.17.8.27,1.2Z" style="fill: #280400;"/>
          <path d="M22.71,104.56l-.18.27c-.38-1.17-.7-2.35-.97-3.55-.03-.08-.05-.17-.06-.25-.27-1.2-.49-2.41-.69-3.62-.02-.09-.04-.18-.05-.26-.13-.81-.25-1.61-.36-2.42-.01-.09-.02-.18-.04-.26-.12-.88-.23-1.75-.34-2.62v-.13s.24-.03.24-.03c0,.08.02.15.03.23.11.86.22,1.72.34,2.59,0,.09.02.17.03.26.11.8.23,1.6.36,2.4.01.09.03.17.04.26.2,1.2.42,2.39.69,3.58.01.08.03.17.05.25.26,1.11.55,2.22.9,3.3Z" style="fill: #280400;"/>
          <path d="M26.5,97.42c.09.26.18.52.28.78l-.17.27c-.14-.34-.26-.69-.38-1.04-.03-.08-.06-.16-.08-.25-.23-.67-.44-1.34-.63-2.03-.03-.08-.05-.17-.07-.26-.18-.64-.34-1.28-.48-1.93,0,0,0-.01,0-.02l.25-.05s.02.09.03.13c.14.64.3,1.27.47,1.89h0c.02.09.04.18.07.26.19.68.39,1.34.63,2.01.02.09.05.17.08.25Z" style="fill: #280400;"/>
          <path d="M27.47,97.13l-.17.27c-.27.01-.53.02-.8.03-.09.01-.18.01-.27.01-1.72.06-3.44.06-5.17,0-.09,0-.17-.01-.25-.01-1.68-.08-3.36-.2-5.02-.4-.09-.01-.18-.02-.26-.03-1.33-.16-2.66-.35-3.97-.58-.08-.01-.17-.03-.25-.04-1.46-.26-2.92-.56-4.36-.91l-.25-.06c-.96-.24-1.92-.49-2.87-.77l-.02-.27c.95.28,1.91.54,2.88.78l.25.06c1.44.35,2.89.65,4.35.91.08.02.17.03.25.05,1.32.23,2.64.42,3.97.58.08,0,.17.02.26.03,1.66.19,3.33.32,5,.39.09,0,.18.01.26.01,1.71.07,3.42.07,5.12.02.09,0,.18-.01.27-.01.35-.01.7-.03,1.05-.05Z" style="fill: #280400;"/>
          <path d="M21.75,101c1.21-.17,2.43-.37,3.63-.62l-.19.3c-1.12.23-2.25.41-3.39.57l-.25.03c-.32.04-.64.08-.97.12-1.43.16-2.87.27-4.31.32-.09,0-.17,0-.26,0-1.33.04-2.67.04-4-.02-.09,0-.17,0-.26-.01-1.47-.06-2.94-.19-4.4-.37-.09-.01-.17-.02-.26-.04-.94-.12-1.89-.26-2.83-.43h0s-.01-.26-.01-.26c.94.17,1.88.32,2.83.44.08.01.17.02.26.03,1.46.18,2.93.31,4.39.37.09,0,.18,0,.26,0,1.33.06,2.67.07,4,.02.09,0,.17,0,.26,0,1.75-.06,3.5-.21,5.25-.44l.25-.03h0Z" style="fill: #280400;"/>
          <path d="M16.88,105.59c1.83.03,3.61-.06,5.33-.27l-.18.28h-.05c-1.63.19-3.33.28-5.06.25-.09,0-.17,0-.26,0-.44,0-.88-.02-1.32-.04-.94-.05-1.9-.12-2.87-.23-.09,0-.18-.02-.26-.03-1.44-.16-2.92-.39-4.46-.68-.08-.01-.17-.03-.26-.05-.97-.18-1.96-.4-2.98-.64l-.02-.27c1.01.24,2,.46,2.96.65.09.02.18.04.26.05,1.54.3,3.02.53,4.46.69.09.02.17.02.26.03.99.11,1.96.18,2.92.23.42.02.84.03,1.25.04.09,0,.18,0,.27,0Z" style="fill: #280400;"/>
          <path d="M17.43,108.49c.95-.02,1.91-.08,2.86-.18l-.17.27c-.87.09-1.75.14-2.63.17-.09,0-.17,0-.26,0-1.44.03-2.87-.01-4.3-.13-.09,0-.17-.01-.26-.02-1.51-.13-3.01-.34-4.49-.65-.09-.01-.18-.03-.27-.06-.97-.19-1.93-.43-2.88-.71-.11-.11-.22-.22-.33-.33v-.03c1.05.31,2.1.58,3.17.8.08.02.17.04.26.06,1.48.3,2.98.52,4.49.66.09.01.18.02.26.02,1.43.12,2.86.17,4.29.13.08,0,.17,0,.26,0Z" style="fill: #280400;"/>
          <path d="M28.87,94.95l-.16.25c-.98.01-1.95,0-2.92-.04-.09,0-.18-.01-.27-.01-1.62-.07-3.24-.2-4.85-.4-.09,0-.18-.02-.27-.03-1.61-.2-3.22-.46-4.8-.79-.08-.02-.17-.04-.26-.05-1.35-.28-2.69-.6-4.02-.97-.08-.02-.17-.04-.25-.07-1.43-.4-2.85-.85-4.24-1.35-.09-.03-.17-.06-.25-.09-1.04-.38-2.06-.78-3.07-1.21l-.02-.28c1.02.43,2.05.84,3.09,1.22.08.03.17.06.25.09,1.39.5,2.8.95,4.22,1.35.09.03.17.05.26.07,1.33.37,2.68.69,4.03.97.08.02.17.04.26.05,1.58.32,3.18.58,4.78.79.09.01.18.02.27.03,1.6.19,3.2.32,4.82.39.09,0,.18.01.26.01h0c1.05.04,2.1.06,3.15.05Z" style="fill: #280400;"/>
        </g>
      </g>
      <g>
        <path d="M257.54,46.73s21.21,22,4.71,27.43c-16.49,5.44-22.15-21.3-22.15-21.3,0,0-10.52,23.13-.28,36.58,10.24,13.45,33.82,17.13,44.2-4.84,10.38-21.98-26.48-37.86-26.48-37.86Z" style="fill: #fff;"/>
        <path d="M259.86,48.28c-2.65-2.26-6.1-3.57-9.58-3.64-1.51-.03-3.03.17-4.54.06-2.01-.15-3.98-.85-5.63-2.01-1.39-.97-2.57-2.32-3.06-3.94s-.17-3.54,1.05-4.72" style="fill: none; stroke: #280400; stroke-linecap: round; stroke-linejoin: round; stroke-width: 1.23px;"/>
        <path d="M240.08,54.89c-.49-2.88,1.39-5.71,3.73-7.45,2.35-1.74,5.16-2.73,7.71-4.17s4.96-3.6,5.52-6.47c.5-2.52-.54-5.13-2.11-7.17" style="fill: none; stroke: #280400; stroke-linecap: round; stroke-linejoin: round; stroke-width: 1.23px;"/>
        <path d="M267.67,92.36c1.54-3.16,3.1-6.4,3.42-9.9.19-2.04-.18-4.32-1.75-5.62-.41-.34-.92-.6-1.45-.63-.78-.04-1.51.41-2.1.93-1.09.95-1.95,2.17-2.46,3.52-1.33-.59-2.84-1.27-4.3-1.22s-3,.95-3.28,2.38c-.24,1.21.46,2.41,1.22,3.38,2.62,3.33,6.97,5.16,10.7,7.17Z" style="fill: #7fc7f7;"/>
      </g>
      <polygon points="86.72 54.39 89.84 45.64 91.17 54.39 99.76 55.87 92.06 59.13 91.91 66.98 87.76 60.76 79.76 62.83 84.65 57.65 78.43 53.64 86.72 54.39" style="fill: #fff;"/>
      <polygon points="232.41 263.26 235.52 254.52 236.85 263.26 245.45 264.74 237.74 268 237.6 275.85 233.45 269.63 225.45 271.7 230.34 266.52 224.11 262.52 232.41 263.26" style="fill: #fff;"/>
      <polygon points="73.44 29.74 75.9 22.81 76.96 29.74 83.77 30.91 77.67 33.49 77.55 39.72 74.26 34.79 67.92 36.43 71.79 32.32 66.86 29.15 73.44 29.74" style="fill: #fff;"/>
      <g>
        <path d="M219.3,166.73c0-3.55,2.88-6.43,6.42-6.43s6.42,2.88,6.42,6.43-2.88,6.43-6.42,6.43c-3.55,0-6.42-2.88-6.42-6.43Z" style="fill: #fff;"/>
        <path d="M209.61,180.52c0-2.68,2.17-4.85,4.85-4.85s4.85,2.17,4.85,4.85-2.17,4.85-4.85,4.85-4.85-2.17-4.85-4.85Z" style="fill: #fff;"/>
        <path d="M209.01,167c0-1.88,1.52-3.4,3.4-3.4s3.4,1.52,3.4,3.4-1.52,3.4-3.4,3.4-3.4-1.52-3.4-3.4Z" style="fill: #fff;"/>
      </g>
      <g>
        <path d="M38.93,271.69c0,3.78-3.06,6.84-6.84,6.84s-6.84-3.06-6.84-6.84,3.06-6.84,6.84-6.84,6.84,3.06,6.84,6.84Z" style="fill: #fff;"/>
        <path d="M49.26,257c0,2.85-2.31,5.16-5.16,5.16s-5.16-2.31-5.16-5.16,2.31-5.16,5.16-5.16,5.16,2.31,5.16,5.16Z" style="fill: #fff;"/>
        <circle cx="46.28" cy="271.4" r="3.62" style="fill: #fff;"/>
      </g>
    </g>
  </g>
</svg>