<?xml version="1.0" encoding="UTF-8"?>
<svg id="Capa_2" data-name="Capa 2" xmlns="http://www.w3.org/2000/svg" viewBox="0 0 345 345">
  <g id="Capa_1-2" data-name="Capa 1">
    <g>
      <circle cx="172.5" cy="172.5" r="172.5" style="fill: #fff; isolation: isolate; opacity: .44;"/>
      <g>
        <path d="M273.87,151.21c-5.39,3.71-9.15,9.72-10.12,16.2-1.46,9.71,3.08,19.6,1.49,29.29-1.77,10.86-11.37,19.4-22.07,21.96-10.7,2.56-22.12-.1-31.88-5.19" style="fill: none; stroke: #280400; stroke-miterlimit: 10; stroke-width: .95px;"/>
        <path d="M267.9,154.37l-5.24,4.07s6.21,3.57,6.61,3.7c.4.13,1.81-5.73,1.81-5.73l-3.17-2.03Z" style="fill: #f1cb7e;"/>
        <path d="M313.69,141.69c-4.42,14-18.17,22.47-32.24,20.7-1.77-.21-3.54-.6-5.3-1.16-15.76-4.97-24.51-21.78-19.54-37.54.79-2.52,1.89-4.85,3.24-6.98,7.08-11.22,21.06-16.73,34.31-12.55,15.76,4.97,24.51,21.78,19.54,37.54Z" style="fill: #f1cb7e;"/>
        <path d="M298.06,148.07c-.34,1.41.18,3.02,1.36,3.87s2.94.81,4.01-.17c1.03-.94,1.26-2.6.67-3.87-1.38-2.96-5.18-3.41-6.04.17Z" style="fill: #fff;"/>
        <path d="M304.17,125.94c-.46,1.84-.32,3.82-.95,5.61-.41,1.17-1.12,2.2-1.64,3.32-.8,1.71-1.16,3.7-.55,5.49s2.33,3.25,4.22,3.16c2.21-.1,3.82-2.12,4.78-4.11,1.33-2.73,2.03-5.8,1.74-8.83-.25-2.61-1.26-5.1-2.97-7.1-1.97-2.3-4.05.12-4.63,2.45Z" style="fill: #fff;"/>
        <path d="M281.45,162.38c-1.77-.21-3.54-.6-5.3-1.16-15.76-4.97-24.51-21.78-19.54-37.54.79-2.52,1.89-4.85,3.24-6.98-.26,17.42,8,34.82,21.61,45.68Z" style="fill: #f1cb7e; isolation: isolate; opacity: .4;"/>
      </g>
      <circle cx="172.5" cy="172.5" r="160" style="fill: none; stroke: #280400; stroke-dasharray: 5; stroke-miterlimit: 10;"/>
      <path d="M241.14,292.11c0,4.66-30.51,8.43-68.14,8.43s-68.14-3.77-68.14-8.43,30.51-8.43,68.14-8.43,68.14,3.77,68.14,8.43Z" style="fill: #a2c5e0; isolation: isolate; opacity: .41;"/>
      <path d="M159.33,185.69s-3.08,4.11-8.1,9.97c-8.56,9.97-22.75,24.98-36.97,33.28h-.01c-13.25,7.74-26.52,9.63-35.22-3.87-6.42-9.95-4.19-18.1,2.41-24.66,13.61-13.55,45.89-20.45,59.85-22.87,4.11-.72,6.63-1.05,6.63-1.05l11.4,9.21Z" style="fill: #d6a58b;"/>
      <path d="M151.23,195.66c-8.56,9.97-22.75,24.98-36.97,33.28,1.63-4.28,2.78-8.74,2.71-13.3-.08-5.61-2.23-11.4-6.67-14.84-2.95-2.29-6.69-3.38-10.42-3.63s-7.45.31-11.1,1.06c-2.51.5-5.02,1.11-7.34,2.17,13.61-13.55,45.89-20.45,59.85-22.87,2.18.59,4.23,1.51,5.91,2.99,2.52,2.21,3.95,5.48,4.36,8.81.26,2.12.12,4.25-.33,6.33Z" style="fill: #d6a58b; isolation: isolate; opacity: .15;"/>
      <circle cx="96.44" cy="213.1" r="9.81" style="fill: #fff; isolation: isolate; opacity: .49;"/>
      <path d="M84.49,212.61c0,2.12-1.72,3.83-3.83,3.83s-3.83-1.71-3.83-3.83,1.71-3.83,3.83-3.83,3.83,1.72,3.83,3.83Z" style="fill: #fff; isolation: isolate; opacity: .49;"/>
      <path d="M88.32,222.27c0,2.12-1.71,3.83-3.83,3.83s-3.83-1.71-3.83-3.83,1.71-3.83,3.83-3.83c2.12,0,3.83,1.72,3.83,3.83Z" style="fill: #fff; isolation: isolate; opacity: .49;"/>
      <path d="M97.76,228.22c0,2.12-1.71,3.83-3.83,3.83s-3.83-1.71-3.83-3.83,1.71-3.83,3.83-3.83c2.11,0,3.83,1.71,3.83,3.83Z" style="fill: #fff; isolation: isolate; opacity: .49;"/>
      <path d="M265.97,225.06c-4.7,7.28-10.72,10.09-17.36,9.91-4.19-.11-8.65-1.42-13.15-3.54-5.92-2.79-11.95-6.98-17.67-11.73-17.48-14.47-32.12-34.02-32.12-34.02l8.73-7.07,2.66-2.15s.75.1,2.1.3c8.14,1.24,38.06,6.39,56.24,17.42,12.24,7.42,19.16,17.51,10.56,30.86Z" style="fill: #d6a58b;"/>
      <path d="M265.97,225.06c-4.7,7.28-10.72,10.09-17.36,9.91-4.19-.11-8.65-1.42-13.15-3.54-.74-.59-1.45-1.22-2.11-1.89-3.4-3.4-5.92-7.81-6.46-12.58-.88-7.68,3.69-15.39,10.33-19.34,3.64-2.16,7.82-3.27,12.02-3.52,2.01-.12,4.1-.11,6.17.1,12.24,7.42,19.16,17.51,10.56,30.86Z" style="fill: #d6a58b; isolation: isolate; opacity: .15;"/>
      <circle cx="248.56" cy="213.1" r="9.81" style="fill: #fff; isolation: isolate; opacity: .49;"/>
      <circle cx="264.21" cy="213.51" r="3.83" style="fill: #fff; isolation: isolate; opacity: .49;"/>
      <path d="M256.55,223.17c0,2.12,1.71,3.83,3.83,3.83s3.83-1.71,3.83-3.83-1.71-3.83-3.83-3.83c-2.12,0-3.83,1.71-3.83,3.83Z" style="fill: #fff; isolation: isolate; opacity: .49;"/>
      <path d="M247.1,229.13c0,2.12,1.71,3.83,3.83,3.83s3.83-1.71,3.83-3.83-1.71-3.83-3.83-3.83c-2.11,0-3.83,1.71-3.83,3.83Z" style="fill: #fff; isolation: isolate; opacity: .49;"/>
      <path d="M229.97,183.62c8.92,2.66,18.13,6.14,25.44,10.58,12.24,7.42,19.16,17.51,10.56,30.86-1.01,1.57-2.08,2.93-3.21,4.09" style="fill: none; stroke: #280400; stroke-miterlimit: 10;"/>
      <path d="M227.26,246.25c-3.33,44.39-51.26,44.07-54.58,43.98h-.18s-16.17.63-30.96-6.95c-2.51-1.29-4.98-2.81-7.33-4.61-1.57-1.19-3.08-2.52-4.51-3.98-6.3-6.45-11.02-15.57-11.97-28.44-3.43-45.98,37.44-78.77,37.44-78.77l17.32-1.29,11.34.85,5.99.44s2.36,1.89,5.89,5.4l.13.13c.45.45.93.93,1.43,1.45,11.62,11.97,32.48,38.4,29.99,71.8Z" style="fill: #d6a58b;"/>
      <ellipse cx="172.5" cy="241.27" rx="40.84" ry="36.87" style="fill: #fff; isolation: isolate; opacity: .49;"/>
      <ellipse cx="172.5" cy="241.27" rx="35.82" ry="32.34" style="fill: none; stroke: #280400; stroke-dasharray: 5; stroke-miterlimit: 10;"/>
      <path d="M207.93,188.79c16.35,19.98,21.57,35.79,18.57,64.35" style="fill: none; stroke: #280400; stroke-miterlimit: 10;"/>
      <ellipse cx="171.63" cy="171.03" rx="35.35" ry="22.5" style="fill: #d6a58b; isolation: isolate; opacity: .15;"/>
      <path d="M100.88,191.26c-1.85-2.66-2.21-6.2-.92-9.12,1.24-2.82,3.93-5.23,3.76-8.31-.12-2.2-1.64-4.74-.08-6.33,1.14-1.16,3.2-.81,4.61.07,1.41.88,2.52,2.17,4.03,2.88,1.98.93,4.33.72,6.43,1.34,3.72,1.09,6.09,4.51,8.14,7.68-.13,1-.66,1.72-1.14,2.6-2.36,4.3-5.84,8.15-10.39,10.3-4.54,2.15-11.6,2.98-14.44-1.11Z" style="fill: #f1cb7e;"/>
      <path d="M103.55,202.11l30.45-16.63s8.6-1.81,16.17,13.73c7.57,15.55,26.75,39.46,16.9,48.09-9.85,8.63-28.89,19.83-36.14,14.31-7.26-5.53-34.33-49.37-27.38-59.5Z" style="fill: #fff; isolation: isolate; opacity: .42;"/>
      <path d="M141.93,196.99c.43.41.82.88,1.14,1.41,5.72,9.46,22.72,38.18,21.7,43.76-1.22,6.68-24.86,16.57-30.62,16.43-4.82-.11-20.73-33.66-25.77-44.56-.61-1.33-.77-2.79-.5-4.16.19-.95.58-1.88,1.19-2.7,8.63-11.79,21.52-12.71,28.05-12.31,1.83.12,3.55.88,4.81,2.14Z" style="fill: #c2d9eb;"/>
      <path d="M141.93,196.99c-.17.08-.36.16-.54.22-2.35.82-4.77,1.46-6.94,2.62-3.75,1.99-6.5,5.36-10.06,7.64-3.63,2.35-8.08,3.52-12.47,3.27-1.09-.06-2.82-.25-4.04-.87.19-.95.58-1.88,1.19-2.7,8.63-11.79,21.52-12.71,28.05-12.31,1.83.12,3.55.88,4.81,2.14Z" style="fill: #a2c5e0; isolation: isolate; opacity: .41;"/>
      <path d="M140.74,203.26c1.38,1.07,3.37,1.91,4.86,1.01.88-.53,1.32-1.56,1.35-2.57.03-1-.31-1.98-.7-2.91-.56-1.33-1.25-2.61-2.05-3.83-.92-1.39-2.02-2.71-3.48-3.57-3.9-2.3-5.95.12-5.1,3.85.71,3.11,2.53,6.01,5.12,8.02Z" style="fill: #fff;"/>
      <path d="M149.53,213.99c1.23.08,2.52-.58,2.93-1.68.19-.5.2-1.05.12-1.58-.35-2.61-3.85-5.86-6.49-3.46-2.37,2.15.61,6.54,3.43,6.73Z" style="fill: #fff;"/>
      <path d="M129.04,178.39c.11.03.23.07.33.12,1.26.49,2.35,1.39,3.07,2.61l2.4,4.08-1.73.94-.21.11-2.86,1.55-.21.11-3.53,1.91-.22.11-3.62,1.96-.21.11-4.15,2.24-.23.12-4.8,2.6-.21.11-3.23,1.75-.21.11-2.82,1.52-.21.11-2.82,1.52-2.41-4.83c-1.15-2.32-.61-5,1.18-6.7.06-.07.12-.13.2-.18.34-.3.73-.58,1.15-.8l1.77-.94.23-.12,2.98-1.58.21-.11,4.61-2.44.21-.11,3.68-1.95.21-.11,3.52-1.87.21-.11,2.73-1.45c.28-.14.55-.26.83-.36.08-.04.16-.06.23-.09,1.31-.42,2.69-.38,3.94.04Z" style="fill: #fff;"/>
      <path d="M102.52,190.4c1.14,3.43,2.51,6.79,4.07,10.07l-.21.11c-1.54-3.27-2.9-6.61-4.05-10.01.06-.07.12-.13.2-.18Z" style="fill: #280400;"/>
      <path d="M105.67,188.54c1.21,3.46,2.54,6.9,3.95,10.29l-.21.11c-1.42-3.39-2.74-6.83-3.96-10.29l.23-.12Z" style="fill: #280400;"/>
      <polygon points="108.86 186.85 113.06 196.97 112.85 197.09 108.65 186.96 108.86 186.85" style="fill: #280400;"/>
      <polygon points="113.68 184.29 118.09 194.26 117.87 194.38 113.47 184.41 113.68 184.29" style="fill: #280400;"/>
      <polygon points="117.57 182.22 122.46 191.9 122.24 192.01 117.36 182.34 117.57 182.22" style="fill: #280400;"/>
      <polygon points="121.31 180.24 126.3 189.82 126.08 189.94 121.1 180.36 121.31 180.24" style="fill: #280400;"/>
      <path d="M125.1,178.35c1.63,3.15,3.28,6.31,4.94,9.45l-.21.11c-1.66-3.15-3.32-6.33-4.96-9.48.08-.04.16-.06.23-.09Z" style="fill: #280400;"/>
      <path d="M129.04,178.39c.11.03.23.07.33.12,1.28,2.53,2.54,5.08,3.74,7.63l-.21.11c-1.25-2.63-2.54-5.26-3.86-7.86Z" style="fill: #280400;"/>
      <line x1="127.87" y1="249.12" x2="132.66" y2="246.73" style="fill: none; stroke: #fff; stroke-linecap: round; stroke-linejoin: round; stroke-width: 1.04px;"/>
      <line x1="125.07" y1="244.05" x2="129.86" y2="241.66" style="fill: none; stroke: #fff; stroke-linecap: round; stroke-linejoin: round; stroke-width: 1.04px;"/>
      <line x1="122.27" y1="238.98" x2="127.06" y2="236.59" style="fill: none; stroke: #fff; stroke-linecap: round; stroke-linejoin: round; stroke-width: 1.04px;"/>
      <line x1="119.47" y1="233.91" x2="124.27" y2="231.52" style="fill: none; stroke: #fff; stroke-linecap: round; stroke-linejoin: round; stroke-width: 1.04px;"/>
      <line x1="116.67" y1="228.84" x2="121.47" y2="226.45" style="fill: none; stroke: #fff; stroke-linecap: round; stroke-linejoin: round; stroke-width: 1.04px;"/>
      <line x1="113.87" y1="223.77" x2="118.67" y2="221.38" style="fill: none; stroke: #fff; stroke-linecap: round; stroke-linejoin: round; stroke-width: 1.04px;"/>
      <line x1="111.07" y1="218.7" x2="115.87" y2="216.31" style="fill: none; stroke: #fff; stroke-linecap: round; stroke-linejoin: round; stroke-width: 1.04px;"/>
      <path d="M163.21,267.1c0,17.95-14.5,28.05-32.4,28.05-4.12,0-8.05-.54-11.67-1.58-12.12-3.49-20.73-12.66-20.73-26.48,0-12.99,7.6-24.2,18.58-29.39,4.19-1.99,8.87-3.1,13.82-3.1,17.89,0,32.4,14.55,32.4,32.49Z" style="fill: #d6a58b;"/>
      <path d="M147.54,271.12c0,9.24-7.49,13.38-16.72,13.38s-16.72-4.14-16.72-13.38,7.49-16.72,16.72-16.72,16.72,7.49,16.72,16.72Z" style="fill: #fff; isolation: isolate; opacity: .49;"/>
      <path d="M152.77,249.92c0,2.47-2.01,4.48-4.48,4.48s-4.48-2.01-4.48-4.48,2.01-4.48,4.48-4.48,4.48,2.01,4.48,4.48Z" style="fill: #fff; isolation: isolate; opacity: .49;"/>
      <path d="M114.09,254.4c0,2.47-2.01,4.48-4.48,4.48s-4.48-2.01-4.48-4.48,2.01-4.48,4.48-4.48c2.47,0,4.48,2.01,4.48,4.48Z" style="fill: #fff; isolation: isolate; opacity: .49;"/>
      <path d="M133.7,243.65c0,2.47-2.01,4.48-4.48,4.48s-4.48-2.01-4.48-4.48,2.01-4.48,4.48-4.48,4.48,2.01,4.48,4.48Z" style="fill: #fff; isolation: isolate; opacity: .49;"/>
      <path d="M163.21,267.1c0,17.95-14.5,28.05-32.4,28.05-4.12,0-8.05-.54-11.67-1.58,5.78-1.51,11.09-4.89,14.71-9.67,4.01-5.31,5.92-12.04,6.01-18.7.1-8.37-2.84-17.07-9.2-22.52-3.72-3.19-8.72-5.03-13.66-4.99,4.19-1.99,8.87-3.1,13.82-3.1,17.89,0,32.4,14.55,32.4,32.49Z" style="fill: #d6a58b; isolation: isolate; opacity: .15;"/>
      <path d="M141.38,287.42c1.68-.09,3.34-.67,4.71-1.65" style="fill: none; stroke: #280400; stroke-miterlimit: 10;"/>
      <path d="M104.71,247.74c3.86-5.32,9.37-9.42,15.58-11.59,6.21-2.16,13.08-2.38,19.41-.6" style="fill: none; stroke: #280400; stroke-miterlimit: 10;"/>
      <path d="M159.74,272.02l-.23,1.09c-1.66,7.91-7.26,14.42-14.82,17.26h0" style="fill: none; stroke: #280400; stroke-miterlimit: 10;"/>
      <path d="M247.02,267.1c0,17.95-14.5,28.05-32.4,28.05-4.12,0-8.05-.54-11.67-1.58-12.12-3.49-20.73-12.66-20.73-26.48,0-12.99,7.6-24.2,18.58-29.39,4.19-1.99,8.87-3.1,13.82-3.1,17.89,0,32.4,14.55,32.4,32.49Z" style="fill: #d6a58b;"/>
      <path d="M231.35,271.12c0,9.24-7.49,13.38-16.72,13.38s-16.72-4.14-16.72-13.38,7.49-16.72,16.72-16.72,16.72,7.49,16.72,16.72Z" style="fill: #fff; isolation: isolate; opacity: .49;"/>
      <path d="M236.58,249.92c0,2.47-2.01,4.48-4.48,4.48s-4.48-2.01-4.48-4.48,2.01-4.48,4.48-4.48,4.48,2.01,4.48,4.48Z" style="fill: #fff; isolation: isolate; opacity: .49;"/>
      <path d="M197.9,254.4c0,2.47-2.01,4.48-4.48,4.48s-4.48-2.01-4.48-4.48,2.01-4.48,4.48-4.48c2.47,0,4.48,2.01,4.48,4.48Z" style="fill: #fff; isolation: isolate; opacity: .49;"/>
      <path d="M217.51,243.65c0,2.47-2.01,4.48-4.48,4.48s-4.48-2.01-4.48-4.48,2.01-4.48,4.48-4.48,4.48,2.01,4.48,4.48Z" style="fill: #fff; isolation: isolate; opacity: .49;"/>
      <path d="M247.02,267.1c0,17.95-14.5,28.05-32.4,28.05-4.12,0-8.05-.54-11.67-1.58,5.78-1.51,11.09-4.89,14.71-9.67,4.01-5.31,5.92-12.04,6.01-18.7.1-8.37-2.84-17.07-9.2-22.52-3.72-3.19-8.72-5.03-13.66-4.99,4.19-1.99,8.87-3.1,13.82-3.1,17.89,0,32.4,14.55,32.4,32.49Z" style="fill: #d6a58b; isolation: isolate; opacity: .15;"/>
      <path d="M246.02,271.51c.59,3.75-2.02,9.59-4.43,12.53-2.41,2.94-5.68,5.04-9.08,6.75" style="fill: none; stroke: #280400; stroke-miterlimit: 10;"/>
      <path d="M188.52,247.74c3.86-5.32,9.37-9.42,15.58-11.59,6.21-2.16,13.08-2.38,19.41-.6" style="fill: none; stroke: #280400; stroke-miterlimit: 10;"/>
      <path d="M226.5,89.32c-.32-.57.18-2.35.26-2.94.34-2.35.94-4.67,1.83-6.87,2.62-6.42,8.8-10.97,15.61-11.97,7.43-1.09,14.35,2.44,18.24,8.83.83,1.36,1.49,2.82,1.96,4.35,2.39,7.82-.49,16.93-7.42,21.46-6.97,4.55-19.15,4.15-24.77-2.65,0,0-5.7-10.19-5.71-10.2Z" style="fill: #d6a58b;"/>
      <circle cx="243.12" cy="86.96" r="12.48" style="fill: #280400; isolation: isolate; opacity: .49;"/>
      <path d="M232.89,73.16c3.05-2.99,7.06-5,11.32-5.62,7.43-1.09,14.35,2.44,18.23,8.83.83,1.36,1.49,2.82,1.96,4.35,2.39,7.82-.49,16.93-7.42,21.46" style="fill: none; stroke: #280400; stroke-miterlimit: 10;"/>
      <path d="M118.49,89.32c.32-.57-.18-2.35-.26-2.94-.34-2.35-.94-4.67-1.83-6.87-2.62-6.42-8.8-10.97-15.61-11.97-7.43-1.09-14.35,2.44-18.24,8.83-.83,1.36-1.49,2.82-1.96,4.35-2.39,7.82.49,16.93,7.42,21.46,6.97,4.55,19.15,4.15,24.77-2.65,0,0,5.7-10.19,5.71-10.2Z" style="fill: #d6a58b;"/>
      <path d="M89.4,86.97c0,6.89,5.59,12.48,12.48,12.48s12.48-5.59,12.48-12.48-5.59-12.48-12.48-12.48c-6.89,0-12.48,5.59-12.48,12.48Z" style="fill: #280400; isolation: isolate; opacity: .49;"/>
      <path d="M243.61,123.61c0,42.3-23.56,57.78-55.12,61.25-1.93.21-3.89.38-5.88.52-3.22.19-6.51.29-9.87.29-.09,0-.16-.01-.25-.01s-.17.01-.26.01c-.4,0-.78,0-1.17-.01-6.38-.03-12.54-.43-18.4-1.28-29.62-4.3-51.29-20.2-51.29-60.77,0-47.26,31.72-66.52,70.85-66.52h.5c18.54,0,35.41,4.32,48.04,13.89.86.64,1.7,1.32,2.51,2.02.69.59,1.36,1.19,2.02,1.82.05.04.1.1.15.14,11.29,10.75,18.15,26.66,18.15,48.65Z" style="fill: #d6a58b;"/>
      <path d="M243.61,123.61c0,42.3-23.56,57.78-55.12,61.25-1.93.21-3.89.38-5.88.52-3.22.19-6.51.29-9.87.29-.09,0-.16-.01-.25-.01s-.17.01-.26.01c-.4,0-.78,0-1.17-.01,40.23-17.49,42.26-78.86,1.17-128.57h.5c18.54,0,35.41,4.32,48.04,13.89.86.64,1.7,1.32,2.51,2.02.69.59,1.36,1.19,2.02,1.82.05.04.1.1.15.14,11.3,10.75,18.15,26.66,18.15,48.65Z" style="fill: #d6a58b; isolation: isolate; opacity: .15;"/>
      <ellipse cx="125.22" cy="144.82" rx="12.8" ry="7.31" style="fill: #fff; isolation: isolate; opacity: .49;"/>
      <ellipse cx="219.78" cy="144.82" rx="12.8" ry="7.31" style="fill: #fff; isolation: isolate; opacity: .49;"/>
      <path d="M199.87,144.02c0,11.02-11.65,19.96-26.04,19.96-5.78,0-11.14-1.45-15.46-3.89-6.43-3.64-10.59-9.48-10.59-16.07,0-11.03,11.66-19.97,26.05-19.97,10.44,0,19.43,4.71,23.58,11.5,1.58,2.57,2.46,5.45,2.46,8.47Z" style="fill: #fff; isolation: isolate; opacity: .49;"/>
      <path d="M178.98,146.77c.21.41-3.74,3.17-5.36,4-.11.05-.22.11-.38.17-.26.11-.56.21-.87.16-.31-.05-.68-.27-.79-.34-.17-.1-.34-.21-.52-.32-.7-.45-1.47-.98-2.19-1.49-1.43-1.02-2.67-1.97-2.55-2.18.12-.21,1.57.36,3.17,1.12.79.39,1.63.8,2.36,1.16.32.16.83.41.7.33,0,0,0-.01,0-.01.11-.05.21-.1.3-.14,1.46-.75,5.91-2.89,6.14-2.44Z" style="fill: #300d09;"/>
      <path d="M183.27,132.44c0,3.43-4.82,7.35-10.77,7.35s-10.78-3.92-10.78-7.35,4.82-4.28,10.78-4.28,10.77.85,10.77,4.28Z" style="fill: #280400;"/>
      <path d="M179.02,130.64c-.13.61-1.26.95-2.49,1.21-1.24.25-2.59.44-3.3.43-.71-.02-2.32-.25-3.83-.48-1.5-.25-2.91-.52-3.04-1.14-.13-.6,1.12-1.45,2.69-2.03,1.57-.6,3.43-.88,4.25-.86.82,0,2.36.34,3.62.91,1.27.57,2.23,1.35,2.1,1.95Z" style="fill: #fef0ed;"/>
      <path d="M198.54,145.08c0,11.02-11.65,19.96-26.04,19.96-5.78,0-11.14-1.45-15.46-3.89,5.08.19,10.19-.19,15.19-1.14,5.17-.98,10.3-2.6,14.65-5.56,4.37-2.95,7.89-7.36,9-12.51.38-1.74.44-3.56.19-5.34,1.58,2.57,2.46,5.45,2.46,8.47Z" style="fill: #d6a58b; isolation: isolate; opacity: .15;"/>
      <circle cx="208.68" cy="118.04" r="12.17" style="fill: #280400;"/>
      <path d="M207.47,113.78c-.5,2.31.96,4.51,3.26,4.91,2.31.4,4.58-1.16,5.06-3.48.48-2.31-.99-4.49-3.28-4.88-2.29-.39-4.55,1.15-5.05,3.45Z" style="fill: #fff;"/>
      <path d="M212.91,120.8c-.19.89.37,1.73,1.25,1.89.88.15,1.75-.45,1.93-1.33.18-.89-.38-1.73-1.26-1.88-.88-.15-1.74.44-1.93,1.33Z" style="fill: #fff; opacity: .5;"/>
      <circle cx="136.28" cy="118.06" r="12.17" style="fill: #280400;"/>
      <path d="M134.95,113.78c-.5,2.31.96,4.51,3.26,4.91,2.31.4,4.58-1.16,5.06-3.48.48-2.31-.99-4.49-3.28-4.88-2.29-.39-4.55,1.15-5.05,3.45Z" style="fill: #fff;"/>
      <path d="M140.39,120.8c-.19.89.37,1.73,1.25,1.89.88.15,1.75-.45,1.93-1.33.18-.89-.38-1.73-1.26-1.88-.88-.15-1.74.44-1.93,1.33Z" style="fill: #fff; opacity: .5;"/>
      <path d="M240.97,103.66c4.07,16.11,4.58,34.85-2.21,50.02-6.79,15.17-21.54,26.31-38.07,28.51" style="fill: none; stroke: #280400; stroke-miterlimit: 10;"/>
      <g>
        <path d="M63.75,162.54c2.32-5.22,8.85-6.75,13.45-10.13,4.54-3.33,7.34-9,6.96-14.61-.38-5.61-4.07-10.95-9.3-13.03s-11.74-.65-15.4,3.62c-6.17,7.19-3.08,18.74-7.77,26.97,2.58,3.68,7.91,5.46,12.07,7.19Z" style="fill: #f1cb7e;"/>
        <path d="M29.36,150.4c4.86,4.92,10.47,8.99,16.31,12.69.27.17.53.33.8.49,1.74,1.1,3.5,2.15,5.27,3.19,1.29.76,2.59,1.51,3.9,2.25.27.17.54.31.81.47,6.29,3.55,12.75,6.81,19.63,9.05,1.73.56,4.39,1.76,6.21,1.66.24-.01.45-.04.64-.1.1-.02.19-.05.27-.09,1.64-.71.33-3.19-.72-4.26-2.25-2.29-4.65-4.43-7.13-6.46-3.48-2.85-7.15-5.49-10.87-8.05-3.5-2.41-7.06-4.73-10.56-7.1-.41-.28-.82-.55-1.24-.83-4.49-3.02-9.06-5.97-14.1-7.94-2.52-.99-6.64-2.69-9.36-1.93-.86.24-1.42.6-1.76,1.06-.06.07-.11.16-.16.24-.94,1.66.64,4.22,2.06,5.68Z" style="fill: #d9847f;"/>
        <path d="M65.52,134.43c-.74.63-1.56,1.22-2.51,1.44s-2.05,0-2.66-.77c-.46-.59-.57-1.38-.52-2.13.17-2.85,3.05-6.6,6.27-6.09,4.26.67,1.25,5.98-.59,7.55Z" style="fill: #fff;"/>
        <path d="M59.61,137.29c.84.03,1.64.59,1.95,1.37.31.78.12,1.74-.46,2.34-.53.54-1.34.77-2.07.62-.94-.2-1.7-1.05-1.81-2-.1-.96.46-1.95,1.33-2.35l1.06.03Z" style="fill: #fff;"/>
        <path d="M27.29,144.72c4.35.34,8.54,2.31,12.22,4.2,4.3,2.2,8.52,4.56,12.66,7.07,0,0,.01,0,.01.01,2.71,1.62,5.38,3.33,8.01,5.09.01.01.02.01.03.02,5.6,3.75,11,7.79,16.19,12.08,2.46,2.02,4.93,4.21,6.52,6.9.1-.02.19-.05.27-.09-1.62-2.74-4.13-4.96-6.62-7.02-4.88-4.03-9.94-7.83-15.17-11.38,0-.01-.01-.01-.01-.01-3.17-2.15-6.4-4.21-9.69-6.19-3.94-2.38-7.98-4.61-12.07-6.71-3.67-1.87-7.84-3.83-12.19-4.2-.06.07-.11.16-.16.24Z" style="fill: #ffefe0;"/>
        <path d="M33.59,174.22c.91-1.96,2.37-3.61,3.53-4.81,2.64-2.71,5.24-4.69,7.98-6.06.17-.08.35-.18.56-.27,2.06-.97,5.98-2.54,8.21-1.59.73.31,1.22.86,1.47,1.64.64,2.02.97,4.22,1.1,6.36.19,2.69.08,5.3-.05,7.36-.19,3.09-.66,5.36-1.49,7.34-1.1,2.58-2.86,4.58-4.97,5.64-.94.47-2,.79-3.17.97-.59.08-1.2.13-1.79.13-3.74,0-7.42-1.68-9.75-4.52-2.76-3.39-3.42-8.29-1.63-12.18ZM35.82,185.91c2.52,3.1,6.77,4.71,10.82,4.11,1.08-.16,2.07-.45,2.93-.89,1.95-.98,3.59-2.84,4.61-5.24.8-1.9,1.24-4.09,1.44-7.09.14-2.17.24-4.94.01-7.78-.16-1.92-.47-3.86-1.04-5.66-.17-.55-.51-.93-1.03-1.15-.39-.17-.84-.24-1.34-.24-1.83,0-4.25.94-5.74,1.61-.43.19-.77.35-1.02.48-2.65,1.32-5.19,3.25-7.76,5.9-1.13,1.16-2.53,2.73-3.39,4.6-1.67,3.62-1.05,8.18,1.52,11.35Z" style="fill: #d9847f;"/>
      </g>
      <polygon points="274.52 247.99 277.63 239.25 278.96 247.99 287.56 249.48 279.85 252.74 279.7 260.59 275.56 254.37 267.55 256.44 272.44 251.25 266.22 247.25 274.52 247.99" style="fill: #fff;"/>
      <g>
        <path d="M67.68,260.47c0,3.78-3.06,6.84-6.84,6.84s-6.84-3.06-6.84-6.84,3.06-6.84,6.84-6.84,6.84,3.06,6.84,6.84Z" style="fill: #fff;"/>
        <path d="M78,245.79c0,2.85-2.31,5.16-5.16,5.16s-5.16-2.31-5.16-5.16,2.31-5.16,5.16-5.16,5.16,2.31,5.16,5.16Z" style="fill: #fff;"/>
        <circle cx="75.03" cy="260.19" r="3.62" style="fill: #fff;"/>
      </g>
    </g>
  </g>
</svg>