<?xml version="1.0" encoding="UTF-8"?>
<svg id="Capa_2" xmlns="http://www.w3.org/2000/svg" version="1.1" viewBox="0 0 293 277.4">
  <!-- Generator: Adobe Illustrator 30.1.0, SVG Export Plug-In . SVG Version: 2.1.1 Build 136)  -->
  <defs>
    <style>
      .st0 {
        fill: #7fc7f7;
      }

      .st0, .st1, .st2, .st3, .st4, .st5, .st6, .st7 {
        isolation: isolate;
      }

      .st0, .st7 {
        opacity: .4;
      }

      .st8, .st4, .st6 {
        opacity: .5;
      }

      .st9 {
        stroke-dasharray: 5;
      }

      .st9, .st10, .st11 {
        stroke: #280400;
        stroke-miterlimit: 10;
      }

      .st9, .st10, .st11, .st12 {
        fill: none;
      }

      .st13 {
        fill: #b3dbf2;
      }

      .st14, .st2, .st3, .st6 {
        fill: #fff;
      }

      .st15 {
        fill: #fef0ed;
      }

      .st16, .st4 {
        fill: #280400;
      }

      .st1 {
        opacity: .4;
      }

      .st1, .st17 {
        fill: #f1cb7e;
      }

      .st11 {
        stroke-width: .9px;
      }

      .st2 {
        opacity: .4;
      }

      .st3 {
        opacity: .5;
      }

      .st5 {
        opacity: .2;
      }

      .st5, .st18 {
        fill: #d6a58b;
      }

      .st19 {
        fill: #300d09;
      }

      .st12 {
        stroke: #fff;
        stroke-linecap: round;
        stroke-linejoin: round;
        stroke-width: 1px;
      }

      .st7 {
        fill: #a2c5e0;
      }
    </style>
  </defs>
  <g>
    <path class="st11" d="M254,132.7c-5.1,3.5-8.6,9.2-9.6,15.3-1.4,9.2,2.9,18.5,1.4,27.7-1.7,10.3-10.8,18.3-20.9,20.8-10.1,2.4-20.9-.1-30.1-4.9"/>
    <path class="st17" d="M248.3,135.7l-5,3.8s5.9,3.4,6.2,3.5,1.7-5.4,1.7-5.4l-3-1.9Z"/>
    <g>
      <path class="st17" d="M291.6,123.7c-4.2,13.2-17.2,21.2-30.5,19.6-1.7-.2-3.4-.6-5-1.1-14.9-4.7-23.2-20.6-18.5-35.5.8-2.4,1.8-4.6,3.1-6.6,6.7-10.6,19.9-15.8,32.4-11.9,14.9,4.7,23.2,20.6,18.5,35.5h0Z"/>
      <g>
        <path class="st14" d="M276.9,129.7c-.3,1.3.2,2.9,1.3,3.7s2.8.8,3.8-.2c1-.9,1.2-2.5.6-3.7-1.3-2.8-4.9-3.2-5.7.2h0Z"/>
        <path class="st14" d="M282.6,108.8c-.4,1.7-.3,3.6-.9,5.3-.4,1.1-1.1,2.1-1.5,3.1-.8,1.6-1.1,3.5-.5,5.2s2.2,3.1,4,3c2.1-.1,3.6-2,4.5-3.9,1.2-2.6,1.9-5.5,1.6-8.4-.2-2.5-1.2-4.8-2.8-6.7-1.9-2.2-3.8.1-4.4,2.3h0Z"/>
      </g>
    </g>
    <path class="st1" d="M261.2,143.2c-1.7-.2-3.4-.6-5-1.1-14.9-4.7-23.2-20.6-18.5-35.5.8-2.4,1.8-4.6,3.1-6.6-.2,16.5,7.6,32.9,20.4,43.2Z"/>
  </g>
  <g>
    <path class="st7" d="M206.7,268.9c0,4.7-30.5,8.4-68.1,8.4s-68.1-3.8-68.1-8.4,30.5-8.4,68.1-8.4,68.1,3.8,68.1,8.4Z"/>
    <g>
      <g>
        <g>
          <g>
            <path class="st18" d="M124.9,162.5s-3.1,4.1-8.1,10c-8.6,10-22.8,25-37,33.3h0c-13.2,7.7-26.5,9.6-35.2-3.9-6.4-9.9-4.2-18.1,2.4-24.7,13.6-13.6,45.9-20.4,59.8-22.9,4.1-.7,6.6-1.1,6.6-1.1l11.4,9.2h0Z"/>
            <path class="st5" d="M116.8,172.5c-8.6,10-22.8,25-37,33.3,1.6-4.3,2.8-8.7,2.7-13.3,0-5.6-2.2-11.4-6.7-14.8-2.9-2.3-6.7-3.4-10.4-3.6s-7.5.3-11.1,1.1c-2.5.5-5,1.1-7.3,2.2,13.6-13.6,45.9-20.4,59.9-22.9,2.2.6,4.2,1.5,5.9,3,2.5,2.2,3.9,5.5,4.4,8.8.3,2.1.1,4.2-.3,6.3Z"/>
            <circle class="st6" cx="62" cy="189.9" r="9.8"/>
          </g>
          <g class="st8">
            <path class="st6" d="M50,189.4c0,2.1-1.7,3.8-3.8,3.8s-3.8-1.7-3.8-3.8,1.7-3.8,3.8-3.8,3.8,1.7,3.8,3.8Z"/>
            <path class="st6" d="M53.9,199.1c0,2.1-1.7,3.8-3.8,3.8s-3.8-1.7-3.8-3.8,1.7-3.8,3.8-3.8,3.8,1.7,3.8,3.8Z"/>
            <path class="st6" d="M63.3,205.1c0,2.1-1.7,3.8-3.8,3.8s-3.8-1.7-3.8-3.8,1.7-3.8,3.8-3.8,3.8,1.7,3.8,3.8Z"/>
          </g>
        </g>
        <g>
          <g>
            <path class="st18" d="M231.5,201.9c-4.7,7.3-10.7,10.1-17.4,9.9-4.2-.1-8.6-1.4-13.1-3.5-5.9-2.8-11.9-7-17.7-11.7-17.5-14.5-32.1-34-32.1-34l8.7-7.1,2.7-2.1s.8.1,2.1.3c8.1,1.2,38.1,6.4,56.2,17.4,12.2,7.4,19.2,17.5,10.6,30.9h0Z"/>
            <path class="st5" d="M231.5,201.9c-4.7,7.3-10.7,10.1-17.4,9.9-4.2-.1-8.6-1.4-13.1-3.5-.7-.6-1.4-1.2-2.1-1.9-3.4-3.4-5.9-7.8-6.5-12.6-.9-7.7,3.7-15.4,10.3-19.3,3.6-2.2,7.8-3.3,12-3.5,2-.1,4.1-.1,6.2.1,12.2,7.4,19.2,17.5,10.6,30.9h0Z"/>
            <circle class="st6" cx="214.1" cy="189.9" r="9.8"/>
          </g>
          <g class="st8">
            <circle class="st6" cx="229.7" cy="190.3" r="3.8"/>
            <path class="st6" d="M222.1,200c0,2.1,1.7,3.8,3.8,3.8s3.8-1.7,3.8-3.8-1.7-3.8-3.8-3.8-3.8,1.7-3.8,3.8Z"/>
            <path class="st6" d="M212.6,206c0,2.1,1.7,3.8,3.8,3.8s3.8-1.7,3.8-3.8-1.7-3.8-3.8-3.8-3.8,1.7-3.8,3.8Z"/>
          </g>
          <path class="st10" d="M195.5,160.5c8.9,2.7,18.1,6.1,25.4,10.6,12.2,7.4,19.2,17.5,10.6,30.9-1,1.6-2.1,2.9-3.2,4.1"/>
        </g>
        <g>
          <g>
            <g>
              <path class="st18" d="M192.8,223.1c-3.3,44.4-51.3,44.1-54.6,44h-.2s-16.2.6-31-7c-2.5-1.3-5-2.8-7.3-4.6-1.6-1.2-3.1-2.5-4.5-4-6.3-6.5-11-15.6-12-28.4-3.4-46,37.4-78.8,37.4-78.8l17.3-1.3,11.3.9,6,.4s2.4,1.9,5.9,5.4h.1c.4.6.9,1.1,1.4,1.6,11.6,12,32.5,38.4,30,71.8h0Z"/>
              <ellipse class="st6" cx="138" cy="218.1" rx="40.8" ry="36.9"/>
              <ellipse class="st9" cx="138" cy="218.1" rx="35.8" ry="32.3"/>
            </g>
            <g>
              <path class="st5" d="M192.8,223.1c-3.3,44.4-51.3,44.1-54.6,44,5.3-4.9,9.5-11.2,12.2-18,5-12.4,5.7-26.1,5.2-39.5-.4-11.4-1.7-23.1-7.4-33-3.4-6-8.5-11-14.4-14.5-2.4-1.5-17.7-5.6-17.7-7.2,0-3,20-8.4,22.9-9.1,3.4-.9,6.9-1.6,10.4-1.9l6,.4s2.4,1.9,5.9,5.4h.1c.4.6.9,1.1,1.4,1.6,11.6,12,32.5,38.4,30,71.8h0Z"/>
              <path class="st10" d="M173.5,165.6c16.4,20,21.6,35.8,18.6,64.4"/>
            </g>
          </g>
          <ellipse class="st5" cx="137.2" cy="147.9" rx="35.4" ry="22.5"/>
        </g>
      </g>
      <g>
        <g>
          <g>
            <path class="st17" d="M66.4,168.1c-1.8-2.7-2.2-6.2-.9-9.1,1.2-2.8,3.9-5.2,3.8-8.3-.1-2.2-1.6-4.7,0-6.3,1.1-1.2,3.2-.8,4.6,0s2.5,2.2,4,2.9c2,.9,4.3.7,6.4,1.3,3.7,1.1,6.1,4.5,8.1,7.7-.1,1-.7,1.7-1.1,2.6-2.4,4.3-5.8,8.1-10.4,10.3-4.5,2.1-11.6,3-14.4-1.1h0Z"/>
            <path class="st2" d="M69.1,178.9l30.4-16.6s8.6-1.8,16.2,13.7c7.6,15.6,26.8,39.5,16.9,48.1-9.8,8.6-28.9,19.8-36.1,14.3-7.3-5.5-34.3-49.4-27.4-59.5h0Z"/>
            <g>
              <path class="st13" d="M107.5,173.8c.4.4.8.9,1.1,1.4,5.7,9.5,22.7,38.2,21.7,43.8-1.2,6.7-24.9,16.6-30.6,16.4-4.8-.1-20.7-33.7-25.8-44.6-.6-1.3-.8-2.8-.5-4.2.2-.9.6-1.9,1.2-2.7,8.6-11.8,21.5-12.7,28.1-12.3,1.8.1,3.6.9,4.8,2.1h0Z"/>
              <path class="st0" d="M107.5,173.8c-.2,0-.4.2-.5.2-2.3.8-4.8,1.5-6.9,2.6-3.8,2-6.5,5.4-10.1,7.6-3.6,2.4-8.1,3.5-12.5,3.3-1.1,0-2.8-.2-4-.9.2-.9.6-1.9,1.2-2.7,8.6-11.8,21.5-12.7,28.1-12.3,1.8.1,3.6.9,4.8,2.1h0Z"/>
            </g>
            <g>
              <path class="st14" d="M106.3,180.1c1.4,1.1,3.4,1.9,4.9,1,.9-.5,1.3-1.6,1.3-2.6,0-1-.3-2-.7-2.9-.6-1.3-1.2-2.6-2.1-3.8-.9-1.4-2-2.7-3.5-3.6-3.9-2.3-5.9.1-5.1,3.9.7,3.1,2.5,6,5.1,8h0Z"/>
              <path class="st14" d="M115.1,190.8c1.2,0,2.5-.6,2.9-1.7.2-.5.2-1.1.1-1.6-.3-2.6-3.8-5.9-6.5-3.5-2.4,2.1.6,6.5,3.4,6.7h0Z"/>
            </g>
            <g>
              <path class="st14" d="M94.6,155.2c.1,0,.2,0,.3.1,1.3.5,2.3,1.4,3.1,2.6l2.4,4.1-1.7.9h-.2c0,.1-2.9,1.7-2.9,1.7h-.2c0,.1-3.5,2-3.5,2h-.2c0,.1-3.6,2.1-3.6,2.1h-.2c0,.1-4.2,2.4-4.2,2.4h-.2c0,.1-4.8,2.7-4.8,2.7h-.2c0,.1-3.2,1.9-3.2,1.9h-.2c0,.1-2.8,1.6-2.8,1.6h-.2c0,.1-2.8,1.6-2.8,1.6l-2.4-4.8c-1.2-2.3-.6-5,1.2-6.7,0,0,.1-.1.2-.2.3-.3.7-.6,1.2-.8l1.8-.9h.2c0-.1,3-1.7,3-1.7h.2c0-.1,4.6-2.6,4.6-2.6h.2c0-.1,3.7-2.1,3.7-2.1h.2c0-.1,3.5-2,3.5-2h.2c0-.1,2.7-1.6,2.7-1.6.3-.1.6-.3.8-.4,0,0,.2,0,.2,0,1.3-.4,2.7-.4,3.9,0h0Z"/>
              <path class="st16" d="M68.1,167.2c1.1,3.4,2.5,6.8,4.1,10.1h-.2c-1.5-3.2-2.9-6.5-4.1-9.9,0,0,.1-.1.2-.2h0Z"/>
              <path class="st16" d="M71.2,165.4c1.2,3.5,2.5,6.9,3.9,10.3h-.2c-1.4-3.3-2.7-6.7-4-10.2h.2c0-.1,0-.1,0-.1Z"/>
              <polygon class="st16" points="74.4 163.7 78.6 173.8 78.4 173.9 74.2 163.8 74.4 163.7"/>
              <polygon class="st16" points="79.2 161.1 83.6 171.1 83.4 171.2 79 161.2 79.2 161.1"/>
              <polygon class="st16" points="83.1 159.1 88 168.7 87.8 168.8 82.9 159.2 83.1 159.1"/>
              <polygon class="st16" points="86.8 157.1 91.8 166.7 91.6 166.8 86.6 157.2 86.8 157.1"/>
              <path class="st16" d="M90.6,155.2c1.6,3.1,3.3,6.3,4.9,9.4h-.2c-1.7-3-3.3-6.2-5-9.4,0,0,.2,0,.2,0h0Z"/>
              <path class="st16" d="M94.6,155.2c.1,0,.2,0,.3.1,1.3,2.5,2.5,5.1,3.7,7.6h-.2c-1.2-2.5-2.5-5.1-3.9-7.8Z"/>
            </g>
          </g>
          <g>
            <line class="st12" x1="93.4" y1="226" x2="98.2" y2="223.6"/>
            <line class="st12" x1="90.6" y1="220.9" x2="95.4" y2="218.5"/>
            <line class="st12" x1="87.8" y1="215.8" x2="92.6" y2="213.4"/>
            <line class="st12" x1="85" y1="210.8" x2="89.8" y2="208.4"/>
            <line class="st12" x1="82.2" y1="205.7" x2="87" y2="203.3"/>
            <line class="st12" x1="79.4" y1="200.6" x2="84.2" y2="198.2"/>
            <line class="st12" x1="76.6" y1="195.5" x2="81.4" y2="193.2"/>
          </g>
        </g>
        <g>
          <g>
            <path class="st18" d="M128.8,243.9c0,18-14.5,28-32.4,28s-8.1-.5-11.7-1.6c-12.1-3.5-20.7-12.7-20.7-26.5s7.6-24.2,18.6-29.4c4.2-2,8.9-3.1,13.8-3.1,17.9,0,32.4,14.6,32.4,32.5h0Z"/>
            <path class="st6" d="M113.1,248c0,9.2-7.5,13.4-16.7,13.4s-16.7-4.1-16.7-13.4,7.5-16.7,16.7-16.7,16.7,7.5,16.7,16.7Z"/>
            <path class="st6" d="M118.3,226.8c0,2.5-2,4.5-4.5,4.5s-4.5-2-4.5-4.5,2-4.5,4.5-4.5,4.5,2,4.5,4.5Z"/>
            <path class="st6" d="M79.6,231.2c0,2.5-2,4.5-4.5,4.5s-4.5-2-4.5-4.5,2-4.5,4.5-4.5,4.5,2,4.5,4.5Z"/>
            <path class="st6" d="M99.2,220.5c0,2.5-2,4.5-4.5,4.5s-4.5-2-4.5-4.5,2-4.5,4.5-4.5,4.5,2,4.5,4.5Z"/>
          </g>
          <path class="st5" d="M128.8,243.9c0,18-14.5,28-32.4,28s-8.1-.5-11.7-1.6c5.8-1.5,11.1-4.9,14.7-9.7,4-5.3,5.9-12,6-18.7,0-8.4-2.8-17.1-9.2-22.5-3.7-3.2-8.7-5-13.7-5,4.2-2,8.9-3.1,13.8-3.1,17.9,0,32.4,14.5,32.4,32.5h0Z"/>
          <g>
            <path class="st10" d="M106.9,264.3c1.7,0,3.3-.7,4.7-1.6"/>
            <path class="st10" d="M70.2,224.6c3.9-5.3,9.4-9.4,15.6-11.6,6.2-2.2,13.1-2.4,19.4-.6"/>
          </g>
          <path class="st10" d="M125.3,248.9l-.2,1.1c-1.7,7.9-7.3,14.4-14.8,17.3h0"/>
        </g>
        <g>
          <g>
            <path class="st18" d="M212.6,243.9c0,18-14.5,28-32.4,28s-8.1-.5-11.7-1.6c-12.1-3.5-20.7-12.7-20.7-26.5s7.6-24.2,18.6-29.4c4.2-2,8.9-3.1,13.8-3.1,17.9,0,32.4,14.6,32.4,32.5h0Z"/>
            <path class="st6" d="M196.9,248c0,9.2-7.5,13.4-16.7,13.4s-16.7-4.1-16.7-13.4,7.5-16.7,16.7-16.7,16.7,7.5,16.7,16.7Z"/>
            <path class="st6" d="M202.1,226.8c0,2.5-2,4.5-4.5,4.5s-4.5-2-4.5-4.5,2-4.5,4.5-4.5,4.5,2,4.5,4.5Z"/>
            <path class="st6" d="M163.4,231.2c0,2.5-2,4.5-4.5,4.5s-4.5-2-4.5-4.5,2-4.5,4.5-4.5,4.5,2,4.5,4.5Z"/>
            <path class="st6" d="M183.1,220.5c0,2.5-2,4.5-4.5,4.5s-4.5-2-4.5-4.5,2-4.5,4.5-4.5,4.5,2,4.5,4.5Z"/>
          </g>
          <path class="st5" d="M212.6,243.9c0,18-14.5,28-32.4,28s-8.1-.5-11.7-1.6c5.8-1.5,11.1-4.9,14.7-9.7,4-5.3,5.9-12,6-18.7.1-8.4-2.8-17.1-9.2-22.5-3.7-3.2-8.7-5-13.7-5,4.2-2,8.9-3.1,13.8-3.1,17.9,0,32.4,14.5,32.4,32.5h0Z"/>
          <g>
            <path class="st10" d="M211.6,248.3c.6,3.8-2,9.6-4.4,12.5-2.4,2.9-5.7,5-9.1,6.8"/>
            <path class="st10" d="M154.1,224.6c3.9-5.3,9.4-9.4,15.6-11.6,6.2-2.2,13.1-2.4,19.4-.6"/>
          </g>
        </g>
      </g>
    </g>
    <g>
      <g>
        <g>
          <g>
            <path class="st18" d="M192,66.2c-.3-.6.2-2.3.3-2.9.3-2.3.9-4.7,1.8-6.9,2.6-6.4,8.8-11,15.6-12,7.4-1.1,14.4,2.4,18.2,8.8.8,1.4,1.5,2.8,2,4.3,2.4,7.8-.5,16.9-7.4,21.5-7,4.6-19.1,4.2-24.8-2.7,0,0-5.7-10.2-5.7-10.2h0Z"/>
            <circle class="st4" cx="208.7" cy="63.8" r="12.5"/>
          </g>
          <path class="st10" d="M198.4,50c3.1-3,7.1-5,11.3-5.6,7.4-1.1,14.4,2.4,18.2,8.8.8,1.4,1.5,2.8,2,4.3,2.4,7.8-.5,16.9-7.4,21.5"/>
        </g>
        <g>
          <path class="st18" d="M84,66.2c.3-.6-.2-2.3-.3-2.9-.3-2.3-.9-4.7-1.8-6.9-2.6-6.4-8.8-11-15.6-12-7.4-1.1-14.3,2.4-18.2,8.8-.8,1.4-1.5,2.8-2,4.3-2.4,7.8.5,16.9,7.4,21.5,7,4.6,19.2,4.2,24.8-2.7,0,0,5.7-10.2,5.7-10.2h0Z"/>
          <path class="st4" d="M54.9,63.8c0,6.9,5.6,12.5,12.5,12.5s12.5-5.6,12.5-12.5-5.6-12.5-12.5-12.5-12.5,5.6-12.5,12.5Z"/>
        </g>
      </g>
      <g>
        <path class="st18" d="M209.2,100.4c0,42.3-23.6,57.8-55.1,61.2-1.9.2-3.9.4-5.9.5-3.2.2-6.5.3-9.9.3s-.2,0-.2,0-.2,0-.3,0c-.4,0-.8,0-1.2,0-6.4,0-12.5-.4-18.4-1.3-29.6-4.3-51.3-20.2-51.3-60.8s31.7-66.5,70.9-66.5h.5c18.5,0,35.4,4.3,48,13.9.9.6,1.7,1.3,2.5,2,.7.6,1.4,1.2,2,1.8,0,0,.1,0,.1.1,11.3,10.8,18.1,26.7,18.1,48.7h0Z"/>
        <path class="st5" d="M209.2,100.4c0,42.3-23.6,57.8-55.1,61.2-1.9.2-3.9.4-5.9.5-3.2.2-6.5.3-9.9.3s-.2,0-.2,0-.2,0-.3,0c-.4,0-.8,0-1.2,0,40.2-17.5,42.3-78.9,1.2-128.6h.5c18.5,0,35.4,4.3,48,13.9.9.6,1.7,1.3,2.5,2,.7.6,1.4,1.2,2,1.8,0,0,.1,0,.1.1,11.3,10.8,18.1,26.7,18.1,48.6h0Z"/>
        <g>
          <g class="st8">
            <ellipse class="st6" cx="90.8" cy="121.7" rx="12.8" ry="7.3"/>
            <ellipse class="st6" cx="185.3" cy="121.7" rx="12.8" ry="7.3"/>
          </g>
          <g>
            <g>
              <path class="st6" d="M165.4,120.9c0,11-11.6,20-26,20s-11.1-1.4-15.5-3.9c-6.4-3.6-10.6-9.5-10.6-16.1,0-11,11.7-20,26.1-20s19.4,4.7,23.6,11.5c1.6,2.6,2.5,5.4,2.5,8.5Z"/>
              <path class="st19" d="M144.5,123.6c.2.4-3.7,3.2-5.4,4-.1,0-.2.1-.4.2-.3.1-.6.2-.9.2s-.7-.3-.8-.3c-.2-.1-.3-.2-.5-.3-.7-.4-1.5-1-2.2-1.5-1.4-1-2.7-2-2.6-2.2.1-.2,1.6.4,3.2,1.1.8.4,1.6.8,2.4,1.2.3.2.8.4.7.3h0c.1,0,.2-.1.3-.1,1.5-.8,5.9-2.9,6.1-2.4h0Z"/>
              <g>
                <path class="st16" d="M148.8,109.3c0,3.4-4.8,7.4-10.8,7.4s-10.8-3.9-10.8-7.4,4.8-4.3,10.8-4.3,10.8.9,10.8,4.3Z"/>
                <path class="st15" d="M144.6,107.5c-.1.6-1.3.9-2.5,1.2-1.2.2-2.6.4-3.3.4-.7,0-2.3-.2-3.8-.5-1.5-.2-2.9-.5-3-1.1-.1-.6,1.1-1.4,2.7-2,1.6-.6,3.4-.9,4.2-.9.8,0,2.4.3,3.6.9,1.3.6,2.2,1.4,2.1,1.9h0Z"/>
              </g>
              <path class="st5" d="M164.1,121.9c0,11-11.6,20-26,20s-11.1-1.4-15.5-3.9c5.1.2,10.2-.2,15.2-1.1,5.2-1,10.3-2.6,14.6-5.6,4.4-2.9,7.9-7.4,9-12.5.4-1.7.4-3.6.2-5.3,1.6,2.6,2.5,5.4,2.5,8.5h0Z"/>
            </g>
            <g>
              <circle class="st16" cx="174.2" cy="94.9" r="12.2"/>
              <path class="st14" d="M174.5,89.7c-.4,1.8.7,3.5,2.5,3.8,1.8.3,3.5-.9,3.9-2.7.4-1.8-.8-3.5-2.5-3.8-1.8-.3-3.5.9-3.9,2.7h0Z"/>
              <path class="st3" d="M179.2,94.7c-.1.5.2,1,.7,1.1s1-.2,1.1-.8c.1-.5-.2-1-.7-1.1s-1,.2-1.1.8h0Z"/>
            </g>
            <g>
              <circle class="st16" cx="101.8" cy="94.9" r="12.2"/>
              <path class="st14" d="M102.1,89.7c-.4,1.8.7,3.5,2.5,3.8,1.8.3,3.5-.9,3.9-2.7.4-1.8-.8-3.5-2.5-3.8-1.8-.3-3.5.9-3.9,2.7Z"/>
              <path class="st3" d="M106.8,94.7c-.1.5.2,1,.7,1.1s1-.2,1.1-.8c0-.5-.2-1-.7-1.1s-1,.2-1.1.8h0Z"/>
            </g>
          </g>
        </g>
        <path class="st10" d="M206.5,80.5c4.1,16.1,4.6,34.8-2.2,50-6.8,15.2-21.5,26.3-38.1,28.5"/>
      </g>
    </g>
  </g>
  <polygon class="st14" points="8.3 91.6 11.4 82.9 12.7 91.6 21.3 93.1 13.6 96.4 13.5 104.2 9.3 98 1.3 100.1 6.2 94.9 0 90.9 8.3 91.6"/>
  <polygon class="st14" points="234 264.7 237.1 256 238.4 264.7 247 266.2 239.3 269.4 239.2 277.3 235 271.1 227 273.1 231.9 268 225.7 264 234 264.7"/>
  <polygon class="st14" points="96.9 6.9 99.4 0 100.4 6.9 107.2 8.1 101.1 10.7 101 16.9 97.7 12 91.4 13.6 95.3 9.5 90.3 6.3 96.9 6.9"/>
  <g>
    <path class="st14" d="M257.6,67.7c0,3.6,2.9,6.4,6.4,6.4s6.4-2.9,6.4-6.4-2.9-6.4-6.4-6.4-6.4,2.9-6.4,6.4Z"/>
    <path class="st14" d="M248,53.9c0,2.7,2.2,4.9,4.9,4.9s4.9-2.2,4.9-4.9-2.2-4.9-4.9-4.9-4.9,2.2-4.9,4.9Z"/>
    <path class="st14" d="M247.4,67.4c0,1.9,1.5,3.4,3.4,3.4s3.4-1.5,3.4-3.4-1.5-3.4-3.4-3.4-3.4,1.5-3.4,3.4Z"/>
  </g>
  <g>
    <path class="st14" d="M25.8,162.3c0-3.8-3.1-6.8-6.8-6.8s-6.8,3.1-6.8,6.8c0,3.8,3.1,6.8,6.8,6.8s6.8-3.1,6.8-6.8Z"/>
    <path class="st14" d="M34.3,175.4c0-2.9-2.3-5.2-5.2-5.2s-5.2,2.3-5.2,5.2,2.3,5.2,5.2,5.2,5.2-2.3,5.2-5.2Z"/>
    <circle class="st14" cx="15.7" cy="178.6" r="3.6"/>
  </g>
</svg>