<?xml version="1.0" encoding="UTF-8"?>
<svg id="Capa_2" data-name="Capa 2" xmlns="http://www.w3.org/2000/svg" viewBox="0 0 45.78 68.72">
  <g id="Capa_2-2" data-name="Capa 2">
    <g>
      <g>
        <g>
          <g>
            <path d="M9.47,56.33c.17-.03.32-.14.39-.31l8.09-18.49c.12-.27,0-.59-.28-.71-.27-.12-.59,0-.71.28l-8.09,18.49c-.12.27,0,.59.28.71.1.05.21.06.32.04h0Z" style="fill: #280400;"/>
            <path d="M5.69,54.84c1.17-.22,2.35-.14,3.43.2.34.11.67.24.99.42,1.9.92,3.35,2.7,3.77,4.95.73,3.79-1.78,7.47-5.56,8.19-3.79.73-7.47-1.78-8.19-5.56-.73-3.81,1.78-7.47,5.56-8.2ZM1.19,62.84c.61,3.2,3.72,5.32,6.93,4.71,3.2-.61,5.31-3.73,4.71-6.93-.38-1.97-1.69-3.52-3.38-4.27h0c-.16-.09-.31-.14-.47-.2,0,0,0,0,0,0,0,0,0,0,0,0h0c-.96-.32-1.97-.41-3.03-.21-3.21.62-5.32,3.72-4.71,6.93l-.02-.02Z" style="fill: #280400;"/>
          </g>
          <path d="M14.83,3.01c-.24.13-.46.28-.67.43-.63.41-1.23.87-1.81,1.34-1.23,1.03-2.32,2.2-3.27,3.48-.22.3-.44.61-.64.93-.92,1.38-1.65,2.87-2.2,4.44-.17.45-.31.9-.44,1.35-.03.11-.06.23-.09.34-.2.74-.34,1.52-.45,2.29-.07.5-.11,1-.15,1.5-.06.98-.06,1.97.04,2.97h0c.05.56.11,1.11.21,1.68h0c.02.15.05.3.08.45,1.24,6.47,5.4,11.64,10.87,14.38.32.17.64.32.97.45h0c3.64,1.6,7.76,2.15,11.95,1.34,3.12-.59,5.92-1.87,8.3-3.65h0c.08-.06.14-.11.22-.17.41-.31.8-.64,1.18-.98.07-.06.14-.13.21-.2.84-.76,1.6-1.58,2.29-2.47.34-.43.65-.87.95-1.33h0c.23-.34.45-.7.65-1.07.72-1.23,1.3-2.55,1.73-3.91.12-.35.22-.71.32-1.08.12-.44.21-.88.3-1.34.2-1.06.32-2.16.35-3.26,0-.27,0-.54,0-.8,0-1.18-.13-2.38-.36-3.57C43.28,5.5,32.61-1.74,21.58.37c-2.48.47-4.75,1.37-6.78,2.62l.03.02Z" style="fill: #f1cb7e;"/>
        </g>
        <path d="M12.34,4.79c-1.23,1.03-2.32,2.2-3.27,3.48-.22.3-.44.61-.64.93-.92,1.38-1.65,2.87-2.2,4.44-.17.45-.31.9-.44,1.35-.03.11-.06.23-.09.34,1.03,1.98,2.39,3.79,3.84,5.49,4.21,4.95,9.44,9.17,15.52,11.44,5.21,1.94,11.11,2.35,16.39.69.34-.43.65-.87.95-1.33h0c.23-.34.45-.7.65-1.07.72-1.23,1.3-2.55,1.73-3.91.12-.35.22-.71.32-1.08.12-.44.21-.88.3-1.34-6.62,1.8-14.04.37-19.99-3.15-6.11-3.62-10.67-9.58-13.09-16.27h.01Z" style="fill: #fff;"/>
      </g>
      <path d="M5.15,22.09c.05.55.11,1.11.21,1.67h0c1.81,2.39,4.18,4.65,7.09,6.78,4.57,3.33,9.26,5.5,13.93,6.44,3.84.77,7.69.68,11.17-.24h0c.08-.06.14-.11.22-.17.41-.31.8-.64,1.18-.98.07-.06.14-.13.21-.2-3.83,1.4-8.23,1.69-12.63.8-4.56-.91-9.14-3.03-13.62-6.3-3.34-2.43-5.93-5.04-7.77-7.8h0Z" style="fill: #fff;"/>
      <path d="M14.83,3.01c-.24.13-.46.28-.67.43.43.91.91,1.82,1.46,2.69,1.31,2.11,2.96,4.09,4.9,5.85,3.56,3.22,8.09,5.76,13.46,7.56,4.55,1.52,8.43,1.98,11.8,1.4,0-.27,0-.54,0-.8-3.27.6-7.08.15-11.55-1.34-5.27-1.77-9.71-4.26-13.19-7.4-2.69-2.44-4.81-5.32-6.21-8.38h0Z" style="fill: #fff;"/>
      <g>
        <path d="M36.07,31.74c.45-.18.9-.37,1.35-.55.76-.31,1.54-.63,2.18-1.13.4-.31.74-.7.91-1.18.05-.16.09-.33.04-.49-.11-.42-.65-.55-1.08-.52-.48.03-.95.17-1.37.39-.02-.45-.18-.89-.35-1.3-.12-.28-.28-.55-.51-.74s-.55-.3-.84-.23c-.28.07-.5.3-.63.56s-.17.55-.2.84c-.14,1.39.04,3.01.5,4.34h0Z" style="fill: #7fc7f7;"/>
        <path d="M26.58,29.51c.45-.18.9-.37,1.35-.55.76-.31,1.54-.63,2.18-1.13.4-.31.74-.7.91-1.18.05-.16.09-.33.04-.49-.11-.42-.65-.55-1.08-.52-.48.03-.95.17-1.37.39-.02-.45-.18-.89-.35-1.3-.12-.28-.28-.55-.51-.74s-.55-.3-.84-.23c-.28.07-.5.3-.63.56s-.17.55-.2.84c-.14,1.39.04,3.01.5,4.34h0Z" style="fill: #7fc7f7;"/>
        <path d="M17.88,25.5c.45-.18.9-.37,1.35-.55.76-.31,1.54-.63,2.18-1.13.4-.31.74-.7.91-1.18.05-.16.09-.33.04-.49-.11-.42-.65-.55-1.08-.52-.48.03-.95.17-1.37.39-.02-.45-.18-.89-.35-1.3-.12-.28-.28-.55-.51-.74s-.55-.3-.84-.23c-.28.07-.5.3-.63.56s-.17.55-.2.84c-.14,1.39.04,3.01.5,4.34h0Z" style="fill: #7fc7f7;"/>
        <path d="M10.66,17.65c.47-.12.94-.25,1.41-.37.8-.21,1.61-.42,2.31-.84.43-.26.83-.6,1.05-1.05.07-.15.13-.32.11-.48-.06-.43-.57-.63-1.01-.65-.48-.03-.96.05-1.41.21.04-.45-.06-.9-.18-1.34-.08-.29-.2-.58-.41-.8s-.51-.37-.81-.33c-.29.03-.54.23-.7.47-.16.24-.24.53-.31.81-.32,1.36-.35,2.99-.07,4.37h.02Z" style="fill: #7fc7f7;"/>
      </g>
    </g>
  </g>
</svg>