<?xml version="1.0" encoding="UTF-8"?>
<svg id="Capa_2" xmlns="http://www.w3.org/2000/svg" version="1.1" viewBox="0 0 86.6 203.1">
  <!-- Generator: Adobe Illustrator 30.1.0, SVG Export Plug-In . SVG Version: 2.1.1 Build 136)  -->
  <defs>
    <style>
      .st0 {
        fill: #e38e89;
      }

      .st1 {
        fill: #fff3f2;
      }

      .st2 {
        fill: #db645d;
      }

      .st3 {
        fill: #f7bfbc;
      }

      .st4 {
        fill: #f7b2ae;
      }

      .st5 {
        fill: #fff2f0;
      }

      .st6 {
        fill: #f7a49f;
      }
    </style>
  </defs>
  <g id="OBJECTS">
    <g>
      <path class="st3" d="M86.6,165.1c0,13.3-5.4,25.3-14.1,33.9h0c0,2.2-13.1,4-29.1,4s-29.1-1.8-29.1-4h0C5.4,190.4,0,178.4,0,165.1s4.5-31.9,5.6-47.8c.8-12,1.1-24,1.7-36,.4-8.3,0-17.6,1.4-26,0,0,0,.2.1.3,1.7,1.9,16.5,3.4,34.4,3.4s32.7-1.5,34.4-3.4c.1-.1.2-.2.2-.4,1.4,8.5,1,17.8,1.4,26.1.6,12,1,24,1.7,36,1,15.8,5.5,32,5.5,47.8h0Z"/>
      <path class="st6" d="M77.7,191.5c0,2.2-13.1,4-29.1,4s-16.5-.3-24.6-1.9c-1.1-.2-2.2-.4-3.1-1-4.8-2.7-8.9-10.3-11.1-15.1-2.9-6.3-4.4-13.1-4.4-20.1,0-15.7,4.5-31.9,5.6-47.8.8-12,1.1-24,1.7-36,.3-5.3.2-11.1.4-16.8-2.2-.4-3.7-.9-4.2-1.4,0,0-.1-.2-.1-.3-1.4,8.4-1,17.8-1.4,26.1-.6,12-1,24-1.7,36C4.6,133.2,0,149.4,0,165.1s5.4,25.3,14.1,33.9h0c0,2.2,13.1,4,29.1,4s29.1-1.8,29.1-4h0c3.1-3.1,5.8-6.7,8-10.5-.9,1-1.8,2-2.7,3h0Z"/>
      <path class="st2" d="M70.1,36.4c-1.4,1.9-12.9,3.3-26.8,3.3s-25.3-1.4-26.8-3.3c1.5-1.9,12.9-3.3,26.8-3.3s25.2,1.4,26.8,3.3Z"/>
      <path class="st0" d="M77.9,55.2c0,.1,0,.2-.2.4-1.7,1.9-16.5,3.4-34.5,3.4s-32.7-1.5-34.5-3.4c0,0-.1-.2-.1-.3s0-.2,0-.3c.3-1.7.6-3.3,1.1-4.9.6-1.9,3.9-11.7,6.6-13.7,1.4,1.9,12.9,3.4,26.9,3.4s25.5-1.5,26.9-3.4c2.7,2,6,11.8,6.6,13.7.5,1.6.8,3.2,1.1,4.9,0,0,0,.1,0,.2Z"/>
      <g>
        <path class="st2" d="M71.3,37.7c-.4-.5-.8-1-1.2-1.3-.8,1.2-5.4,2.2-12,2.8,5.5-.3,10.1-.8,13.2-1.5Z"/>
        <path class="st2" d="M48.5,58.6c-18,0-32.7-1.5-34.5-3.4,0,0-.1-.2-.1-.3s0-.2,0-.3c.3-1.7.6-3.3,1.1-4.9.4-1.5,2.7-8.2,5-11.8-2-.5-3.2-1-3.6-1.5-2.6,2-6,11.8-6.6,13.7-.5,1.6-.8,3.2-1.1,4.9,0,0,0,.2,0,.3s0,.2.1.3c1.7,1.9,16.5,3.4,34.5,3.4s15.7-.3,21.6-.8c-4.9.3-10.4.4-16.3.4h0Z"/>
      </g>
      <g>
        <rect class="st1" x="14.4" y="73.4" width="9.2" height="1.2"/>
        <rect class="st1" x="14.4" y="88.2" width="9.2" height="1.2"/>
        <rect class="st1" x="14.4" y="102.9" width="9.2" height="1.2"/>
        <rect class="st1" x="14.4" y="117.6" width="9.2" height="1.2"/>
        <rect class="st1" x="14.4" y="132.3" width="9.2" height="1.2"/>
        <rect class="st1" x="14.4" y="147" width="9.2" height="1.2"/>
        <rect class="st1" x="14.4" y="161.7" width="9.2" height="1.2"/>
        <rect class="st1" x="14.4" y="176.4" width="9.2" height="1.2"/>
      </g>
      <g>
        <path class="st5" d="M75.7,100.9c.9,17.6-.1,31.9-2.3,32s-4.6-14-5.5-31.6.1-31.9,2.3-32c2.2-.1,4.6,14,5.5,31.6Z"/>
        <path class="st5" d="M76.6,140.8c0,1.5-1.1,2.8-2.6,2.9-1.5,0-2.8-1.1-2.9-2.6,0-1.5,1.1-2.8,2.6-2.9,1.5,0,2.8,1.1,2.9,2.6Z"/>
      </g>
      <g>
        <path class="st3" d="M22.1,34.6c0,.1,0,.3.1.4,1.1,2.1,10.1,3.7,21.1,3.7s20-1.6,21.1-3.7c0-.1,0-.3,0-.4,0-.6-.6-1.1-1.7-1.6-6.1-2.8-10.7-8.6-11.2-15.7-.2-2.3,0-4.4,0-5.8.2-.9.3-1.7.3-2.6-.1-3.9-2.7-7.5-6.3-8.5-5.8-1.6-10.9,3-10.9,8.8s0,1.5.3,2.3c.1,1.4.2,3.5,0,5.8-.5,7.1-5.1,12.9-11.2,15.7-1.1.5-1.7,1.1-1.7,1.6h0Z"/>
        <path class="st4" d="M23.8,33c6.1-2.8,10.7-8.6,11.2-15.7.2-2.3,0-4.4,0-5.8-.2-.8-.3-1.5-.3-2.3,0-5.7,5-10.2,10.7-8.8-3.8,1-6.6,4.5-6.6,8.8s0,1.5.3,2.3c.1,1.4.2,3.5,0,5.8-.5,7.1-5.1,12.9-11.2,15.7-1.1.5-1.7,1.1-1.7,1.6s0,.3.1.4c1,2,9,3.5,19,3.7-.7,0-1.3,0-2,0-11,0-20-1.6-21.1-3.7,0-.1-.1-.3-.1-.4,0-.6.6-1.1,1.7-1.6h0Z"/>
        <path class="st5" d="M49.5,4.8c1,2.2.6,4.6-.9,5.2-1.5.6-3.5-.6-4.5-2.9-1-2.2-.6-4.6.9-5.2,1.5-.6,3.5.7,4.5,2.9Z"/>
      </g>
    </g>
  </g>
</svg>