<?xml version="1.0" encoding="UTF-8"?>
<svg id="Capa_2" data-name="Capa 2" xmlns="http://www.w3.org/2000/svg" viewBox="0 0 86.55 203.09">
  <g id="OBJECTS">
    <g>
      <path d="M86.55,165.13c0,13.27-5.4,25.28-14.14,33.92v.03c0,2.22-13.06,4.01-29.14,4.01s-29.14-1.79-29.14-4.01v-.03c-8.74-8.64-14.14-20.65-14.14-33.92,0-15.74,4.54-31.95,5.56-47.75.77-12.01,1.14-24.02,1.73-36.02.4-8.3-.06-17.63,1.39-26.05,0,.09.06.22.15.31,1.73,1.91,16.48,3.36,34.45,3.36s32.72-1.45,34.45-3.36c.12-.12.19-.25.19-.37,1.45,8.46.99,17.81,1.39,26.11.56,12.01.96,24.02,1.73,36.02,1.02,15.8,5.53,32.01,5.53,47.75Z" style="fill: #f7cddc;"/>
      <path d="M77.68,191.53c0,2.22-13.06,4.01-29.14,4.01-8.23,0-16.54-.3-24.64-1.88-1.08-.21-2.18-.45-3.15-.98-4.81-2.67-8.87-10.26-11.09-15.05-2.9-6.27-4.4-13.15-4.4-20.06,0-15.74,4.54-31.95,5.56-47.75.77-12.01,1.14-24.02,1.73-36.02.26-5.33.16-11.09.45-16.75-2.22-.43-3.69-.92-4.16-1.44-.09-.09-.15-.22-.15-.31-1.45,8.43-.99,17.75-1.39,26.05-.59,12.01-.96,24.02-1.73,36.02-1.02,15.8-5.56,32.01-5.56,47.75,0,13.27,5.4,25.28,14.14,33.92v.03c0,2.22,13.06,4.01,29.14,4.01s29.14-1.79,29.14-4.01v-.03c3.13-3.09,5.8-6.63,7.98-10.49-.87,1.02-1.77,2.02-2.72,2.97Z" style="fill: #f7c1d4;"/>
      <path d="M70.13,36.43c-1.44,1.93-12.94,3.34-26.85,3.34s-25.3-1.41-26.83-3.31c1.55-1.87,12.94-3.31,26.83-3.31s25.21,1.44,26.85,3.28Z" style="fill: #db86a4;"/>
      <path d="M77.91,55.24c0,.12-.06.25-.19.37-1.73,1.91-16.48,3.36-34.45,3.36s-32.72-1.45-34.45-3.36c-.09-.09-.15-.22-.15-.31s0-.19.03-.28c.28-1.67.65-3.3,1.11-4.91.56-1.91,3.92-11.7,6.57-13.71,1.36,1.91,12.87,3.36,26.89,3.36s25.53-1.45,26.89-3.36c2.69,2.01,6.02,11.79,6.61,13.71.46,1.61.83,3.24,1.11,4.94.03.06.03.12.03.19Z" style="fill: #e395b1;"/>
      <g>
        <path d="M71.32,37.68c-.39-.54-.78-.99-1.16-1.27-.82,1.16-5.41,2.15-12.01,2.75,5.46-.29,10.07-.81,13.17-1.48Z" style="fill: #db86a4;"/>
        <path d="M48.51,58.6c-17.97,0-32.72-1.45-34.45-3.36-.09-.09-.15-.22-.15-.31s0-.19.03-.28c.28-1.67.65-3.3,1.11-4.91.45-1.55,2.73-8.23,4.99-11.8-1.96-.46-3.25-.98-3.65-1.54-2.65,2.01-6.02,11.79-6.57,13.71-.46,1.61-.83,3.24-1.11,4.91-.03.09-.03.19-.03.28s.06.22.15.31c1.73,1.91,16.48,3.36,34.45,3.36,8.18,0,15.67-.3,21.59-.81-4.87.28-10.43.44-16.35.44Z" style="fill: #db86a4;"/>
      </g>
      <g>
        <rect x="14.45" y="73.45" width="9.19" height="1.25" style="fill: #fff2f5;"/>
        <rect x="14.45" y="88.16" width="9.19" height="1.25" style="fill: #fff2f5;"/>
        <rect x="14.45" y="102.87" width="9.19" height="1.25" style="fill: #fff2f5;"/>
        <rect x="14.45" y="117.58" width="9.19" height="1.25" style="fill: #fff2f5;"/>
        <rect x="14.45" y="132.3" width="9.19" height="1.25" style="fill: #fff2f5;"/>
        <rect x="14.45" y="147.01" width="9.19" height="1.25" style="fill: #fff2f5;"/>
        <rect x="14.45" y="161.72" width="9.19" height="1.25" style="fill: #fff2f5;"/>
        <rect x="14.45" y="176.43" width="9.19" height="1.25" style="fill: #fff2f5;"/>
      </g>
      <g>
        <path d="M75.7,100.87c.9,17.57-.11,31.9-2.26,32.01-2.15.11-4.63-14.04-5.53-31.61-.9-17.57.11-31.9,2.26-32.01,2.15-.11,4.63,14.04,5.53,31.61Z" style="fill: #fff0f3;"/>
        <path d="M76.6,140.75c.08,1.52-1.09,2.82-2.62,2.9-1.52.08-2.82-1.09-2.9-2.62-.08-1.52,1.09-2.82,2.62-2.9,1.52-.08,2.82,1.09,2.9,2.62Z" style="fill: #fff0f3;"/>
      </g>
      <g>
        <path d="M22.12,34.59c0,.14.03.27.1.41,1.07,2.13,10.07,3.74,21.06,3.74s19.99-1.61,21.06-3.74c.06-.14.1-.27.1-.41,0-.58-.6-1.13-1.69-1.63-6.14-2.84-10.72-8.63-11.21-15.71-.16-2.34-.06-4.38.07-5.83.22-.85.31-1.69.29-2.59-.12-3.92-2.7-7.52-6.29-8.51-5.76-1.59-10.94,2.96-10.94,8.8,0,.79.1,1.54.29,2.3.14,1.45.24,3.5.07,5.83-.49,7.08-5.07,12.86-11.21,15.71-1.09.5-1.69,1.06-1.69,1.63Z" style="fill: #f7cddc;"/>
        <path d="M23.82,32.95c6.14-2.84,10.72-8.63,11.21-15.71.16-2.34.06-4.38-.07-5.83-.19-.75-.29-1.51-.29-2.3,0-5.74,5.01-10.21,10.66-8.84-3.78.97-6.59,4.54-6.59,8.84,0,.79.1,1.54.29,2.3.14,1.45.24,3.5.07,5.83-.49,7.08-5.07,12.86-11.21,15.71-1.09.5-1.69,1.06-1.69,1.63,0,.14.03.27.1.41,1,1.99,8.98,3.53,19.02,3.72-.67.01-1.35.02-2.04.02-10.98,0-19.99-1.61-21.06-3.74-.06-.14-.1-.27-.1-.41,0-.58.6-1.13,1.69-1.63Z" style="fill: #f7afc9;"/>
        <path d="M49.45,4.81c.98,2.24.58,4.59-.89,5.23-1.47.65-3.47-.65-4.45-2.89-.98-2.24-.58-4.59.89-5.23,1.48-.65,3.47.65,4.45,2.89Z" style="fill: #fff0f3;"/>
      </g>
    </g>
  </g>
</svg>