<?xml version="1.0" encoding="UTF-8"?>
<svg id="Capa_2" data-name="Capa 2" xmlns="http://www.w3.org/2000/svg" viewBox="0 0 95.67 98.79">
  <g id="OBJECTS">
    <g>
      <path d="M78.79,34.6c15.69,8.54,21.48,28.18,12.95,43.86-8.54,15.69-28.17,21.51-43.87,12.97-15.27-8.31-21.15-27.11-13.61-42.58-6.45,13.41-1.29,29.64,11.93,36.83,13.63,7.42,30.7,2.39,38.13-11.26,7.42-13.63,2.37-30.71-11.26-38.13-13.21-7.19-29.65-2.69-37.41,10.01,8.86-14.73,27.87-20.02,43.14-11.71Z" style="fill: #f7afc9;"/>
      <path d="M75.32,44.04c1.19,13.5-7.4,29.3-19.38,35.65-9.17,4.86-12.69.41-11.55-6.08.72-4.24,3.22-8.01,5.77-10.88,3.61-4.07,6.33-9.07,7.78-14.31,1.03-3.69,2.83-7.83,6.01-10.76,4.81-4.46,10.46-3.93,11.37,6.38Z" style="fill: #e395b1;"/>
      <path d="M76.77,19.1c2.52,28.53-15.64,61.91-40.96,75.34-19.37,10.28-26.82.88-24.4-12.85,1.53-8.97,6.81-16.92,12.19-22.99,7.62-8.59,13.37-19.17,16.44-30.23,2.17-7.8,5.98-16.55,12.7-22.75,10.16-9.41,22.1-8.3,24.03,13.48Z" style="fill: #f7afc9;"/>
      <path d="M75.93,18.64c2.52,28.53-15.64,61.91-40.96,75.34-8.72,4.63-15.02,5.25-19.09,3.31,4.03,2.48,10.59,2.11,19.93-2.85,25.31-13.42,43.48-46.81,40.96-75.34-.93-10.5-4.18-16.18-8.44-18.22,3.84,2.36,6.74,7.96,7.6,17.76Z" style="fill: #f7cddc;"/>
      <path d="M60.71,27.91c-1.95,16.34-13.59,37.74-26.25,48.28-9.69,8.07-11.99,3.39-9.44-4.86,1.64-5.38,4.83-10.58,7.87-14.7,4.3-5.82,7.99-12.6,10.54-19.38,1.8-4.78,4.43-10.28,8.07-14.61,5.52-6.57,10.69-7.21,9.2,5.27Z" style="fill: #e395b1;"/>
      <g>
        <path d="M32.87,69.67c12.51-10.27,19.68-23.44,21.5-39.52.13-1.19-1.09-2.06-2.19-1.59-6.97,2.97-14.97,3.25-22.27-.09-3.17-1.45-5.77-3.04-7.57-4.25-.95-.89-1.99-1.61-3.18-2.22-5.22-2.64-11.75-1.82-15.6,2.17-6.18,6.41-3.91,16.41,3.72,20.57,1.03.56,2.09.97,3.21,1.25,2,.86,4.74,2.18,7.68,4.05,6.77,4.31,10.87,11.18,12.17,18.65.21,1.18,1.6,1.73,2.53.97Z" style="fill: #ffccd6;"/>
        <path d="M12.18,22.33c3.63.31,6.41,2.5,6.21,4.89-.21,2.39-3.32,4.07-6.95,3.76-3.63-.31-6.41-2.5-6.21-4.89.21-2.39,3.32-4.07,6.95-3.76Z" style="fill: #fff0f3;"/>
      </g>
    </g>
  </g>
</svg>