<?xml version="1.0" encoding="UTF-8"?>
<svg id="Capa_2" xmlns="http://www.w3.org/2000/svg" version="1.1" viewBox="0 0 95.7 98.8">
  <!-- Generator: Adobe Illustrator 30.1.0, SVG Export Plug-In . SVG Version: 2.1.1 Build 136)  -->
  <defs>
    <style>
      .st0 {
        fill: #fff3f0;
      }

      .st1 {
        fill: #f7d1cd;
      }

      .st2 {
        fill: #f7b4af;
      }

      .st3 {
        fill: #ff9a89;
      }

      .st4 {
        fill: #e3675d;
      }
    </style>
  </defs>
  <g id="OBJECTS">
    <g>
      <path class="st2" d="M78.8,34.6c15.7,8.5,21.5,28.2,12.9,43.9-8.5,15.7-28.2,21.5-43.9,13-15.3-8.3-21.1-27.1-13.6-42.6-6.5,13.4-1.3,29.6,11.9,36.8,13.6,7.4,30.7,2.4,38.1-11.3,7.4-13.6,2.4-30.7-11.3-38.1-13.2-7.2-29.7-2.7-37.4,10,8.9-14.7,27.9-20,43.1-11.7h0Z"/>
      <path class="st4" d="M75.3,44c1.2,13.5-7.4,29.3-19.4,35.7-9.2,4.9-12.7.4-11.5-6.1.7-4.2,3.2-8,5.8-10.9,3.6-4.1,6.3-9.1,7.8-14.3,1-3.7,2.8-7.8,6-10.8,4.8-4.5,10.5-3.9,11.4,6.4Z"/>
      <path class="st2" d="M76.8,19.1c2.5,28.5-15.6,61.9-41,75.3-19.4,10.3-26.8.9-24.4-12.8,1.5-9,6.8-16.9,12.2-23,7.6-8.6,13.4-19.2,16.4-30.2,2.2-7.8,6-16.5,12.7-22.8,10.2-9.4,22.1-8.3,24,13.5Z"/>
      <path class="st1" d="M75.9,18.6c2.5,28.5-15.6,61.9-41,75.3-8.7,4.6-15,5.2-19.1,3.3,4,2.5,10.6,2.1,19.9-2.8,25.3-13.4,43.5-46.8,41-75.3-.9-10.5-4.2-16.2-8.4-18.2,3.8,2.4,6.7,8,7.6,17.8Z"/>
      <path class="st4" d="M60.7,27.9c-2,16.3-13.6,37.7-26.2,48.3-9.7,8.1-12,3.4-9.4-4.9,1.6-5.4,4.8-10.6,7.9-14.7,4.3-5.8,8-12.6,10.5-19.4,1.8-4.8,4.4-10.3,8.1-14.6,5.5-6.6,10.7-7.2,9.2,5.3h0Z"/>
      <g>
        <path class="st3" d="M32.9,69.7c12.5-10.3,19.7-23.4,21.5-39.5.1-1.2-1.1-2.1-2.2-1.6-7,3-15,3.2-22.3,0-3.2-1.5-5.8-3-7.6-4.2-1-.9-2-1.6-3.2-2.2-5.2-2.6-11.8-1.8-15.6,2.2-6.2,6.4-3.9,16.4,3.7,20.6,1,.6,2.1,1,3.2,1.2,2,.9,4.7,2.2,7.7,4,6.8,4.3,10.9,11.2,12.2,18.6.2,1.2,1.6,1.7,2.5,1h0Z"/>
        <path class="st0" d="M12.2,22.3c3.6.3,6.4,2.5,6.2,4.9-.2,2.4-3.3,4.1-6.9,3.8s-6.4-2.5-6.2-4.9c.2-2.4,3.3-4.1,7-3.8Z"/>
      </g>
    </g>
  </g>
</svg>