<?xml version="1.0" encoding="UTF-8"?>
<svg id="Capa_2" data-name="Capa 2" xmlns="http://www.w3.org/2000/svg" viewBox="0 0 121.42 142.87">
  <g id="OBJECTS">
    <g>
      <path d="M79.72,127.12c-2.62-1.61-5.25-2.41-7.87-3.02-1.4-.3-2.81-.5-4.21-.64-.14-1.4-.34-2.81-.64-4.21-.61-2.62-1.41-5.25-3.02-7.87-1.61,2.62-2.4,5.25-3.02,7.87-.3,1.4-.5,2.8-.64,4.2-1.4.13-2.81.34-4.21.64-2.62.61-5.25,1.42-7.87,3.03,2.62,1.61,5.25,2.42,7.87,3.03,1.4.3,2.8.5,4.2.64.13,1.4.34,2.8.64,4.2.61,2.62,1.42,5.25,3.03,7.87,1.61-2.62,2.42-5.25,3.03-7.87.3-1.4.5-2.81.64-4.21,1.4-.14,2.8-.34,4.2-.64,2.62-.61,5.25-1.41,7.87-3.02Z" style="fill: #fff;"/>
      <g>
        <path d="M78.36,14.93c.2.77.36,1.53.48,2.31,3.64,21.18-17.33,42.6-24.96,49.59-.5.48-.95.88-1.34,1.21-.5-.09-1.09-.21-1.77-.37-10.12-2.16-39.05-10.01-46.64-30.12-.29-.73-.53-1.47-.75-2.23C.55,24.88,6.41,14.12,16.59,10.79c.33-.1.67-.21,1-.3.33-.09.67-.17,1.01-.25,7.75-1.7,15.53,1.33,20.19,7.25,1.03-7.47,6.2-14.02,13.74-16.48.33-.1.66-.21.99-.3.33-.09.68-.17,1.02-.25,10.46-2.29,20.97,4.02,23.81,14.46Z" style="fill: #f7cddc;"/>
        <g>
          <path d="M15.97,23.6c-2.19,3.82-5.45,6.07-7.29,5.02-1.84-1.05-1.56-5.01.63-8.83,2.19-3.82,5.45-6.07,7.29-5.02,1.84,1.05,1.56,5.01-.63,8.83Z" style="fill: #fff2f5;"/>
          <path d="M9,30.94c.17.62-.2,1.27-.82,1.44-.62.17-1.27-.2-1.44-.82-.17-.62.2-1.27.82-1.44.62-.17,1.27.2,1.44.82Z" style="fill: #fff2f5;"/>
        </g>
        <path d="M49.48,14.87c-2.19,3.82-5.45,6.07-7.29,5.02-1.84-1.05-1.56-5.01.63-8.83,2.19-3.82,5.45-6.07,7.29-5.02,1.84,1.05,1.56,5.01-.63,8.83Z" style="fill: #fff2f5;"/>
      </g>
      <g>
        <path d="M121.02,86.06c-.14.57-.3,1.12-.5,1.67-5.09,15.03-26.24,21.55-33.65,23.4-.5.13-.93.24-1.3.32-.29-.23-.63-.52-1.02-.86-5.81-4.97-21.82-20.24-19.66-35.96.07-.58.17-1.14.3-1.71,1.83-7.78,9.43-12.7,17.2-11.27.25.05.51.1.76.16s.49.13.74.19c5.63,1.63,9.61,6.33,10.55,11.81,3.3-4.49,8.96-6.91,14.72-5.86.25.05.5.1.75.16s.5.13.75.2c7.6,2.2,12.2,9.99,10.36,17.77Z" style="fill: #f7cddc;"/>
        <g>
          <path d="M77.47,69.72c-2.77,1.71-5.68,2.02-6.5.69-.82-1.33.75-3.8,3.52-5.51,2.77-1.71,5.68-2.02,6.5-.69.82,1.33-.75,3.8-3.52,5.51Z" style="fill: #fff2f5;"/>
          <path d="M70.37,72.04c-.11.46-.58.75-1.04.64-.46-.11-.75-.58-.64-1.04.11-.47.58-.75,1.04-.64.47.11.75.58.64,1.04Z" style="fill: #fff2f5;"/>
        </g>
        <path d="M102.29,75.85c-2.77,1.71-5.68,2.02-6.5.69-.82-1.33.75-3.8,3.52-5.51,2.77-1.71,5.68-2.02,6.5-.69.82,1.33-.75,3.8-3.52,5.51Z" style="fill: #fff2f5;"/>
      </g>
      <g>
        <path d="M51.9,85.65c.15.53.28,1.05.37,1.58,2.86,14.53-11.23,29.64-16.37,34.58-.34.34-.64.62-.9.86-.35-.05-.75-.12-1.22-.22-7.01-1.32-27.07-6.25-32.63-19.97-.21-.5-.39-1-.56-1.53-2.13-7.15,1.73-14.66,8.69-17.12.23-.08.46-.16.69-.22.23-.07.46-.13.69-.19,5.31-1.3,10.72.66,14.03,4.66.58-5.16,4.04-9.76,9.19-11.58.23-.08.45-.15.68-.22.23-.07.47-.13.7-.19,7.17-1.75,14.51,2.42,16.65,9.57Z" style="fill: #f7cddc;"/>
        <g>
          <path d="M9.06,92.67c-1.44,2.67-3.66,4.27-4.94,3.58-1.29-.69-1.16-3.42.29-6.09,1.44-2.67,3.66-4.27,4.94-3.58,1.29.69,1.16,3.42-.29,6.09Z" style="fill: #fff2f5;"/>
          <path d="M4.38,97.84c.13.43-.12.88-.54,1-.43.13-.88-.12-1-.54s.12-.88.54-1c.43-.13.88.12,1,.54Z" style="fill: #fff2f5;"/>
        </g>
        <path d="M32,86.09c-1.44,2.67-3.66,4.27-4.94,3.58-1.29-.69-1.16-3.42.29-6.09,1.44-2.67,3.66-4.27,4.94-3.58,1.29.69,1.16,3.42-.29,6.09Z" style="fill: #fff2f5;"/>
      </g>
    </g>
  </g>
</svg>