<?xml version="1.0" encoding="UTF-8"?>
<svg id="Capa_2" xmlns="http://www.w3.org/2000/svg" version="1.1" viewBox="0 0 121.4 142.9">
  <!-- Generator: Adobe Illustrator 30.1.0, SVG Export Plug-In . SVG Version: 2.1.1 Build 136)  -->
  <defs>
    <style>
      .st0 {
        fill: #ff9b9b;
      }

      .st1 {
        fill: #fff;
      }

      .st2 {
        fill: #f77988;
      }
    </style>
  </defs>
  <g id="OBJECTS">
    <g>
      <path class="st1" d="M79.7,127.1c-2.6-1.6-5.2-2.4-7.9-3-1.4-.3-2.8-.5-4.2-.6-.1-1.4-.3-2.8-.6-4.2-.6-2.6-1.4-5.2-3-7.9-1.6,2.6-2.4,5.2-3,7.9-.3,1.4-.5,2.8-.6,4.2-1.4.1-2.8.3-4.2.6-2.6.6-5.2,1.4-7.9,3,2.6,1.6,5.2,2.4,7.9,3,1.4.3,2.8.5,4.2.6.1,1.4.3,2.8.6,4.2.6,2.6,1.4,5.2,3,7.9,1.6-2.6,2.4-5.2,3-7.9.3-1.4.5-2.8.6-4.2,1.4-.1,2.8-.3,4.2-.6,2.6-.6,5.2-1.4,7.9-3Z"/>
      <g>
        <path class="st2" d="M78.4,14.9c.2.8.4,1.5.5,2.3,3.6,21.2-17.3,42.6-25,49.6-.5.5-1,.9-1.3,1.2-.5,0-1.1-.2-1.8-.4-10.1-2.2-39-10-46.6-30.1-.3-.7-.5-1.5-.8-2.2C.6,24.9,6.4,14.1,16.6,10.8c.3-.1.7-.2,1-.3s.7-.2,1-.2c7.8-1.7,15.5,1.3,20.2,7.2,1-7.5,6.2-14,13.7-16.5.3-.1.7-.2,1-.3.3,0,.7-.2,1-.2,10.5-2.3,21,4,23.8,14.5h0Z"/>
        <g>
          <path class="st0" d="M16,23.6c-2.2,3.8-5.4,6.1-7.3,5s-1.6-5,.6-8.8c2.2-3.8,5.4-6.1,7.3-5,1.8,1.1,1.6,5-.6,8.8Z"/>
          <path class="st0" d="M9,30.9c.2.6-.2,1.3-.8,1.4-.6.2-1.3-.2-1.4-.8-.2-.6.2-1.3.8-1.4.6-.2,1.3.2,1.4.8Z"/>
        </g>
        <path class="st0" d="M49.5,14.9c-2.2,3.8-5.5,6.1-7.3,5-1.8-1-1.6-5,.6-8.8,2.2-3.8,5.5-6.1,7.3-5,1.8,1,1.6,5-.6,8.8Z"/>
      </g>
      <g>
        <path class="st2" d="M121,86.1c-.1.6-.3,1.1-.5,1.7-5.1,15-26.2,21.6-33.7,23.4-.5.1-.9.2-1.3.3-.3-.2-.6-.5-1-.9-5.8-5-21.8-20.2-19.7-36,0-.6.2-1.1.3-1.7,1.8-7.8,9.4-12.7,17.2-11.3.2,0,.5,0,.8.2s.5.1.7.2c5.6,1.6,9.6,6.3,10.6,11.8,3.3-4.5,9-6.9,14.7-5.9.2,0,.5,0,.8.2s.5.1.8.2c7.6,2.2,12.2,10,10.4,17.8h0Z"/>
        <g>
          <path class="st0" d="M77.5,69.7c-2.8,1.7-5.7,2-6.5.7-.8-1.3.8-3.8,3.5-5.5s5.7-2,6.5-.7c.8,1.3-.8,3.8-3.5,5.5Z"/>
          <path class="st0" d="M70.4,72c-.1.5-.6.8-1,.6s-.8-.6-.6-1c.1-.5.6-.8,1-.6.5.1.8.6.6,1Z"/>
        </g>
        <path class="st0" d="M102.3,75.8c-2.8,1.7-5.7,2-6.5.7-.8-1.3.8-3.8,3.5-5.5s5.7-2,6.5-.7c.8,1.3-.8,3.8-3.5,5.5Z"/>
      </g>
      <g>
        <path class="st2" d="M51.9,85.7c.2.5.3,1.1.4,1.6,2.9,14.5-11.2,29.6-16.4,34.6-.3.3-.6.6-.9.9-.3,0-.8-.1-1.2-.2-7-1.3-27.1-6.2-32.6-20-.2-.5-.4-1-.6-1.5-2.1-7.2,1.7-14.7,8.7-17.1.2,0,.5-.2.7-.2.2,0,.5-.1.7-.2,5.3-1.3,10.7.7,14,4.7.6-5.2,4-9.8,9.2-11.6.2,0,.5-.2.7-.2s.5-.1.7-.2c7.2-1.8,14.5,2.4,16.7,9.6h0Z"/>
        <g>
          <path class="st0" d="M9.1,92.7c-1.4,2.7-3.7,4.3-4.9,3.6-1.3-.7-1.2-3.4.3-6.1,1.4-2.7,3.7-4.3,4.9-3.6,1.3.7,1.2,3.4-.3,6.1Z"/>
          <path class="st0" d="M4.4,97.8c.1.4-.1.9-.5,1-.4.1-.9-.1-1-.5s.1-.9.5-1c.4-.1.9.1,1,.5Z"/>
        </g>
        <path class="st0" d="M32,86.1c-1.4,2.7-3.7,4.3-4.9,3.6-1.3-.7-1.2-3.4.3-6.1,1.4-2.7,3.7-4.3,4.9-3.6,1.3.7,1.2,3.4-.3,6.1Z"/>
      </g>
    </g>
  </g>
</svg>