<?xml version="1.0" encoding="UTF-8"?>
<svg id="Capa_2" xmlns="http://www.w3.org/2000/svg" version="1.1" xmlns:xlink="http://www.w3.org/1999/xlink" viewBox="0 0 547.7 695.1">
  <!-- Generator: Adobe Illustrator 30.1.0, SVG Export Plug-In . SVG Version: 2.1.1 Build 136)  -->
  <defs>
    <style>
      .st0 {
        fill: #f5d5c2;
      }

      .st1 {
        fill: #d49f7d;
      }

      .st2 {
        stroke: #f7afc9;
        stroke-width: 2.6px;
      }

      .st2, .st3, .st4, .st5 {
        fill: none;
      }

      .st2, .st4, .st5 {
        stroke-miterlimit: 10;
      }

      .st6, .st7 {
        opacity: .6;
      }

      .st8 {
        fill: #f7afc9;
      }

      .st9 {
        fill: #fff5f7;
      }

      .st10 {
        fill: #fff;
      }

      .st11 {
        clip-path: url(#clippath-1);
      }

      .st7 {
        isolation: isolate;
      }

      .st7, .st12 {
        fill: #fff0f3;
      }

      .st4 {
        stroke: #5e4738;
        stroke-linecap: round;
        stroke-width: 6px;
      }

      .st13 {
        fill: #e395b1;
      }

      .st14 {
        opacity: .4;
      }

      .st15 {
        fill: #82624e;
      }

      .st16 {
        fill: #f79ebe;
      }

      .st17 {
        fill: #deb193;
      }

      .st18 {
        fill: #ffdbe3;
      }

      .st19 {
        fill: #e286ab;
      }

      .st20 {
        fill: #db86a4;
      }

      .st21 {
        fill: #f7c1d4;
      }

      .st22 {
        clip-path: url(#clippath-2);
      }

      .st23 {
        opacity: .7;
      }

      .st24 {
        fill: #ffccd6;
      }

      .st25 {
        fill: #5e4738;
      }

      .st5 {
        stroke: #000;
        stroke-width: 5px;
      }

      .st26 {
        clip-path: url(#clippath);
      }

      .st27 {
        fill: #f7cddc;
      }

      .st28 {
        fill: #cc8f66;
      }
    </style>
    <clipPath id="clippath">
      <path class="st3" d="M92.4,173.5c0,32.2,26.1,66,58.3,66s58.3-33.8,58.3-66-26.1-58.3-58.3-58.3-58.3,26.1-58.3,58.3Z"/>
    </clipPath>
    <clipPath id="clippath-1">
      <path class="st3" d="M472,632c-24.8,48.4-78.6,63.7-129.4,63.1-52-.7-107.5-12.9-133.2-63.1-37.4-72.9,30.2-188.6,50.5-220.1,23.7,12.3,51.3,19.4,80.9,19.4s57.2-7.1,80.8-19.4c20.2,31.6,87.9,147.2,50.5,220.1Z"/>
    </clipPath>
    <clipPath id="clippath-2">
      <path class="st3" d="M423.8,435.9c0,45.9-37.2,83.1-83.1,83.1s-83.1-37.2-83.1-83.1,34.9-80.8,78.8-83c.9,0,1.9,0,2.8,0-.4,0-.8,0-1.2,0-26.6,1.3-47.7,23.3-47.7,50.3s22.5,50.3,50.3,50.3,50.3-22.5,50.3-50.3-21.1-49-47.8-50.3c-.4,0-.8,0-1.1,0,.9,0,1.9,0,2.8,0,44,2.2,78.9,38.5,78.9,83h0Z"/>
    </clipPath>
  </defs>
  <g id="OBJECTS">
    <g>
      <g>
        <path class="st2" d="M150.7,206.3c-3.8,69-3.5,141.7,0,217.3"/>
        <path class="st2" d="M225.4,197.2s-65.8,117.8-78,180.1"/>
        <path class="st2" d="M79,220.5s65.1,102.5,68.3,156.8"/>
        <g>
          <g>
            <path class="st27" d="M172.2,131.7c0,30.6,24.8,62.6,55.3,62.6s55.3-32.1,55.3-62.6-24.8-55.3-55.3-55.3-55.3,24.8-55.3,55.3Z"/>
            <path class="st21" d="M178.9,105.3c-1.8,5.4-2.7,11.2-2.7,17.1,0,30.6,24.8,62.6,55.3,62.6s38.2-14.3,47.8-32.8c-7.9,22.9-28.1,42.1-51.8,42.1s-55.3-32.1-55.3-62.6,2.4-18.6,6.7-26.4h0Z"/>
            <g>
              <path class="st7" d="M252.5,108.4c6.3,6.3,13.8,8.9,16.8,5.9,3-3,.4-10.6-5.9-16.8s-13.8-8.9-16.8-5.9c-3,3-.4,10.6,5.9,16.8h0Z"/>
              <path class="st7" d="M269.9,119c0,1.3,1.1,2.4,2.4,2.4s2.4-1.1,2.4-2.4-1.1-2.4-2.4-2.4-2.4,1.1-2.4,2.4Z"/>
            </g>
          </g>
          <path class="st21" d="M230.8,191.7s1.9,9,0,8.9c-1.9-.1-3.4-5.2-5.5-3.4-2.1,1.8-3.5,4.3-4.7.7-1.2-3.5,5.8-7.4,5.8-7.4l4.4,1.2h0Z"/>
        </g>
        <g>
          <path class="st8" d="M52.1,43.9c0,1.7.1,3.4.3,5.1,4.4,46.5,60.6,79.4,80.6,89.7,1.3.7,2.5,1.3,3.5,1.8,1-.5,2.2-1.1,3.5-1.8,20-10.3,76.1-43.2,80.6-89.7.2-1.7.3-3.4.3-5.1,0-23.5-18.4-42.7-41.7-43.9-.8,0-1.5,0-2.3,0s-1.5,0-2.2,0c-17.2.9-31.8,11.6-38.2,26.7C130,11.7,115.5.9,98.3,0c-.8,0-1.5,0-2.2,0s-1.5,0-2.3,0c-23.2,1.2-41.7,20.4-41.7,43.9Z"/>
          <path class="st16" d="M57,23.7c-1,3.7-1.5,7.5-1.5,11.4,0,1.7.1,3.4.3,5.1,4.4,46.5,60.6,79.4,80.6,89.7,0,0,0,0,0,0,2.1,1.2,4.8,1.2,6.9,0,0,0,0,0,0,0,16.7-8.6,58.6-33,74.6-67.9-12.2,39.6-59.9,67.4-77.9,76.7-1.3.7-2.5,1.3-3.5,1.8-1-.5-2.2-1.1-3.5-1.8-20-10.3-76.1-43.2-80.6-89.7-.2-1.7-.3-3.4-.3-5.1,0-7.3,1.8-14.2,4.9-20.2h0Z"/>
          <g>
            <path class="st7" d="M187.8,26.5c6.8,6.8,14.9,9.6,18.1,6.4,3.3-3.3.4-11.4-6.4-18.1-6.8-6.8-14.9-9.6-18.1-6.4-3.3,3.3-.4,11.4,6.4,18.1Z"/>
            <path class="st7" d="M206.6,38c0,1.4,1.1,2.5,2.6,2.5s2.5-1.1,2.5-2.5-1.1-2.5-2.5-2.5-2.6,1.1-2.6,2.5Z"/>
          </g>
          <g class="st6">
            <path class="st12" d="M112.6,27.3c6.8,6.8,14.9,9.6,18.1,6.4,3.3-3.3.4-11.4-6.4-18.1-6.8-6.8-14.9-9.6-18.2-6.4-3.3,3.3-.4,11.4,6.4,18.1Z"/>
          </g>
          <path class="st16" d="M143.6,137s2.9,13.6,0,13.4-5.1-7.8-8.2-5.1c-3.1,2.7-5.3,6.5-7.1,1.1-1.8-5.3,8.7-11.1,8.7-11.1l6.7,1.8Z"/>
        </g>
        <g>
          <g>
            <path class="st13" d="M2.7,169.1c9.8,31.9,45.9,57.4,77.7,47.7,31.9-9.8,47.5-51.1,37.7-83-9.8-31.9-43.5-49.8-75.4-40C10.8,103.5-7.1,137.2,2.7,169.1Z"/>
            <path class="st20" d="M1.2,139.4c-.1,6.2.7,12.5,2.6,18.7,9.8,31.9,45.9,57.4,77.7,47.7,21.3-6.5,35.3-27.1,39.3-49.5-.9,26.4-15.8,52.9-40.5,60.5-31.9,9.8-68-15.8-77.7-47.7-3.1-10-3.4-20.1-1.5-29.7h0Z"/>
            <g>
              <path class="st7" d="M79,119.2c8.6,4.5,17.3,4.9,19.5.8s-3-11.1-11.5-15.7-17.3-4.9-19.5-.8,3,11.1,11.5,15.7Z"/>
              <path class="st7" d="M100.5,124.7c.4,1.4,1.9,2.1,3.2,1.7s2.1-1.9,1.7-3.2-1.9-2.1-3.2-1.7-2.1,1.9-1.7,3.2Z"/>
            </g>
          </g>
          <path class="st20" d="M83,213.1s4.9,8.8,2.8,9.2c-2.1.5-5.2-4.3-6.8-1.8-1.6,2.5-2.3,5.6-4.7,2.3s3.7-9.5,3.7-9.5l5-.2h0Z"/>
        </g>
        <g>
          <path class="st18" d="M92.4,173.5c0,32.2,26.1,66,58.3,66s58.3-33.8,58.3-66-26.1-58.3-58.3-58.3-58.3,26.1-58.3,58.3h0Z"/>
          <path class="st24" d="M99.4,145.6c-1.8,5.7-2.9,11.8-2.9,18.1,0,32.2,26.1,66,58.3,66s40.2-15.1,50.4-34.6c-8.3,24.1-29.6,44.4-54.6,44.4s-58.3-33.8-58.3-66,2.6-19.6,7.1-27.9Z"/>
          <g class="st23">
            <ellipse class="st10" cx="182.8" cy="143.2" rx="8.2" ry="17" transform="translate(-47.7 171.2) rotate(-45)"/>
            <path class="st10" d="M195.4,160.1c0,1.4,1.1,2.5,2.5,2.5s2.5-1.1,2.5-2.5-1.1-2.5-2.5-2.5-2.5,1.1-2.5,2.5Z"/>
          </g>
          <path class="st24" d="M154.1,236.8s2,9.5,0,9.3c-2-.2-3.6-5.4-5.8-3.6s-3.7,4.5-5,.8c-1.2-3.7,6.1-7.8,6.1-7.8l4.7,1.2h0Z"/>
          <g class="st14">
            <g class="st26">
              <g>
                <g>
                  <path class="st10" d="M212.3,123.5c0,1.2.9,2.1,2.1,2.1s2.1-.9,2.1-2.1-.9-2.1-2.1-2.1-2.1.9-2.1,2.1Z"/>
                  <path class="st10" d="M185.9,123.5c0,1.2.9,2.1,2.1,2.1s2.1-.9,2.1-2.1-.9-2.1-2.1-2.1-2.1.9-2.1,2.1Z"/>
                  <path class="st10" d="M159.6,123.5c0,1.2.9,2.1,2.1,2.1s2.1-.9,2.1-2.1-.9-2.1-2.1-2.1-2.1.9-2.1,2.1Z"/>
                  <path class="st10" d="M133.2,123.5c0,1.2.9,2.1,2.1,2.1s2.1-.9,2.1-2.1-.9-2.1-2.1-2.1-2.1.9-2.1,2.1Z"/>
                  <path class="st10" d="M106.8,123.5c0,1.2.9,2.1,2.1,2.1s2.1-.9,2.1-2.1-.9-2.1-2.1-2.1-2.1.9-2.1,2.1Z"/>
                  <path class="st10" d="M80.4,123.5c0,1.2.9,2.1,2.1,2.1s2.1-.9,2.1-2.1-.9-2.1-2.1-2.1-2.1.9-2.1,2.1Z"/>
                </g>
                <g>
                  <path class="st10" d="M201.2,136.9c0,1.1.9,2.1,2.1,2.1s2.1-.9,2.1-2.1-.9-2.1-2.1-2.1-2.1.9-2.1,2.1Z"/>
                  <path class="st10" d="M174.8,136.9c0,1.1.9,2.1,2.1,2.1s2.1-.9,2.1-2.1-.9-2.1-2.1-2.1-2.1.9-2.1,2.1Z"/>
                  <path class="st10" d="M148.4,136.9c0,1.1.9,2.1,2.1,2.1s2.1-.9,2.1-2.1-.9-2.1-2.1-2.1-2.1.9-2.1,2.1Z"/>
                  <path class="st10" d="M122,136.9c0,1.1.9,2.1,2.1,2.1s2.1-.9,2.1-2.1-.9-2.1-2.1-2.1-2.1.9-2.1,2.1Z"/>
                  <path class="st10" d="M95.7,136.9c0,1.1.9,2.1,2.1,2.1s2.1-.9,2.1-2.1-.9-2.1-2.1-2.1-2.1.9-2.1,2.1Z"/>
                  <path class="st10" d="M69.3,136.9c0,1.1.9,2.1,2.1,2.1s2.1-.9,2.1-2.1-.9-2.1-2.1-2.1-2.1.9-2.1,2.1Z"/>
                </g>
                <g>
                  <path class="st10" d="M214.4,148.2c0,1.1.9,2.1,2.1,2.1s2.1-.9,2.1-2.1-.9-2.1-2.1-2.1-2.1.9-2.1,2.1Z"/>
                  <path class="st10" d="M188,148.2c0,1.1.9,2.1,2.1,2.1s2.1-.9,2.1-2.1-.9-2.1-2.1-2.1-2.1.9-2.1,2.1Z"/>
                  <path class="st10" d="M161.6,148.2c0,1.1.9,2.1,2.1,2.1s2.1-.9,2.1-2.1-.9-2.1-2.1-2.1-2.1.9-2.1,2.1Z"/>
                  <path class="st10" d="M135.2,148.2c0,1.1.9,2.1,2.1,2.1s2.1-.9,2.1-2.1-.9-2.1-2.1-2.1-2.1.9-2.1,2.1Z"/>
                  <path class="st10" d="M108.8,148.2c0,1.1.9,2.1,2.1,2.1s2.1-.9,2.1-2.1-.9-2.1-2.1-2.1-2.1.9-2.1,2.1Z"/>
                  <path class="st10" d="M82.5,148.2c0,1.1.9,2.1,2.1,2.1s2.1-.9,2.1-2.1-.9-2.1-2.1-2.1-2.1.9-2.1,2.1Z"/>
                </g>
                <g>
                  <path class="st10" d="M203.3,161.7c0,1.1.9,2.1,2.1,2.1s2.1-.9,2.1-2.1-.9-2.1-2.1-2.1-2.1.9-2.1,2.1Z"/>
                  <path class="st10" d="M176.9,161.7c0,1.1.9,2.1,2.1,2.1s2.1-.9,2.1-2.1-.9-2.1-2.1-2.1-2.1.9-2.1,2.1Z"/>
                  <path class="st10" d="M150.5,161.7c0,1.1.9,2.1,2.1,2.1s2.1-.9,2.1-2.1-.9-2.1-2.1-2.1-2.1.9-2.1,2.1Z"/>
                  <path class="st10" d="M124.1,161.7c0,1.1.9,2.1,2.1,2.1s2.1-.9,2.1-2.1-.9-2.1-2.1-2.1-2.1.9-2.1,2.1Z"/>
                  <path class="st10" d="M97.7,161.7c0,1.1.9,2.1,2.1,2.1s2.1-.9,2.1-2.1-.9-2.1-2.1-2.1-2.1.9-2.1,2.1Z"/>
                  <path class="st10" d="M71.3,161.7c0,1.1.9,2.1,2.1,2.1s2.1-.9,2.1-2.1-.9-2.1-2.1-2.1-2.1.9-2.1,2.1Z"/>
                </g>
                <g>
                  <path class="st10" d="M216.5,173c0,1.1.9,2.1,2.1,2.1s2.1-.9,2.1-2.1-.9-2.1-2.1-2.1-2.1.9-2.1,2.1Z"/>
                  <path class="st10" d="M190.1,173c0,1.1.9,2.1,2.1,2.1s2.1-.9,2.1-2.1-.9-2.1-2.1-2.1-2.1.9-2.1,2.1Z"/>
                  <path class="st10" d="M163.7,173c0,1.1.9,2.1,2.1,2.1s2.1-.9,2.1-2.1-.9-2.1-2.1-2.1-2.1.9-2.1,2.1Z"/>
                  <path class="st10" d="M137.3,173c0,1.1.9,2.1,2.1,2.1s2.1-.9,2.1-2.1-.9-2.1-2.1-2.1-2.1.9-2.1,2.1Z"/>
                  <path class="st10" d="M110.9,173c0,1.1.9,2.1,2.1,2.1s2.1-.9,2.1-2.1-.9-2.1-2.1-2.1-2.1.9-2.1,2.1Z"/>
                  <path class="st10" d="M84.5,173c0,1.1.9,2.1,2.1,2.1s2.1-.9,2.1-2.1-.9-2.1-2.1-2.1-2.1.9-2.1,2.1Z"/>
                </g>
                <g>
                  <path class="st10" d="M205.4,186.4c0,1.1.9,2.1,2.1,2.1s2.1-.9,2.1-2.1-.9-2.1-2.1-2.1-2.1.9-2.1,2.1Z"/>
                  <circle class="st10" cx="181.1" cy="186.4" r="2.1"/>
                  <path class="st10" d="M152.6,186.4c0,1.1.9,2.1,2.1,2.1s2.1-.9,2.1-2.1-.9-2.1-2.1-2.1-2.1.9-2.1,2.1Z"/>
                  <path class="st10" d="M126.2,186.4c0,1.1.9,2.1,2.1,2.1s2.1-.9,2.1-2.1-.9-2.1-2.1-2.1-2.1.9-2.1,2.1Z"/>
                  <path class="st10" d="M99.8,186.4c0,1.1.9,2.1,2.1,2.1s2.1-.9,2.1-2.1-.9-2.1-2.1-2.1-2.1.9-2.1,2.1Z"/>
                  <circle class="st10" cx="75.5" cy="186.4" r="2.1"/>
                </g>
                <g>
                  <path class="st10" d="M218.6,197.7c0,1.1.9,2.1,2.1,2.1s2.1-.9,2.1-2.1-.9-2.1-2.1-2.1-2.1.9-2.1,2.1Z"/>
                  <circle class="st10" cx="194.3" cy="197.7" r="2.1"/>
                  <path class="st10" d="M165.8,197.7c0,1.1.9,2.1,2.1,2.1s2.1-.9,2.1-2.1-.9-2.1-2.1-2.1-2.1.9-2.1,2.1Z"/>
                  <path class="st10" d="M139.4,197.7c0,1.1.9,2.1,2.1,2.1s2.1-.9,2.1-2.1-.9-2.1-2.1-2.1-2.1.9-2.1,2.1Z"/>
                  <path class="st10" d="M113,197.7c0,1.1.9,2.1,2.1,2.1s2.1-.9,2.1-2.1-.9-2.1-2.1-2.1-2.1.9-2.1,2.1Z"/>
                  <path class="st10" d="M86.6,197.7c0,1.1.9,2.1,2.1,2.1s2.1-.9,2.1-2.1-.9-2.1-2.1-2.1-2.1.9-2.1,2.1Z"/>
                </g>
                <g>
                  <path class="st10" d="M207.5,211.1c0,1.1.9,2.1,2.1,2.1s2.1-.9,2.1-2.1-.9-2.1-2.1-2.1-2.1.9-2.1,2.1Z"/>
                  <path class="st10" d="M181.1,211.1c0,1.1.9,2.1,2.1,2.1s2.1-.9,2.1-2.1-.9-2.1-2.1-2.1-2.1.9-2.1,2.1Z"/>
                  <path class="st10" d="M154.7,211.1c0,1.1.9,2.1,2.1,2.1s2.1-.9,2.1-2.1-.9-2.1-2.1-2.1-2.1.9-2.1,2.1Z"/>
                  <path class="st10" d="M128.3,211.1c0,1.1.9,2.1,2.1,2.1s2.1-.9,2.1-2.1-.9-2.1-2.1-2.1-2.1.9-2.1,2.1Z"/>
                  <path class="st10" d="M101.9,211.1c0,1.1.9,2.1,2.1,2.1s2.1-.9,2.1-2.1-.9-2.1-2.1-2.1-2.1.9-2.1,2.1Z"/>
                  <path class="st10" d="M75.5,211.1c0,1.1.9,2.1,2.1,2.1s2.1-.9,2.1-2.1-.9-2.1-2.1-2.1-2.1.9-2.1,2.1Z"/>
                </g>
                <g>
                  <path class="st10" d="M220.7,222.5c0,1.1.9,2.1,2.1,2.1s2.1-.9,2.1-2.1-.9-2.1-2.1-2.1-2.1.9-2.1,2.1Z"/>
                  <path class="st10" d="M194.3,222.5c0,1.1.9,2.1,2.1,2.1s2.1-.9,2.1-2.1-.9-2.1-2.1-2.1-2.1.9-2.1,2.1Z"/>
                  <path class="st10" d="M167.9,222.5c0,1.1.9,2.1,2.1,2.1s2.1-.9,2.1-2.1-.9-2.1-2.1-2.1-2.1.9-2.1,2.1Z"/>
                  <path class="st10" d="M141.5,222.5c0,1.1.9,2.1,2.1,2.1s2.1-.9,2.1-2.1-.9-2.1-2.1-2.1-2.1.9-2.1,2.1Z"/>
                  <path class="st10" d="M115.1,222.5c0,1.1.9,2.1,2.1,2.1s2.1-.9,2.1-2.1-.9-2.1-2.1-2.1-2.1.9-2.1,2.1Z"/>
                  <path class="st10" d="M88.7,222.5c0,1.1.9,2.1,2.1,2.1s2.1-.9,2.1-2.1-.9-2.1-2.1-2.1-2.1.9-2.1,2.1Z"/>
                </g>
                <g>
                  <path class="st10" d="M209.6,235.9c0,1.1.9,2.1,2.1,2.1s2.1-.9,2.1-2.1-.9-2.1-2.1-2.1-2.1.9-2.1,2.1Z"/>
                  <path class="st10" d="M183.2,235.9c0,1.1.9,2.1,2.1,2.1s2.1-.9,2.1-2.1-.9-2.1-2.1-2.1-2.1.9-2.1,2.1Z"/>
                  <path class="st10" d="M156.8,235.9c0,1.1.9,2.1,2.1,2.1s2.1-.9,2.1-2.1-.9-2.1-2.1-2.1-2.1.9-2.1,2.1Z"/>
                  <path class="st10" d="M130.4,235.9c0,1.1.9,2.1,2.1,2.1s2.1-.9,2.1-2.1-.9-2.1-2.1-2.1-2.1.9-2.1,2.1Z"/>
                  <path class="st10" d="M104,235.9c0,1.1.9,2.1,2.1,2.1s2.1-.9,2.1-2.1-.9-2.1-2.1-2.1-2.1.9-2.1,2.1Z"/>
                  <path class="st10" d="M77.6,235.9c0,1.1.9,2.1,2.1,2.1s2.1-.9,2.1-2.1-.9-2.1-2.1-2.1-2.1.9-2.1,2.1Z"/>
                </g>
              </g>
            </g>
          </g>
        </g>
      </g>
      <g>
        <g>
          <path class="st28" d="M422.4,384.3s66-8.5,104.7,64.7c38.7,73.2,14.5,139.1-34.8,134.4-49.3-4.7-.1-51.2-43.4-107.8-43.3-56.6-59.4-32.5-63.8-54.3-4.4-21.7,37.3-37,37.3-37h0Z"/>
          <path class="st1" d="M422.4,384.3s66-8.5,104.7,64.7c38.7,73.2,14.5,139.1-34.8,134.4-49.3-4.7-.1-51.2-43.4-107.8-43.3-56.6-59.4-32.5-63.8-54.3-4.4-21.7,37.3-37,37.3-37h0Z"/>
          <g>
            <path class="st1" d="M262.6,413.3s-96.8-34.2-123.1-28.1c-26.3,6.2-29.4,102.1,75.8,129.9l47.4-101.9h0Z"/>
            <path class="st17" d="M151.1,449.9s34.4,15,54.1-14.4c19.8-29.3,9.3-60.3-27.1-75.8-36.4-15.5-59.6,34-57.2,58.8,2.3,24.8,30.2,31.4,30.2,31.4h0Z"/>
          </g>
          <path class="st17" d="M499.1,292.8c0,50.6-31.1,94.9-77.5,119.1-23.7,12.3-51.3,19.4-80.8,19.4s-57.2-7.1-80.9-19.4c-46.4-24.2-77.5-68.5-77.5-119.1s1.5-22.2,4.5-32.7c.9-3.4,2-6.7,3.2-10,7.3-19.7,19.5-37.5,35.3-52.1,4.3-4,8.8-7.8,13.6-11.3,27.5-20.2,63-32.4,101.8-32.4s74.2,12.2,101.8,32.5c4.8,3.5,9.3,7.2,13.6,11.2,15.8,14.6,28,32.4,35.3,52.1,1.2,3.3,2.3,6.6,3.2,10,3,10.5,4.5,21.5,4.5,32.7h0Z"/>
          <path class="st1" d="M421.6,398.4c-23.7,12.3-51.3,19.4-80.8,19.4s-57.2-7.1-80.9-19.4c-44.4-23.2-74.7-64.8-77.2-112.7-.1,2.4-.2,4.8-.2,7.2,0,50.6,31.1,94.9,77.5,119.1,23.7,12.3,51.3,19.4,80.9,19.4s57.2-7.1,80.8-19.4c46.4-24.2,77.5-68.5,77.5-119.1s-.1-4.8-.2-7.2c-2.5,48-32.8,89.6-77.2,112.7h0Z"/>
          <g>
            <path class="st17" d="M238.9,186.7c-4.8,3.5-9.3,7.3-13.6,11.3-.2-.3-.5-.6-.9-1-12.8-12.8-33.4-12.9-46-.3-12.6,12.6-12.4,33.3.3,46,3.3,3.3,7.1,5.8,11.2,7.4-1.2,3.3-2.3,6.6-3.2,10-12.2.4-24-3.6-32.7-12.3-18.2-18.2-16.1-49.8,4.7-70.7s52.5-22.9,70.7-4.7c4.1,4.1,7.3,9,9.3,14.3h0Z"/>
            <path class="st0" d="M225.4,198c-15.8,14.6-28,32.4-35.3,52.1-4.1-1.6-7.9-4.1-11.2-7.4-12.8-12.8-12.9-33.4-.3-46,12.7-12.6,33.3-12.5,46,.3.3.3.6.6.9,1h0Z"/>
          </g>
          <g>
            <path class="st17" d="M527.3,247.8c-8.7,8.7-20.5,12.8-32.7,12.3-.9-3.4-2-6.7-3.2-10,4.1-1.6,8-4.1,11.2-7.4,12.8-12.8,12.9-33.4.3-46-12.6-12.6-33.3-12.5-46,.3-.3.3-.6.6-.9,1-4.3-4-8.8-7.8-13.6-11.2,2-5.3,5.2-10.2,9.4-14.4,18.2-18.2,49.8-16.1,70.7,4.7s22.9,52.4,4.7,70.7h0Z"/>
            <path class="st0" d="M502.6,242.8c-3.3,3.3-7.1,5.8-11.2,7.4-7.3-19.7-19.5-37.5-35.3-52.1.2-.3.5-.6.9-1,12.8-12.8,33.4-12.9,46-.3,12.6,12.6,12.5,33.3-.3,46h0Z"/>
          </g>
          <ellipse class="st0" cx="344.4" cy="356.8" rx="69" ry="60.3"/>
          <g>
            <path class="st25" d="M345,324.4c-2.7,1.2-5.8,1.2-8.5,0-32.4-14.1-31.5-30.2-20.7-35.4,5-2.4,10.5-1.8,15-.2,6.5,2.1,13.4,2.1,19.9,0,4.5-1.5,10-2.2,15,.2,10.7,5.2,11.7,21.3-20.7,35.4h0Z"/>
            <path class="st15" d="M366.4,294.4c0,2.1-4.3,3.7-9.6,3.7s-9.6-1.7-9.6-3.7,4.3-3.7,9.6-3.7,9.6,1.7,9.6,3.7Z"/>
          </g>
          <g>
            <g>
              <path class="st25" d="M412.5,290.9c0,6.4-5.2,11.6-11.6,11.6s-11.6-5.2-11.6-11.6,5.2-11.6,11.6-11.6,11.6,5.2,11.6,11.6Z"/>
              <path class="st9" d="M398.6,286.3c0,1.6-1.3,2.9-2.9,2.9s-2.9-1.3-2.9-2.9,1.3-2.9,2.9-2.9,2.9,1.3,2.9,2.9Z"/>
            </g>
            <g>
              <path class="st25" d="M292.2,290.9c0,6.4-5.2,11.6-11.6,11.6s-11.6-5.2-11.6-11.6,5.2-11.6,11.6-11.6,11.6,5.2,11.6,11.6Z"/>
              <path class="st9" d="M278.3,286.3c0,1.6-1.3,2.9-2.9,2.9s-2.9-1.3-2.9-2.9,1.3-2.9,2.9-2.9,2.9,1.3,2.9,2.9Z"/>
            </g>
          </g>
          <path class="st1" d="M472,632c-24.8,48.4-78.6,63.7-129.4,63.1-52-.7-107.5-12.9-133.2-63.1-37.4-72.9,30.2-188.6,50.5-220.1,23.7,12.3,51.3,19.4,80.9,19.4s57.2-7.1,80.8-19.4c20.2,31.6,87.9,147.2,50.5,220.1Z"/>
          <path class="st28" d="M472,614.6c-24.8,48.4-78.6,63.7-129.4,63.1-52-.7-107.5-12.9-133.2-63.1-6.6-12.9-9.9-27.2-10.8-42.1-1.2,21.2,1.6,41.7,10.8,59.6,25.7,50.2,81.2,62.3,133.2,63.1,50.9.7,104.7-14.7,129.4-63.1,9.2-17.9,12-38.3,10.8-59.5-.9,14.9-4.2,29.1-10.8,42h0Z"/>
          <g>
            <ellipse class="st19" cx="432.1" cy="317.2" rx="20.8" ry="11.1"/>
            <ellipse class="st19" cx="249.3" cy="317.2" rx="20.8" ry="11.1"/>
          </g>
          <g>
            <path class="st17" d="M286.7,586.4c6.8,27.8-1.8,55.7-20.2,74.2-9.4,9.5-21.4,16.5-35.1,19.9-13.8,3.4-27.7,2.7-40.4-1.4-24.9-8-45.4-28.7-52.2-56.5-1.5-6.2-2.3-12.4-2.3-18.5,0-2,0-3.9.1-5.8.7-11.6,4.1-22.8,9.5-32.6,1.4-2.7,3.1-5.3,4.8-7.8,10.1-14.2,25.1-25,43.2-29.5,18.1-4.4,36.3-1.8,51.9,6.2,2.7,1.3,5.3,2.9,7.9,4.6,9.4,6.2,17.5,14.6,23.5,24.5,1,1.7,2,3.3,2.8,5.1,2.8,5.4,5,11.3,6.5,17.4h0Z"/>
            <g>
              <path class="st0" d="M257.8,618.2c3.2,13.2-2.2,26.8-13,36.2-5.5,4.8-12.4,8.4-20.3,10.3-7.9,1.9-15.7,1.9-22.8.2-13.9-3.3-25-12.8-28.3-26.1-.7-2.9-1-5.9-.9-8.8,0-1,.1-1.9.2-2.8.7-5.6,2.8-11.1,6.1-15.9.9-1.3,1.8-2.6,2.9-3.8,6-7.1,14.7-12.6,25-15.1,10.3-2.5,20.6-1.7,29.2,1.8,1.5.6,2.9,1.3,4.3,2,5.1,2.8,9.5,6.6,12.7,11.3.5.8,1,1.6,1.5,2.4,1.5,2.5,2.6,5.3,3.3,8.2h0Z"/>
              <path class="st0" d="M178.1,581.3c3.8,4,5.1,9.5,3.8,14.4-.7,2.5-2,4.8-4,6.7-2,1.9-4.4,3.1-6.9,3.7-4.9,1.1-10.4-.4-14.2-4.4-.9-.9-1.6-1.8-2.2-2.9-.2-.3-.4-.7-.5-1-1-2-1.5-4.2-1.6-6.4,0-.6,0-1.2,0-1.8.3-3.4,1.8-6.6,4.4-9.1s5.9-3.8,9.3-4c.6,0,1.2,0,1.8,0,2.2.1,4.3.8,6.3,1.8.3.2.6.4,1,.6,1,.6,1.9,1.4,2.8,2.3h0Z"/>
              <path class="st0" d="M221.8,564.6c.6,5.5-1.7,10.7-5.7,13.8-2,1.6-4.5,2.7-7.2,3-2.7.3-5.4-.2-7.7-1.3-4.6-2.1-8-6.6-8.6-12.1-.1-1.2-.1-2.4,0-3.6,0-.4.1-.8.2-1.1.4-2.2,1.3-4.3,2.6-6,.3-.5.7-.9,1.1-1.4,2.3-2.5,5.4-4.2,9-4.6,3.6-.4,7,.5,9.8,2.5.5.3.9.7,1.4,1.1,1.6,1.4,3,3.2,3.9,5.3.1.3.3.7.4,1,.4,1.1.7,2.3.8,3.5h0Z"/>
              <path class="st0" d="M262,581.7c-1.6,5.3-5.7,9.1-10.6,10.4-2.5.7-5.2.7-7.8-.1-2.6-.8-4.9-2.3-6.6-4.2-3.4-3.8-4.8-9.2-3.2-14.6.4-1.2.8-2.3,1.4-3.3.2-.3.4-.7.6-1,1.3-1.9,2.9-3.4,4.8-4.5.5-.3,1-.6,1.6-.8,3.1-1.4,6.6-1.7,10.1-.7,3.5,1,6.3,3.3,8.1,6.1.3.5.6,1,.9,1.5,1,2,1.5,4.2,1.5,6.4,0,.4,0,.8,0,1.1,0,1.2-.3,2.4-.6,3.5h0Z"/>
            </g>
          </g>
          <path class="st28" d="M259.9,411.9s-48.8,83-49.8,103.3c0,0,10.2-49.9,34.8-107.8l14.9,4.6Z"/>
          <path class="st28" d="M421.6,411.9s42.4,65,53.2,114.6c0,0-2,2.7,15.6,5.1,17.5,2.5-64.2-122-68.7-119.7h0Z"/>
          <g>
            <path class="st17" d="M543.3,619.6c-5.7,28-25.3,49.6-49.9,58.6-12.5,4.6-26.4,5.9-40.3,3-13.9-2.8-26.2-9.4-36-18.5-19.1-17.8-28.8-45.3-23.2-73.3,1.3-6.2,3.2-12.2,5.8-17.7.8-1.8,1.7-3.5,2.6-5.2,5.6-10.2,13.4-18.9,22.5-25.5,2.5-1.8,5-3.5,7.7-5,15.2-8.6,33.3-11.9,51.6-8.2,18.3,3.7,33.6,13.8,44.3,27.7,1.9,2.4,3.6,4.9,5.1,7.5,5.8,9.6,9.6,20.6,10.8,32.2.2,1.9.3,3.9.4,5.8.2,6.1-.3,12.3-1.5,18.5h0Z"/>
            <g>
              <path class="st0" d="M503.6,636.1c-2.7,13.3-13.4,23.3-27.2,27.2-7,2-14.8,2.3-22.8.7-8-1.6-15-5-20.7-9.5-11.2-8.9-17.2-22.3-14.5-35.6.6-3,1.6-5.8,3-8.4.4-.8.9-1.7,1.4-2.5,3-4.8,7.2-8.8,12.3-11.8,1.4-.8,2.8-1.6,4.2-2.2,8.5-3.8,18.7-5.1,29.1-3,10.4,2.1,19.3,7.2,25.6,14.1,1.1,1.2,2.1,2.4,3,3.7,3.5,4.7,5.8,10.1,6.7,15.7.1.9.3,1.9.3,2.8.2,2.9,0,5.9-.5,8.9h0Z"/>
              <path class="st0" d="M447.2,568.7c1.8,5.3.5,10.8-2.7,14.7-1.7,2-3.9,3.5-6.5,4.4-2.6.9-5.3,1-7.8.4-4.9-1.1-9.2-4.8-11-10.1-.4-1.2-.6-2.3-.7-3.5,0-.4,0-.8,0-1.1,0-2.3.4-4.5,1.3-6.5.2-.5.5-1.1.8-1.6,1.7-2.9,4.4-5.2,7.9-6.4,3.4-1.2,7-.9,10.1.4.5.2,1.1.5,1.6.8,1.9,1,3.6,2.5,4.9,4.4.2.3.4.6.6.9.6,1,1.1,2.1,1.5,3.3h0Z"/>
              <path class="st0" d="M493.8,572.2c-1.8,5.2-6.1,8.9-11,10-2.5.6-5.2.5-7.8-.4-2.6-.9-4.8-2.5-6.5-4.4-3.2-3.9-4.4-9.4-2.7-14.7.4-1.2.9-2.3,1.5-3.3.2-.3.4-.6.6-.9,1.3-1.8,3-3.3,5-4.3.5-.3,1-.5,1.6-.8,3.1-1.3,6.7-1.5,10.1-.3,3.4,1.2,6.1,3.5,7.8,6.4.3.5.6,1,.8,1.6.9,2,1.3,4.2,1.3,6.5,0,.4,0,.8,0,1.1-.1,1.2-.4,2.4-.8,3.5h0Z"/>
              <path class="st0" d="M522.9,604.8c-3.7,4.1-9.1,5.8-14.1,4.9-2.5-.5-5-1.6-7-3.4s-3.5-4.1-4.2-6.6c-1.5-4.8-.4-10.4,3.3-14.5.8-.9,1.7-1.7,2.7-2.4.3-.2.6-.4,1-.6,1.9-1.2,4.1-1.8,6.2-2.1.6,0,1.2,0,1.8,0,3.4,0,6.7,1.3,9.4,3.7,2.7,2.4,4.3,5.6,4.7,9,0,.6.1,1.2.1,1.8,0,2.2-.4,4.4-1.3,6.5-.2.3-.3.7-.5,1-.6,1-1.2,2-2.1,3h0Z"/>
            </g>
          </g>
          <g class="st11">
            <g>
              <path class="st8" d="M399.6,372.1h-24c7.4,8.2,11.8,19.1,11.8,31,0,25.7-20.9,46.7-46.7,46.7s-46.7-20.9-46.7-46.7,4.5-22.8,11.8-31h-24c-17.2,15.9-27.9,38.6-27.9,63.8,0,47.9,38.9,86.8,86.8,86.8s86.8-38.9,86.8-86.8-10.7-47.9-28-63.8h0Z"/>
              <path class="st27" d="M393.9,372.1h-13.6c6.7,8.5,10.8,19.3,10.8,31,0,27.8-22.5,50.3-50.3,50.3s-50.3-22.5-50.3-50.3,4-22.5,10.8-31h-13.6c-18.3,15.2-29.9,38.1-29.9,63.8,0,45.9,37.2,83.1,83.1,83.1s83.1-37.2,83.1-83.1-11.7-48.6-30-63.8h0Z"/>
              <g class="st22">
                <g>
                  <g>
                    <path class="st10" d="M264,375.4c0,1.6-1.3,3-3,3s-3-1.3-3-3,1.3-3,3-3,3,1.3,3,3Z"/>
                    <path class="st10" d="M301.4,375.4c0,1.6-1.3,3-3,3s-3-1.3-3-3,1.3-3,3-3,3,1.3,3,3Z"/>
                    <path class="st10" d="M338.7,375.4c0,1.6-1.3,3-3,3s-3-1.3-3-3,1.3-3,3-3,3,1.3,3,3Z"/>
                    <path class="st10" d="M376.1,375.4c0,1.6-1.3,3-3,3s-3-1.3-3-3,1.3-3,3-3,3,1.3,3,3Z"/>
                    <path class="st10" d="M413.5,375.4c0,1.6-1.3,3-3,3s-3-1.3-3-3,1.3-3,3-3,3,1.3,3,3Z"/>
                    <path class="st10" d="M450.9,375.4c0,1.6-1.3,3-3,3s-3-1.3-3-3,1.3-3,3-3,3,1.3,3,3Z"/>
                  </g>
                  <g>
                    <path class="st10" d="M245.3,391.4c0,1.6-1.3,3-2.9,3s-2.9-1.3-2.9-3,1.3-3,2.9-3,2.9,1.3,2.9,3Z"/>
                    <circle class="st10" cx="279.7" cy="391.4" r="3"/>
                    <circle class="st10" cx="317.1" cy="391.4" r="3"/>
                    <path class="st10" d="M357.4,391.4c0,1.6-1.3,3-3,3s-3-1.3-3-3,1.3-3,3-3,3,1.3,3,3Z"/>
                    <path class="st10" d="M394.8,391.4c0,1.6-1.3,3-3,3s-3-1.3-3-3,1.3-3,3-3,3,1.3,3,3Z"/>
                    <path class="st10" d="M432.2,391.4c0,1.6-1.3,3-3,3s-3-1.3-3-3,1.3-3,3-3,3,1.3,3,3Z"/>
                  </g>
                  <g>
                    <path class="st10" d="M261,410.4c0,1.6-1.3,3-3,3s-3-1.3-3-3,1.3-3,3-3,3,1.3,3,3Z"/>
                    <path class="st10" d="M298.4,410.4c0,1.6-1.3,3-3,3s-3-1.3-3-3,1.3-3,3-3,3,1.3,3,3Z"/>
                    <path class="st10" d="M335.8,410.4c0,1.6-1.3,3-3,3s-3-1.3-3-3,1.3-3,3-3,3,1.3,3,3Z"/>
                    <path class="st10" d="M373.2,410.4c0,1.6-1.3,3-3,3s-3-1.3-3-3,1.3-3,3-3,3,1.3,3,3Z"/>
                    <path class="st10" d="M410.6,410.4c0,1.6-1.3,3-3,3s-3-1.3-3-3,1.3-3,3-3,3,1.3,3,3Z"/>
                    <path class="st10" d="M448,410.4c0,1.6-1.3,3-3,3s-3-1.3-3-3,1.3-3,3-3,3,1.3,3,3Z"/>
                  </g>
                  <g>
                    <path class="st10" d="M242.3,426.4c0,1.6-1.3,3-2.9,3s-2.9-1.3-2.9-3,1.3-3,2.9-3,2.9,1.3,2.9,3Z"/>
                    <path class="st10" d="M279.7,426.4c0,1.6-1.3,3-3,3s-3-1.3-3-3,1.3-3,3-3,3,1.3,3,3Z"/>
                    <path class="st10" d="M317.1,426.4c0,1.6-1.3,3-3,3s-3-1.3-3-3,1.3-3,3-3,3,1.3,3,3Z"/>
                    <path class="st10" d="M354.5,426.4c0,1.6-1.3,3-3,3s-3-1.3-3-3,1.3-3,3-3,3,1.3,3,3Z"/>
                    <path class="st10" d="M391.9,426.4c0,1.6-1.3,3-3,3s-3-1.3-3-3,1.3-3,3-3,3,1.3,3,3Z"/>
                    <path class="st10" d="M429.3,426.4c0,1.6-1.3,3-3,3s-3-1.3-3-3,1.3-3,3-3,3,1.3,3,3Z"/>
                  </g>
                  <g>
                    <path class="st10" d="M258.1,445.4c0,1.6-1.3,3-3,3s-2.9-1.3-2.9-3,1.3-3,2.9-3,3,1.3,3,3Z"/>
                    <path class="st10" d="M295.5,445.4c0,1.6-1.3,3-3,3s-3-1.3-3-3,1.3-3,3-3,3,1.3,3,3Z"/>
                    <path class="st10" d="M332.8,445.4c0,1.6-1.3,3-3,3s-3-1.3-3-3,1.3-3,3-3,3,1.3,3,3Z"/>
                    <path class="st10" d="M370.2,445.4c0,1.6-1.3,3-3,3s-3-1.3-3-3,1.3-3,3-3,3,1.3,3,3Z"/>
                    <path class="st10" d="M407.6,445.4c0,1.6-1.3,3-3,3s-3-1.3-3-3,1.3-3,3-3,3,1.3,3,3Z"/>
                    <path class="st10" d="M445,445.4c0,1.6-1.3,3-3,3s-3-1.3-3-3,1.3-3,3-3,3,1.3,3,3Z"/>
                  </g>
                  <g>
                    <path class="st10" d="M239.4,461.5c0,1.6-1.3,3-2.9,3s-2.9-1.3-2.9-3,1.3-3,2.9-3,2.9,1.3,2.9,3Z"/>
                    <path class="st10" d="M276.8,461.5c0,1.6-1.3,3-3,3s-3-1.3-3-3,1.3-3,3-3,3,1.3,3,3Z"/>
                    <path class="st10" d="M314.2,461.5c0,1.6-1.3,3-3,3s-3-1.3-3-3,1.3-3,3-3,3,1.3,3,3Z"/>
                    <path class="st10" d="M351.5,461.5c0,1.6-1.3,3-3,3s-3-1.3-3-3,1.3-3,3-3,3,1.3,3,3Z"/>
                    <circle class="st10" cx="386" cy="461.5" r="3"/>
                    <path class="st10" d="M426.3,461.5c0,1.6-1.3,3-3,3s-3-1.3-3-3,1.3-3,3-3,3,1.3,3,3Z"/>
                  </g>
                  <g>
                    <path class="st10" d="M255.1,480.5c0,1.6-1.3,3-2.9,3s-2.9-1.3-2.9-3,1.3-3,2.9-3,2.9,1.3,2.9,3Z"/>
                    <path class="st10" d="M292.5,480.5c0,1.6-1.3,3-3,3s-3-1.3-3-3,1.3-3,3-3,3,1.3,3,3Z"/>
                    <path class="st10" d="M329.9,480.5c0,1.6-1.3,3-3,3s-3-1.3-3-3,1.3-3,3-3,3,1.3,3,3Z"/>
                    <path class="st10" d="M367.3,480.5c0,1.6-1.3,3-3,3s-3-1.3-3-3,1.3-3,3-3,3,1.3,3,3Z"/>
                    <path class="st10" d="M404.7,480.5c0,1.6-1.3,3-3,3s-3-1.3-3-3,1.3-3,3-3,3,1.3,3,3Z"/>
                    <path class="st10" d="M442.1,480.5c0,1.6-1.3,3-3,3s-3-1.3-3-3,1.3-3,3-3,3,1.3,3,3Z"/>
                  </g>
                  <g>
                    <path class="st10" d="M236.4,496.5c0,1.6-1.3,3-2.9,3s-2.9-1.3-2.9-3,1.3-3,2.9-3,2.9,1.3,2.9,3Z"/>
                    <path class="st10" d="M273.8,496.5c0,1.6-1.3,3-3,3s-3-1.3-3-3,1.3-3,3-3,3,1.3,3,3Z"/>
                    <path class="st10" d="M311.2,496.5c0,1.6-1.3,3-3,3s-3-1.3-3-3,1.3-3,3-3,3,1.3,3,3Z"/>
                    <path class="st10" d="M348.6,496.5c0,1.6-1.3,3-3,3s-3-1.3-3-3,1.3-3,3-3,3,1.3,3,3Z"/>
                    <circle class="st10" cx="383" cy="496.5" r="3"/>
                    <path class="st10" d="M423.4,496.5c0,1.6-1.3,3-3,3s-3-1.3-3-3,1.3-3,3-3,3,1.3,3,3Z"/>
                  </g>
                  <g>
                    <path class="st10" d="M252.2,515.5c0,1.6-1.3,2.9-2.9,2.9s-2.9-1.3-2.9-3,1.3-3,2.9-3,2.9,1.3,2.9,3h0Z"/>
                    <path class="st10" d="M289.6,515.5c0,1.6-1.3,2.9-3,2.9s-3-1.3-3-3,1.3-3,3-3,3,1.3,3,3h0Z"/>
                    <path class="st10" d="M326.9,515.5c0,1.6-1.3,2.9-3,2.9s-3-1.3-3-3,1.3-3,3-3,3,1.3,3,3h0Z"/>
                    <path class="st10" d="M364.3,515.5c0,1.6-1.3,2.9-3,2.9s-3-1.3-3-3,1.3-3,3-3,3,1.3,3,3h0Z"/>
                    <path class="st10" d="M401.7,515.5c0,1.6-1.3,2.9-3,2.9s-3-1.3-3-3,1.3-3,3-3,3,1.3,3,3h0Z"/>
                    <path class="st10" d="M439.1,515.5c0,1.6-1.3,2.9-3,2.9s-3-1.3-3-3,1.3-3,3-3,3,1.3,3,3h0Z"/>
                  </g>
                </g>
              </g>
            </g>
          </g>
        </g>
        <g>
          <path class="st21" d="M475.9,169.2c-17.8,4-63.4-4.4-63.6-4.5-2-1.4,53-10.9,63.3-2.3,2.2,1.9,1.8,4.2.2,6.8h0Z"/>
          <path class="st24" d="M447.9,217.4c-19.4-1-44.8-24.6-43.7-24.5,2.2-9.3,5-18.9,8.1-28.2.2,0,45.8,8.5,63.6,4.5-3.8,5.8-12,14.9-12.9,23-2.3,11.3,2.3,26.2-15.1,25.2h0Z"/>
          <path class="st27" d="M410.1,171.7s33.9,7.1,32.8,9.8c-1.1,2.7-32.1-4.4-32.1-3.3,0,1.1,28.8,9.1,27.3,12.2-1.4,3.1-25.3-4.7-24.7-4.1.5.7,23,10.7,18.5,11.4-4.9.8-25.8-13-25.6-13,1.2-4.4,2.4-8.7,3.8-13h0Z"/>
          <path class="st21" d="M334.8,126.9c11.9,13.2,54.5,31,54.8,31.1,1.9-.4-39.6-39.2-50.7-36.7-2.6.8-3.8,2.5-4,5.6h0Z"/>
          <path class="st24" d="M330.1,181.9c17.2,10.1,51.5,4.5,50.5,3.9,3.3-9,6.3-18.5,8.9-27.9-.2,0-42.9-17.9-54.8-31.1-.3,7,1.1,19.1-2.9,26.2-4.7,10.6-17.2,20-1.8,28.9h0Z"/>
          <path class="st27" d="M387.5,165s-32.2-12.6-32.8-9.7c-.6,2.8,29.2,13.9,28.5,14.8-.7.9-29.1-8.1-29.6-4.8-.6,3.4,23.8,9.9,23,10.1-.8.3-25.2-3.8-21.9-.7,3.7,3.4,28.9,3.4,28.7,3.2,1.4-4.3,2.8-8.6,4.1-12.9h0Z"/>
          <path class="st21" d="M389.5,157.9c9.3-4.3,17.4-1.9,22.8,6.8-3.1,9.3-5.9,18.8-8.1,28.2-9.3,3.9-17.9,1.3-23.6-7.1,3.3-9,6.3-18.5,8.9-27.9h0Z"/>
        </g>
      </g>
    </g>
  </g>
  <line class="st3" x1="388.2" y1="382.5" x2="387.3" y2="381.6"/>
  <path class="st5" d="M383.9,382.9"/>
  <path class="st4" d="M311.6,344.7c16.1,16.1,42.1,16.1,58.2,0"/>
</svg>