<?xml version="1.0" encoding="UTF-8"?>
<svg id="Capa_2" data-name="Capa 2" xmlns="http://www.w3.org/2000/svg" xmlns:xlink="http://www.w3.org/1999/xlink" viewBox="0 0 547.67 689.36">
  <defs>
    <clipPath id="clippath">
      <path d="M92.39,173.48c0,32.22,26.12,66.04,58.34,66.04s58.34-33.82,58.34-66.04-26.12-58.34-58.34-58.34-58.34,26.12-58.34,58.34Z" style="fill: none;"/>
    </clipPath>
    <clipPath id="clippath-1">
      <path d="M473.47,626.28c-24.75,48.36-78.56,63.74-129.42,63.06-51.99-.74-107.51-12.88-133.22-63.06-37.41-72.88,30.25-188.56,50.46-220.12,23.67,12.32,51.31,19.41,80.89,19.41s57.16-7.1,80.83-19.41c20.21,31.56,87.87,147.24,50.46,220.12Z" style="fill: none;"/>
    </clipPath>
    <clipPath id="clippath-2">
      <path d="M425.27,430.17c0,45.9-37.23,83.13-83.13,83.13s-83.11-37.23-83.11-83.13,34.86-80.8,78.82-83.01c.94-.04,1.89-.07,2.84-.09-.39.02-.77.04-1.16.06-26.61,1.32-47.72,23.33-47.72,50.27s22.5,50.32,50.32,50.32,50.34-22.54,50.34-50.32-21.15-48.95-47.76-50.27c-.37-.02-.75-.04-1.12-.06.94.02,1.87.06,2.79.09,43.96,2.2,78.88,38.53,78.88,83.01Z" style="fill: none;"/>
    </clipPath>
  </defs>
  <g id="OBJECTS">
    <g>
      <g>
        <path d="M150.72,206.27c-3.79,69-3.46,141.74,0,217.31" style="fill: none; stroke: #f7afc9; stroke-miterlimit: 10; stroke-width: 2.63px;"/>
        <path d="M225.35,197.18s-65.76,117.76-78.01,180.08" style="fill: none; stroke: #f7afc9; stroke-miterlimit: 10; stroke-width: 2.63px;"/>
        <path d="M79.01,220.5s65.07,102.45,68.32,156.76" style="fill: none; stroke: #f7afc9; stroke-miterlimit: 10; stroke-width: 2.63px;"/>
        <g>
          <g>
            <path d="M172.25,131.68c0,30.55,24.77,62.62,55.32,62.62s55.32-32.07,55.32-62.62-24.77-55.32-55.32-55.32-55.32,24.77-55.32,55.32Z" style="fill: #f7cddc;"/>
            <path d="M178.95,105.26c-1.76,5.39-2.72,11.15-2.72,17.13,0,30.55,24.77,62.62,55.32,62.62,20.38,0,38.17-14.27,47.77-32.84-7.9,22.88-28.09,42.13-51.75,42.13-30.55,0-55.32-32.07-55.32-62.62,0-9.57,2.43-18.56,6.7-26.41Z" style="fill: #f7c1d4;"/>
            <g>
              <path d="M252.49,108.43c6.28,6.28,13.82,8.92,16.84,5.9,3.02-3.02.38-10.56-5.9-16.84-6.28-6.28-13.82-8.92-16.84-5.9-3.02,3.02-.38,10.56,5.9,16.84Z" style="fill: #fff0f3; opacity: .6;"/>
              <path d="M269.92,119.02c0,1.3,1.06,2.36,2.36,2.36s2.36-1.06,2.36-2.36-1.06-2.36-2.36-2.36-2.36,1.06-2.36,2.36Z" style="fill: #fff0f3; opacity: .6;"/>
            </g>
          </g>
          <path d="M230.81,191.72s1.92,9,0,8.86c-1.92-.15-3.39-5.17-5.46-3.39-2.07,1.77-3.54,4.28-4.72.74-1.18-3.54,5.76-7.38,5.76-7.38l4.42,1.18Z" style="fill: #f7c1d4;"/>
        </g>
        <g>
          <path d="M52.07,43.94c.03,1.72.11,3.41.31,5.11,4.44,46.46,60.59,79.41,80.57,89.7,1.33.72,2.5,1.3,3.5,1.78,1-.47,2.16-1.05,3.5-1.78,19.98-10.3,76.13-43.24,80.57-89.7.19-1.69.28-3.39.31-5.11C220.82,20.43,202.39,1.22,179.16.06c-.75-.03-1.53-.06-2.28-.06s-1.5.03-2.25.06c-17.21.86-31.78,11.63-38.19,26.7C130.04,11.68,115.47.92,98.26.06c-.75-.03-1.5-.06-2.25-.06s-1.53.03-2.28.06c-23.23,1.17-41.66,20.37-41.66,43.88Z" style="fill: #f7afc9;"/>
          <path d="M57,23.69c-.98,3.66-1.55,7.49-1.55,11.45.03,1.72.11,3.41.31,5.11,4.44,46.46,60.59,79.41,80.57,89.71.01,0,.03.01.04.02,2.15,1.16,4.76,1.16,6.91,0,.01,0,.03-.01.04-.02,16.7-8.6,58.62-33.03,74.56-67.93-12.25,39.59-59.87,67.41-77.94,76.72-1.33.72-2.5,1.3-3.5,1.78-1-.47-2.17-1.05-3.5-1.78-19.98-10.3-76.13-43.24-80.57-89.7-.19-1.69-.28-3.39-.31-5.11,0-7.3,1.78-14.18,4.93-20.24Z" style="fill: #f79ebe;"/>
          <g>
            <path d="M187.78,26.55c6.77,6.77,14.89,9.61,18.15,6.36,3.26-3.26.41-11.38-6.36-18.15-6.77-6.77-14.89-9.61-18.15-6.36-3.26,3.26-.41,11.38,6.36,18.15Z" style="fill: #fff0f3; opacity: .6;"/>
            <path d="M206.56,37.96c0,1.41,1.14,2.54,2.55,2.54s2.54-1.14,2.54-2.54-1.14-2.55-2.54-2.55-2.55,1.14-2.55,2.55Z" style="fill: #fff0f3; opacity: .6;"/>
          </g>
          <g style="opacity: .6;">
            <path d="M112.58,27.34c6.77,6.77,14.89,9.61,18.15,6.36,3.26-3.26.41-11.38-6.36-18.15-6.77-6.77-14.89-9.61-18.15-6.36-3.26,3.26-.41,11.38,6.36,18.15Z" style="fill: #fff0f3;"/>
          </g>
          <path d="M143.59,136.97s2.89,13.58,0,13.36c-2.89-.22-5.12-7.79-8.24-5.12-3.12,2.67-5.34,6.46-7.12,1.11-1.78-5.34,8.69-11.13,8.69-11.13l6.67,1.78Z" style="fill: #f79ebe;"/>
        </g>
        <g>
          <g>
            <path d="M2.66,169.13c9.77,31.88,45.86,57.42,77.74,47.66,31.88-9.77,47.47-51.15,37.7-83.03-9.77-31.88-43.53-49.8-75.41-40.04C10.82,103.49-7.1,137.25,2.66,169.13Z" style="fill: #e395b1;"/>
            <path d="M1.21,139.43c-.11,6.19.73,12.5,2.64,18.74,9.77,31.88,45.86,57.42,77.74,47.66,21.26-6.51,35.26-27.1,39.34-49.54-.93,26.4-15.84,52.94-40.53,60.5-31.88,9.77-67.97-15.78-77.74-47.66-3.06-9.98-3.4-20.15-1.45-29.7Z" style="fill: #db86a4;"/>
            <g>
              <path d="M78.96,119.22c8.56,4.54,17.27,4.89,19.46.77,2.19-4.12-2.98-11.14-11.54-15.68-8.56-4.54-17.27-4.89-19.46-.77-2.19,4.12,2.98,11.14,11.54,15.68Z" style="fill: #fff0f3; opacity: .6;"/>
              <path d="M100.53,124.7c.42,1.36,1.86,2.13,3.22,1.71,1.36-.42,2.13-1.86,1.71-3.22-.42-1.36-1.86-2.13-3.22-1.71-1.36.42-2.13,1.86-1.71,3.22Z" style="fill: #fff0f3; opacity: .6;"/>
            </g>
          </g>
          <path d="M82.96,213.06s4.88,8.78,2.83,9.24c-2.05.46-5.19-4.3-6.78-1.8-1.59,2.51-2.33,5.6-4.69,2.28-2.36-3.32,3.65-9.54,3.65-9.54l4.99-.18Z" style="fill: #db86a4;"/>
        </g>
        <g>
          <path d="M92.39,173.48c0,32.22,26.12,66.04,58.34,66.04s58.34-33.82,58.34-66.04-26.12-58.34-58.34-58.34-58.34,26.12-58.34,58.34Z" style="fill: #ffdbe3;"/>
          <path d="M99.45,145.62c-1.85,5.69-2.87,11.76-2.87,18.06,0,32.22,26.12,66.04,58.34,66.04,21.49,0,40.25-15.05,50.38-34.64-8.33,24.13-29.62,44.43-54.58,44.43-32.22,0-58.34-33.82-58.34-66.04,0-10.09,2.56-19.58,7.07-27.85Z" style="fill: #ffccd6;"/>
          <g style="opacity: .7;">
            <ellipse cx="182.78" cy="143.19" rx="8.16" ry="16.96" transform="translate(-47.72 171.18) rotate(-45)" style="fill: #fff;"/>
            <path d="M195.39,160.13c0,1.38,1.11,2.49,2.49,2.49s2.49-1.11,2.49-2.49-1.12-2.49-2.49-2.49-2.49,1.11-2.49,2.49Z" style="fill: #fff;"/>
          </g>
          <path d="M154.14,236.79s2.02,9.49,0,9.34c-2.02-.16-3.58-5.45-5.76-3.58-2.18,1.87-3.74,4.51-4.98.78-1.25-3.74,6.08-7.78,6.08-7.78l4.66,1.25Z" style="fill: #ffccd6;"/>
          <g style="opacity: .39;">
            <g style="clip-path: url(#clippath);">
              <g>
                <g>
                  <path d="M212.33,123.51c0,1.15.93,2.08,2.08,2.08s2.08-.93,2.08-2.08-.93-2.08-2.08-2.08-2.08.93-2.08,2.08Z" style="fill: #fff;"/>
                  <path d="M185.94,123.51c0,1.15.93,2.08,2.08,2.08s2.08-.93,2.08-2.08-.93-2.08-2.08-2.08-2.08.93-2.08,2.08Z" style="fill: #fff;"/>
                  <path d="M159.55,123.51c0,1.15.93,2.08,2.08,2.08s2.08-.93,2.08-2.08-.93-2.08-2.08-2.08-2.08.93-2.08,2.08Z" style="fill: #fff;"/>
                  <path d="M133.16,123.51c0,1.15.93,2.08,2.08,2.08s2.08-.93,2.08-2.08-.93-2.08-2.08-2.08-2.08.93-2.08,2.08Z" style="fill: #fff;"/>
                  <path d="M106.76,123.51c0,1.15.93,2.08,2.08,2.08s2.08-.93,2.08-2.08-.93-2.08-2.08-2.08-2.08.93-2.08,2.08Z" style="fill: #fff;"/>
                  <path d="M80.37,123.51c0,1.15.93,2.08,2.08,2.08s2.08-.93,2.08-2.08-.93-2.08-2.08-2.08-2.08.93-2.08,2.08Z" style="fill: #fff;"/>
                </g>
                <g>
                  <path d="M201.22,136.93c0,1.15.93,2.08,2.08,2.08s2.08-.93,2.08-2.08-.93-2.08-2.08-2.08-2.08.93-2.08,2.08Z" style="fill: #fff;"/>
                  <path d="M174.83,136.93c0,1.15.93,2.08,2.08,2.08s2.08-.93,2.08-2.08-.93-2.08-2.08-2.08-2.08.93-2.08,2.08Z" style="fill: #fff;"/>
                  <path d="M148.43,136.93c0,1.15.93,2.08,2.08,2.08s2.08-.93,2.08-2.08-.93-2.08-2.08-2.08-2.08.93-2.08,2.08Z" style="fill: #fff;"/>
                  <path d="M122.04,136.93c0,1.15.93,2.08,2.08,2.08s2.08-.93,2.08-2.08-.93-2.08-2.08-2.08-2.08.93-2.08,2.08Z" style="fill: #fff;"/>
                  <path d="M95.65,136.93c0,1.15.93,2.08,2.08,2.08s2.08-.93,2.08-2.08-.93-2.08-2.08-2.08-2.08.93-2.08,2.08Z" style="fill: #fff;"/>
                  <path d="M69.26,136.93c0,1.15.93,2.08,2.08,2.08s2.08-.93,2.08-2.08-.93-2.08-2.08-2.08-2.08.93-2.08,2.08Z" style="fill: #fff;"/>
                </g>
                <g>
                  <path d="M214.41,148.25c0,1.15.93,2.08,2.08,2.08s2.08-.93,2.08-2.08-.93-2.08-2.08-2.08-2.08.93-2.08,2.08Z" style="fill: #fff;"/>
                  <path d="M188.02,148.25c0,1.15.93,2.08,2.08,2.08s2.08-.93,2.08-2.08-.93-2.08-2.08-2.08-2.08.93-2.08,2.08Z" style="fill: #fff;"/>
                  <path d="M161.63,148.25c0,1.15.93,2.08,2.08,2.08s2.08-.93,2.08-2.08-.93-2.08-2.08-2.08-2.08.93-2.08,2.08Z" style="fill: #fff;"/>
                  <path d="M135.24,148.25c0,1.15.93,2.08,2.08,2.08s2.08-.93,2.08-2.08-.93-2.08-2.08-2.08-2.08.93-2.08,2.08Z" style="fill: #fff;"/>
                  <path d="M108.85,148.25c0,1.15.93,2.08,2.08,2.08s2.08-.93,2.08-2.08-.93-2.08-2.08-2.08-2.08.93-2.08,2.08Z" style="fill: #fff;"/>
                  <path d="M82.46,148.25c0,1.15.93,2.08,2.08,2.08s2.08-.93,2.08-2.08-.93-2.08-2.08-2.08-2.08.93-2.08,2.08Z" style="fill: #fff;"/>
                </g>
                <g>
                  <path d="M203.3,161.67c0,1.15.93,2.08,2.08,2.08s2.08-.93,2.08-2.08-.93-2.08-2.08-2.08-2.08.93-2.08,2.08Z" style="fill: #fff;"/>
                  <path d="M176.91,161.67c0,1.15.93,2.08,2.08,2.08s2.08-.93,2.08-2.08-.93-2.08-2.08-2.08-2.08.93-2.08,2.08Z" style="fill: #fff;"/>
                  <path d="M150.52,161.67c0,1.15.93,2.08,2.08,2.08s2.08-.93,2.08-2.08-.93-2.08-2.08-2.08-2.08.93-2.08,2.08Z" style="fill: #fff;"/>
                  <path d="M124.12,161.67c0,1.15.93,2.08,2.08,2.08s2.08-.93,2.08-2.08-.93-2.08-2.08-2.08-2.08.93-2.08,2.08Z" style="fill: #fff;"/>
                  <path d="M97.73,161.67c0,1.15.93,2.08,2.08,2.08s2.08-.93,2.08-2.08-.93-2.08-2.08-2.08-2.08.93-2.08,2.08Z" style="fill: #fff;"/>
                  <path d="M71.34,161.67c0,1.15.93,2.08,2.08,2.08s2.08-.93,2.08-2.08-.93-2.08-2.08-2.08-2.08.93-2.08,2.08Z" style="fill: #fff;"/>
                </g>
                <g>
                  <path d="M216.5,172.99c0,1.15.93,2.08,2.08,2.08s2.08-.93,2.08-2.08-.93-2.08-2.08-2.08-2.08.93-2.08,2.08Z" style="fill: #fff;"/>
                  <path d="M190.1,172.99c0,1.15.93,2.08,2.08,2.08s2.08-.93,2.08-2.08-.93-2.08-2.08-2.08-2.08.93-2.08,2.08Z" style="fill: #fff;"/>
                  <path d="M163.71,172.99c0,1.15.93,2.08,2.08,2.08s2.08-.93,2.08-2.08-.93-2.08-2.08-2.08-2.08.93-2.08,2.08Z" style="fill: #fff;"/>
                  <path d="M137.32,172.99c0,1.15.93,2.08,2.08,2.08s2.08-.93,2.08-2.08-.93-2.08-2.08-2.08-2.08.93-2.08,2.08Z" style="fill: #fff;"/>
                  <path d="M110.93,172.99c0,1.15.93,2.08,2.08,2.08s2.08-.93,2.08-2.08-.93-2.08-2.08-2.08-2.08.93-2.08,2.08Z" style="fill: #fff;"/>
                  <path d="M84.54,172.99c0,1.15.93,2.08,2.08,2.08s2.08-.93,2.08-2.08-.93-2.08-2.08-2.08-2.08.93-2.08,2.08Z" style="fill: #fff;"/>
                </g>
                <g>
                  <path d="M205.38,186.4c0,1.15.93,2.08,2.08,2.08s2.08-.93,2.08-2.08-.93-2.08-2.08-2.08-2.08.93-2.08,2.08Z" style="fill: #fff;"/>
                  <circle cx="181.07" cy="186.4" r="2.08" style="fill: #fff;"/>
                  <path d="M152.6,186.4c0,1.15.93,2.08,2.08,2.08s2.08-.93,2.08-2.08-.93-2.08-2.08-2.08-2.08.93-2.08,2.08Z" style="fill: #fff;"/>
                  <path d="M126.21,186.4c0,1.15.93,2.08,2.08,2.08s2.08-.93,2.08-2.08-.93-2.08-2.08-2.08-2.08.93-2.08,2.08Z" style="fill: #fff;"/>
                  <path d="M99.82,186.4c0,1.15.93,2.08,2.08,2.08s2.08-.93,2.08-2.08-.93-2.08-2.08-2.08-2.08.93-2.08,2.08Z" style="fill: #fff;"/>
                  <circle cx="75.51" cy="186.4" r="2.08" style="fill: #fff;"/>
                </g>
                <g>
                  <path d="M218.58,197.72c0,1.15.93,2.08,2.08,2.08s2.08-.93,2.08-2.08-.93-2.08-2.08-2.08-2.08.93-2.08,2.08Z" style="fill: #fff;"/>
                  <circle cx="194.27" cy="197.72" r="2.08" style="fill: #fff;"/>
                  <path d="M165.79,197.72c0,1.15.93,2.08,2.08,2.08s2.08-.93,2.08-2.08-.93-2.08-2.08-2.08-2.08.93-2.08,2.08Z" style="fill: #fff;"/>
                  <path d="M139.4,197.72c0,1.15.93,2.08,2.08,2.08s2.08-.93,2.08-2.08-.93-2.08-2.08-2.08-2.08.93-2.08,2.08Z" style="fill: #fff;"/>
                  <path d="M113.01,197.72c0,1.15.93,2.08,2.08,2.08s2.08-.93,2.08-2.08-.93-2.08-2.08-2.08-2.08.93-2.08,2.08Z" style="fill: #fff;"/>
                  <path d="M86.62,197.72c0,1.15.93,2.08,2.08,2.08s2.08-.93,2.08-2.08-.93-2.08-2.08-2.08-2.08.93-2.08,2.08Z" style="fill: #fff;"/>
                </g>
                <g>
                  <path d="M207.46,211.14c0,1.15.93,2.08,2.08,2.08s2.08-.93,2.08-2.08-.93-2.08-2.08-2.08-2.08.93-2.08,2.08Z" style="fill: #fff;"/>
                  <path d="M181.07,211.14c0,1.15.93,2.08,2.08,2.08s2.08-.93,2.08-2.08-.93-2.08-2.08-2.08-2.08.93-2.08,2.08Z" style="fill: #fff;"/>
                  <path d="M154.68,211.14c0,1.15.93,2.08,2.08,2.08s2.08-.93,2.08-2.08-.93-2.08-2.08-2.08-2.08.93-2.08,2.08Z" style="fill: #fff;"/>
                  <path d="M128.29,211.14c0,1.15.93,2.08,2.08,2.08s2.08-.93,2.08-2.08-.93-2.08-2.08-2.08-2.08.93-2.08,2.08Z" style="fill: #fff;"/>
                  <path d="M101.9,211.14c0,1.15.93,2.08,2.08,2.08s2.08-.93,2.08-2.08-.93-2.08-2.08-2.08-2.08.93-2.08,2.08Z" style="fill: #fff;"/>
                  <path d="M75.51,211.14c0,1.15.93,2.08,2.08,2.08s2.08-.93,2.08-2.08-.93-2.08-2.08-2.08-2.08.93-2.08,2.08Z" style="fill: #fff;"/>
                </g>
                <g>
                  <path d="M220.66,222.46c0,1.15.93,2.08,2.08,2.08s2.08-.93,2.08-2.08-.93-2.08-2.08-2.08-2.08.93-2.08,2.08Z" style="fill: #fff;"/>
                  <path d="M194.27,222.46c0,1.15.93,2.08,2.08,2.08s2.08-.93,2.08-2.08-.93-2.08-2.08-2.08-2.08.93-2.08,2.08Z" style="fill: #fff;"/>
                  <path d="M167.88,222.46c0,1.15.93,2.08,2.08,2.08s2.08-.93,2.08-2.08-.93-2.08-2.08-2.08-2.08.93-2.08,2.08Z" style="fill: #fff;"/>
                  <path d="M141.49,222.46c0,1.15.93,2.08,2.08,2.08s2.08-.93,2.08-2.08-.93-2.08-2.08-2.08-2.08.93-2.08,2.08Z" style="fill: #fff;"/>
                  <path d="M115.09,222.46c0,1.15.93,2.08,2.08,2.08s2.08-.93,2.08-2.08-.93-2.08-2.08-2.08-2.08.93-2.08,2.08Z" style="fill: #fff;"/>
                  <path d="M88.7,222.46c0,1.15.93,2.08,2.08,2.08s2.08-.93,2.08-2.08-.93-2.08-2.08-2.08-2.08.93-2.08,2.08Z" style="fill: #fff;"/>
                </g>
                <g>
                  <path d="M209.55,235.88c0,1.15.93,2.08,2.08,2.08s2.08-.93,2.08-2.08-.93-2.08-2.08-2.08-2.08.93-2.08,2.08Z" style="fill: #fff;"/>
                  <path d="M183.16,235.88c0,1.15.93,2.08,2.08,2.08s2.08-.93,2.08-2.08-.93-2.08-2.08-2.08-2.08.93-2.08,2.08Z" style="fill: #fff;"/>
                  <path d="M156.76,235.88c0,1.15.93,2.08,2.08,2.08s2.08-.93,2.08-2.08-.93-2.08-2.08-2.08-2.08.93-2.08,2.08Z" style="fill: #fff;"/>
                  <path d="M130.37,235.88c0,1.15.93,2.08,2.08,2.08s2.08-.93,2.08-2.08-.93-2.08-2.08-2.08-2.08.93-2.08,2.08Z" style="fill: #fff;"/>
                  <path d="M103.98,235.88c0,1.15.93,2.08,2.08,2.08s2.08-.93,2.08-2.08-.93-2.08-2.08-2.08-2.08.93-2.08,2.08Z" style="fill: #fff;"/>
                  <path d="M77.59,235.88c0,1.15.93,2.08,2.08,2.08s2.08-.93,2.08-2.08-.93-2.08-2.08-2.08-2.08.93-2.08,2.08Z" style="fill: #fff;"/>
                </g>
              </g>
            </g>
          </g>
        </g>
      </g>
      <g>
        <g>
          <path d="M423.81,378.53s66.04-8.52,104.72,64.68c38.68,73.19,14.49,139.12-34.8,134.41-49.29-4.71-.12-51.22-43.38-107.83-43.27-56.61-59.4-32.55-63.82-54.28-4.43-21.73,37.29-36.98,37.29-36.98Z" style="fill: #cc8f66;"/>
          <path d="M423.81,378.53s66.04-8.52,104.72,64.68c38.68,73.19,14.49,139.12-34.8,134.41-49.29-4.71-.12-51.22-43.38-107.83-43.27-56.61-59.4-32.55-63.82-54.28-4.43-21.73,37.29-36.98,37.29-36.98Z" style="fill: #d49f7d;"/>
          <g>
            <path d="M264.04,407.55s-96.84-34.24-123.14-28.06c-26.29,6.19-29.39,102.08,75.79,129.92l47.35-101.87Z" style="fill: #d49f7d;"/>
            <path d="M152.5,444.13s34.35,14.95,54.14-14.37c19.78-29.32,9.28-60.32-27.07-75.79-36.35-15.47-59.55,34.03-57.23,58.78,2.32,24.75,30.16,31.38,30.16,31.38Z" style="fill: #deb193;"/>
          </g>
          <path d="M500.48,287.06c0,50.63-31.11,94.91-77.48,119.09-23.67,12.32-51.31,19.41-80.83,19.41s-57.22-7.1-80.89-19.41c-46.38-24.18-77.48-68.46-77.48-119.09,0-11.24,1.53-22.19,4.48-32.69.91-3.41,1.99-6.7,3.18-9.99,7.27-19.7,19.47-37.46,35.31-52.11,4.26-4.03,8.8-7.78,13.57-11.3,27.53-20.21,63.01-32.41,101.83-32.41s74.24,12.2,101.77,32.47c4.77,3.46,9.31,7.21,13.57,11.24,15.84,14.64,28.04,32.41,35.31,52.11,1.19,3.29,2.27,6.58,3.18,9.99,2.95,10.5,4.48,21.46,4.48,32.69Z" style="fill: #deb193;"/>
          <path d="M423,392.62c-23.67,12.32-51.31,19.41-80.83,19.41s-57.22-7.1-80.89-19.41c-44.41-23.16-74.74-64.76-77.24-112.72-.14,2.37-.24,4.76-.24,7.16,0,50.63,31.11,94.91,77.48,119.09,23.67,12.32,51.31,19.41,80.89,19.41s57.16-7.1,80.83-19.41c46.37-24.18,77.48-68.46,77.48-119.09,0-2.4-.11-4.78-.24-7.16-2.49,47.95-32.82,89.56-77.24,112.72Z" style="fill: #d49f7d;"/>
          <g>
            <path d="M240.34,180.97c-4.77,3.52-9.31,7.27-13.57,11.3-.23-.34-.51-.62-.85-.97-12.77-12.83-33.38-12.94-46.03-.34-12.6,12.6-12.43,33.26.34,46.03,3.29,3.29,7.15,5.79,11.24,7.38-1.19,3.29-2.27,6.58-3.18,9.99-12.2.45-24.01-3.63-32.69-12.32-18.22-18.22-16.12-49.84,4.71-70.67,20.83-20.83,52.51-22.93,70.73-4.71,4.14,4.14,7.27,9.03,9.31,14.3Z" style="fill: #deb193;"/>
            <path d="M226.78,192.27c-15.84,14.64-28.04,32.41-35.31,52.11-4.09-1.59-7.95-4.09-11.24-7.38-12.77-12.77-12.94-33.43-.34-46.03,12.66-12.6,33.26-12.49,46.03.34.34.34.62.62.85.97Z" style="fill: #f5d5c2;"/>
          </g>
          <g>
            <path d="M528.69,242.05c-8.69,8.68-20.49,12.77-32.7,12.32-.91-3.41-1.99-6.7-3.18-9.99,4.09-1.59,7.95-4.09,11.24-7.38,12.83-12.77,12.94-33.43.34-46.03-12.6-12.6-33.26-12.49-46.03.34-.34.34-.62.62-.85.97-4.26-4.03-8.8-7.78-13.57-11.24,2.04-5.28,5.17-10.16,9.37-14.36,18.22-18.22,49.84-16.12,70.67,4.71,20.83,20.83,22.93,52.45,4.71,70.67Z" style="fill: #deb193;"/>
            <path d="M504.06,237c-3.29,3.29-7.15,5.79-11.24,7.38-7.27-19.7-19.47-37.46-35.31-52.11.23-.34.51-.62.85-.97,12.77-12.83,33.43-12.94,46.03-.34,12.6,12.6,12.49,33.26-.34,46.03Z" style="fill: #f5d5c2;"/>
          </g>
          <ellipse cx="342.15" cy="350.29" rx="68.97" ry="60.33" style="fill: #f5d5c2;"/>
          <g>
            <path d="M346.42,318.6c-2.71,1.18-5.8,1.18-8.51,0-32.42-14.11-31.47-30.22-20.69-35.4,4.96-2.43,10.45-1.75,15.01-.23,6.47,2.15,13.38,2.15,19.86,0,4.55-1.51,10.03-2.19,15.02.24,10.71,5.18,11.73,21.3-20.69,35.4Z" style="fill: #5e4738;"/>
            <path d="M367.87,288.69c0,2.06-4.32,3.72-9.65,3.72s-9.65-1.67-9.65-3.72,4.32-3.72,9.65-3.72,9.65,1.67,9.65,3.72Z" style="fill: #82624e;"/>
          </g>
          <g>
            <g>
              <path d="M413.89,285.13c0,6.4-5.19,11.59-11.59,11.59s-11.59-5.19-11.59-11.59,5.19-11.59,11.59-11.59,11.59,5.19,11.59,11.59Z" style="fill: #5e4738;"/>
              <path d="M400,280.54c0,1.6-1.3,2.9-2.9,2.9s-2.9-1.3-2.9-2.9,1.3-2.9,2.9-2.9,2.9,1.3,2.9,2.9Z" style="fill: #fff5f7;"/>
            </g>
            <g>
              <path d="M293.6,285.13c0,6.4-5.19,11.59-11.59,11.59s-11.59-5.19-11.59-11.59,5.19-11.59,11.59-11.59,11.59,5.19,11.59,11.59Z" style="fill: #5e4738;"/>
              <path d="M279.71,280.54c0,1.6-1.3,2.9-2.9,2.9s-2.9-1.3-2.9-2.9,1.3-2.9,2.9-2.9,2.9,1.3,2.9,2.9Z" style="fill: #fff5f7;"/>
            </g>
          </g>
          <path d="M473.47,626.28c-24.75,48.36-78.56,63.74-129.42,63.06-51.99-.74-107.51-12.88-133.22-63.06-37.41-72.88,30.25-188.56,50.46-220.12,23.67,12.32,51.31,19.41,80.89,19.41s57.16-7.1,80.83-19.41c20.21,31.56,87.87,147.24,50.46,220.12Z" style="fill: #d49f7d;"/>
          <path d="M473.47,608.84c-24.75,48.36-78.56,63.74-129.42,63.06-51.99-.74-107.51-12.88-133.22-63.06-6.64-12.93-9.91-27.22-10.79-42.13-1.23,21.18,1.6,41.67,10.78,59.57,25.71,50.18,81.23,62.33,133.22,63.06,50.86.68,104.67-14.7,129.42-63.06,9.17-17.87,12-38.32,10.79-59.47-.88,14.88-4.16,29.13-10.78,42.03Z" style="fill: #cc8f66;"/>
          <g>
            <ellipse cx="433.54" cy="311.45" rx="20.76" ry="11.11" style="fill: #f7c1d4;"/>
            <ellipse cx="250.75" cy="311.45" rx="20.76" ry="11.11" style="fill: #f7c1d4;"/>
          </g>
          <g>
            <path d="M363.01,342.05h-.84c-11.78,0-21.37-10.68-21.37-23.8,0-.77.57-1.41,1.26-1.41s1.26.63,1.26,1.41c0,11.57,8.45,20.99,18.84,20.99h.84c5.7,0,10.35-5.17,10.35-11.52,0-.77.57-1.41,1.26-1.41s1.26.63,1.26,1.41c0,7.91-5.77,14.34-12.87,14.34Z" style="fill: #5e4738;"/>
            <path d="M319.87,342.05h.84c11.78,0,21.37-10.68,21.37-23.8,0-.77-.57-1.41-1.26-1.41s-1.26.63-1.26,1.41c0,11.57-8.45,20.99-18.84,20.99h-.84c-5.7,0-10.35-5.17-10.35-11.52,0-.77-.57-1.41-1.26-1.41s-1.26.63-1.26,1.41c0,7.91,5.77,14.34,12.87,14.34Z" style="fill: #5e4738;"/>
          </g>
          <g>
            <path d="M288.17,580.61c6.81,27.79-1.76,55.65-20.16,74.23-9.4,9.47-21.35,16.53-35.14,19.91-13.81,3.39-27.68,2.66-40.39-1.39-24.91-7.96-45.4-28.7-52.21-56.48-1.51-6.17-2.27-12.36-2.31-18.46-.03-1.97.03-3.9.14-5.85.74-11.64,4.05-22.79,9.48-32.64,1.45-2.7,3.06-5.28,4.82-7.75,10.14-14.24,25.06-25,43.2-29.45,18.11-4.44,36.32-1.8,51.9,6.16,2.69,1.35,5.32,2.89,7.85,4.61,9.37,6.22,17.46,14.58,23.5,24.55,1,1.67,1.95,3.35,2.83,5.12,2.79,5.43,4.98,11.26,6.49,17.43Z" style="fill: #deb193;"/>
            <g>
              <path d="M259.24,612.49c3.24,13.23-2.2,26.83-13,36.17-5.51,4.76-12.42,8.42-20.28,10.35-7.87,1.93-15.69,1.88-22.78.21-13.9-3.29-25.01-12.83-28.26-26.06-.72-2.94-1.01-5.9-.9-8.83.02-.95.1-1.88.21-2.82.67-5.62,2.78-11.06,6.06-15.92.88-1.33,1.84-2.61,2.89-3.84,6.04-7.08,14.7-12.58,25.04-15.12,10.32-2.53,20.55-1.66,29.18,1.84,1.49.59,2.94,1.28,4.33,2.05,5.15,2.79,9.54,6.64,12.74,11.31.53.78,1.03,1.57,1.49,2.4,1.46,2.55,2.57,5.31,3.29,8.25Z" style="fill: #f5d5c2;"/>
              <path d="M179.52,575.56c3.83,4,5.09,9.51,3.8,14.41-.66,2.5-1.98,4.84-3.97,6.74-1.99,1.9-4.39,3.12-6.91,3.67-4.95,1.07-10.4-.42-14.23-4.43-.85-.89-1.58-1.85-2.17-2.88-.2-.33-.37-.66-.54-.99-1-2.03-1.53-4.22-1.57-6.4-.02-.59,0-1.18.06-1.77.32-3.37,1.79-6.62,4.4-9.12,2.61-2.5,5.92-3.82,9.31-3.99.58-.03,1.17-.03,1.76.02,2.17.14,4.34.76,6.32,1.85.33.18.65.37.97.59.99.64,1.93,1.41,2.78,2.3Z" style="fill: #f5d5c2;"/>
              <path d="M223.23,558.85c.63,5.51-1.7,10.65-5.69,13.77-2.04,1.59-4.51,2.65-7.24,2.97-2.74.31-5.38-.17-7.73-1.26-4.59-2.14-8.02-6.63-8.65-12.14-.14-1.22-.13-2.43,0-3.6.04-.38.1-.75.17-1.12.43-2.22,1.34-4.28,2.62-6.04.34-.48.72-.94,1.12-1.37,2.3-2.49,5.43-4.19,9.02-4.6,3.59-.41,7.02.54,9.82,2.46.48.33.95.69,1.4,1.08,1.65,1.43,3,3.23,3.91,5.3.15.35.29.69.42,1.05.4,1.11.68,2.29.82,3.51Z" style="fill: #f5d5c2;"/>
              <path d="M263.39,575.96c-1.58,5.31-5.74,9.13-10.64,10.43-2.5.66-5.19.67-7.82-.11-2.64-.79-4.89-2.27-6.62-4.19-3.38-3.77-4.78-9.24-3.19-14.56.35-1.18.83-2.29,1.42-3.31.19-.33.39-.65.6-.96,1.26-1.87,2.91-3.41,4.78-4.53.51-.31,1.03-.58,1.56-.82,3.09-1.39,6.64-1.72,10.11-.69,3.46,1.03,6.25,3.26,8.07,6.11.32.49.61,1,.86,1.54.96,1.96,1.49,4.15,1.52,6.41,0,.38,0,.75-.03,1.13-.06,1.18-.27,2.37-.62,3.55Z" style="fill: #f5d5c2;"/>
            </g>
          </g>
          <path d="M261.29,406.15s-48.81,82.98-49.76,103.26c0,0,10.22-49.93,34.83-107.82l14.93,4.56Z" style="fill: #cc8f66;"/>
          <path d="M423,406.15s42.41,65,53.16,114.56c0,0-1.95,2.65,15.58,5.11,17.53,2.46-64.16-121.97-68.74-119.67Z" style="fill: #cc8f66;"/>
          <g>
            <path d="M544.73,613.81c-5.67,28.04-25.3,49.6-49.86,58.56-12.54,4.56-26.36,5.86-40.27,3.04-13.94-2.82-26.17-9.39-35.95-18.47-19.15-17.81-28.84-45.3-23.17-73.34,1.26-6.22,3.21-12.15,5.78-17.68.81-1.8,1.69-3.52,2.62-5.23,5.63-10.22,13.37-18.89,22.48-25.49,2.46-1.83,5.02-3.47,7.66-4.96,15.24-8.57,33.33-11.94,51.63-8.24,18.27,3.7,33.62,13.84,44.33,27.69,1.86,2.37,3.58,4.88,5.13,7.52,5.82,9.62,9.58,20.62,10.8,32.23.19,1.94.33,3.86.38,5.84.21,6.1-.29,12.31-1.55,18.53Z" style="fill: #deb193;"/>
            <g>
              <path d="M504.98,630.32c-2.7,13.35-13.42,23.33-27.17,27.19-7.02,1.96-14.82,2.33-22.75.72-7.95-1.61-14.99-4.98-20.7-9.52-11.17-8.9-17.17-22.26-14.47-35.61.6-2.96,1.6-5.77,2.95-8.38.43-.85.89-1.66,1.39-2.46,3-4.8,7.23-8.82,12.27-11.82,1.36-.83,2.78-1.57,4.25-2.24,8.48-3.83,18.66-5.12,29.09-3.01,10.42,2.11,19.3,7.25,25.61,14.09,1.1,1.17,2.12,2.41,3.05,3.7,3.47,4.72,5.81,10.07,6.71,15.66.14.93.26,1.86.32,2.81.23,2.93.06,5.9-.54,8.86Z" style="fill: #f5d5c2;"/>
              <path d="M448.59,562.95c1.76,5.26.55,10.77-2.7,14.66-1.66,1.98-3.86,3.53-6.47,4.41-2.61.88-5.3.96-7.82.38-4.94-1.14-9.23-4.81-10.99-10.07-.39-1.17-.64-2.35-.74-3.53-.04-.38-.06-.75-.07-1.13-.04-2.26.42-4.47,1.31-6.45.24-.54.51-1.07.81-1.57,1.73-2.91,4.44-5.23,7.87-6.38,3.42-1.15,6.98-.93,10.12.36.54.22,1.07.47,1.59.77,1.91,1.05,3.6,2.53,4.93,4.36.22.31.43.62.63.94.63,1,1.14,2.09,1.53,3.26Z" style="fill: #f5d5c2;"/>
              <path d="M495.26,566.45c-1.78,5.25-6.08,8.91-11.02,10.03-2.52.57-5.21.48-7.81-.4-2.61-.88-4.8-2.45-6.46-4.43-3.24-3.89-4.43-9.41-2.66-14.66.39-1.17.91-2.26,1.54-3.26.2-.33.41-.64.63-.94,1.33-1.83,3.03-3.3,4.95-4.35.52-.29,1.05-.54,1.59-.77,3.14-1.27,6.7-1.48,10.12-.32,3.42,1.16,6.12,3.48,7.84,6.41.3.5.57,1.03.8,1.57.88,1.99,1.34,4.2,1.29,6.46-.01.38-.03.75-.07,1.13-.11,1.18-.36,2.36-.75,3.52Z" style="fill: #f5d5c2;"/>
              <path d="M524.3,599.04c-3.7,4.13-9.09,5.81-14.07,4.9-2.54-.47-4.98-1.6-7.03-3.44-2.05-1.84-3.46-4.13-4.2-6.61-1.46-4.85-.38-10.4,3.31-14.53.82-.92,1.73-1.72,2.7-2.39.31-.22.63-.42.95-.62,1.94-1.16,4.09-1.85,6.25-2.06.59-.06,1.18-.09,1.77-.08,3.39.06,6.74,1.27,9.44,3.68,2.69,2.41,4.26,5.61,4.7,8.97.08.58.12,1.17.12,1.76.03,2.18-.42,4.39-1.35,6.45-.16.34-.32.68-.51,1.01-.56,1.04-1.25,2.03-2.07,2.95Z" style="fill: #f5d5c2;"/>
            </g>
          </g>
          <g style="clip-path: url(#clippath-1);">
            <g>
              <path d="M400.98,366.35h-24c7.37,8.25,11.83,19.13,11.83,31.04,0,25.73-20.94,46.66-46.67,46.66s-46.66-20.93-46.66-46.66c0-11.91,4.46-22.79,11.82-31.04h-24.01c-17.21,15.88-27.93,38.62-27.93,63.82,0,47.86,38.93,86.8,86.78,86.8s86.8-38.94,86.8-86.8c0-25.19-10.73-47.94-27.96-63.82Z" style="fill: #f7afc9;"/>
              <path d="M395.31,366.35h-13.61c6.73,8.55,10.77,19.31,10.77,31.04,0,27.78-22.54,50.32-50.34,50.32s-50.32-22.54-50.32-50.32c0-11.73,4.03-22.5,10.76-31.04h-13.62c-18.28,15.24-29.93,38.15-29.93,63.82,0,45.9,37.17,83.13,83.11,83.13s83.13-37.23,83.13-83.13c0-25.67-11.67-48.57-29.96-63.82Z" style="fill: #f7cddc;"/>
              <g style="clip-path: url(#clippath-2);">
                <g>
                  <g>
                    <path d="M265.4,369.6c0,1.63-1.32,2.95-2.95,2.95s-2.95-1.32-2.95-2.95,1.32-2.95,2.95-2.95,2.95,1.32,2.95,2.95Z" style="fill: #fff;"/>
                    <path d="M302.78,369.6c0,1.63-1.32,2.95-2.95,2.95s-2.95-1.32-2.95-2.95,1.32-2.95,2.95-2.95,2.95,1.32,2.95,2.95Z" style="fill: #fff;"/>
                    <path d="M340.17,369.6c0,1.63-1.32,2.95-2.95,2.95s-2.95-1.32-2.95-2.95,1.32-2.95,2.95-2.95,2.95,1.32,2.95,2.95Z" style="fill: #fff;"/>
                    <path d="M377.56,369.6c0,1.63-1.32,2.95-2.95,2.95s-2.95-1.32-2.95-2.95,1.32-2.95,2.95-2.95,2.95,1.32,2.95,2.95Z" style="fill: #fff;"/>
                    <path d="M414.95,369.6c0,1.63-1.32,2.95-2.95,2.95s-2.95-1.32-2.95-2.95,1.32-2.95,2.95-2.95,2.95,1.32,2.95,2.95Z" style="fill: #fff;"/>
                    <path d="M452.34,369.6c0,1.63-1.32,2.95-2.95,2.95s-2.95-1.32-2.95-2.95,1.32-2.95,2.95-2.95,2.95,1.32,2.95,2.95Z" style="fill: #fff;"/>
                  </g>
                  <g>
                    <path d="M246.7,385.64c0,1.63-1.32,2.95-2.95,2.95s-2.95-1.32-2.95-2.95,1.32-2.95,2.95-2.95,2.95,1.32,2.95,2.95Z" style="fill: #fff;"/>
                    <circle cx="281.14" cy="385.64" r="2.95" style="fill: #fff;"/>
                    <circle cx="318.53" cy="385.64" r="2.95" style="fill: #fff;"/>
                    <path d="M358.87,385.64c0,1.63-1.32,2.95-2.95,2.95s-2.95-1.32-2.95-2.95,1.32-2.95,2.95-2.95,2.95,1.32,2.95,2.95Z" style="fill: #fff;"/>
                    <path d="M396.26,385.64c0,1.63-1.32,2.95-2.95,2.95s-2.95-1.32-2.95-2.95,1.32-2.95,2.95-2.95,2.95,1.32,2.95,2.95Z" style="fill: #fff;"/>
                    <path d="M433.64,385.64c0,1.63-1.32,2.95-2.95,2.95s-2.95-1.32-2.95-2.95,1.32-2.95,2.95-2.95,2.95,1.32,2.95,2.95Z" style="fill: #fff;"/>
                  </g>
                  <g>
                    <path d="M262.45,404.65c0,1.63-1.32,2.95-2.95,2.95s-2.95-1.32-2.95-2.95,1.32-2.95,2.95-2.95,2.95,1.32,2.95,2.95Z" style="fill: #fff;"/>
                    <path d="M299.83,404.65c0,1.63-1.32,2.95-2.95,2.95s-2.95-1.32-2.95-2.95,1.32-2.95,2.95-2.95,2.95,1.32,2.95,2.95Z" style="fill: #fff;"/>
                    <path d="M337.22,404.65c0,1.63-1.32,2.95-2.95,2.95s-2.95-1.32-2.95-2.95,1.32-2.95,2.95-2.95,2.95,1.32,2.95,2.95Z" style="fill: #fff;"/>
                    <path d="M374.61,404.65c0,1.63-1.32,2.95-2.95,2.95s-2.95-1.32-2.95-2.95,1.32-2.95,2.95-2.95,2.95,1.32,2.95,2.95Z" style="fill: #fff;"/>
                    <path d="M412,404.65c0,1.63-1.32,2.95-2.95,2.95s-2.95-1.32-2.95-2.95,1.32-2.95,2.95-2.95,2.95,1.32,2.95,2.95Z" style="fill: #fff;"/>
                    <path d="M449.39,404.65c0,1.63-1.32,2.95-2.95,2.95s-2.95-1.32-2.95-2.95,1.32-2.95,2.95-2.95,2.95,1.32,2.95,2.95Z" style="fill: #fff;"/>
                  </g>
                  <g>
                    <path d="M243.75,420.68c0,1.63-1.32,2.95-2.95,2.95s-2.95-1.32-2.95-2.95,1.32-2.95,2.95-2.95,2.95,1.32,2.95,2.95Z" style="fill: #fff;"/>
                    <path d="M281.14,420.68c0,1.63-1.32,2.95-2.95,2.95s-2.95-1.32-2.95-2.95,1.32-2.95,2.95-2.95,2.95,1.32,2.95,2.95Z" style="fill: #fff;"/>
                    <path d="M318.53,420.68c0,1.63-1.32,2.95-2.95,2.95s-2.95-1.32-2.95-2.95,1.32-2.95,2.95-2.95,2.95,1.32,2.95,2.95Z" style="fill: #fff;"/>
                    <path d="M355.92,420.68c0,1.63-1.32,2.95-2.95,2.95s-2.95-1.32-2.95-2.95,1.32-2.95,2.95-2.95,2.95,1.32,2.95,2.95Z" style="fill: #fff;"/>
                    <path d="M393.31,420.68c0,1.63-1.32,2.95-2.95,2.95s-2.95-1.32-2.95-2.95,1.32-2.95,2.95-2.95,2.95,1.32,2.95,2.95Z" style="fill: #fff;"/>
                    <path d="M430.69,420.68c0,1.63-1.32,2.95-2.95,2.95s-2.95-1.32-2.95-2.95,1.32-2.95,2.95-2.95,2.95,1.32,2.95,2.95Z" style="fill: #fff;"/>
                  </g>
                  <g>
                    <path d="M259.5,439.69c0,1.63-1.32,2.95-2.95,2.95s-2.95-1.32-2.95-2.95,1.32-2.95,2.95-2.95,2.95,1.32,2.95,2.95Z" style="fill: #fff;"/>
                    <path d="M296.88,439.69c0,1.63-1.32,2.95-2.95,2.95s-2.95-1.32-2.95-2.95,1.32-2.95,2.95-2.95,2.95,1.32,2.95,2.95Z" style="fill: #fff;"/>
                    <path d="M334.27,439.69c0,1.63-1.32,2.95-2.95,2.95s-2.95-1.32-2.95-2.95,1.32-2.95,2.95-2.95,2.95,1.32,2.95,2.95Z" style="fill: #fff;"/>
                    <path d="M371.66,439.69c0,1.63-1.32,2.95-2.95,2.95s-2.95-1.32-2.95-2.95,1.32-2.95,2.95-2.95,2.95,1.32,2.95,2.95Z" style="fill: #fff;"/>
                    <path d="M409.05,439.69c0,1.63-1.32,2.95-2.95,2.95s-2.95-1.32-2.95-2.95,1.32-2.95,2.95-2.95,2.95,1.32,2.95,2.95Z" style="fill: #fff;"/>
                    <path d="M446.44,439.69c0,1.63-1.32,2.95-2.95,2.95s-2.95-1.32-2.95-2.95,1.32-2.95,2.95-2.95,2.95,1.32,2.95,2.95Z" style="fill: #fff;"/>
                  </g>
                  <g>
                    <path d="M240.8,455.73c0,1.63-1.32,2.95-2.95,2.95s-2.95-1.32-2.95-2.95,1.32-2.95,2.95-2.95,2.95,1.32,2.95,2.95Z" style="fill: #fff;"/>
                    <path d="M278.19,455.73c0,1.63-1.32,2.95-2.95,2.95s-2.95-1.32-2.95-2.95,1.32-2.95,2.95-2.95,2.95,1.32,2.95,2.95Z" style="fill: #fff;"/>
                    <path d="M315.58,455.73c0,1.63-1.32,2.95-2.95,2.95s-2.95-1.32-2.95-2.95,1.32-2.95,2.95-2.95,2.95,1.32,2.95,2.95Z" style="fill: #fff;"/>
                    <path d="M352.97,455.73c0,1.63-1.32,2.95-2.95,2.95s-2.95-1.32-2.95-2.95,1.32-2.95,2.95-2.95,2.95,1.32,2.95,2.95Z" style="fill: #fff;"/>
                    <circle cx="387.41" cy="455.73" r="2.95" style="fill: #fff;"/>
                    <path d="M427.74,455.73c0,1.63-1.32,2.95-2.95,2.95s-2.95-1.32-2.95-2.95,1.32-2.95,2.95-2.95,2.95,1.32,2.95,2.95Z" style="fill: #fff;"/>
                  </g>
                  <g>
                    <path d="M256.55,474.74c0,1.63-1.32,2.95-2.95,2.95s-2.95-1.32-2.95-2.95,1.32-2.95,2.95-2.95,2.95,1.32,2.95,2.95Z" style="fill: #fff;"/>
                    <path d="M293.93,474.74c0,1.63-1.32,2.95-2.95,2.95s-2.95-1.32-2.95-2.95,1.32-2.95,2.95-2.95,2.95,1.32,2.95,2.95Z" style="fill: #fff;"/>
                    <path d="M331.32,474.74c0,1.63-1.32,2.95-2.95,2.95s-2.95-1.32-2.95-2.95,1.32-2.95,2.95-2.95,2.95,1.32,2.95,2.95Z" style="fill: #fff;"/>
                    <path d="M368.71,474.74c0,1.63-1.32,2.95-2.95,2.95s-2.95-1.32-2.95-2.95,1.32-2.95,2.95-2.95,2.95,1.32,2.95,2.95Z" style="fill: #fff;"/>
                    <path d="M406.1,474.74c0,1.63-1.32,2.95-2.95,2.95s-2.95-1.32-2.95-2.95,1.32-2.95,2.95-2.95,2.95,1.32,2.95,2.95Z" style="fill: #fff;"/>
                    <path d="M443.49,474.74c0,1.63-1.32,2.95-2.95,2.95s-2.95-1.32-2.95-2.95,1.32-2.95,2.95-2.95,2.95,1.32,2.95,2.95Z" style="fill: #fff;"/>
                  </g>
                  <g>
                    <path d="M237.85,490.77c0,1.63-1.32,2.95-2.95,2.95s-2.95-1.32-2.95-2.95,1.32-2.95,2.95-2.95,2.95,1.32,2.95,2.95Z" style="fill: #fff;"/>
                    <path d="M275.24,490.77c0,1.63-1.32,2.95-2.95,2.95s-2.95-1.32-2.95-2.95,1.32-2.95,2.95-2.95,2.95,1.32,2.95,2.95Z" style="fill: #fff;"/>
                    <path d="M312.63,490.77c0,1.63-1.32,2.95-2.95,2.95s-2.95-1.32-2.95-2.95,1.32-2.95,2.95-2.95,2.95,1.32,2.95,2.95Z" style="fill: #fff;"/>
                    <path d="M350.02,490.77c0,1.63-1.32,2.95-2.95,2.95s-2.95-1.32-2.95-2.95,1.32-2.95,2.95-2.95,2.95,1.32,2.95,2.95Z" style="fill: #fff;"/>
                    <circle cx="384.46" cy="490.77" r="2.95" style="fill: #fff;"/>
                    <path d="M424.79,490.77c0,1.63-1.32,2.95-2.95,2.95s-2.95-1.32-2.95-2.95,1.32-2.95,2.95-2.95,2.95,1.32,2.95,2.95Z" style="fill: #fff;"/>
                  </g>
                  <g>
                    <path d="M253.6,509.78c0,1.63-1.32,2.95-2.95,2.95s-2.95-1.32-2.95-2.95,1.32-2.95,2.95-2.95,2.95,1.32,2.95,2.95Z" style="fill: #fff;"/>
                    <path d="M290.98,509.78c0,1.63-1.32,2.95-2.95,2.95s-2.95-1.32-2.95-2.95,1.32-2.95,2.95-2.95,2.95,1.32,2.95,2.95Z" style="fill: #fff;"/>
                    <path d="M328.37,509.78c0,1.63-1.32,2.95-2.95,2.95s-2.95-1.32-2.95-2.95,1.32-2.95,2.95-2.95,2.95,1.32,2.95,2.95Z" style="fill: #fff;"/>
                    <path d="M365.76,509.78c0,1.63-1.32,2.95-2.95,2.95s-2.95-1.32-2.95-2.95,1.32-2.95,2.95-2.95,2.95,1.32,2.95,2.95Z" style="fill: #fff;"/>
                    <path d="M403.15,509.78c0,1.63-1.32,2.95-2.95,2.95s-2.95-1.32-2.95-2.95,1.32-2.95,2.95-2.95,2.95,1.32,2.95,2.95Z" style="fill: #fff;"/>
                    <path d="M440.54,509.78c0,1.63-1.32,2.95-2.95,2.95s-2.95-1.32-2.95-2.95,1.32-2.95,2.95-2.95,2.95,1.32,2.95,2.95Z" style="fill: #fff;"/>
                  </g>
                </g>
              </g>
            </g>
          </g>
        </g>
        <g>
          <path d="M477.31,163.48c-17.76,3.96-63.36-4.44-63.56-4.52-1.99-1.35,52.99-10.9,63.34-2.28,2.25,1.89,1.78,4.16.22,6.79Z" style="fill: #f7c1d4;"/>
          <path d="M449.34,211.64c-19.42-1.01-44.78-24.58-43.7-24.52,2.25-9.33,5.02-18.89,8.1-28.16.21.07,45.8,8.47,63.56,4.52-3.81,5.81-11.99,14.94-12.88,22.99-2.33,11.3,2.27,26.17-15.09,25.18Z" style="fill: #ffccd6;"/>
          <path d="M411.49,165.97s33.91,7.09,32.79,9.84c-1.1,2.69-32.09-4.41-32.06-3.28.07,1.14,28.75,9.13,27.3,12.2-1.39,3.12-25.31-4.73-24.71-4.11.51.68,23.03,10.67,18.51,11.42-4.88.8-25.83-13.02-25.61-13.03,1.17-4.35,2.43-8.71,3.78-13.04Z" style="fill: #f7cddc;"/>
          <path d="M336.2,121.1c11.9,13.15,54.51,31.02,54.75,31.08,1.93-.36-39.63-39.18-50.73-36.71-2.65.77-3.79,2.54-4.03,5.63Z" style="fill: #f7c1d4;"/>
          <path d="M331.53,176.15c17.16,10.08,51.48,4.51,50.51,3.92,3.29-8.99,6.33-18.47,8.91-27.9-.25-.06-42.86-17.93-54.75-31.08-.27,7.02,1.07,19.12-2.87,26.21-4.68,10.6-17.19,19.97-1.8,28.85Z" style="fill: #ffccd6;"/>
          <path d="M388.93,159.25s-32.18-12.61-32.79-9.72c-.64,2.83,29.19,13.88,28.53,14.8-.7.92-29.09-8.12-29.64-4.8-.6,3.35,23.82,9.94,22.96,10.12-.79.3-25.25-3.77-21.91-.68,3.68,3.37,28.93,3.37,28.73,3.23,1.44-4.26,2.82-8.59,4.11-12.94Z" style="fill: #f7cddc;"/>
          <path d="M390.96,152.17c9.34-4.26,17.35-1.87,22.79,6.79-3.09,9.27-5.86,18.83-8.1,28.16-9.31,3.85-17.94,1.26-23.61-7.06,3.29-8.99,6.32-18.47,8.91-27.9Z" style="fill: #f7c1d4;"/>
        </g>
      </g>
    </g>
  </g>
</svg>