<?xml version="1.0" encoding="UTF-8"?>
<svg id="Capa_2" data-name="Capa 2" xmlns="http://www.w3.org/2000/svg" viewBox="0 0 168.76 91.47">
  <g id="OBJECTS">
    <g>
      <path d="M153.14,46.24c-1.67-.12-3.29,0-4.84.34-2.2-4.2-6.45-7.21-11.53-7.59-1.4-.1-2.76,0-4.06.29-.72-8.19-7.29-14.89-15.75-15.51-.62-.05-1.23-.06-1.83-.04-.19-12.36-9.79-22.74-22.35-23.67-11.17-.82-21.12,6.1-24.59,16.22-.62-.12-1.25-.2-1.89-.25-9.41-.69-17.59,6.37-18.29,15.78-.04.56-.05,1.12-.04,1.67-2.15-1.23-4.6-2.02-7.24-2.21-9.41-.69-17.59,6.37-18.29,15.78C10.92,46.21.91,54.85.06,66.36c-.85,11.51,7.79,21.52,19.3,22.37,4.2.31,8.2-.65,11.64-2.55,3.66,2.95,8.22,4.86,13.26,5.23,9.42.69,17.96-4.15,22.44-11.78,2.46,4.78,7.28,8.2,13.03,8.62,4.83.36,9.31-1.47,12.48-4.65,2.67,3.6,6.84,6.07,11.66,6.43,5.72.42,10.96-2.23,14.11-6.55,3.16,2.48,7.06,4.09,11.37,4.41,7.45.55,14.27-2.88,18.39-8.49.94.24,1.92.41,2.93.48,9.29.68,17.37-6.29,18.06-15.58.68-9.29-6.29-17.37-15.58-18.06Z" style="fill: #fff;"/>
      <g style="opacity: .36;">
        <g>
          <path d="M114.51,18.83c-.06-.26-.13-.52-.2-.78.01.26.04.51.05.78.05,0,.1,0,.15,0Z" style="fill: #fff2f5;"/>
          <path d="M168,58.07c0,.43,0,.87-.03,1.31-.68,9.29-8.77,16.26-18.06,15.58-1.01-.07-1.98-.24-2.93-.48-4.12,5.61-10.94,9.04-18.39,8.49-4.31-.32-8.21-1.92-11.37-4.41-3.14,4.32-8.38,6.97-14.11,6.55-4.83-.36-8.99-2.82-11.66-6.43-3.17,3.17-7.65,5-12.48,4.65-5.75-.42-10.57-3.84-13.03-8.62-4.48,7.63-13.03,12.47-22.44,11.78-5.04-.37-9.6-2.28-13.26-5.23-3.43,1.9-7.43,2.86-11.64,2.55-9.07-.67-16.33-7.04-18.6-15.34.29,10.59,8.56,19.45,19.35,20.25,4.2.31,8.2-.65,11.64-2.55,3.66,2.95,8.22,4.86,13.26,5.23,9.42.69,17.96-4.15,22.44-11.78,2.46,4.78,7.28,8.2,13.03,8.62,4.83.36,9.31-1.47,12.48-4.65,2.67,3.6,6.84,6.07,11.66,6.43,5.72.42,10.96-2.23,14.11-6.55,3.16,2.48,7.06,4.09,11.37,4.41,7.45.55,14.27-2.88,18.39-8.49.94.24,1.92.41,2.93.48,9.29.68,17.37-6.29,18.06-15.58.16-2.17-.11-4.26-.72-6.22Z" style="fill: #fff2f5;"/>
        </g>
        <path d="M27.4,52.91c-2.5.09-4.82.19-7.05.48-2.22.28-4.32.77-6.2,1.6-1.89.81-3.52,2.01-4.97,3.59-1.43,1.6-2.65,3.56-3.92,5.72-.29-2.49.2-5.08,1.43-7.44.64-1.16,1.48-2.25,2.48-3.18,1.01-.93,2.19-1.66,3.43-2.21,2.5-1.1,5.21-1.38,7.74-1.09,2.53.3,4.98,1.09,7.05,2.53Z" style="fill: #fff2f5;"/>
        <path d="M128.81,36.79c-2.09-1.37-4.05-2.62-6.04-3.67-1.98-1.05-3.97-1.87-5.98-2.27-2.01-.42-4.03-.38-6.13.07-2.09.49-4.21,1.38-6.5,2.42,1.2-2.2,3.09-4.03,5.46-5.25,1.2-.58,2.51-.98,3.86-1.16,1.36-.18,2.75-.09,4.08.17,2.67.54,5.05,1.88,6.96,3.57,1.89,1.71,3.44,3.76,4.3,6.14Z" style="fill: #fff2f5;"/>
        <path d="M53.2,66.12c-2.5-.02-4.82-.02-7.06.17-2.23.18-4.35.58-6.26,1.33-1.92.73-3.6,1.86-5.13,3.37-1.5,1.54-2.8,3.44-4.17,5.55-.18-2.5.42-5.07,1.76-7.37.7-1.13,1.58-2.18,2.62-3.07,1.05-.88,2.26-1.56,3.52-2.06,2.54-.99,5.27-1.15,7.78-.75,2.52.42,4.93,1.3,6.93,2.84Z" style="fill: #fff2f5;"/>
        <path d="M114.64,65.48c-2.5-.02-4.82-.02-7.06.17-2.23.18-4.35.58-6.26,1.33-1.92.73-3.6,1.86-5.13,3.37-1.5,1.54-2.8,3.44-4.17,5.55-.18-2.5.42-5.07,1.76-7.37.7-1.13,1.58-2.18,2.62-3.07,1.05-.88,2.26-1.56,3.52-2.06,2.54-.99,5.26-1.15,7.78-.75,2.52.42,4.93,1.3,6.93,2.84Z" style="fill: #fff2f5;"/>
        <path d="M75.04,21.55c-2.5.03-4.82.08-7.06.31-2.23.23-4.34.66-6.23,1.45-1.91.77-3.56,1.93-5.06,3.47-1.47,1.57-2.73,3.49-4.05,5.63-.23-2.5.32-5.07,1.61-7.4.67-1.15,1.54-2.21,2.56-3.12,1.03-.9,2.23-1.61,3.48-2.13,2.52-1.04,5.24-1.26,7.77-.91,2.53.36,4.95,1.2,6.99,2.7Z" style="fill: #fff2f5;"/>
      </g>
    </g>
  </g>
</svg>