<?xml version="1.0" encoding="UTF-8"?>
<svg id="Capa_2" data-name="Capa 2" xmlns="http://www.w3.org/2000/svg" viewBox="0 0 181.04 98.13">
  <g id="OBJECTS">
    <g>
      <path d="M164.28,49.6c-1.79-.13-3.53,0-5.19.37-2.36-4.51-6.92-7.74-12.37-8.14-1.5-.11-2.96,0-4.36.31-.78-8.79-7.82-15.97-16.9-16.64-.66-.05-1.32-.06-1.97-.04-.2-13.26-10.5-24.4-23.97-25.39-11.98-.88-22.66,6.54-26.38,17.4-.66-.12-1.34-.22-2.03-.27-10.09-.74-18.87,6.83-19.62,16.93-.04.6-.06,1.2-.04,1.8-2.31-1.32-4.94-2.16-7.76-2.37-10.09-.74-18.87,6.83-19.62,16.93C11.72,49.57.97,58.84.06,71.19c-.91,12.34,8.36,23.09,20.7,24,4.51.33,8.8-.7,12.48-2.74,3.93,3.16,8.82,5.21,14.23,5.61,10.1.74,19.27-4.46,24.08-12.64,2.64,5.12,7.81,8.79,13.98,9.25,5.18.38,9.98-1.58,13.38-4.99,2.87,3.87,7.33,6.51,12.51,6.89,6.14.45,11.76-2.39,15.13-7.03,3.39,2.67,7.58,4.39,12.2,4.73,7.99.59,15.31-3.09,19.73-9.11,1.01.26,2.06.43,3.14.51,9.96.73,18.63-6.75,19.37-16.71.73-9.96-6.75-18.63-16.71-19.37Z" style="fill: #fff;"/>
      <g style="opacity: .36;">
        <g>
          <path d="M122.85,20.2c-.06-.28-.14-.56-.21-.84.01.28.05.55.05.83.05,0,.11,0,.16,0Z" style="fill: #fff2f5;"/>
          <path d="M180.22,62.3c0,.46,0,.93-.03,1.4-.73,9.96-9.41,17.44-19.37,16.71-1.08-.08-2.13-.26-3.14-.51-4.42,6.02-11.73,9.7-19.73,9.11-4.62-.34-8.81-2.06-12.2-4.73-3.37,4.64-8.99,7.48-15.13,7.03-5.18-.38-9.64-3.03-12.51-6.89-3.4,3.4-8.21,5.37-13.38,4.99-6.17-.45-11.34-4.12-13.98-9.25-4.81,8.18-13.97,13.38-24.08,12.64-5.41-.4-10.3-2.45-14.23-5.61-3.68,2.04-7.97,3.07-12.48,2.74C10.24,89.2,2.44,82.36,0,73.46c.31,11.36,9.18,20.87,20.76,21.72,4.51.33,8.8-.7,12.48-2.74,3.93,3.16,8.82,5.21,14.23,5.61,10.1.74,19.27-4.46,24.08-12.64,2.64,5.12,7.81,8.79,13.98,9.25,5.18.38,9.98-1.58,13.39-4.99,2.87,3.87,7.33,6.51,12.51,6.89,6.14.45,11.76-2.39,15.13-7.03,3.39,2.67,7.58,4.39,12.2,4.73,7.99.59,15.31-3.09,19.73-9.11,1.01.26,2.06.43,3.14.51,9.96.73,18.63-6.75,19.37-16.71.17-2.32-.12-4.57-.77-6.67Z" style="fill: #fff2f5;"/>
        </g>
        <path d="M29.39,56.76c-2.68.09-5.17.21-7.56.51-2.39.3-4.64.82-6.65,1.72-2.02.87-3.77,2.16-5.33,3.85-1.53,1.72-2.84,3.82-4.2,6.14-.31-2.67.22-5.45,1.54-7.98.69-1.25,1.59-2.41,2.67-3.41,1.08-.99,2.35-1.78,3.68-2.37,2.68-1.18,5.59-1.48,8.31-1.17,2.72.33,5.34,1.16,7.57,2.72Z" style="fill: #fff2f5;"/>
        <path d="M138.18,39.47c-2.24-1.47-4.34-2.81-6.48-3.94-2.12-1.13-4.26-2-6.42-2.43-2.16-.45-4.33-.41-6.58.07-2.25.52-4.52,1.48-6.98,2.59,1.29-2.36,3.32-4.33,5.86-5.64,1.28-.62,2.69-1.05,4.14-1.25,1.46-.19,2.95-.1,4.37.18,2.87.58,5.42,2.01,7.46,3.83,2.03,1.83,3.69,4.03,4.61,6.58Z" style="fill: #fff2f5;"/>
        <path d="M57.07,70.93c-2.68-.02-5.18-.02-7.58.18-2.4.2-4.67.62-6.72,1.42-2.06.78-3.86,1.99-5.5,3.61-1.61,1.65-3,3.69-4.47,5.95-.19-2.68.45-5.43,1.88-7.91.75-1.22,1.7-2.34,2.81-3.29,1.13-.95,2.42-1.68,3.78-2.21,2.73-1.06,5.65-1.23,8.35-.81,2.7.45,5.29,1.4,7.44,3.05Z" style="fill: #fff2f5;"/>
        <path d="M122.98,70.24c-2.68-.02-5.18-.02-7.58.18-2.4.2-4.67.62-6.72,1.42-2.06.78-3.86,1.99-5.5,3.61-1.61,1.65-3,3.69-4.47,5.95-.19-2.68.45-5.43,1.88-7.91.75-1.22,1.7-2.34,2.81-3.29,1.13-.95,2.42-1.68,3.78-2.21,2.73-1.06,5.65-1.23,8.35-.81,2.7.45,5.29,1.4,7.44,3.05Z" style="fill: #fff2f5;"/>
        <path d="M80.5,23.12c-2.68.03-5.17.08-7.57.33-2.39.24-4.66.71-6.69,1.56-2.04.82-3.82,2.07-5.42,3.72-1.57,1.68-2.93,3.75-4.35,6.04-.25-2.68.34-5.44,1.72-7.94.72-1.23,1.65-2.37,2.75-3.35,1.11-.97,2.39-1.72,3.73-2.29,2.7-1.12,5.62-1.35,8.33-.98,2.71.39,5.31,1.29,7.5,2.9Z" style="fill: #fff2f5;"/>
      </g>
    </g>
  </g>
</svg>